<svg width="842" height="118" viewBox="0 0 842 118" fill="none" xmlns="http://www.w3.org/2000/svg">
<path d="M676.667 2.16797H743.039V17.3455H693.103V50.0598H736.119V65.0015H693.103V99.7605H744.691V114.938H676.667V2.16797Z" fill="#FA4616"/>
<path d="M542.539 2.16797H570.928L598.295 99.2886H599.396L626.841 2.16797H655.152V114.938H639.345V17.8174H638.087L610.72 114.938H587.207L559.683 17.8174H558.503V114.938H542.539V2.16797Z" fill="#FA4616"/>
<path d="M470.143 117.061C459.291 117.061 449.435 114.518 440.575 109.433C431.767 104.348 424.847 97.3485 419.814 88.436C414.833 79.471 412.343 69.5099 412.343 58.5527C412.343 50.3741 413.811 42.6674 416.747 35.4325C419.735 28.1976 423.798 22.0112 428.936 16.8734C434.074 11.6832 440.234 7.59387 447.416 4.60554C454.599 1.61721 462.253 0.123047 470.379 0.123047C481.232 0.123047 491.062 2.69196 499.869 7.82979C508.729 12.9676 515.65 20.019 520.63 28.984C525.663 37.8966 528.18 47.7528 528.18 58.5527C528.18 66.6789 526.686 74.3594 523.697 81.5943C520.761 88.8292 516.725 95.0418 511.587 100.232C506.449 105.422 500.289 109.538 493.106 112.579C485.924 115.567 478.269 117.061 470.143 117.061ZM470.379 101.412C482.018 101.412 491.743 97.3485 499.555 89.2224C507.366 81.0962 511.272 70.873 511.272 58.5527C511.272 50.5314 509.49 43.2441 505.925 36.6907C502.36 30.1374 497.458 24.9996 491.219 21.2773C484.98 17.555 478.034 15.6938 470.379 15.6938C458.688 15.6938 448.937 19.7831 441.125 27.9617C433.313 36.1403 429.408 46.3373 429.408 58.5527C429.408 70.873 433.313 81.0962 441.125 89.2224C448.937 97.3485 458.688 101.412 470.379 101.412Z" fill="#FA4616"/>
<path d="M365.189 117.061C353.603 117.061 343.851 113.601 335.935 106.681C328.071 99.7078 324.139 90.8214 324.139 80.0215H340.574C340.574 86.3127 342.881 91.4767 347.495 95.5136C352.108 99.5505 358.216 101.569 365.818 101.569C372.581 101.569 378.06 100.049 382.254 97.0078C386.448 93.967 388.545 89.9039 388.545 84.8185C388.545 81.4632 387.837 78.606 386.422 76.2468C385.059 73.8351 383.197 71.9478 380.838 70.5847C378.531 69.2216 375.858 68.042 372.817 67.0459C369.776 66.0498 366.578 65.1585 363.223 64.3721C359.868 63.5857 356.512 62.7469 353.157 61.8556C349.802 60.9643 346.604 59.7585 343.563 58.2382C340.522 56.6654 337.822 54.8042 335.463 52.6547C333.156 50.4528 331.295 47.5431 329.879 43.9256C328.516 40.2558 327.835 36.0092 327.835 31.1859C327.835 26.9918 328.674 23.0336 330.351 19.3113C332.029 15.589 334.414 12.3123 337.508 9.48123C340.601 6.59776 344.506 4.31719 349.225 2.63953C353.943 0.961876 359.16 0.123047 364.874 0.123047C368.544 0.123047 372.135 0.516248 375.648 1.30265C379.213 2.08905 382.647 3.37351 385.95 5.15602C389.253 6.8861 392.136 9.06182 394.6 11.6832C397.117 14.2521 399.109 17.4763 400.577 21.3559C402.097 25.2355 402.858 29.5345 402.858 34.2529H386.343C386.343 28.3811 384.429 23.7151 380.602 20.2549C376.775 16.7948 371.48 15.0647 364.717 15.0647C358.006 15.0647 352.921 16.6375 349.461 19.7831C346.001 22.8763 344.271 26.6772 344.271 31.1859C344.271 33.8597 344.821 36.2189 345.922 38.2635C347.075 40.2558 348.622 41.8548 350.562 43.0606C352.554 44.214 354.835 45.3149 357.403 46.3635C360.025 47.3596 362.777 48.1722 365.661 48.8013C368.597 49.4305 371.611 50.2169 374.704 51.1605C377.798 52.0518 380.786 52.9955 383.669 53.9916C386.605 54.9353 389.358 56.2721 391.927 58.0022C394.548 59.7323 396.828 61.7245 398.768 63.9789C400.76 66.1808 402.307 69.0381 403.408 72.5507C404.561 76.0108 405.138 79.9428 405.138 84.3467C405.138 93.6787 401.547 101.464 394.364 107.703C387.182 113.942 377.457 117.061 365.189 117.061Z" fill="#FA4616"/>
<path d="M249.777 2.16797H316.15V17.3455H266.213V50.0598H309.229V65.0015H266.213V99.7605H317.801V114.938H249.777V2.16797Z" fill="#FA4616"/>
<path d="M96.2237 2.16797H113.76L134.207 99.2886H135.544L155.44 2.16797H180.919L201.051 99.2886H202.152L222.598 2.16797H240.214L214.42 114.938H188.626L168.809 17.8174H167.55L147.89 114.938H121.939L96.2237 2.16797Z" fill="#FA4616"/>
<path d="M40.7356 2.16797H63.7772L104.041 114.938H86.8188L77.7752 89.4586H25.8726L16.9076 114.938H0L40.7356 2.16797ZM72.4276 74.517L52.453 17.8174H51.1948L31.2202 74.517H72.4276Z" fill="#FA4616"/>
<path d="M841.793 56.5145V60.7856L807.394 95.1847L803.469 91.1445L832.789 61.9976V61.4782H773.386V55.7065H832.789V55.2448L803.469 26.0402L807.394 22L841.793 56.5145Z" fill="#FA4616"/>
</svg>
