<svg width="18" height="19" viewBox="0 0 18 19" fill="none" xmlns="http://www.w3.org/2000/svg">
<path d="M8.58151 11.48L8.1262 11.2277L3.69953 16.5498L2.05534 14.9103L7.39264 10.5215L7.13968 10.0927L0.284668 10.6728V8.40277L7.13968 8.95768L7.34205 8.50367L2.05534 4.11488L3.69953 2.45017L8.1262 7.7722L8.58151 7.51997L7.99972 0.68457H10.1751L9.61862 7.51997L10.0739 7.7722L14.4753 2.45017L16.1448 4.11488L10.8581 8.50367L11.111 8.95768L17.9155 8.40277V10.6728L11.0604 10.0927L10.8581 10.5215L16.1448 14.9103L14.4753 16.5498L10.0739 11.2277L9.61862 11.48L10.1751 18.3154H7.99972L8.58151 11.48Z" fill="#FA4616"/>
</svg>
