<svg width="343" height="243" viewBox="0 0 343 243" fill="none" xmlns="http://www.w3.org/2000/svg">
<path d="M216.299 1.85352H246.797V8.82108H223.851V23.8392H243.617V30.6985H223.851V46.6553H247.555V53.6229H216.299V1.85352Z" fill="#FCFCFC"/>
<path d="M188.817 8.82108H174.074V1.85352H211.003V8.82108H196.297V53.6229H188.817V8.82108Z" fill="#FCFCFC"/>
<path d="M149.806 1.85352H160.393L178.894 53.6229H170.98L166.825 41.926H142.976L138.857 53.6229H131.088L149.806 1.85352ZM164.368 35.0668L155.19 9.03769H154.611L145.433 35.0668H164.368Z" fill="#FCFCFC"/>
<path d="M98.8346 1.85352H129.332V8.82108H106.387V23.8392H126.152V30.6985H106.387V46.6553H130.091V53.6229H98.8346V1.85352Z" fill="#FCFCFC"/>
<path d="M57.0775 1.85352H73.9523C79.2519 1.85352 83.4676 3.2735 86.5993 6.11348C89.7309 8.92938 91.2967 12.6599 91.2967 17.3049C91.2967 21.1316 90.297 24.4048 88.2976 27.1245C86.2981 29.82 83.4435 31.6251 79.7337 32.5397L93.1396 53.6229H84.106L72.0371 33.37H64.6296V53.6229H57.0775V1.85352ZM73.9523 26.619C76.7948 26.619 79.0954 25.8128 80.8539 24.2003C82.6365 22.5877 83.5278 20.3133 83.5278 17.3771C83.5278 14.85 82.6727 12.7802 80.9623 11.1677C79.2519 9.55514 76.7948 8.74887 73.5909 8.74887H64.6296V26.619H73.9523Z" fill="#FCFCFC"/>
<path d="M26.4142 54.67C22.6562 54.67 19.1271 53.984 15.8268 52.6122C12.5506 51.2163 9.75625 49.327 7.44366 46.9443C5.13107 44.5616 3.31231 41.7096 1.98739 38.3882C0.662462 35.0669 0 31.517 0 27.7383C0 24.0079 0.662462 20.494 1.98739 17.1968C3.3364 13.8754 5.1672 11.0234 7.4798 8.64073C9.79239 6.25804 12.5868 4.38077 15.8629 3.00892C19.1391 1.613 22.6562 0.915039 26.4142 0.915039C32.2197 0.915039 37.3026 2.5035 41.6628 5.68042C46.023 8.83327 49.0583 13.0571 50.7687 18.352H42.6384C41.3376 15.1991 39.2298 12.6961 36.3149 10.8429C33.4001 8.98971 30.0999 8.06311 26.4142 8.06311C21.0422 8.06311 16.5977 9.94038 13.0806 13.6949C9.58763 17.4254 7.84114 22.1065 7.84114 27.7383C7.84114 31.4929 8.62405 34.8744 10.1899 37.8828C11.7798 40.8913 13.996 43.2499 16.8386 44.9587C19.6811 46.6434 22.873 47.4858 26.4142 47.4858C30.0999 47.4858 33.4122 46.5592 36.3511 44.706C39.29 42.8528 41.3858 40.3257 42.6384 37.1247H50.7687C49.1065 42.4918 46.0832 46.7638 41.699 49.9407C37.3147 53.0935 32.2197 54.67 26.4142 54.67Z" fill="#FCFCFC"/>
<path d="M323.658 180.072C318.334 180.072 313.853 178.484 310.216 175.307C306.602 172.106 304.796 168.027 304.796 163.069H312.348C312.348 165.957 313.408 168.327 315.528 170.181C317.647 172.034 320.454 172.96 323.947 172.96C327.054 172.96 329.572 172.262 331.499 170.867C333.426 169.471 334.39 167.605 334.39 165.271C334.39 163.73 334.064 162.419 333.414 161.336C332.788 160.229 331.933 159.362 330.848 158.736C329.789 158.111 328.56 157.569 327.163 157.112C325.766 156.655 324.296 156.245 322.754 155.884C321.213 155.523 319.671 155.138 318.129 154.729C316.587 154.32 315.118 153.767 313.721 153.069C312.324 152.347 311.083 151.492 309.999 150.505C308.939 149.495 308.084 148.159 307.433 146.498C306.807 144.813 306.494 142.864 306.494 140.65C306.494 138.724 306.879 136.907 307.65 135.198C308.421 133.49 309.517 131.985 310.938 130.686C312.36 129.362 314.154 128.315 316.323 127.545C318.491 126.775 320.887 126.39 323.513 126.39C325.199 126.39 326.85 126.57 328.464 126.931C330.102 127.292 331.68 127.882 333.197 128.7C334.715 129.494 336.04 130.493 337.172 131.697C338.328 132.876 339.244 134.356 339.918 136.137C340.617 137.918 340.966 139.892 340.966 142.058H333.378C333.378 139.362 332.499 137.22 330.74 135.632C328.982 134.043 326.549 133.249 323.441 133.249C320.357 133.249 318.021 133.971 316.431 135.415C314.841 136.835 314.046 138.58 314.046 140.65C314.046 141.877 314.299 142.96 314.805 143.899C315.335 144.813 316.045 145.547 316.937 146.101C317.852 146.63 318.9 147.136 320.08 147.617C321.285 148.075 322.55 148.448 323.875 148.736C325.224 149.025 326.609 149.386 328.03 149.819C329.451 150.229 330.824 150.662 332.149 151.119C333.498 151.552 334.763 152.166 335.943 152.96C337.148 153.754 338.196 154.669 339.087 155.704C340.003 156.715 340.713 158.026 341.219 159.639C341.749 161.227 342.014 163.033 342.014 165.054C342.014 169.338 340.364 172.912 337.064 175.776C333.763 178.64 329.295 180.072 323.658 180.072Z" fill="#FCFCFC"/>
<path d="M271.421 127.328H301.919V134.296H278.973V150.108H300.365V157.003H278.973V179.097H271.421V127.328Z" fill="#FCFCFC"/>
<path d="M234.364 127.328H264.861V134.296H241.916V150.108H263.307V157.003H241.916V179.097H234.364V127.328Z" fill="#FCFCFC"/>
<path d="M205.289 180.072C199.074 180.072 194.244 178.279 190.799 174.693C187.379 171.107 185.668 166.294 185.668 160.253V127.328H193.148V160.18C193.148 164.127 194.196 167.244 196.292 169.531C198.388 171.817 201.387 172.96 205.289 172.96C209.216 172.96 212.227 171.817 214.323 169.531C216.443 167.244 217.503 164.103 217.503 160.108V127.328H224.983V160.18C224.983 166.173 223.236 170.987 219.743 174.621C216.25 178.255 211.432 180.072 205.289 180.072Z" fill="#FCFCFC"/>
<path d="M158.69 134.296H143.948V127.328H180.877V134.296H166.17V179.097H158.69V134.296Z" fill="#FCFCFC"/>
<path d="M123.547 180.072C118.223 180.072 113.742 178.484 110.105 175.307C106.491 172.106 104.685 168.027 104.685 163.069H112.237C112.237 165.957 113.297 168.327 115.416 170.181C117.536 172.034 120.343 172.96 123.836 172.96C126.943 172.96 129.461 172.262 131.388 170.867C133.315 169.471 134.278 167.605 134.278 165.271C134.278 163.73 133.953 162.419 133.303 161.336C132.677 160.229 131.821 159.362 130.737 158.736C129.677 158.111 128.449 157.569 127.052 157.112C125.654 156.655 124.185 156.245 122.643 155.884C121.102 155.523 119.56 155.138 118.018 154.729C116.476 154.32 115.007 153.767 113.61 153.069C112.212 152.347 110.972 151.492 109.888 150.505C108.828 149.495 107.973 148.159 107.322 146.498C106.696 144.813 106.383 142.864 106.383 140.65C106.383 138.724 106.768 136.907 107.539 135.198C108.31 133.49 109.406 131.985 110.827 130.686C112.249 129.362 114.043 128.315 116.211 127.545C118.379 126.775 120.776 126.39 123.402 126.39C125.088 126.39 126.738 126.57 128.352 126.931C129.991 127.292 131.568 127.882 133.086 128.7C134.604 129.494 135.929 130.493 137.061 131.697C138.217 132.876 139.133 134.356 139.807 136.137C140.506 137.918 140.855 139.892 140.855 142.058H133.267C133.267 139.362 132.387 137.22 130.629 135.632C128.87 134.043 126.437 133.249 123.33 133.249C120.246 133.249 117.91 133.971 116.32 135.415C114.73 136.835 113.935 138.58 113.935 140.65C113.935 141.877 114.188 142.96 114.694 143.899C115.224 144.813 115.934 145.547 116.826 146.101C117.741 146.63 118.789 147.136 119.969 147.617C121.174 148.075 122.438 148.448 123.763 148.736C125.112 149.025 126.498 149.386 127.919 149.819C129.34 150.229 130.713 150.662 132.038 151.119C133.387 151.552 134.652 152.166 135.832 152.96C137.037 153.754 138.085 154.669 138.976 155.704C139.891 156.715 140.602 158.026 141.108 159.639C141.638 161.227 141.903 163.033 141.903 165.054C141.903 169.338 140.253 172.912 136.952 175.776C133.652 178.64 129.184 180.072 123.547 180.072Z" fill="#FCFCFC"/>
<path d="M310.92 64.3672H341.417V71.3347H318.472V86.3529H338.237V93.2122H318.472V109.169H342.176V116.137H310.92V64.3672Z" fill="#FCFCFC"/>
<path d="M249.29 64.3672H262.335L274.909 108.952H275.415L288.026 64.3672H301.034V116.137H293.771V71.5514H293.193L280.619 116.137H269.814L257.167 71.5514H256.625V116.137H249.29V64.3672Z" fill="#FCFCFC"/>
<path d="M216.025 117.111C211.038 117.111 206.51 115.944 202.439 113.61C198.391 111.275 195.212 108.062 192.899 103.971C190.611 99.855 189.466 95.2821 189.466 90.252C189.466 86.4975 190.141 82.9595 191.49 79.6382C192.863 76.3169 194.73 73.4769 197.091 71.1183C199.451 68.7356 202.282 66.8583 205.582 65.4865C208.882 64.1146 212.4 63.4287 216.133 63.4287C221.12 63.4287 225.637 64.608 229.684 66.9666C233.755 69.3253 236.935 72.5624 239.223 76.6779C241.536 80.7694 242.692 85.2941 242.692 90.252C242.692 93.9825 242.006 97.5084 240.632 100.83C239.283 104.151 237.429 107.003 235.068 109.386C232.707 111.768 229.876 113.658 226.576 115.054C223.276 116.426 219.759 117.111 216.025 117.111ZM216.133 109.927C221.481 109.927 225.95 108.062 229.539 104.332C233.129 100.601 234.923 95.9079 234.923 90.252C234.923 86.5697 234.104 83.2243 232.466 80.2158C230.828 77.2074 228.576 74.8488 225.709 73.14C222.842 71.4312 219.65 70.5768 216.133 70.5768C210.761 70.5768 206.281 72.4541 202.691 76.2086C199.102 79.9631 197.307 84.6443 197.307 90.252C197.307 95.9079 199.102 100.601 202.691 104.332C206.281 108.062 210.761 109.927 216.133 109.927Z" fill="#FCFCFC"/>
<path d="M167.8 117.111C162.477 117.111 157.996 115.523 154.358 112.346C150.745 109.145 148.938 105.066 148.938 100.108H156.49C156.49 102.996 157.55 105.366 159.67 107.22C161.79 109.073 164.596 109.999 168.089 109.999C171.197 109.999 173.714 109.302 175.642 107.906C177.569 106.51 178.532 104.644 178.532 102.31C178.532 100.77 178.207 99.4579 177.557 98.3748C176.93 97.2677 176.075 96.4013 174.991 95.7755C173.931 95.1498 172.703 94.6082 171.305 94.151C169.908 93.6937 168.439 93.2845 166.897 92.9235C165.355 92.5625 163.814 92.1774 162.272 91.7683C160.73 91.3591 159.261 90.8056 157.863 90.1076C156.466 89.3856 155.226 88.5312 154.142 87.5444C153.082 86.5336 152.226 85.1978 151.576 83.5372C150.95 81.8524 150.637 79.903 150.637 77.6887C150.637 75.7633 151.022 73.9462 151.793 72.2374C152.564 70.5286 153.66 69.0244 155.081 67.7248C156.502 66.4011 158.297 65.3541 160.465 64.584C162.633 63.8138 165.03 63.4287 167.656 63.4287C169.342 63.4287 170.992 63.6092 172.606 63.9702C174.244 64.3312 175.822 64.9209 177.34 65.7392C178.857 66.5334 180.182 67.5322 181.315 68.7356C182.471 69.9149 183.386 71.3951 184.061 73.1761C184.759 74.9571 185.109 76.9306 185.109 79.0967H177.52C177.52 76.4011 176.641 74.2591 174.883 72.6707C173.124 71.0822 170.691 70.288 167.584 70.288C164.5 70.288 162.163 71.01 160.574 72.4541C158.984 73.874 158.189 75.6189 158.189 77.6887C158.189 78.9162 158.442 79.9992 158.947 80.9379C159.477 81.8524 160.188 82.5865 161.079 83.1401C161.995 83.6695 163.043 84.175 164.223 84.6563C165.428 85.1136 166.692 85.4866 168.017 85.7754C169.366 86.0643 170.751 86.4253 172.173 86.8585C173.594 87.2676 174.967 87.7009 176.292 88.1581C177.641 88.5914 178.906 89.2051 180.086 89.9993C181.291 90.7935 182.338 91.7081 183.23 92.743C184.145 93.7539 184.856 95.0655 185.362 96.6781C185.892 98.2665 186.157 100.072 186.157 102.093C186.157 106.377 184.506 109.951 181.206 112.815C177.906 115.679 173.437 117.111 167.8 117.111Z" fill="#FCFCFC"/>
<path d="M114.77 64.3672H145.267V71.3347H122.322V86.3529H142.088V93.2122H122.322V109.169H146.026V116.137H114.77V64.3672Z" fill="#FCFCFC"/>
<path d="M44.2128 64.3672H52.2707L61.6656 108.952H62.2799L71.4219 64.3672H83.1294L92.3798 108.952H92.8856L102.281 64.3672H110.375L98.5226 116.137H86.6705L77.5647 71.5514H76.9866L67.953 116.137H56.0287L44.2128 64.3672Z" fill="#FCFCFC"/>
<path d="M18.7176 64.3672H29.3049L47.8056 116.137H39.8922L35.7368 104.44H11.8882L7.76887 116.137H0L18.7176 64.3672ZM33.2797 97.5804L24.1016 71.5514H23.5234L14.3453 97.5804H33.2797Z" fill="#FCFCFC"/>
<path d="M306.939 189.395H323.813C329.113 189.395 333.328 190.814 336.46 193.654C339.591 196.47 341.157 200.2 341.157 204.845C341.157 208.672 340.158 211.945 338.158 214.664C336.159 217.36 333.304 219.165 329.595 220.079L343 241.162H333.967L321.898 220.91H314.491V241.162H306.939V189.395ZM323.813 214.159C326.656 214.159 328.956 213.353 330.715 211.74C332.497 210.128 333.389 207.854 333.389 204.918C333.389 202.391 332.534 200.321 330.823 198.708C329.113 197.096 326.656 196.29 323.452 196.29H314.491V214.159H323.813Z" fill="#FCFCFC"/>
<path d="M269.086 189.395H299.582V196.362H276.637V211.379H296.402V218.238H276.637V234.195H300.341V241.162H269.086V189.395Z" fill="#FCFCFC"/>
<path d="M223.349 189.395H230.901V211.379H256.086V189.395H263.529V241.162H256.086V218.311H230.901V241.162H223.349V189.395Z" fill="#FCFCFC"/>
<path d="M195.867 196.362H181.125V189.395H218.053V196.362H203.347V241.162H195.867V196.362Z" fill="#FCFCFC"/>
<path d="M147.86 189.395H178.357V196.362H155.412V211.379H175.177V218.238H155.412V234.195H179.115V241.162H147.86V189.395Z" fill="#FCFCFC"/>
<path d="M117.555 242.209C112.544 242.185 108.016 241.006 103.969 238.671C99.9218 236.313 96.7541 233.088 94.4657 228.996C92.2014 224.881 91.0692 220.308 91.0692 215.278C91.0692 211.548 91.7316 208.034 93.0565 204.737C94.4055 201.416 96.2362 198.564 98.5487 196.181C100.861 193.799 103.655 191.922 106.932 190.55C110.208 189.154 113.725 188.456 117.482 188.456C123.288 188.456 128.382 190.044 132.767 193.221C137.151 196.374 140.198 200.598 141.908 205.892H133.706C132.405 202.74 130.297 200.237 127.383 198.384C124.468 196.53 121.168 195.604 117.482 195.604C112.111 195.604 107.666 197.481 104.149 201.235C100.656 204.966 98.91 209.647 98.91 215.278C98.91 220.958 100.681 225.675 104.222 229.429C107.763 233.16 112.231 235.025 117.627 235.025C119.554 235.025 121.397 234.796 123.155 234.339C124.914 233.858 126.564 233.148 128.105 232.209C129.671 231.247 131.032 229.959 132.188 228.346C133.369 226.71 134.248 224.821 134.826 222.679H119.65V216.181H143.462C143.125 219.863 142.378 223.196 141.222 226.18C140.065 229.165 138.644 231.644 136.958 233.617C135.296 235.566 133.381 237.203 131.213 238.527C129.069 239.85 126.865 240.789 124.601 241.342C122.336 241.92 119.988 242.209 117.555 242.209Z" fill="#FCFCFC"/>
<path d="M14.7422 196.362H0V189.395H36.9278V196.362H22.2217V241.162H14.7422V196.362Z" fill="#FCFCFC"/>
<path d="M60.2959 220.86L58.9424 220.111L45.7831 235.918L40.8953 231.049L56.7617 218.014L56.0097 216.74L35.6316 218.463V211.721L56.0097 213.369L56.6113 212.021L40.8953 198.986L45.7831 194.042L58.9424 209.848L60.2959 209.099L58.5664 188.798H65.0332L63.3789 209.099L64.7325 209.848L77.8166 194.042L82.7795 198.986L67.0635 212.021L67.8155 213.369L88.0432 211.721V218.463L67.6651 216.74L67.0635 218.014L82.7795 231.049L77.8166 235.918L64.7325 220.111L63.3789 220.86L65.0332 241.162H58.5664L60.2959 220.86Z" fill="#FCFCFC"/>
</svg>
