<svg width="720" height="372" viewBox="0 0 720 372" fill="none" xmlns="http://www.w3.org/2000/svg">
<path d="M529.577 240.618C518.785 240.618 509.702 237.396 502.329 230.95C495.004 224.455 491.342 216.178 491.342 206.119H506.65C506.65 211.978 508.799 216.788 513.096 220.548C517.394 224.309 523.082 226.189 530.163 226.189C536.463 226.189 541.565 224.772 545.472 221.94C549.379 219.108 551.332 215.323 551.332 210.587C551.332 207.461 550.673 204.8 549.354 202.603C548.085 200.356 546.351 198.598 544.154 197.329C542.005 196.059 539.515 194.96 536.682 194.033C533.85 193.105 530.871 192.275 527.746 191.542C524.621 190.81 521.495 190.028 518.37 189.198C515.245 188.368 512.266 187.245 509.434 185.829C506.602 184.364 504.087 182.63 501.889 180.628C499.741 178.577 498.007 175.867 496.689 172.498C495.419 169.079 494.784 165.124 494.784 160.631C494.784 156.725 495.566 153.038 497.128 149.571C498.691 146.104 500.913 143.052 503.794 140.415C506.675 137.729 510.313 135.605 514.708 134.042C519.103 132.48 523.961 131.698 529.284 131.698C532.702 131.698 536.047 132.064 539.319 132.797C542.64 133.529 545.838 134.726 548.915 136.386C551.991 137.998 554.677 140.024 556.972 142.466C559.316 144.859 561.172 147.862 562.539 151.475C563.955 155.089 564.663 159.093 564.663 163.488H549.281C549.281 158.019 547.499 153.673 543.934 150.45C540.369 147.227 535.437 145.615 529.138 145.615C522.887 145.615 518.15 147.08 514.928 150.01C511.705 152.891 510.093 156.432 510.093 160.631C510.093 163.122 510.606 165.319 511.631 167.224C512.706 169.079 514.146 170.569 515.953 171.692C517.809 172.766 519.933 173.792 522.326 174.768C524.767 175.696 527.331 176.453 530.017 177.039C532.751 177.625 535.559 178.357 538.44 179.236C541.321 180.067 544.105 180.946 546.791 181.873C549.525 182.752 552.089 183.998 554.482 185.609C556.923 187.22 559.047 189.076 560.854 191.176C562.71 193.227 564.15 195.888 565.176 199.16C566.25 202.383 566.787 206.045 566.787 210.147C566.787 218.839 563.442 226.091 556.752 231.902C550.062 237.713 541.004 240.618 529.577 240.618Z" fill="#FA4616"/>
<path d="M423.69 133.603H485.511V147.739H438.998V179.822H482.361V193.813H438.998V238.641H423.69V133.603Z" fill="#FA4616"/>
<path d="M348.566 133.603H410.388V147.739H363.875V179.822H407.238V193.813H363.875V238.641H348.566V133.603Z" fill="#FA4616"/>
<path d="M289.631 240.618C277.032 240.618 267.241 236.98 260.258 229.704C253.324 222.428 249.857 212.662 249.857 200.405V133.603H265.019V200.258C265.019 208.267 267.143 214.591 271.392 219.23C275.64 223.869 281.72 226.188 289.631 226.188C297.59 226.188 303.694 223.869 307.943 219.23C312.24 214.591 314.389 208.218 314.389 200.112V133.603H329.551V200.258C329.551 212.418 326.011 222.184 318.93 229.558C311.849 236.931 302.083 240.618 289.631 240.618Z" fill="#FA4616"/>
<path d="M195.17 147.739H165.284V133.603H240.144V147.739H210.332V238.641H195.17V147.739Z" fill="#FA4616"/>
<path d="M123.928 240.618C113.136 240.618 104.053 237.396 96.6794 230.95C89.3545 224.455 85.6921 216.178 85.6921 206.119H101.001C101.001 211.978 103.15 216.788 107.447 220.548C111.744 224.309 117.433 226.189 124.514 226.189C130.813 226.189 135.916 224.772 139.823 221.94C143.729 219.108 145.682 215.323 145.682 210.587C145.682 207.461 145.023 204.8 143.705 202.603C142.435 200.356 140.702 198.598 138.504 197.329C136.356 196.059 133.865 194.96 131.033 194.033C128.201 193.105 125.222 192.275 122.097 191.542C118.971 190.81 115.846 190.028 112.721 189.198C109.595 188.368 106.617 187.245 103.784 185.829C100.952 184.364 98.4373 182.63 96.2399 180.628C94.0912 178.577 92.3577 175.867 91.0392 172.498C89.7696 169.079 89.1348 165.124 89.1348 160.631C89.1348 156.725 89.9161 153.038 91.4787 149.571C93.0414 146.104 95.2632 143.052 98.1443 140.415C101.025 137.729 104.663 135.605 109.058 134.042C113.453 132.48 118.312 131.698 123.635 131.698C127.053 131.698 130.398 132.064 133.67 132.797C136.99 133.529 140.189 134.726 143.265 136.386C146.342 137.998 149.027 140.024 151.323 142.466C153.667 144.859 155.522 147.862 156.889 151.475C158.306 155.089 159.014 159.093 159.014 163.488H143.632C143.632 158.019 141.849 153.673 138.284 150.45C134.72 147.227 129.788 145.615 123.488 145.615C117.238 145.615 112.501 147.08 109.278 150.01C106.055 152.891 104.444 156.432 104.444 160.631C104.444 163.122 104.956 165.319 105.982 167.224C107.056 169.079 108.497 170.569 110.304 171.692C112.159 172.766 114.283 173.792 116.676 174.768C119.118 175.696 121.681 176.453 124.367 177.039C127.102 177.625 129.91 178.357 132.791 179.236C135.672 180.067 138.455 180.946 141.141 181.873C143.876 182.752 146.439 183.998 148.832 185.609C151.274 187.22 153.398 189.076 155.205 191.176C157.06 193.227 158.501 195.888 159.526 199.16C160.601 202.383 161.138 206.045 161.138 210.147C161.138 218.839 157.793 226.091 151.103 231.902C144.413 237.713 135.354 240.618 123.928 240.618Z" fill="#FA4616"/>
<path d="M63.7172 184.338V188.316L31.6766 220.356L28.021 216.593L55.3307 189.445V188.961H0V183.585H55.3307V183.155L28.021 155.953L31.6766 152.189L63.7172 184.338Z" fill="#FA4616"/>
<path d="M630.272 4.4375H692.093V18.5744H645.581V49.0457H685.648V62.9629H645.581V95.3386H693.632V109.476H630.272V4.4375Z" fill="#FA4616"/>
<path d="M505.34 4.4375H531.783L557.273 94.8992H558.299L583.863 4.4375H610.232V109.476H595.509V19.0139H594.337L568.847 109.476H546.945L521.309 19.0139H520.21V109.476H505.34V4.4375Z" fill="#FA4616"/>
<path d="M437.908 111.453C427.8 111.453 418.62 109.085 410.367 104.348C402.163 99.6116 395.717 93.0925 391.029 84.7911C386.39 76.4408 384.071 67.1626 384.071 56.9567C384.071 49.3389 385.438 42.1605 388.173 35.4217C390.956 28.6828 394.741 22.9207 399.526 18.1351C404.312 13.3007 410.05 9.49179 416.74 6.70836C423.43 3.92492 430.559 2.5332 438.128 2.5332C448.236 2.5332 457.392 4.92598 465.596 9.71154C473.849 14.4971 480.295 21.065 484.934 29.4153C489.622 37.7168 491.966 46.8973 491.966 56.9567C491.966 64.5257 490.574 71.6796 487.79 78.4185C485.056 85.1573 481.296 90.9439 476.51 95.7783C471.725 100.613 465.987 104.446 459.297 107.278C452.607 110.062 445.477 111.453 437.908 111.453ZM438.128 96.877C448.969 96.877 458.027 93.0925 465.303 85.5235C472.579 77.9546 476.217 68.4323 476.217 56.9567C476.217 49.4854 474.557 42.6977 471.236 36.5937C467.916 30.4896 463.35 25.7041 457.539 22.237C451.728 18.7699 445.258 17.0364 438.128 17.0364C427.239 17.0364 418.156 20.8453 410.88 28.4631C403.604 36.0809 399.966 45.5788 399.966 56.9567C399.966 68.4323 403.604 77.9546 410.88 85.5235C418.156 93.0925 427.239 96.877 438.128 96.877Z" fill="#FA4616"/>
<path d="M340.15 111.453C329.358 111.453 320.275 108.231 312.902 101.785C305.577 95.29 301.914 87.0129 301.914 76.9535H317.223C317.223 82.8134 319.372 87.6233 323.669 91.3834C327.966 95.1435 333.655 97.0235 340.736 97.0235C347.035 97.0235 352.138 95.6074 356.045 92.7751C359.951 89.9429 361.905 86.1584 361.905 81.4216C361.905 78.2964 361.246 75.635 359.927 73.4376C358.657 71.1913 356.924 69.4333 354.726 68.1637C352.578 66.8941 350.087 65.7953 347.255 64.8675C344.423 63.9397 341.444 63.1096 338.319 62.3771C335.194 61.6446 332.068 60.8633 328.943 60.0331C325.818 59.203 322.839 58.0798 320.007 56.6637C317.174 55.1987 314.66 53.4652 312.462 51.4631C310.314 49.4121 308.58 46.7019 307.262 43.3325C305.992 39.9143 305.357 35.9589 305.357 31.4663C305.357 27.5597 306.138 23.8729 307.701 20.4058C309.264 16.9387 311.486 13.8867 314.367 11.2498C317.248 8.56398 320.886 6.43978 325.281 4.87715C329.676 3.31452 334.534 2.5332 339.857 2.5332C343.275 2.5332 346.62 2.89944 349.892 3.63193C353.213 4.36441 356.411 5.5608 359.488 7.2211C362.564 8.83256 365.25 10.8591 367.545 13.3007C369.889 15.6935 371.744 18.6967 373.112 22.3102C374.528 25.9238 375.236 29.9281 375.236 34.323H359.854C359.854 28.8538 358.071 24.5077 354.507 21.2848C350.942 18.0618 346.01 16.4504 339.711 16.4504C333.46 16.4504 328.723 17.9153 325.5 20.8453C322.277 23.7264 320.666 27.2667 320.666 31.4663C320.666 33.9567 321.179 36.1542 322.204 38.0586C323.279 39.9143 324.719 41.4036 326.526 42.5268C328.381 43.6011 330.506 44.6266 332.898 45.6032C335.34 46.531 337.904 47.2879 340.59 47.8739C343.324 48.4599 346.132 49.1924 349.013 50.0714C351.894 50.9015 354.678 51.7805 357.363 52.7083C360.098 53.5873 362.662 54.8325 365.054 56.444C367.496 58.0554 369.62 59.911 371.427 62.0108C373.283 64.0618 374.723 66.7231 375.749 69.9949C376.823 73.2178 377.36 76.8802 377.36 80.9821C377.36 89.6743 374.015 96.9259 367.325 102.737C360.635 108.548 351.577 111.453 340.15 111.453Z" fill="#FA4616"/>
<path d="M232.652 4.4375H294.473V18.5744H247.96V49.0457H288.027V62.9629H247.96V95.3386H296.011V109.476H232.652V4.4375Z" fill="#FA4616"/>
<path d="M89.6262 4.4375H105.961L125.005 94.8992H126.25L144.782 4.4375H168.515L187.266 94.8992H188.292L207.336 4.4375H223.744L199.718 109.476H175.693L157.234 19.0139H156.062L137.75 109.476H113.578L89.6262 4.4375Z" fill="#FA4616"/>
<path d="M37.9426 4.4375H59.4044L96.9075 109.476H80.8661L72.4426 85.7431H24.0987L15.7484 109.476H0L37.9426 4.4375ZM67.4617 71.8259L48.8566 19.0139H47.6846L29.0796 71.8259H67.4617Z" fill="#FA4616"/>
<path d="M644.161 264.004H678.368C689.111 264.004 697.656 266.885 704.005 272.647C710.353 278.361 713.527 285.93 713.527 295.354C713.527 303.118 711.5 309.76 707.447 315.278C703.394 320.747 697.608 324.409 690.087 326.265L717.263 369.042H698.951L674.486 327.95H659.47V369.042H644.161V264.004ZM678.368 314.252C684.13 314.252 688.793 312.616 692.358 309.345C695.972 306.073 697.779 301.458 697.779 295.501C697.779 290.373 696.045 286.174 692.578 282.902C689.111 279.63 684.13 277.994 677.635 277.994H659.47V314.252H678.368Z" fill="#FA4616"/>
<path d="M567.425 264.004H629.246V278.141H582.734V308.612H622.8V322.529H582.734V354.905H630.785V369.042H567.425V264.004Z" fill="#FA4616"/>
<path d="M465.933 264.004H481.242V308.612H532.296V264.004H547.385V369.042H532.296V322.676H481.242V369.042H465.933V264.004Z" fill="#FA4616"/>
<path d="M410.22 278.141H380.335V264.004H455.195V278.141H425.383V369.042H410.22V278.141Z" fill="#FA4616"/>
<path d="M312.902 264.004H374.723V278.141H328.211V308.612H368.277V322.529H328.211V354.905H376.261V369.042H312.902V264.004Z" fill="#FA4616"/>
<path d="M247.081 371.166C236.924 371.118 227.744 368.725 219.54 363.988C211.336 359.202 204.915 352.659 200.276 344.357C195.685 336.007 193.39 326.729 193.39 316.523C193.39 308.954 194.733 301.825 197.419 295.135C200.154 288.396 203.865 282.609 208.553 277.775C213.241 272.94 218.905 269.131 225.546 266.348C232.187 263.516 239.317 262.1 246.935 262.1C258.703 262.1 269.031 265.323 277.919 271.768C286.806 278.165 292.984 286.735 296.451 297.479H279.823C277.186 291.082 272.914 286.003 267.005 282.243C261.096 278.483 254.406 276.603 246.935 276.603C236.045 276.603 227.036 280.412 219.906 288.03C212.825 295.599 209.285 305.096 209.285 316.523C209.285 328.048 212.874 337.619 220.053 345.236C227.231 352.805 236.289 356.59 247.228 356.59C251.134 356.59 254.87 356.126 258.435 355.198C262 354.222 265.345 352.781 268.47 350.877C271.644 348.923 274.403 346.311 276.747 343.039C279.14 339.718 280.922 335.885 282.094 331.539H251.33V318.354H299.6C298.917 325.826 297.403 332.589 295.059 338.644C292.715 344.699 289.834 349.729 286.416 353.733C283.046 357.689 279.164 361.009 274.769 363.695C270.423 366.381 265.955 368.285 261.365 369.408C256.774 370.58 252.013 371.166 247.081 371.166Z" fill="#FA4616"/>
<path d="M29.8852 278.141H-0.000152588V264.004H74.8596V278.141H45.0476V369.042H29.8852V278.141Z" fill="#FA4616"/>
<path d="M126.618 327.85L123.874 326.33L97.1977 358.402L87.2893 348.522L119.453 322.074L117.929 319.49L76.6187 322.986V309.306L117.929 312.65L119.149 309.914L87.2893 283.466L97.1977 273.434L123.874 305.506L126.618 303.986L123.112 262.794H136.222L132.868 303.986L135.612 305.506L162.136 273.434L172.197 283.466L140.337 309.914L141.862 312.65L182.867 309.306V322.986L141.557 319.49L140.337 322.074L172.197 348.522L162.136 358.402L135.612 326.33L132.868 327.85L136.222 369.042H123.112L126.618 327.85Z" fill="#FA4616"/>
</svg>
