<svg width="1393" height="263" viewBox="0 0 1393 263" fill="none" xmlns="http://www.w3.org/2000/svg">
<path d="M1352.16 117.29C1340.58 117.29 1330.83 113.829 1322.91 106.909C1315.05 99.9363 1311.11 91.0499 1311.11 80.25H1327.55C1327.55 86.5412 1329.86 91.7053 1334.47 95.7421C1339.08 99.779 1345.19 101.797 1352.79 101.797C1359.56 101.797 1365.04 100.277 1369.23 97.2363C1373.42 94.1955 1375.52 90.1325 1375.52 85.0471C1375.52 81.6917 1374.81 78.8345 1373.4 76.4753C1372.03 74.0636 1370.17 72.1763 1367.81 70.8132C1365.51 69.4501 1362.83 68.2705 1359.79 67.2744C1356.75 66.2783 1353.55 65.387 1350.2 64.6006C1346.84 63.8142 1343.49 62.9754 1340.13 62.0841C1336.78 61.1929 1333.58 59.987 1330.54 58.4667C1327.5 56.8939 1324.8 55.0327 1322.44 52.8832C1320.13 50.6813 1318.27 47.7716 1316.86 44.1542C1315.49 40.4843 1314.81 36.2377 1314.81 31.4144C1314.81 27.2203 1315.65 23.2621 1317.33 19.5398C1319 15.8175 1321.39 12.5408 1324.48 9.70975C1327.58 6.82627 1331.48 4.54571 1336.2 2.86805C1340.92 1.19039 1346.14 0.351562 1351.85 0.351562C1355.52 0.351562 1359.11 0.744763 1362.62 1.53117C1366.19 2.31757 1369.62 3.60202 1372.93 5.38454C1376.23 7.11462 1379.11 9.29033 1381.58 11.9117C1384.09 14.4806 1386.08 17.7048 1387.55 21.5844C1389.07 25.464 1389.83 29.763 1389.83 34.4814H1373.32C1373.32 28.6096 1371.41 23.9436 1367.58 20.4835C1363.75 17.0233 1358.46 15.2932 1351.69 15.2932C1344.98 15.2932 1339.9 16.866 1336.44 20.0116C1332.98 23.1048 1331.25 26.9057 1331.25 31.4144C1331.25 34.0882 1331.8 36.4474 1332.9 38.4921C1334.05 40.4843 1335.6 42.0833 1337.54 43.2891C1339.53 44.4425 1341.81 45.5435 1344.38 46.592C1347 47.5881 1349.75 48.4007 1352.64 49.0298C1355.57 49.659 1358.59 50.4454 1361.68 51.3891C1364.77 52.2803 1367.76 53.224 1370.64 54.2201C1373.58 55.1638 1376.33 56.5007 1378.9 58.2308C1381.52 59.9608 1383.8 61.9531 1385.74 64.2074C1387.74 66.4093 1389.28 69.2666 1390.38 72.7792C1391.54 76.2394 1392.11 80.1714 1392.11 84.5752C1392.11 93.9072 1388.52 101.693 1381.34 107.931C1374.16 114.17 1364.43 117.29 1352.16 117.29Z" fill="#FA4616"/>
<path d="M1238.48 2.39648H1304.85V17.574H1254.92V52.0185H1301.47V67.0387H1254.92V115.167H1238.48V2.39648Z" fill="#FA4616"/>
<path d="M1157.83 2.39648H1224.2V17.574H1174.26V52.0185H1220.82V67.0387H1174.26V115.167H1157.83V2.39648Z" fill="#FA4616"/>
<path d="M1094.56 117.29C1081.03 117.29 1070.52 113.384 1063.02 105.572C1055.58 97.7608 1051.85 87.2755 1051.85 74.1163V2.39648H1068.13V73.9591C1068.13 82.5571 1070.41 89.3463 1074.97 94.3269C1079.53 99.3074 1086.06 101.798 1094.56 101.798C1103.1 101.798 1109.65 99.3074 1114.22 94.3269C1118.83 89.3463 1121.14 82.5046 1121.14 73.8018V2.39648H1137.41V73.9591C1137.41 87.0133 1133.61 97.4987 1126.01 105.415C1118.41 113.332 1107.92 117.29 1094.56 117.29Z" fill="#FA4616"/>
<path d="M993.141 17.574H961.056V2.39648H1041.43V17.574H1009.42V115.167H993.141V17.574Z" fill="#FA4616"/>
<path d="M916.655 117.29C905.068 117.29 895.317 113.829 887.401 106.909C879.537 99.9363 875.605 91.0499 875.605 80.25H892.04C892.04 86.5412 894.347 91.7053 898.961 95.7421C903.574 99.779 909.682 101.797 917.284 101.797C924.047 101.797 929.526 100.277 933.72 97.2363C937.914 94.1955 940.011 90.1325 940.011 85.0471C940.011 81.6917 939.303 78.8345 937.888 76.4753C936.524 74.0636 934.663 72.1763 932.304 70.8132C929.997 69.4501 927.324 68.2705 924.283 67.2744C921.242 66.2783 918.044 65.387 914.689 64.6006C911.333 63.8142 907.978 62.9754 904.623 62.0841C901.267 61.1929 898.069 59.987 895.029 58.4667C891.988 56.8939 889.288 55.0327 886.929 52.8832C884.622 50.6813 882.761 47.7716 881.345 44.1542C879.982 40.4843 879.301 36.2377 879.301 31.4144C879.301 27.2203 880.139 23.2621 881.817 19.5398C883.495 15.8175 885.88 12.5408 888.973 9.70975C892.067 6.82627 895.972 4.54571 900.691 2.86805C905.409 1.19039 910.626 0.351562 916.34 0.351562C920.01 0.351562 923.601 0.744763 927.114 1.53117C930.679 2.31757 934.113 3.60202 937.416 5.38454C940.719 7.11462 943.602 9.29033 946.066 11.9117C948.583 14.4806 950.575 17.7048 952.043 21.5844C953.563 25.464 954.323 29.763 954.323 34.4814H937.809C937.809 28.6096 935.895 23.9436 932.068 20.4835C928.241 17.0233 922.946 15.2932 916.183 15.2932C909.472 15.2932 904.387 16.866 900.927 20.0116C897.467 23.1048 895.736 26.9057 895.736 31.4144C895.736 34.0882 896.287 36.4474 897.388 38.4921C898.541 40.4843 900.088 42.0833 902.028 43.2891C904.02 44.4425 906.3 45.5435 908.869 46.592C911.491 47.5881 914.243 48.4007 917.127 49.0298C920.062 49.659 923.077 50.4454 926.17 51.3891C929.263 52.2803 932.252 53.224 935.135 54.2201C938.071 55.1638 940.823 56.5007 943.392 58.2308C946.014 59.9608 948.294 61.9531 950.234 64.2074C952.226 66.4093 953.773 69.2666 954.874 72.7792C956.027 76.2394 956.604 80.1714 956.604 84.5752C956.604 93.9072 953.013 101.693 945.83 107.931C938.648 114.17 928.923 117.29 916.655 117.29Z" fill="#FA4616"/>
<path d="M676.667 4.51953H743.039V19.6971H693.103V52.4114H736.119V67.3531H693.103V102.112H744.691V117.29H676.667V4.51953Z" fill="#FA4616"/>
<path d="M542.539 4.51953H570.928L598.295 101.64H599.396L626.841 4.51953H655.152V117.29H639.345V20.1689H638.087L610.72 117.29H587.207L559.683 20.1689H558.503V117.29H542.539V4.51953Z" fill="#FA4616"/>
<path d="M470.143 119.413C459.291 119.413 449.435 116.87 440.575 111.784C431.767 106.699 424.847 99.7001 419.814 90.7876C414.833 81.8226 412.343 71.8615 412.343 60.9043C412.343 52.7257 413.811 45.019 416.747 37.7841C419.735 30.5492 423.798 24.3628 428.936 19.225C434.074 14.0347 440.234 9.94543 447.416 6.9571C454.599 3.96877 462.253 2.47461 470.379 2.47461C481.232 2.47461 491.062 5.04352 499.869 10.1813C508.729 15.3192 515.65 22.3706 520.63 31.3356C525.663 40.2481 528.18 50.1044 528.18 60.9043C528.18 69.0304 526.686 76.711 523.697 83.9459C520.761 91.1808 516.725 97.3933 511.587 102.584C506.449 107.774 500.289 111.889 493.106 114.93C485.924 117.918 478.269 119.413 470.143 119.413ZM470.379 103.763C482.018 103.763 491.743 99.7001 499.555 91.574C507.366 83.4478 511.272 73.2246 511.272 60.9043C511.272 52.883 509.49 45.5957 505.925 39.0423C502.36 32.489 497.458 27.3511 491.219 23.6288C484.98 19.9065 478.034 18.0454 470.379 18.0454C458.688 18.0454 448.937 22.1347 441.125 30.3132C433.313 38.4918 429.408 48.6888 429.408 60.9043C429.408 73.2246 433.313 83.4478 441.125 91.574C448.937 99.7001 458.688 103.763 470.379 103.763Z" fill="#FA4616"/>
<path d="M365.189 119.413C353.603 119.413 343.851 115.952 335.935 109.032C328.071 102.059 324.139 93.173 324.139 82.3731H340.574C340.574 88.6643 342.881 93.8283 347.495 97.8652C352.108 101.902 358.216 103.92 365.818 103.92C372.581 103.92 378.06 102.4 382.254 99.3593C386.448 96.3186 388.545 92.2555 388.545 87.1701C388.545 83.8148 387.837 80.9575 386.422 78.5983C385.059 76.1867 383.197 74.2993 380.838 72.9362C378.531 71.5731 375.858 70.3935 372.817 69.3974C369.776 68.4013 366.578 67.5101 363.223 66.7237C359.868 65.9373 356.512 65.0984 353.157 64.2072C349.802 63.3159 346.604 62.1101 343.563 60.5897C340.522 59.0169 337.822 57.1558 335.463 55.0063C333.156 52.8043 331.295 49.8946 329.879 46.2772C328.516 42.6073 327.835 38.3608 327.835 33.5375C327.835 29.3433 328.674 25.3851 330.351 21.6628C332.029 17.9405 334.414 14.6638 337.508 11.8328C340.601 8.94932 344.506 6.66875 349.225 4.9911C353.943 3.31344 359.16 2.47461 364.874 2.47461C368.544 2.47461 372.135 2.86781 375.648 3.65421C379.213 4.44061 382.647 5.72507 385.95 7.50758C389.253 9.23767 392.136 11.4134 394.6 14.0347C397.117 16.6036 399.109 19.8279 400.577 23.7075C402.097 27.587 402.858 31.886 402.858 36.6045H386.343C386.343 30.7327 384.429 26.0667 380.602 22.6065C376.775 19.1463 371.48 17.4162 364.717 17.4162C358.006 17.4162 352.921 18.9891 349.461 22.1347C346.001 25.2278 344.271 29.0288 344.271 33.5375C344.271 36.2113 344.821 38.5705 345.922 40.6151C347.075 42.6073 348.622 44.2063 350.562 45.4122C352.554 46.5655 354.835 47.6665 357.403 48.715C360.025 49.7112 362.777 50.5238 365.661 51.1529C368.597 51.782 371.611 52.5684 374.704 53.5121C377.798 54.4034 380.786 55.347 383.669 56.3431C386.605 57.2868 389.358 58.6237 391.927 60.3538C394.548 62.0839 396.828 64.0761 398.768 66.3305C400.76 68.5324 402.307 71.3896 403.408 74.9022C404.561 78.3624 405.138 82.2944 405.138 86.6983C405.138 96.0302 401.547 103.816 394.364 110.054C387.182 116.293 377.457 119.413 365.189 119.413Z" fill="#FA4616"/>
<path d="M249.777 4.51953H316.15V19.6971H266.213V52.4114H309.229V67.353H266.213V102.112H317.801V117.29H249.777V4.51953Z" fill="#FA4616"/>
<path d="M96.2237 4.51953H113.76L134.207 101.64H135.544L155.44 4.51953H180.919L201.051 101.64H202.152L222.598 4.51953H240.214L214.42 117.29H188.626L168.809 20.1689H167.55L147.89 117.29H121.939L96.2237 4.51953Z" fill="#FA4616"/>
<path d="M40.7356 4.51953H63.7772L104.041 117.29H86.8188L77.7752 91.8102H25.8726L16.9076 117.29H0L40.7356 4.51953ZM72.4276 76.8685L52.453 20.1689H51.1948L31.2202 76.8685H72.4276Z" fill="#FA4616"/>
<path d="M841.793 58.8661V63.1371L807.394 97.5362L803.469 93.4961L832.789 64.3492V63.8297H773.385V58.0581H832.789V57.5963L803.469 28.3917L807.394 24.3516L841.793 58.8661Z" fill="#FA4616"/>
<path d="M691.578 147.505H728.303C739.837 147.505 749.012 150.598 755.827 156.784C762.643 162.918 766.05 171.045 766.05 181.163C766.05 189.499 763.875 196.629 759.523 202.553C755.172 208.425 748.959 212.357 740.886 214.349L770.061 260.275H750.401L724.135 216.158H708.014V260.275H691.578V147.505ZM728.303 201.452C734.489 201.452 739.496 199.696 743.323 196.183C747.203 192.671 749.143 187.716 749.143 181.32C749.143 175.815 747.282 171.307 743.559 167.794C739.837 164.281 734.489 162.525 727.517 162.525H708.014V201.452H728.303Z" fill="#FA4616"/>
<path d="M609.193 147.505H675.566V162.682H625.629V195.397H668.645V210.338H625.629V245.097H677.217V260.275H609.193V147.505Z" fill="#FA4616"/>
<path d="M500.23 147.505H516.666V195.397H571.478V147.505H587.678V260.275H571.478V210.496H516.666V260.275H500.23V147.505Z" fill="#FA4616"/>
<path d="M440.417 162.682H408.332V147.505H488.702V162.682H456.696V260.275H440.417V162.682Z" fill="#FA4616"/>
<path d="M335.935 147.505H402.307V162.682H352.371V195.397H395.387V210.338H352.371V245.097H403.959V260.275H335.935V147.505Z" fill="#FA4616"/>
<path d="M265.269 262.555C254.364 262.503 244.508 259.934 235.7 254.848C226.893 249.711 219.999 242.685 215.018 233.773C210.09 224.808 207.626 214.847 207.626 203.89C207.626 195.763 209.068 188.109 211.951 180.927C214.887 173.692 218.871 167.479 223.904 162.289C228.937 157.099 235.019 153.009 242.149 150.021C249.279 146.98 256.933 145.46 265.112 145.46C277.747 145.46 288.835 148.92 298.377 155.84C307.918 162.708 314.55 171.909 318.273 183.443H300.421C297.59 176.575 293.003 171.123 286.659 167.086C280.316 163.049 273.133 161.031 265.112 161.031C253.421 161.031 243.748 165.12 236.094 173.299C228.492 181.425 224.691 191.622 224.691 203.89C224.691 216.262 228.544 226.538 236.251 234.717C243.958 242.843 253.683 246.906 265.426 246.906C269.621 246.906 273.631 246.408 277.458 245.412C281.286 244.363 284.877 242.817 288.232 240.772C291.64 238.675 294.602 235.87 297.118 232.357C299.687 228.792 301.601 224.677 302.859 220.011H269.83V205.856H321.654C320.92 213.877 319.295 221.138 316.779 227.639C314.262 234.14 311.169 239.54 307.499 243.839C303.882 248.085 299.714 251.65 294.995 254.534C290.329 257.417 285.532 259.462 280.604 260.668C275.676 261.926 270.564 262.555 265.269 262.555Z" fill="#FA4616"/>
<path d="M32.085 162.682H-0.000183105V147.505H80.3701V162.682H48.3635V260.275H32.085V162.682Z" fill="#FA4616"/>
<path d="M135.939 216.05L132.993 214.418L104.353 248.851L93.7148 238.244L128.247 209.849L126.61 207.075L82.2587 210.828V196.141L126.61 199.731L127.919 196.794L93.7148 168.399L104.353 157.628L132.993 192.061L135.939 190.429L132.174 146.205H146.249L142.648 190.429L145.594 192.061L174.071 157.628L184.872 168.399L150.668 196.794L152.304 199.731L196.328 196.141V210.828L151.977 207.075L150.668 209.849L184.872 238.244L174.071 248.851L145.594 214.418L142.648 216.05L146.249 260.275H132.174L135.939 216.05Z" fill="#FA4616"/>
</svg>
