<svg width="718" height="369" viewBox="0 0 718 369" fill="none" xmlns="http://www.w3.org/2000/svg">
<path d="M529.577 238.266C518.785 238.266 509.702 235.044 502.329 228.598C495.004 222.103 491.342 213.826 491.342 203.766H506.65C506.65 209.626 508.799 214.436 513.096 218.196C517.394 221.956 523.082 223.837 530.163 223.837C536.463 223.837 541.565 222.42 545.472 219.588C549.379 216.756 551.332 212.971 551.332 208.235C551.332 205.109 550.673 202.448 549.354 200.251C548.085 198.004 546.351 196.246 544.154 194.977C542.005 193.707 539.515 192.608 536.682 191.681C533.85 190.753 530.871 189.923 527.746 189.19C524.621 188.458 521.495 187.676 518.37 186.846C515.245 186.016 512.266 184.893 509.434 183.477C506.602 182.012 504.087 180.278 501.889 178.276C499.741 176.225 498.007 173.515 496.689 170.146C495.419 166.727 494.784 162.772 494.784 158.279C494.784 154.373 495.566 150.686 497.128 147.219C498.691 143.752 500.913 140.7 503.794 138.063C506.675 135.377 510.313 133.253 514.708 131.69C519.103 130.128 523.961 129.346 529.284 129.346C532.702 129.346 536.047 129.712 539.319 130.445C542.64 131.177 545.838 132.374 548.915 134.034C551.991 135.646 554.677 137.672 556.972 140.114C559.316 142.506 561.172 145.51 562.539 149.123C563.955 152.737 564.663 156.741 564.663 161.136H549.281C549.281 155.667 547.499 151.321 543.934 148.098C540.369 144.875 535.437 143.263 529.138 143.263C522.887 143.263 518.15 144.728 514.928 147.658C511.705 150.539 510.093 154.08 510.093 158.279C510.093 160.77 510.606 162.967 511.631 164.872C512.706 166.727 514.146 168.217 515.953 169.34C517.809 170.414 519.933 171.44 522.326 172.416C524.767 173.344 527.331 174.101 530.017 174.687C532.751 175.273 535.559 176.005 538.44 176.884C541.321 177.714 544.105 178.593 546.791 179.521C549.525 180.4 552.089 181.645 554.482 183.257C556.923 184.868 559.047 186.724 560.854 188.824C562.71 190.875 564.15 193.536 565.176 196.808C566.25 200.031 566.787 203.693 566.787 207.795C566.787 216.487 563.442 223.739 556.752 229.55C550.062 235.361 541.004 238.266 529.577 238.266Z" fill="#FCFCFC"/>
<path d="M423.69 131.251H485.511V145.388H438.998V177.471H482.362V191.461H438.998V236.289H423.69V131.251Z" fill="#FCFCFC"/>
<path d="M348.566 131.251H410.388V145.388H363.875V177.471H407.238V191.461H363.875V236.289H348.566V131.251Z" fill="#FCFCFC"/>
<path d="M289.631 238.267C277.032 238.267 267.241 234.629 260.258 227.353C253.324 220.077 249.857 210.31 249.857 198.053V131.251H265.019V197.907C265.019 205.915 267.143 212.239 271.392 216.878C275.64 221.517 281.72 223.837 289.631 223.837C297.59 223.837 303.694 221.517 307.943 216.878C312.24 212.239 314.389 205.867 314.389 197.76V131.251H329.551V197.907C329.551 210.066 326.011 219.833 318.93 227.206C311.849 234.58 302.083 238.267 289.631 238.267Z" fill="#FCFCFC"/>
<path d="M195.17 145.388H165.284V131.251H240.144V145.388H210.332V236.289H195.17V145.388Z" fill="#FCFCFC"/>
<path d="M123.928 238.266C113.136 238.266 104.053 235.044 96.6794 228.598C89.3546 222.103 85.6921 213.826 85.6921 203.766H101.001C101.001 209.626 103.15 214.436 107.447 218.196C111.744 221.956 117.433 223.837 124.514 223.837C130.813 223.837 135.916 222.42 139.823 219.588C143.729 216.756 145.682 212.971 145.682 208.235C145.682 205.109 145.023 202.448 143.705 200.251C142.435 198.004 140.702 196.246 138.504 194.977C136.356 193.707 133.865 192.608 131.033 191.681C128.201 190.753 125.222 189.923 122.097 189.19C118.971 188.458 115.846 187.676 112.721 186.846C109.596 186.016 106.617 184.893 103.784 183.477C100.952 182.012 98.4373 180.278 96.2399 178.276C94.0913 176.225 92.3577 173.515 91.0393 170.146C89.7696 166.727 89.1348 162.772 89.1348 158.279C89.1348 154.373 89.9161 150.686 91.4788 147.219C93.0414 143.752 95.2633 140.7 98.1444 138.063C101.025 135.377 104.663 133.253 109.058 131.69C113.453 130.128 118.312 129.346 123.635 129.346C127.053 129.346 130.398 129.712 133.67 130.445C136.99 131.177 140.189 132.374 143.265 134.034C146.342 135.646 149.028 137.672 151.323 140.114C153.667 142.506 155.522 145.51 156.889 149.123C158.306 152.737 159.014 156.741 159.014 161.136H143.632C143.632 155.667 141.849 151.321 138.284 148.098C134.72 144.875 129.788 143.263 123.488 143.263C117.238 143.263 112.501 144.728 109.278 147.658C106.055 150.539 104.444 154.08 104.444 158.279C104.444 160.77 104.956 162.967 105.982 164.872C107.056 166.727 108.497 168.217 110.304 169.34C112.159 170.414 114.283 171.44 116.676 172.416C119.118 173.344 121.681 174.101 124.367 174.687C127.102 175.273 129.91 176.005 132.791 176.884C135.672 177.714 138.455 178.593 141.141 179.521C143.876 180.4 146.439 181.645 148.832 183.257C151.274 184.868 153.398 186.724 155.205 188.824C157.06 190.875 158.501 193.536 159.526 196.808C160.601 200.031 161.138 203.693 161.138 207.795C161.138 216.487 157.793 223.739 151.103 229.55C144.413 235.361 135.354 238.266 123.928 238.266Z" fill="#FCFCFC"/>
<path d="M63.7172 181.986V185.964L31.6766 218.005L28.021 214.242L55.3307 187.093V186.609H0V181.233H55.3307V180.803L28.021 153.601L31.6766 149.838L63.7172 181.986Z" fill="#FCFCFC"/>
<path d="M630.272 2.08545H692.094V16.2224H645.581V46.6937H685.648V60.6108H645.581V92.9866H693.632V107.124H630.272V2.08545Z" fill="#FCFCFC"/>
<path d="M505.34 2.08545H531.783L557.273 92.5471H558.299L583.863 2.08545H610.232V107.124H595.509V16.6619H594.337L568.847 107.124H546.945L521.308 16.6619H520.21V107.124H505.34V2.08545Z" fill="#FCFCFC"/>
<path d="M437.908 109.101C427.8 109.101 418.62 106.733 410.367 101.996C402.163 97.2596 395.717 90.7405 391.03 82.439C386.39 74.0887 384.071 64.8106 384.071 54.6046C384.071 46.9868 385.438 39.8085 388.173 33.0696C390.956 26.3308 394.741 20.5686 399.526 15.783C404.312 10.9487 410.05 7.13974 416.74 4.35631C423.43 1.57287 430.559 0.181152 438.128 0.181152C448.236 0.181152 457.392 2.57393 465.596 7.35949C473.849 12.145 480.295 18.713 484.934 27.0633C489.622 35.3648 491.966 44.5452 491.966 54.6046C491.966 62.1736 490.574 69.3276 487.791 76.0664C485.056 82.8052 481.296 88.5919 476.51 93.4263C471.725 98.2606 465.987 102.094 459.297 104.926C452.607 107.71 445.477 109.101 437.908 109.101ZM438.128 94.525C448.969 94.525 458.027 90.7405 465.303 83.1715C472.579 75.6025 476.217 66.0802 476.217 54.6046C476.217 47.1333 474.557 40.3456 471.236 34.2416C467.916 28.1376 463.35 23.352 457.539 19.8849C451.728 16.4179 445.258 14.6843 438.128 14.6843C427.239 14.6843 418.156 18.4932 410.88 26.1111C403.604 33.7289 399.966 43.2267 399.966 54.6046C399.966 66.0802 403.604 75.6025 410.88 83.1715C418.156 90.7405 427.239 94.525 438.128 94.525Z" fill="#FCFCFC"/>
<path d="M340.15 109.101C329.358 109.101 320.275 105.878 312.902 99.4326C305.577 92.9379 301.914 84.6609 301.914 74.6014H317.223C317.223 80.4613 319.372 85.2713 323.669 89.0314C327.966 92.7914 333.655 94.6715 340.736 94.6715C347.035 94.6715 352.138 93.2553 356.045 90.4231C359.951 87.5908 361.905 83.8063 361.905 79.0696C361.905 75.9443 361.246 73.283 359.927 71.0855C358.657 68.8392 356.924 67.0813 354.726 65.8116C352.578 64.542 350.087 63.4433 347.255 62.5155C344.423 61.5877 341.444 60.7575 338.319 60.025C335.194 59.2925 332.068 58.5112 328.943 57.6811C325.818 56.8509 322.839 55.7278 320.007 54.3117C317.174 52.8467 314.66 51.1131 312.462 49.111C310.314 47.0601 308.58 44.3499 307.262 40.9805C305.992 37.5622 305.357 33.6068 305.357 29.1142C305.357 25.2077 306.138 21.5208 307.701 18.0537C309.264 14.5867 311.486 11.5346 314.367 8.8977C317.248 6.21193 320.886 4.08773 325.281 2.5251C329.676 0.962468 334.534 0.181152 339.857 0.181152C343.275 0.181152 346.62 0.547394 349.892 1.27988C353.213 2.01236 356.411 3.20875 359.488 4.86904C362.564 6.48051 365.25 8.50704 367.545 10.9487C369.889 13.3414 371.744 16.3446 373.112 19.9582C374.528 23.5718 375.236 27.576 375.236 31.9709H359.854C359.854 26.5017 358.071 22.1556 354.507 18.9327C350.942 15.7098 346.01 14.0983 339.711 14.0983C333.46 14.0983 328.723 15.5633 325.5 18.4932C322.277 21.3743 320.666 24.9147 320.666 29.1142C320.666 31.6047 321.179 33.8021 322.204 35.7066C323.279 37.5622 324.719 39.0516 326.526 40.1747C328.381 41.249 330.506 42.2745 332.898 43.2512C335.34 44.179 337.904 44.9359 340.59 45.5219C343.324 46.1078 346.132 46.8403 349.013 47.7193C351.894 48.5495 354.678 49.4284 357.363 50.3562C360.098 51.2352 362.662 52.4804 365.054 54.0919C367.496 55.7034 369.62 57.559 371.427 59.6588C373.283 61.7097 374.723 64.3711 375.749 67.6428C376.823 70.8658 377.36 74.5282 377.36 78.6301C377.36 87.3222 374.015 94.5738 367.325 100.385C360.635 106.196 351.577 109.101 340.15 109.101Z" fill="#FCFCFC"/>
<path d="M232.651 2.08545H294.473V16.2224H247.96V46.6937H288.027V60.6108H247.96V92.9866H296.011V107.124H232.651V2.08545Z" fill="#FCFCFC"/>
<path d="M89.6262 2.08545H105.961L125.005 92.5471H126.25L144.782 2.08545H168.515L187.266 92.5471H188.292L207.336 2.08545H223.744L199.718 107.124H175.693L157.234 16.6619H156.062L137.75 107.124H113.578L89.6262 2.08545Z" fill="#FCFCFC"/>
<path d="M37.9426 2.08545H59.4044L96.9075 107.124H80.8661L72.4426 83.3911H24.0987L15.7484 107.124H0L37.9426 2.08545ZM67.4617 69.4739L48.8566 16.6619H47.6846L29.0796 69.4739H67.4617Z" fill="#FCFCFC"/>
<path d="M644.161 261.651H678.368C689.111 261.651 697.657 264.532 704.005 270.295C710.353 276.008 713.527 283.577 713.527 293.002C713.527 300.766 711.501 307.407 707.447 312.925C703.394 318.394 697.608 322.057 690.088 323.912L717.263 366.689H698.951L674.486 325.597H659.47V366.689H644.161V261.651ZM678.368 311.9C684.13 311.9 688.794 310.264 692.358 306.992C695.972 303.72 697.779 299.106 697.779 293.148C697.779 288.021 696.045 283.821 692.578 280.549C689.111 277.278 684.13 275.642 677.635 275.642H659.47V311.9H678.368Z" fill="#FCFCFC"/>
<path d="M567.425 261.651H629.246V275.788H582.734V306.26H622.8V320.177H582.734V352.553H630.785V366.689H567.425V261.651Z" fill="#FCFCFC"/>
<path d="M465.933 261.651H481.242V306.26H532.296V261.651H547.385V366.689H532.296V320.323H481.242V366.689H465.933V261.651Z" fill="#FCFCFC"/>
<path d="M410.221 275.788H380.335V261.651H455.195V275.788H425.383V366.689H410.221V275.788Z" fill="#FCFCFC"/>
<path d="M312.902 261.651H374.723V275.788H328.211V306.26H368.277V320.177H328.211V352.553H376.262V366.689H312.902V261.651Z" fill="#FCFCFC"/>
<path d="M247.081 368.814C236.924 368.765 227.744 366.372 219.54 361.635C211.336 356.85 204.915 350.306 200.276 342.005C195.685 333.655 193.39 324.376 193.39 314.171C193.39 306.602 194.733 299.472 197.419 292.782C200.154 286.043 203.865 280.257 208.553 275.422C213.241 270.588 218.905 266.779 225.546 263.995C232.187 261.163 239.317 259.747 246.935 259.747C258.703 259.747 269.031 262.97 277.919 269.416C286.806 275.813 292.984 284.383 296.451 295.126H279.823C277.186 288.729 272.914 283.65 267.005 279.89C261.096 276.13 254.406 274.25 246.935 274.25C236.045 274.25 227.036 278.059 219.906 285.677C212.825 293.246 209.285 302.744 209.285 314.171C209.285 325.695 212.874 335.266 220.053 342.884C227.231 350.453 236.289 354.237 247.228 354.237C251.134 354.237 254.87 353.773 258.435 352.846C262 351.869 265.345 350.428 268.47 348.524C271.644 346.571 274.403 343.958 276.747 340.686C279.14 337.366 280.922 333.533 282.094 329.186H251.33V316.002H299.6C298.917 323.473 297.403 330.236 295.059 336.292C292.715 342.347 289.834 347.376 286.416 351.381C283.046 355.336 279.164 358.657 274.769 361.342C270.423 364.028 265.955 365.933 261.365 367.056C256.774 368.228 252.013 368.814 247.081 368.814Z" fill="#FCFCFC"/>
<path d="M29.8852 275.788H-0.00012207V261.651H74.8596V275.788H45.0476V366.689H29.8852V275.788Z" fill="#FCFCFC"/>
<path d="M126.618 325.498L123.874 323.978L97.1978 356.05L87.2894 346.17L119.454 319.722L117.929 317.138L76.6188 320.634V306.954L117.929 310.298L119.149 307.562L87.2894 281.114L97.1978 271.081L123.874 303.154L126.618 301.634L123.112 260.441H136.222L132.868 301.634L135.612 303.154L162.136 271.081L172.197 281.114L140.337 307.562L141.862 310.298L182.867 306.954V320.634L141.557 317.138L140.337 319.722L172.197 346.17L162.136 356.05L135.612 323.978L132.868 325.498L136.222 366.69H123.112L126.618 325.498Z" fill="#FCFCFC"/>
</svg>
