<svg width="53" height="53" viewBox="0 0 53 53" fill="none" xmlns="http://www.w3.org/2000/svg">
<path d="M24.9443 32.637L23.5987 31.8923L10.5161 47.6048L5.65687 42.7645L21.4307 29.8072L20.6831 28.5413L0.423836 30.254V23.552L20.6831 25.1903L21.2812 23.8499L5.65687 10.8926L10.5161 5.97782L23.5987 21.6903L24.9443 20.9457L23.2249 0.765137H29.654L28.0094 20.9457L29.355 21.6903L42.3628 5.97782L47.2968 10.8926L31.6725 23.8499L32.4201 25.1903L52.5299 23.552V30.254L32.2706 28.5413L31.6725 29.8072L47.2968 42.7645L42.3628 47.6048L29.355 31.8923L28.0094 32.637L29.654 52.8175H23.2249L24.9443 32.637Z" fill="#FEE3DC"/>
</svg>
