<svg width="18" height="19" viewBox="0 0 18 19" fill="none" xmlns="http://www.w3.org/2000/svg">
<path d="M8.29685 11.48L7.84153 11.2277L3.41486 16.5498L1.77067 14.9103L7.10797 10.5215L6.85502 10.0927L0 10.6728V8.40277L6.85502 8.95768L7.05738 8.50367L1.77067 4.11488L3.41486 2.45017L7.84153 7.7722L8.29685 7.51997L7.71505 0.68457H9.89045L9.33395 7.51997L9.78927 7.7722L14.1906 2.45017L15.8601 4.11488L10.5734 8.50367L10.8264 8.95768L17.6308 8.40277V10.6728L10.7758 10.0927L10.5734 10.5215L15.8601 14.9103L14.1906 16.5498L9.78927 11.2277L9.33395 11.48L9.89045 18.3154H7.71505L8.29685 11.48Z" fill="#FA4616"/>
</svg>
