<svg width="518" height="117" viewBox="0 0 518 117" fill="none" xmlns="http://www.w3.org/2000/svg">
<path d="M477.165 116.938C465.578 116.938 455.827 113.478 447.91 106.557C440.046 99.5847 436.114 90.6984 436.114 79.8984H452.55C452.55 86.1897 454.857 91.3537 459.47 95.3906C464.084 99.4274 470.192 101.446 477.794 101.446C484.557 101.446 490.035 99.9255 494.229 96.8847C498.424 93.844 500.521 89.7809 500.521 84.6955C500.521 81.3402 499.813 78.4829 498.397 76.1237C497.034 73.7121 495.173 71.8247 492.814 70.4616C490.507 69.0985 487.833 67.9189 484.793 66.9228C481.752 65.9267 478.554 65.0354 475.198 64.249C471.843 63.4626 468.488 62.6238 465.133 61.7326C461.777 60.8413 458.579 59.6355 455.538 58.1151C452.498 56.5423 449.798 54.6812 447.439 52.5317C445.132 50.3297 443.271 47.42 441.855 43.8026C440.492 40.1327 439.81 35.8861 439.81 31.0629C439.81 26.8687 440.649 22.9105 442.327 19.1882C444.005 15.4659 446.39 12.1892 449.483 9.35818C452.576 6.47471 456.482 4.19414 461.201 2.51649C465.919 0.838829 471.135 0 476.85 0C480.52 0 484.111 0.393201 487.624 1.1796C491.189 1.966 494.623 3.25046 497.926 5.03297C501.228 6.76306 504.112 8.93877 506.576 11.5601C509.092 14.129 511.085 17.3533 512.553 21.2329C514.073 25.1124 514.833 29.4114 514.833 34.1298H498.319C498.319 28.258 496.405 23.5921 492.578 20.1319C488.751 16.6717 483.456 14.9416 476.693 14.9416C469.982 14.9416 464.897 16.5144 461.436 19.66C457.976 22.7532 456.246 26.5542 456.246 31.0629C456.246 33.7366 456.797 36.0959 457.898 38.1405C459.051 40.1327 460.598 41.7317 462.537 42.9375C464.53 44.0909 466.81 45.1919 469.379 46.2404C472 47.2365 474.753 48.0492 477.636 48.6783C480.572 49.3074 483.587 50.0938 486.68 51.0375C489.773 51.9287 492.761 52.8724 495.645 53.8685C498.581 54.8122 501.333 56.1491 503.902 57.8792C506.524 59.6093 508.804 61.6015 510.744 63.8558C512.736 66.0578 514.283 68.915 515.384 72.4276C516.537 75.8878 517.114 79.8198 517.114 84.2237C517.114 93.5556 513.522 101.341 506.34 107.58C499.158 113.819 489.432 116.938 477.165 116.938Z" fill="#FA4616"/>
<path d="M363.482 2.04492H429.855V17.2225H379.918V51.6669H426.473V66.6872H379.918V114.815H363.482V2.04492Z" fill="#FA4616"/>
<path d="M282.829 2.04492H349.201V17.2225H299.265V51.6669H345.82V66.6872H299.265V114.815H282.829V2.04492Z" fill="#FA4616"/>
<path d="M219.555 116.938C206.029 116.938 195.518 113.032 188.02 105.221C180.576 97.4093 176.854 86.9239 176.854 73.7648V2.04492H193.132V73.6075C193.132 82.2055 195.413 88.9948 199.974 93.9753C204.535 98.9559 211.062 101.446 219.555 101.446C228.101 101.446 234.654 98.9559 239.215 93.9753C243.829 88.9948 246.136 82.1531 246.136 73.4502V2.04492H262.414V73.6075C262.414 86.6618 258.613 97.1471 251.011 105.064C243.409 112.98 232.924 116.938 219.555 116.938Z" fill="#FA4616"/>
<path d="M118.141 17.2225H86.0558V2.04492H166.426V17.2225H134.419V114.815H118.141V17.2225Z" fill="#FA4616"/>
<path d="M41.6547 116.938C30.0684 116.938 20.317 113.478 12.4006 106.557C4.53656 99.5847 0.604553 90.6984 0.604553 79.8984H17.0404C17.0404 86.1897 19.3471 91.3537 23.9607 95.3906C28.5743 99.4274 34.682 101.446 42.2839 101.446C49.0469 101.446 54.5255 99.9255 58.7197 96.8847C62.9138 93.844 65.0109 89.7809 65.0109 84.6955C65.0109 81.3402 64.3031 78.4829 62.8876 76.1237C61.5245 73.7121 59.6633 71.8247 57.3041 70.4616C54.9974 69.0985 52.3236 67.9189 49.2828 66.9228C46.2421 65.9267 43.044 65.0354 39.6887 64.249C36.3334 63.4626 32.9781 62.6238 29.6228 61.7326C26.2675 60.8413 23.0694 59.6355 20.0287 58.1151C16.9879 56.5423 14.2879 54.6812 11.9287 52.5317C9.62196 50.3297 7.76081 47.42 6.34529 43.8026C4.98219 40.1327 4.30064 35.8861 4.30064 31.0629C4.30064 26.8687 5.13947 22.9105 6.81713 19.1882C8.49479 15.4659 10.8802 12.1892 13.9734 9.35818C17.0666 6.47471 20.9724 4.19414 25.6908 2.51649C30.4092 0.838829 35.6257 0 41.3402 0C45.0101 0 48.6013 0.393201 52.1139 1.1796C55.6789 1.966 59.1129 3.25046 62.4158 5.03297C65.7186 6.76306 68.6021 8.93877 71.0662 11.5601C73.5827 14.129 75.5749 17.3533 77.0428 21.2329C78.5632 25.1124 79.3234 29.4114 79.3234 34.1298H62.809C62.809 28.258 60.8954 23.5921 57.0682 20.1319C53.2411 16.6717 47.946 14.9416 41.1829 14.9416C34.4723 14.9416 29.3869 16.5144 25.9267 19.66C22.4665 22.7532 20.7364 26.5542 20.7364 31.0629C20.7364 33.7366 21.2869 36.0959 22.3879 38.1405C23.5413 40.1327 25.0879 41.7317 27.0277 42.9375C29.0199 44.0909 31.3004 45.1919 33.8694 46.2404C36.4907 47.2365 39.2431 48.0492 42.1266 48.6783C45.0625 49.3074 48.077 50.0938 51.1702 51.0375C54.2634 51.9287 57.2517 52.8724 60.1352 53.8685C63.0711 54.8122 65.8235 56.1491 68.3924 57.8792C71.0137 59.6093 73.2943 61.6015 75.2341 63.8558C77.2263 66.0578 78.7729 68.915 79.8739 72.4276C81.0273 75.8878 81.604 79.8198 81.604 84.2237C81.604 93.5556 78.0127 101.341 70.8303 107.58C63.6478 113.819 53.9226 116.938 41.6547 116.938Z" fill="#FA4616"/>
</svg>
