<svg width="118" height="40" viewBox="0 0 118 40" fill="none" xmlns="http://www.w3.org/2000/svg">
<path d="M1.29606 39.8709H4.34196C4.41547 39.8709 4.46384 39.8201 4.46384 39.743V38.2026C4.46384 38.1254 4.41547 38.0747 4.34196 38.0747H2.94758C2.87409 38.0747 2.82572 38.0238 2.82572 37.9466V36.2136C2.82572 36.1365 2.87409 36.0856 2.94758 36.0856H4.23173C4.30524 36.0856 4.35369 36.0349 4.35369 35.9576V34.4313C4.35369 34.3541 4.30524 34.3034 4.23173 34.3034H2.94758C2.87409 34.3034 2.82572 34.2526 2.82572 34.1754V32.9294C2.82572 32.763 2.91089 32.6736 3.16804 32.6736C3.47364 32.6736 3.91449 32.7384 4.25679 32.9558C4.39208 33.0328 4.46552 33.0065 4.46552 32.8663V31.0175C4.46552 30.9404 4.41707 30.8896 4.34363 30.8896H1.05225C0.942021 30.8896 0.880242 30.9667 0.90529 31.0824C1.01552 31.6221 1.05225 31.9288 1.05225 33.0328V39.6168C1.05225 39.7833 1.1374 39.8726 1.29606 39.8726V39.8709Z" fill="#FCFCFC"/>
<path d="M6.41193 39.9984C7.78132 39.9984 8.5762 38.8699 8.5762 37.3416C8.5762 36.2114 8.12367 35.5313 7.5976 34.8901L7.45066 34.7095C7.00976 34.1838 6.72929 33.8105 6.72929 33.3233C6.72929 33.0149 6.87622 32.6942 7.21854 32.6942C7.52409 32.6942 7.70783 32.8606 7.95166 33.234C8.12367 33.5038 8.16036 33.5547 8.25719 33.5547C8.36739 33.5547 8.40421 33.4636 8.40421 33.3233V31.797C8.40421 31.5656 8.36739 31.3606 8.20881 31.1677C7.98838 30.9242 7.58427 30.7578 7.05991 30.7578C5.69059 30.7578 4.91908 31.9004 4.91908 33.4407C4.91908 34.5834 5.43344 35.3281 5.93442 35.931L6.00785 36.0203C6.41193 36.5075 6.75428 36.9053 6.75428 37.3942C6.75428 37.6887 6.61906 38.0619 6.23995 38.0619C5.86091 38.0619 5.62881 37.7676 5.37166 37.3312C5.22469 37.0614 5.19965 36.9842 5.08942 36.9842C4.96753 36.9842 4.93076 37.1121 4.93076 37.2401V38.9592C4.93076 39.1905 4.96753 39.3955 5.12614 39.5743C5.3466 39.8301 5.77074 39.9984 6.41028 39.9984H6.41193Z" fill="#FCFCFC"/>
<path d="M10.2943 39.8703H11.5784C11.7371 39.8703 11.824 39.7809 11.824 39.6144V32.85C11.824 32.7606 11.8357 32.6835 11.9826 32.6835C12.2263 32.6835 12.4234 32.8237 12.8025 33.0165C12.9378 33.0812 13.0095 33.0165 13.0095 32.8763V31.0151C13.0095 30.9381 12.9611 30.8872 12.8876 30.8872H8.98676C8.91327 30.8872 8.86482 30.9381 8.86482 31.0151V32.8763C8.86482 33.0182 8.93833 33.0812 9.0736 33.0165C9.45267 32.8237 9.64804 32.6835 9.89354 32.6835C10.0405 32.6835 10.0521 32.7606 10.0521 32.85V39.6144C10.0521 39.7809 10.1373 39.8703 10.296 39.8703H10.2943Z" fill="#FCFCFC"/>
<path d="M103.194 39.8703H104.331C104.49 39.8703 104.575 39.7809 104.575 39.6144V31.1432C104.575 30.9766 104.49 30.8872 104.331 30.8872H103.292C103.146 30.8872 103.097 30.9521 102.999 31.1693C102.73 31.7722 102.448 32.2734 102.045 32.7606C101.898 32.9411 101.873 33.0428 101.873 33.3004V35.1107C101.873 35.2526 101.922 35.328 101.995 35.328C102.117 35.328 102.202 35.1615 102.544 34.6217L102.802 34.2238C102.85 34.1468 102.875 34.1345 102.9 34.1345C102.948 34.1345 102.948 34.1994 102.948 34.2887V39.6144C102.948 39.7809 103.034 39.8703 103.192 39.8703H103.194Z" fill="#FCFCFC"/>
<path d="M107.192 30.7578C105.737 30.7578 105.076 31.9388 105.076 33.877C105.076 35.6348 105.627 36.7511 106.678 36.7511C107.068 36.7511 107.373 36.5706 107.571 36.327C107.645 36.2377 107.718 36.2237 107.718 36.4304C107.718 37.5853 107.364 38.253 106.776 38.253C106.397 38.253 106.213 37.9971 105.944 37.5607C105.846 37.4066 105.773 37.3171 105.675 37.3171C105.565 37.3171 105.517 37.4329 105.517 37.5993V39.024C105.517 39.3185 105.579 39.5253 105.786 39.6917C105.993 39.8582 106.386 40.0001 106.898 40.0001C108.623 40.0001 109.441 38.3704 109.441 34.9829C109.441 32.1072 108.744 30.7612 107.19 30.7612L107.192 30.7578ZM106.812 33.786C106.812 32.4647 106.985 32.1684 107.217 32.1684C107.46 32.1684 107.632 32.4768 107.632 33.786C107.632 35.0951 107.46 35.4034 107.217 35.4034C106.973 35.4034 106.812 35.1091 106.812 33.786Z" fill="#FCFCFC"/>
<path d="M110.292 39.8709H111.54C111.76 39.8709 111.82 39.8061 111.82 39.5765C111.808 37.2141 112.383 35.0324 113.421 32.7997C113.532 32.5684 113.568 32.4019 113.568 32.1584V31.1454C113.568 30.979 113.483 30.8896 113.325 30.8896H109.876C109.717 30.8896 109.632 30.979 109.632 31.1454V32.5054C109.632 32.6718 109.717 32.7613 109.876 32.7613H111.503C111.76 32.7613 111.723 32.8892 111.625 33.0819C110.561 35.1866 110.047 37.2667 109.987 39.5502C109.975 39.8061 110.06 39.8709 110.292 39.8709Z" fill="#FCFCFC"/>
<path d="M115.853 39.9984C117.31 39.9984 117.97 38.8172 117.97 36.879C117.97 35.1214 117.419 34.005 116.368 34.005C115.977 34.005 115.672 34.1856 115.474 34.4291C115.401 34.5185 115.327 34.5325 115.327 34.3258C115.327 33.1709 115.681 32.5031 116.269 32.5031C116.648 32.5031 116.833 32.759 117.101 33.1972C117.199 33.3514 117.273 33.4407 117.37 33.4407C117.48 33.4407 117.529 33.3251 117.529 33.1586V31.7338C117.529 31.4394 117.466 31.2326 117.259 31.0662C117.052 30.8997 116.66 30.7578 116.147 30.7578C114.422 30.7578 113.604 32.3875 113.604 35.775C113.604 38.6507 114.302 39.9967 115.855 39.9967L115.853 39.9984ZM115.413 36.9702C115.413 35.6611 115.585 35.3526 115.828 35.3526C116.073 35.3526 116.233 35.6471 116.233 36.9702C116.233 38.2932 116.06 38.5877 115.828 38.5877C115.585 38.5877 115.413 38.2792 115.413 36.9702Z" fill="#FCFCFC"/>
<path d="M24.7911 7.19833C24.1399 7.48747 23.39 7.6452 22.5685 7.6452C21.7469 7.6452 20.9954 7.48923 20.3441 7.20186C19.7931 6.95819 19.3539 7.24734 19.3539 7.87302V26.6873C19.3539 27.0991 19.6712 27.4322 20.0637 27.4322H25.0716C25.4641 27.4322 25.7813 27.0991 25.7813 26.6873V7.86951C25.7813 7.24215 25.3405 6.95298 24.7894 7.19833H24.7911Z" fill="#FCFCFC"/>
<path d="M22.5415 0C20.4357 0 19.0431 1.19344 19.0998 3.16322C19.1566 5.04358 20.4658 6.32635 22.5698 6.32635C24.6739 6.32635 26.0115 5.04358 26.0115 3.16322C26.0115 1.2828 24.6472 0 22.5415 0Z" fill="#FCFCFC"/>
<path d="M91.1358 7.19833C90.4846 7.48747 89.7348 7.6452 88.9132 7.6452C88.0917 7.6452 87.3402 7.48923 86.689 7.20186C86.1379 6.95819 85.6986 7.24734 85.6986 7.87302V26.6873C85.6986 27.0991 86.0159 27.4322 86.4083 27.4322H91.4164C91.8087 27.4322 92.126 27.0991 92.126 26.6873V7.86951C92.126 7.24215 91.6853 6.95298 91.1342 7.19833H91.1358Z" fill="#FCFCFC"/>
<path d="M88.8831 0C86.7791 0 85.3848 1.19344 85.4415 3.16322C85.4982 5.04358 86.8074 6.32635 88.9116 6.32635C91.0157 6.32635 92.3532 5.04358 92.3532 3.16322C92.3532 1.2828 90.9872 0 88.8831 0Z" fill="#FCFCFC"/>
<path d="M99.4914 0.399902H93.9273C93.438 0.399902 93.1275 0.846772 93.236 1.31292C93.6033 2.89539 93.7737 4.80555 93.7737 7.38518V26.685C93.7737 27.0968 94.0909 27.4298 94.4834 27.4298H99.4914C99.8838 27.4298 100.201 27.0968 100.201 26.685V1.14648C100.201 0.734603 99.8838 0.401683 99.4914 0.401683V0.399902Z" fill="#FCFCFC"/>
<path d="M17.992 0.399902H11.0803C10.6278 0.399902 10.3272 0.808238 10.4708 1.27261C10.94 2.77972 10.8983 4.12732 10.8048 5.3856L9.72431 20.2078C9.69256 20.6372 9.18829 20.6372 9.15821 20.2078L8.08948 5.3856C7.99597 4.12732 7.95421 2.78144 8.42344 1.27261C8.56877 0.808238 8.2682 0.399902 7.81398 0.399902H0.715248C0.185852 0.399902 -0.146424 0.913361 0.0639525 1.43911C0.693544 3.01634 0.999074 4.56549 1.17777 5.86228L4.11845 26.4781C4.19693 27.0249 4.64452 27.4298 5.1722 27.4298H13.5233C14.051 27.4298 14.4985 27.0249 14.577 26.4781L17.5294 5.86228C17.7097 4.56549 18.0154 3.01634 18.6432 1.43911C18.8536 0.911581 18.5197 0.399902 17.992 0.399902Z" fill="#FCFCFC"/>
<path d="M117.924 26.5206L112.381 15.6133C112.25 15.3557 112.182 15.1104 112.182 14.8965C112.182 14.2692 112.601 13.7224 113.708 13.7224C114.286 13.7224 114.721 13.7837 115.297 13.9135C115.664 13.9958 116.011 13.768 116.011 13.3071V7.56255C116.011 6.87555 115.372 6.74764 114.636 6.74764C110.631 6.74764 109.444 9.75834 109.19 12.911C109.113 13.8644 108.886 14.2709 108.487 14.2709C108.357 14.2709 108.273 14.1851 108.273 13.9905V1.1486C108.273 0.736754 107.957 0.403809 107.564 0.403809H101.999C101.51 0.403809 101.2 0.850653 101.308 1.31678C101.676 2.89925 101.846 4.80945 101.846 7.38909V26.6888C101.846 27.1006 102.163 27.4336 102.556 27.4336H107.564C107.957 27.4336 108.273 27.1006 108.273 26.6888V20.2556C108.273 20.0312 108.497 19.9594 108.571 20.1732L110.91 26.7625C111.04 27.1654 111.401 27.4354 111.807 27.4354H117.403C117.88 27.4354 118.136 26.9358 117.926 26.5223L117.924 26.5206Z" fill="#FCFCFC"/>
<path d="M38.1711 6.74512C36.4561 6.74512 35.0083 7.20244 33.8277 8.46247C33.7159 8.58164 33.5238 8.49755 33.5238 8.33105V7.87713C33.5238 7.46536 33.2065 7.13234 32.8141 7.13234H27.5807C27.0897 7.13234 26.7808 7.58272 26.8909 8.05068C27.2583 9.63134 27.427 11.5398 27.427 14.1176V26.6863C27.427 27.098 27.7442 27.4311 28.1367 27.4311H33.1447C33.5372 27.4311 33.8544 27.098 33.8544 26.6863V13.3413C33.8544 12.3933 34.3387 11.8482 35.1069 11.8482C35.8182 11.8482 36.2725 12.3916 36.2725 13.3413V26.6863C36.2725 27.098 36.5898 27.4311 36.9821 27.4311H41.9902C42.3826 27.4311 42.6999 27.098 42.6999 26.6863V11.8202C42.6999 8.55709 40.8981 6.74512 38.1678 6.74512H38.1711Z" fill="#FCFCFC"/>
<path d="M79.6876 6.74512C77.899 6.74512 76.3543 7.48464 75.3525 8.57118C75.2339 8.69907 75.0753 8.69029 74.9817 8.53257C74.2871 7.37072 73.0664 6.74512 71.3631 6.74512C69.6598 6.74512 68.252 7.46185 67.23 8.49404C67.1182 8.60794 66.9295 8.52385 66.9295 8.35908V7.87891C66.9295 7.46712 66.6122 7.13412 66.2198 7.13412H60.9863C60.4954 7.13412 60.1864 7.58448 60.2967 8.05246C60.6641 9.6331 60.8327 11.5415 60.8327 14.1194V26.688C60.8327 27.0998 61.15 27.4328 61.5425 27.4328H66.5504C66.9429 27.4328 67.2601 27.0998 67.2601 26.688V13.3396C67.2601 12.4599 67.5557 11.8517 68.3222 11.8517C69.0336 11.8517 69.2523 12.4616 69.2523 13.3448V26.6897C69.2523 27.1016 69.5696 27.4345 69.962 27.4345H74.9701C75.3625 27.4345 75.6797 27.1016 75.6797 26.6897V13.3062C75.6882 12.4494 75.9853 11.8536 76.7418 11.8536C77.4531 11.8536 77.672 12.4633 77.672 13.3465V26.6915C77.672 27.1033 77.9892 27.4363 78.3816 27.4363H83.3897C83.7821 27.4363 84.0994 27.1033 84.0994 26.6915V11.8254C84.0994 8.68333 82.5631 6.7503 79.6858 6.7503L79.6876 6.74512Z" fill="#FCFCFC"/>
<path d="M52.3701 6.74512C50.1057 6.74512 47.469 7.25504 45.365 9.07759C45.1462 9.26866 45.0176 9.55077 45.0176 9.84869V14.4085C45.0176 14.9535 45.6087 15.255 46.0162 14.887C48.1187 12.9874 50.1843 11.878 51.6739 11.878C52.4703 11.878 52.9546 12.1041 52.9546 12.7577C52.9546 13.7916 51.5603 14.2071 48.9853 15.4285C46.5222 16.5956 43.8236 18.3148 43.8236 22.2368C43.8236 25.789 45.9311 27.7692 48.6881 27.7692C50.884 27.7692 52.0546 26.9614 52.9145 25.9257C53.0214 25.796 53.2251 25.8767 53.2251 26.0483V26.6863C53.2251 27.098 53.5424 27.4311 53.9348 27.4311H58.5304C58.9229 27.4311 59.2401 27.098 59.2401 26.6863V13.5866C59.2401 8.89182 57.0408 6.74512 52.3701 6.74512ZM53.1033 20.6071C53.1033 22.0405 52.4203 22.8221 51.4885 22.8221C50.8054 22.8221 50.1843 22.3331 50.1843 21.357C50.1843 19.7868 51.6805 18.9018 52.8695 17.8276C52.9613 17.7453 53.1033 17.8136 53.1033 17.9415V20.6071Z" fill="#FCFCFC"/>
<path d="M114.34 4.04633C113.307 4.04633 112.528 3.27531 112.528 2.15721C112.528 1.03918 113.285 0.268066 114.34 0.268066C115.393 0.268066 116.151 1.07947 116.151 2.15721C116.151 3.23495 115.393 4.04633 114.34 4.04633ZM114.34 0.615104C113.474 0.615104 112.906 1.25645 112.906 2.15721C112.906 3.05797 113.474 3.69942 114.34 3.69942C115.204 3.69942 115.772 3.05797 115.772 2.15721C115.772 1.25645 115.204 0.615104 114.34 0.615104Z" fill="#FCFCFC"/>
<path d="M114.852 2.48073C114.847 2.47193 114.852 2.45972 114.86 2.45446C115.097 2.33524 115.226 2.09869 115.226 1.80077C115.226 1.62555 115.169 1.0542 114.444 1.0542H113.651C113.609 1.0542 113.596 1.08228 113.609 1.11552C113.648 1.21719 113.666 1.28029 113.666 1.50812V3.10633C113.666 3.13431 113.688 3.15718 113.714 3.15718H114.102C114.128 3.15718 114.15 3.13431 114.15 3.10633V2.56131C114.15 2.55078 114.158 2.54205 114.168 2.54205H114.335C114.343 2.54205 114.352 2.54732 114.357 2.55604L114.618 3.12386C114.628 3.14314 114.646 3.15718 114.668 3.15718H115.152C115.192 3.15718 115.209 3.1221 115.19 3.08705L114.852 2.47722V2.48073ZM114.395 2.16528H114.168C114.158 2.16528 114.15 2.15651 114.15 2.14595V1.49402C114.15 1.48357 114.158 1.47477 114.168 1.47477H114.395C114.689 1.47477 114.735 1.6886 114.735 1.81473C114.735 1.91996 114.701 2.16696 114.395 2.16696V2.16528Z" fill="#FCFCFC"/>
</svg>
