<svg width="117" height="26" viewBox="0 0 117 26" fill="none" xmlns="http://www.w3.org/2000/svg">
<g clip-path="url(#clip0_1362_29528)">
<path d="M116.052 2.50654C114.798 2.55198 114.857 0.446555 116.052 0.507143C117.262 0.446555 117.262 2.56712 116.052 2.50654ZM116.052 0.681332C115.119 0.635891 115.061 2.36264 116.052 2.33235C117 2.37779 117 0.635891 116.052 0.681332ZM115.87 2.07485H115.695V0.969124H116.096C116.555 0.900963 116.614 1.56743 116.205 1.59015L116.504 2.07485H116.307L116.038 1.59772H115.87V2.07485ZM116.06 1.44625C116.548 1.40081 116.264 1.02214 115.863 1.12059V1.44625H116.06Z" fill="#FCFCFC"/>
<path d="M77.1275 13.822C77.1275 13.0117 76.4932 12.3603 75.7132 12.3679L69.3922 12.3906C67.5185 12.3528 68.058 15.0413 67.9924 16.2455C67.9924 17.0559 68.6267 17.7072 69.3995 17.7072C70.1577 17.5709 70.2525 18.2449 70.1941 18.8508C70.2014 19.3809 69.6401 19.4491 69.2464 19.4037C63.4503 19.9338 63.9242 9.40669 68.8308 9.21735C73.803 9.25522 72.1991 13.9583 76.1798 6.78627C77.2733 3.74931 71.4627 2.6966 68.7652 2.77234C64.1211 2.80263 60.3883 5.35489 58.6677 9.27794C58.2157 10.7396 60.5195 11.3001 59.9946 13.0874L59.1488 19.0477C59.9873 26.091 70.6243 26.6439 75.1299 24.1295C78.4398 22.9405 76.7776 16.4046 77.1275 13.822Z" fill="#FCFCFC"/>
<path d="M57.5085 11.2471L51.2604 10.2701C49.4159 9.94446 49.5544 12.686 49.3138 13.8599C49.1097 15.9199 51.2167 15.0717 51.1948 16.2001C51.1584 16.9726 50.9105 17.4498 50.0939 17.1847C44.2906 16.7909 46.2882 6.46823 51.1656 7.05139C56.0868 7.88447 53.8048 12.2544 58.7843 5.80177C60.2352 2.87841 54.7818 1.07593 52.0405 0.666961C45.7268 -0.294869 40.3974 3.72664 39.3767 10.2247C36.701 23.4707 56.2326 27.1362 57.7272 19.7294L58.6969 12.9057C58.8135 12.1029 58.2813 11.3607 57.5085 11.2471Z" fill="#FCFCFC"/>
<path d="M84.4182 24.9016C83.1715 24.5911 78.7242 25.8634 78.8117 23.4399V4.24119C78.7315 1.8707 83.1642 3.03701 84.4182 2.77952C85.1983 2.77952 85.8253 3.43841 85.8253 4.24119V23.4399C85.8253 24.2503 85.191 24.9016 84.4182 24.9016Z" fill="#FCFCFC"/>
<path d="M11.388 23.44V16.5178C11.388 16.1467 11.0963 15.8438 10.7391 15.8438C10.1631 16.0028 7.46561 15.3364 7.53122 16.5102C7.07191 24.9319 9.79861 25.1288 1.40709 24.8941C0.626994 24.8941 0 24.2352 0 23.4324V1.99192C0 1.18156 0.634285 0.530243 1.40709 0.530243H6.12413C6.90423 0.530243 7.53122 1.18913 7.53122 1.99192V8.51267C7.46561 9.69413 10.1631 9.01252 10.7391 9.18671C11.0963 9.18671 11.388 8.88377 11.388 8.51267V1.99192C11.3661 0.757447 12.5982 0.386347 13.5897 0.530243H17.4902C18.6859 0.522669 19.0285 1.79501 18.8973 2.825V23.44C18.8973 24.2503 18.2703 24.9016 17.4902 24.9016H12.7951C12.015 24.9016 11.388 24.2428 11.388 23.44Z" fill="#FCFCFC"/>
<path d="M88.8874 24.8938H99.2911C100.071 24.8938 100.705 24.2425 100.705 23.4397C100.589 22.1977 101.274 19.2289 99.2984 19.2592H94.8365C93.8887 19.2819 94.2605 17.752 94.1876 17.1765C94.122 16.0101 96.6446 16.6615 97.2132 16.5024C99.138 16.5479 98.5329 13.6851 98.6203 12.4658C98.6203 11.6554 97.9933 11.0041 97.2132 11.0041H94.8292C93.9179 11.0268 94.2314 9.62571 94.1803 9.06527C94.1803 8.69417 94.472 8.39123 94.8292 8.39123L99.0432 8.40638C101.012 8.45939 100.356 5.4603 100.458 4.24098C100.458 3.43061 99.8233 2.7793 99.0505 2.7793H88.8801C88.1 2.7793 87.473 3.43819 87.473 4.24855V23.4246C87.473 24.2349 88.1 24.8862 88.8801 24.8862" fill="#FCFCFC"/>
<path d="M32.3485 2.83257C31.5684 2.83257 30.9414 3.49146 30.9414 4.29425C30.9414 7.75532 30.9414 16.1846 30.9414 16.9116C30.9998 18.449 29.5489 19.3351 28.346 18.5929C26.5379 17.1085 27.9085 9.06553 27.5003 4.30182C27.5003 3.49146 26.8733 2.84014 26.0932 2.84014C24.8683 3.13551 20.4575 1.89346 20.5523 4.30182V17.3812C21.1501 29.3094 38.2758 26.386 37.8967 17.4342V4.30182C37.9769 1.94647 33.6025 3.09007 32.3558 2.84014" fill="#FCFCFC"/>
<path d="M102.732 23.099C107.267 27.0524 116.512 25.2272 116.942 18.5247C117.255 15.8891 116.227 13.6474 114.04 12.2008C112.801 11.398 111.291 10.8452 110.001 10.2166C107.923 9.23961 109.381 7.04331 111.146 7.55073C111.918 7.66433 113.063 8.00514 114.128 8.95939C114.929 9.63343 116.125 9.0427 116.125 7.96727C115.965 6.97515 116.628 4.18811 115.352 3.71099C110.482 0.711895 102.2 2.97636 102.207 9.46682C101.697 13.9806 106.159 15.7301 109.418 17.2902C111.116 18.2217 110.329 19.9636 108.521 19.638C107.056 19.8046 104.555 16.4344 103.199 18.7595C102.521 19.9712 101.099 21.9933 102.732 23.099Z" fill="#FCFCFC"/>
</g>
<defs>
<clipPath id="clip0_1362_29528">
<rect width="117" height="25" fill="white" transform="translate(0 0.5)"/>
</clipPath>
</defs>
</svg>
