<svg width="116" height="116" viewBox="0 0 116 116" fill="none" xmlns="http://www.w3.org/2000/svg">
<g clip-path="url(#clip0_2394_11736)">
<path d="M62.805 9.74519C62.175 9.68519 61.605 9.51519 61.075 9.23519C60.545 8.95519 60.115 8.59519 59.765 8.15519C59.415 7.71519 59.155 7.21519 58.985 6.64519C58.815 6.06519 58.765 5.46519 58.825 4.83519C58.885 4.21519 59.055 3.63519 59.325 3.10519C59.605 2.57519 59.945 2.12519 60.375 1.76519C60.805 1.40519 61.295 1.13519 61.865 0.955186C62.435 0.775186 63.035 0.715186 63.655 0.775186C64.625 0.865186 65.445 1.21519 66.125 1.80519C66.805 2.40519 67.245 3.15519 67.445 4.06519L66.085 3.93519C65.915 3.38519 65.605 2.93519 65.145 2.58519C64.685 2.23519 64.155 2.02519 63.535 1.96519C62.635 1.88519 61.865 2.12519 61.225 2.69519C60.585 3.26519 60.215 4.01519 60.125 4.96519C60.065 5.59519 60.145 6.16518 60.365 6.69519C60.585 7.22519 60.915 7.64519 61.355 7.97519C61.795 8.30519 62.325 8.49519 62.915 8.55519C63.525 8.61519 64.095 8.51519 64.615 8.24519C65.135 7.97519 65.525 7.59519 65.785 7.07519L67.145 7.20519C66.785 8.07519 66.215 8.73519 65.435 9.19519C64.655 9.65519 63.775 9.83519 62.815 9.74519H62.805Z" fill="#FEE3DC"/>
<path d="M71.225 11.325C70.425 11.095 69.745 10.705 69.195 10.145C68.645 9.58501 68.285 8.91501 68.095 8.15501C67.915 7.38501 67.935 6.59501 68.165 5.78501C68.335 5.17501 68.605 4.63501 68.975 4.16501C69.345 3.69501 69.775 3.31501 70.265 3.04501C70.755 2.77501 71.295 2.59501 71.895 2.52501C72.495 2.45501 73.085 2.50501 73.695 2.67501C74.495 2.90501 75.175 3.29501 75.725 3.86501C76.275 4.43501 76.635 5.09501 76.815 5.86501C76.995 6.63501 76.975 7.41501 76.755 8.21501C76.585 8.81501 76.315 9.35501 75.945 9.82501C75.575 10.295 75.145 10.675 74.655 10.955C74.165 11.235 73.625 11.405 73.025 11.475C72.425 11.545 71.835 11.495 71.225 11.325ZM71.575 10.165C72.435 10.405 73.245 10.315 73.995 9.87501C74.745 9.43501 75.245 8.76501 75.505 7.84501C75.675 7.25501 75.695 6.67501 75.565 6.11501C75.435 5.55501 75.185 5.07501 74.795 4.66501C74.415 4.25501 73.935 3.97501 73.365 3.81501C72.495 3.56501 71.695 3.66501 70.945 4.10501C70.195 4.54501 69.695 5.22501 69.435 6.12501C69.175 7.03501 69.255 7.87501 69.655 8.64501C70.065 9.41501 70.705 9.91501 71.565 10.165H71.575Z" fill="#FEE3DC"/>
<path d="M80.165 4.91504L82.115 5.90504L80.595 13.525L80.675 13.565L85.955 7.86504L87.895 8.85504L83.945 16.585L82.865 16.035L86.265 9.37504L86.175 9.33504L80.895 15.035L79.285 14.215L80.795 6.59504L80.715 6.55504L77.315 13.215L76.215 12.655L80.165 4.92504V4.91504Z" fill="#FEE3DC"/>
<path d="M85.535 16.4652L86.565 17.2052L90.325 11.9952L89.295 11.2552L89.955 10.3352L93.025 12.5452L92.365 13.4652L91.335 12.7252L87.575 17.9352L88.605 18.6752L87.945 19.5852L84.875 17.3752L85.535 16.4652Z" fill="#FEE3DC"/>
<path d="M94.925 13.9951L96.465 15.4451L93.755 23.1751L93.815 23.2351L98.955 17.8051L99.855 18.6551L93.885 24.9651L92.335 23.4951L95.085 15.8051L95.015 15.7451L89.875 21.1751L88.955 20.3051L94.925 13.9951Z" fill="#FEE3DC"/>
<path d="M96.955 29.125C96.455 28.445 96.165 27.7251 96.075 26.9451C95.985 26.1651 96.105 25.415 96.425 24.705C96.745 23.985 97.255 23.375 97.925 22.875C98.425 22.505 98.965 22.2351 99.545 22.0851C100.125 21.9351 100.685 21.895 101.245 21.965C101.795 22.035 102.325 22.2251 102.845 22.5251C103.365 22.8251 103.805 23.235 104.175 23.735C104.755 24.515 105.055 25.3551 105.065 26.2651C105.075 27.1751 104.815 28.0051 104.275 28.7651L103.455 27.6651C103.745 27.1751 103.875 26.6451 103.835 26.0651C103.795 25.4851 103.585 24.955 103.215 24.455C102.675 23.735 101.985 23.325 101.125 23.225C100.275 23.125 99.465 23.3651 98.705 23.9251C97.945 24.4951 97.485 25.205 97.335 26.055C97.185 26.905 97.375 27.6951 97.915 28.4151C98.105 28.6751 98.325 28.8951 98.565 29.0851C98.805 29.2751 99.065 29.425 99.345 29.545C99.625 29.665 99.935 29.715 100.275 29.705C100.615 29.695 100.955 29.6251 101.295 29.4951L99.775 27.455L100.655 26.805L103.035 30.0051C102.505 30.3251 101.985 30.565 101.465 30.705C100.945 30.845 100.475 30.905 100.045 30.875C99.615 30.845 99.205 30.7551 98.805 30.5951C98.415 30.4351 98.065 30.2351 97.765 29.9851C97.465 29.7351 97.185 29.445 96.945 29.125H96.955Z" fill="#FEE3DC"/>
<path d="M102.135 37.8952C101.765 37.0852 101.695 36.2952 101.935 35.5152C102.165 34.7452 102.665 34.1852 103.425 33.8352L103.945 34.9852C103.505 35.1852 103.215 35.5152 103.085 35.9652C102.945 36.4152 103.005 36.9052 103.245 37.4452C103.465 37.9152 103.745 38.2552 104.085 38.4552C104.435 38.6552 104.785 38.6652 105.145 38.5052C105.375 38.3952 105.555 38.2552 105.685 38.0852C105.805 37.9152 105.875 37.7252 105.905 37.5152C105.925 37.3052 105.925 37.0852 105.905 36.8352C105.875 36.5852 105.835 36.3352 105.785 36.0752C105.735 35.8152 105.685 35.5552 105.635 35.2852C105.595 35.0252 105.575 34.7552 105.585 34.4952C105.595 34.2352 105.645 33.9852 105.715 33.7552C105.795 33.5252 105.935 33.2952 106.145 33.0852C106.355 32.8752 106.625 32.6852 106.965 32.5352C107.255 32.4052 107.565 32.3352 107.875 32.3352C108.185 32.3352 108.495 32.3952 108.795 32.5252C109.095 32.6552 109.375 32.8552 109.645 33.1252C109.915 33.4052 110.135 33.7452 110.325 34.1452C110.445 34.4052 110.525 34.6652 110.585 34.9452C110.645 35.2152 110.665 35.4952 110.645 35.7852C110.625 36.0752 110.565 36.3452 110.465 36.6052C110.365 36.8652 110.195 37.1052 109.975 37.3352C109.755 37.5652 109.475 37.7552 109.145 37.9052L108.615 36.7452C109.025 36.5552 109.295 36.2752 109.415 35.8952C109.535 35.5152 109.485 35.0852 109.275 34.6152C109.065 34.1452 108.785 33.8352 108.465 33.6952C108.135 33.5552 107.815 33.5552 107.495 33.6952C107.305 33.7852 107.165 33.8952 107.055 34.0352C106.945 34.1752 106.885 34.3352 106.865 34.5152C106.845 34.6952 106.845 34.8852 106.855 35.0952C106.865 35.3052 106.895 35.5252 106.945 35.7552C106.995 35.9752 107.035 36.2152 107.065 36.4652C107.095 36.7152 107.125 36.9552 107.155 37.1852C107.185 37.4152 107.175 37.6552 107.135 37.8952C107.095 38.1352 107.035 38.3552 106.935 38.5652C106.845 38.7752 106.695 38.9752 106.485 39.1652C106.275 39.3552 106.015 39.5252 105.715 39.6652C105.065 39.9652 104.405 39.9652 103.735 39.6652C103.065 39.3652 102.535 38.7752 102.145 37.9152L102.135 37.8952Z" fill="#FEE3DC"/>
<path d="M104.755 45.1252C104.535 44.3152 104.525 43.5352 104.725 42.7752C104.925 42.0152 105.305 41.3552 105.865 40.8052C106.425 40.2552 107.115 39.8652 107.925 39.6452C108.535 39.4752 109.135 39.4352 109.735 39.5052C110.335 39.5752 110.875 39.7552 111.365 40.0252C111.855 40.3052 112.285 40.6752 112.645 41.1452C113.015 41.6152 113.275 42.1552 113.445 42.7552C113.665 43.5652 113.675 44.3452 113.475 45.1052C113.275 45.8652 112.895 46.5252 112.325 47.0752C111.765 47.6252 111.085 48.0152 110.275 48.2352C109.675 48.4052 109.075 48.4452 108.475 48.3752C107.875 48.3052 107.335 48.1252 106.845 47.8552C106.355 47.5752 105.925 47.2052 105.555 46.7352C105.185 46.2652 104.915 45.7252 104.755 45.1252ZM105.925 44.8252C106.165 45.6852 106.665 46.3252 107.425 46.7452C108.185 47.1552 109.025 47.2452 109.945 46.9952C110.545 46.8352 111.045 46.5552 111.455 46.1552C111.865 45.7552 112.155 45.2852 112.305 44.7452C112.455 44.2052 112.455 43.6552 112.305 43.0852C112.065 42.2152 111.565 41.5752 110.795 41.1652C110.025 40.7552 109.195 40.6652 108.285 40.9152C107.375 41.1652 106.695 41.6652 106.245 42.4052C105.805 43.1552 105.695 43.9552 105.935 44.8252H105.925Z" fill="#FEE3DC"/>
<path d="M106.315 54.0052C106.245 53.1752 106.385 52.4052 106.715 51.6952C107.045 50.9852 107.545 50.4152 108.205 49.9752C108.855 49.5352 109.605 49.2852 110.445 49.2152C111.075 49.1652 111.675 49.2352 112.245 49.4152C112.815 49.5952 113.315 49.8652 113.745 50.2352C114.175 50.6052 114.525 51.0452 114.795 51.5752C115.065 52.1052 115.235 52.6852 115.285 53.3052C115.355 54.1352 115.215 54.9052 114.875 55.6152C114.535 56.3252 114.035 56.8952 113.385 57.3352C112.725 57.7752 111.985 58.0252 111.155 58.0952C110.535 58.1452 109.935 58.0752 109.355 57.8952C108.785 57.7152 108.275 57.4452 107.845 57.0752C107.415 56.7152 107.065 56.2652 106.785 55.7352C106.505 55.2052 106.345 54.6252 106.295 54.0052H106.315ZM107.515 53.9252C107.585 54.8152 107.955 55.5352 108.635 56.0852C109.305 56.6352 110.115 56.8752 111.065 56.7952C111.685 56.7452 112.225 56.5652 112.705 56.2452C113.185 55.9352 113.545 55.5252 113.795 55.0252C114.045 54.5252 114.145 53.9752 114.095 53.3952C114.025 52.4952 113.645 51.7752 112.975 51.2252C112.295 50.6752 111.495 50.4352 110.555 50.5152C109.605 50.5952 108.845 50.9552 108.275 51.6052C107.705 52.2552 107.445 53.0252 107.525 53.9252H107.515Z" fill="#FEE3DC"/>
<path d="M115.385 59.9851L115.185 62.085L107.425 64.725V64.805L114.865 65.5051L114.745 66.745L106.095 65.9351L106.295 63.805L114.045 61.225V61.135L106.605 60.435L106.725 59.175L115.365 59.9851H115.385Z" fill="#FEE3DC"/>
<path d="M109.555 75.815L109.625 75.735L108.845 74.485L109.505 74.175L109.995 75.565H110.105L110.455 74.125L111.135 74.365L110.515 75.705L110.585 75.785L111.835 75.005L112.155 75.655L110.755 76.155V76.255L112.195 76.615L111.965 77.285L110.615 76.665L110.555 76.735L111.335 78.005L110.675 78.315L110.175 76.935H110.075L109.725 78.365L109.045 78.125L109.665 76.785L109.585 76.715L108.335 77.485L108.015 76.835L109.405 76.345V76.235L107.965 75.875L108.195 75.205L109.545 75.825L109.555 75.815Z" fill="#FEE3DC"/>
<path d="M108.335 85.965L107.565 87.075L100.515 84.115L100.455 84.195L105.735 89.705L104.615 91.315L97.585 88.335L97.535 88.405L102.795 93.955L102.025 95.075L96.015 88.505L97.145 86.875L104.165 89.875L104.225 89.795L98.935 84.295L100.075 82.655L108.345 85.965H108.335Z" fill="#FEE3DC"/>
<path d="M100.655 96.3351L97.085 99.9951L96.245 99.1751L98.935 96.4251L97.135 94.6651L94.825 97.0351L94.005 96.2351L96.315 93.8651L94.405 91.9951L91.635 94.8351L90.795 94.0151L94.455 90.2651L100.665 96.3351H100.655Z" fill="#FEE3DC"/>
<path d="M95.815 101.055L94.805 101.925L93.485 99.5052L94.225 98.8652L95.815 101.055Z" fill="#FEE3DC"/>
<path d="M93.365 103.165L91.065 104.805C90.345 105.315 89.625 105.535 88.925 105.455C88.225 105.375 87.645 105.015 87.195 104.375C86.825 103.855 86.645 103.305 86.655 102.745C86.665 102.185 86.875 101.655 87.295 101.175L83.415 99.5952L84.645 98.7152L88.265 100.315L89.275 99.5952L87.305 96.8252L88.335 96.0952L93.365 103.175V103.165ZM88.655 101.415C88.265 101.695 88.035 102.025 87.945 102.415C87.865 102.805 87.965 103.205 88.245 103.605C88.495 103.945 88.805 104.145 89.195 104.205C89.585 104.255 89.995 104.135 90.435 103.825L91.655 102.955L89.915 100.515L88.645 101.425L88.655 101.415Z" fill="#FEE3DC"/>
<path d="M86.865 107.555L82.345 109.945L81.795 108.915L85.195 107.115L84.015 104.885L81.085 106.435L80.545 105.415L83.475 103.865L82.225 101.495L78.715 103.355L78.165 102.325L82.795 99.875L86.855 107.545L86.865 107.555Z" fill="#FEE3DC"/>
<path d="M71.295 104.585C71.895 104.415 72.495 104.355 73.095 104.425C73.695 104.495 74.225 104.665 74.715 104.945C75.195 105.225 75.625 105.595 75.995 106.065C76.365 106.535 76.635 107.075 76.815 107.685C76.985 108.285 77.045 108.885 76.985 109.475C76.925 110.065 76.765 110.615 76.505 111.105C76.245 111.595 75.885 112.025 75.415 112.405C74.955 112.785 74.415 113.055 73.815 113.235C72.885 113.505 71.985 113.485 71.135 113.175C70.285 112.865 69.605 112.325 69.075 111.555L70.385 111.175C70.745 111.625 71.195 111.925 71.755 112.095C72.315 112.255 72.885 112.255 73.475 112.085C74.335 111.835 74.965 111.325 75.355 110.565C75.745 109.795 75.805 108.965 75.545 108.055C75.375 107.455 75.085 106.945 74.695 106.535C74.305 106.125 73.835 105.845 73.295 105.705C72.755 105.565 72.205 105.575 71.635 105.745C71.045 105.915 70.555 106.225 70.165 106.655C69.775 107.095 69.555 107.595 69.505 108.165L68.195 108.545C68.215 107.605 68.505 106.775 69.055 106.065C69.615 105.355 70.355 104.855 71.295 104.585Z" fill="#FEE3DC"/>
<path d="M62.855 106.205C63.685 106.125 64.455 106.245 65.175 106.565C65.895 106.885 66.475 107.375 66.925 108.015C67.375 108.665 67.645 109.405 67.725 110.245C67.785 110.875 67.725 111.475 67.555 112.055C67.385 112.635 67.115 113.135 66.765 113.575C66.415 114.005 65.965 114.365 65.445 114.655C64.915 114.935 64.345 115.115 63.715 115.175C62.885 115.255 62.115 115.135 61.395 114.805C60.675 114.475 60.095 113.995 59.645 113.345C59.195 112.695 58.925 111.965 58.845 111.135C58.785 110.515 58.845 109.915 59.015 109.335C59.185 108.755 59.455 108.255 59.805 107.815C60.155 107.375 60.595 107.015 61.125 106.735C61.655 106.445 62.225 106.275 62.855 106.215V106.205ZM62.955 107.405C62.065 107.495 61.345 107.875 60.815 108.565C60.275 109.245 60.055 110.055 60.155 111.005C60.215 111.615 60.405 112.165 60.735 112.635C61.055 113.105 61.475 113.465 61.975 113.705C62.485 113.945 63.025 114.035 63.615 113.975C64.515 113.885 65.225 113.495 65.765 112.815C66.305 112.125 66.525 111.315 66.435 110.385C66.345 109.445 65.965 108.685 65.305 108.125C64.645 107.565 63.865 107.325 62.975 107.415L62.955 107.405Z" fill="#FEE3DC"/>
<path d="M53.855 106.275C54.685 106.345 55.425 106.605 56.075 107.055C56.715 107.505 57.205 108.085 57.535 108.805C57.865 109.525 57.985 110.305 57.915 111.145C57.865 111.775 57.695 112.355 57.425 112.895C57.155 113.435 56.805 113.875 56.375 114.245C55.945 114.605 55.445 114.885 54.875 115.065C54.305 115.245 53.705 115.315 53.085 115.265C52.255 115.195 51.515 114.935 50.865 114.485C50.225 114.035 49.735 113.445 49.405 112.735C49.075 112.015 48.955 111.245 49.025 110.415C49.075 109.795 49.245 109.215 49.515 108.675C49.785 108.135 50.145 107.685 50.565 107.325C50.995 106.955 51.495 106.685 52.065 106.505C52.635 106.325 53.235 106.255 53.855 106.305V106.275ZM53.735 107.475C52.845 107.395 52.065 107.645 51.415 108.225C50.765 108.795 50.395 109.555 50.315 110.505C50.265 111.125 50.355 111.695 50.585 112.215C50.815 112.735 51.155 113.165 51.615 113.495C52.075 113.825 52.595 114.005 53.175 114.055C54.075 114.135 54.845 113.885 55.495 113.305C56.145 112.725 56.515 111.975 56.595 111.035C56.675 110.095 56.445 109.285 55.895 108.605C55.345 107.925 54.625 107.555 53.725 107.485L53.735 107.475Z" fill="#FEE3DC"/>
<path d="M46.515 114.205L45.285 113.895L46.175 110.395L45.115 110.125L41.885 113.025L40.415 112.655L44.235 109.325L42.415 104.205L43.915 104.585L45.395 108.995L46.455 109.265L47.415 105.475L48.645 105.785L46.505 114.195L46.515 114.205Z" fill="#FEE3DC"/>
<path d="M41.685 105.035L40.505 104.575L38.175 110.565L39.355 111.025L38.945 112.075L35.415 110.705L35.825 109.645L37.005 110.105L39.335 104.115L38.155 103.655L38.565 102.605L42.095 103.985L41.685 105.035Z" fill="#FEE3DC"/>
<path d="M33.185 109.765L31.335 108.735L32.035 100.575L31.965 100.535L28.335 107.075L27.245 106.475L31.455 98.885L33.325 99.925L32.575 108.065L32.655 108.105L36.285 101.565L37.395 102.175L33.185 109.765Z" fill="#FEE3DC"/>
<path d="M27.475 95.6151C28.125 96.1451 28.585 96.7751 28.865 97.5151C29.145 98.2451 29.215 99.0051 29.075 99.7751C28.935 100.555 28.605 101.265 28.075 101.925C27.685 102.415 27.225 102.795 26.695 103.095C26.175 103.385 25.635 103.565 25.085 103.625C24.535 103.695 23.965 103.645 23.395 103.475C22.825 103.305 22.295 103.025 21.805 102.635C21.045 102.025 20.555 101.275 20.315 100.405C20.075 99.5251 20.125 98.6551 20.465 97.7851L21.535 98.6551C21.375 99.2051 21.385 99.7551 21.565 100.305C21.745 100.855 22.085 101.325 22.565 101.715C23.265 102.285 24.035 102.505 24.895 102.385C25.745 102.265 26.465 101.845 27.065 101.105C27.665 100.365 27.935 99.5651 27.865 98.7051C27.795 97.8451 27.415 97.1251 26.715 96.5551C26.465 96.3551 26.195 96.1851 25.925 96.0651C25.645 95.9451 25.355 95.8551 25.055 95.8151C24.755 95.7751 24.435 95.7951 24.115 95.8851C23.795 95.9751 23.475 96.1251 23.175 96.3451L25.155 97.9451L24.465 98.7951L21.365 96.2851C21.795 95.8451 22.245 95.4851 22.715 95.2151C23.185 94.9451 23.625 94.7751 24.055 94.6951C24.485 94.6151 24.905 94.6051 25.325 94.6551C25.745 94.7051 26.135 94.8151 26.485 94.9851C26.835 95.1551 27.175 95.3651 27.495 95.6151H27.475Z" fill="#FEE3DC"/>
<path d="M14.355 90.6751L14.385 90.7751L15.865 90.8351L15.755 91.5551L14.325 91.1851L14.275 91.2851L15.265 92.3751L14.685 92.8051L13.925 91.5451L13.825 91.5651L13.765 93.0451L13.045 92.9451L13.405 91.5051L13.325 91.4551L12.225 92.4451L11.805 91.8751L13.075 91.1051L13.045 91.0151L11.565 90.9451L11.675 90.2251L13.095 90.5851L13.145 90.5051L12.155 89.4151L12.735 88.9851L13.495 90.2451L13.595 90.2151L13.655 88.7451L14.375 88.8451L14.005 90.2751L14.095 90.3351L15.195 89.3451L15.615 89.9151L14.345 90.6851L14.355 90.6751Z" fill="#FEE3DC"/>
<path d="M13.105 76.2452C13.345 76.8252 13.465 77.4152 13.455 78.0152C13.455 78.6152 13.335 79.1652 13.115 79.6752C12.895 80.1852 12.565 80.6452 12.135 81.0652C11.705 81.4852 11.195 81.8152 10.615 82.0552C10.035 82.2952 9.445 82.4152 8.845 82.4152C8.245 82.4152 7.685 82.3152 7.175 82.1152C6.665 81.9152 6.185 81.5952 5.765 81.1752C5.345 80.7552 5.005 80.2552 4.765 79.6752C4.395 78.7752 4.315 77.8852 4.525 77.0052C4.735 76.1252 5.195 75.3852 5.915 74.7852L6.435 76.0452C6.025 76.4452 5.775 76.9352 5.675 77.5052C5.575 78.0752 5.645 78.6452 5.875 79.2152C6.215 80.0452 6.795 80.6152 7.595 80.9152C8.395 81.2152 9.235 81.1952 10.115 80.8352C10.695 80.5952 11.175 80.2552 11.535 79.8152C11.905 79.3752 12.125 78.8852 12.205 78.3352C12.285 77.7852 12.205 77.2352 11.985 76.6852C11.745 76.1152 11.395 75.6652 10.915 75.3252C10.435 74.9852 9.915 74.8252 9.335 74.8352L8.815 73.5752C9.755 73.4852 10.605 73.6852 11.375 74.1652C12.145 74.6452 12.715 75.3352 13.085 76.2252L13.105 76.2452Z" fill="#FEE3DC"/>
<path d="M10.575 68.0451C10.745 68.8651 10.715 69.6451 10.475 70.3951C10.235 71.1451 9.81499 71.7751 9.22499 72.2951C8.63499 72.8151 7.92499 73.1651 7.09499 73.3351C6.47499 73.4651 5.87499 73.4751 5.28499 73.3651C4.69499 73.2551 4.16499 73.0551 3.69499 72.7451C3.22499 72.4351 2.81499 72.0451 2.48499 71.5451C2.14499 71.0551 1.91499 70.4951 1.78499 69.8851C1.61499 69.0651 1.64499 68.2851 1.89499 67.5351C2.14499 66.7851 2.56499 66.1551 3.15499 65.6351C3.74499 65.1151 4.45499 64.7751 5.26499 64.5951C5.87499 64.4651 6.47499 64.4551 7.07499 64.5651C7.67499 64.6751 8.19499 64.8751 8.67499 65.1851C9.14499 65.4851 9.55499 65.8851 9.89499 66.3851C10.235 66.8751 10.475 67.4351 10.605 68.0451H10.575ZM9.39499 68.2751C9.20499 67.3951 8.74499 66.7351 8.01499 66.2751C7.27499 65.8151 6.44499 65.6851 5.51499 65.8851C4.91499 66.0151 4.39499 66.2651 3.95499 66.6351C3.51499 67.0051 3.20499 67.4551 3.02499 67.9851C2.84499 68.5151 2.81499 69.0651 2.93499 69.6451C3.12499 70.5251 3.58499 71.1951 4.32499 71.6551C5.06499 72.1151 5.89499 72.2451 6.81499 72.0551C7.74499 71.8551 8.45499 71.4051 8.93499 70.6851C9.42499 69.9651 9.57499 69.1651 9.38499 68.2851L9.39499 68.2751Z" fill="#FEE3DC"/>
<path d="M0.75499 63.1552L0.71499 60.9652L8.15499 58.7352V58.6552L0.65499 56.6652L0.61499 54.4852L9.29499 54.3452L9.31499 55.5652L1.83499 55.6852V55.7852L9.34499 57.7752L9.37499 59.5852L1.93499 61.8252V61.9152L9.41499 61.7952L9.43499 63.0252L0.75499 63.1652V63.1552Z" fill="#FEE3DC"/>
<path d="M8.445 53.0051L8.615 51.7551L2.255 50.8751L2.085 52.1251L0.964996 51.9751L1.485 48.2251L2.605 48.3751L2.435 49.6251L8.795 50.5051L8.965 49.2551L10.085 49.4051L9.565 53.1551L8.445 53.0051Z" fill="#FEE3DC"/>
<path d="M1.86498 45.8552L2.43498 43.8152L10.535 42.5952L10.555 42.5152L3.35498 40.5152L3.68498 39.3152L12.045 41.6452L11.475 43.7052L3.38498 44.8752L3.36498 44.9652L10.565 46.9652L10.225 48.1852L1.85498 45.8552H1.86498Z" fill="#FEE3DC"/>
<path d="M14.305 36.985C13.935 37.745 13.435 38.335 12.785 38.775C12.135 39.215 11.415 39.455 10.635 39.505C9.84498 39.555 9.07497 39.395 8.31497 39.025C7.75497 38.755 7.26497 38.395 6.86497 37.955C6.46497 37.515 6.16497 37.035 5.97497 36.505C5.78497 35.975 5.70497 35.425 5.72497 34.825C5.74497 34.225 5.90497 33.645 6.17497 33.085C6.59497 32.205 7.20497 31.555 8.00497 31.125C8.80497 30.695 9.66498 30.535 10.585 30.665L9.99498 31.905C9.42498 31.875 8.89497 32.005 8.40497 32.315C7.91497 32.625 7.53497 33.055 7.26497 33.605C6.87497 34.415 6.83498 35.225 7.14498 36.025C7.45498 36.825 8.03498 37.435 8.88498 37.835C9.74498 38.245 10.585 38.325 11.405 38.055C12.225 37.795 12.835 37.255 13.225 36.435C13.365 36.145 13.465 35.845 13.515 35.545C13.575 35.245 13.585 34.945 13.555 34.635C13.525 34.335 13.425 34.035 13.265 33.735C13.105 33.435 12.885 33.175 12.605 32.925L11.505 35.215L10.525 34.745L12.255 31.145C12.785 31.465 13.235 31.815 13.605 32.205C13.975 32.595 14.245 32.985 14.415 33.385C14.595 33.785 14.705 34.185 14.745 34.615C14.785 35.035 14.775 35.435 14.695 35.825C14.615 36.205 14.485 36.585 14.315 36.955L14.305 36.985Z" fill="#FEE3DC"/>
<path d="M19.645 28.3252C19.095 29.0352 18.425 29.4652 17.635 29.6152C16.845 29.7652 16.115 29.5952 15.455 29.0852L16.225 28.0852C16.605 28.3852 17.035 28.4852 17.495 28.3952C17.955 28.3052 18.365 28.0252 18.725 27.5652C19.045 27.1552 19.205 26.7452 19.225 26.3452C19.235 25.9452 19.085 25.6252 18.775 25.3852C18.575 25.2252 18.365 25.1352 18.155 25.1052C17.945 25.0752 17.745 25.1052 17.545 25.1852C17.355 25.2652 17.155 25.3752 16.945 25.5052C16.745 25.6452 16.535 25.7952 16.325 25.9652C16.115 26.1352 15.905 26.2952 15.695 26.4552C15.485 26.6152 15.255 26.7552 15.025 26.8652C14.785 26.9752 14.545 27.0552 14.305 27.0952C14.065 27.1352 13.795 27.1152 13.515 27.0252C13.225 26.9352 12.935 26.7852 12.645 26.5552C12.385 26.3552 12.185 26.1152 12.045 25.8452C11.895 25.5652 11.805 25.2652 11.785 24.9452C11.755 24.6252 11.805 24.2752 11.925 23.9152C12.045 23.5452 12.235 23.1952 12.505 22.8452C12.675 22.6252 12.875 22.4252 13.085 22.2452C13.295 22.0652 13.535 21.9152 13.805 21.7952C14.065 21.6752 14.335 21.6052 14.615 21.5752C14.895 21.5452 15.185 21.5752 15.485 21.6652C15.785 21.7552 16.085 21.9152 16.375 22.1352L15.595 23.1452C15.235 22.8652 14.865 22.7652 14.475 22.8352C14.085 22.9052 13.725 23.1452 13.415 23.5552C13.095 23.9652 12.955 24.3452 12.985 24.7052C13.015 25.0652 13.165 25.3452 13.435 25.5552C13.595 25.6852 13.765 25.7552 13.945 25.7852C14.125 25.8152 14.295 25.7852 14.455 25.7252C14.615 25.6652 14.795 25.5752 14.975 25.4652C15.155 25.3552 15.335 25.2252 15.515 25.0752C15.695 24.9252 15.875 24.7852 16.085 24.6352C16.295 24.4852 16.485 24.3552 16.685 24.2152C16.885 24.0752 17.095 23.9752 17.325 23.9052C17.555 23.8352 17.785 23.7852 18.005 23.7652C18.235 23.7552 18.485 23.7952 18.745 23.8852C19.015 23.9852 19.275 24.1352 19.545 24.3452C20.115 24.7852 20.415 25.3652 20.455 26.1052C20.495 26.8452 20.225 27.5752 19.655 28.3252H19.645Z" fill="#FEE3DC"/>
<path d="M24.825 22.625C24.215 23.195 23.525 23.5751 22.765 23.7551C22.005 23.9351 21.245 23.9051 20.495 23.6651C19.745 23.4251 19.075 23.005 18.505 22.385C18.075 21.925 17.755 21.4151 17.535 20.8551C17.325 20.2951 17.225 19.7351 17.235 19.1751C17.255 18.6151 17.385 18.0651 17.625 17.5151C17.875 16.9651 18.225 16.4851 18.675 16.0551C19.285 15.4851 19.975 15.1051 20.735 14.9351C21.505 14.7551 22.265 14.7851 23.015 15.0251C23.765 15.2651 24.425 15.6851 24.995 16.2951C25.425 16.7551 25.745 17.2651 25.955 17.8251C26.165 18.3851 26.265 18.9451 26.255 19.5151C26.245 20.0751 26.115 20.6351 25.865 21.1751C25.625 21.7251 25.275 22.215 24.815 22.635L24.825 22.625ZM24.015 21.7351C24.665 21.1251 25.005 20.3851 25.015 19.5151C25.025 18.6451 24.705 17.8651 24.055 17.1751C23.635 16.7251 23.145 16.4051 22.605 16.2251C22.065 16.0451 21.515 16.0151 20.965 16.1351C20.415 16.2551 19.935 16.5151 19.505 16.9151C18.845 17.5351 18.515 18.2751 18.505 19.1451C18.505 20.015 18.815 20.7951 19.455 21.475C20.105 22.1651 20.865 22.5351 21.725 22.5751C22.585 22.6151 23.355 22.335 24.005 21.715L24.015 21.7351Z" fill="#FEE3DC"/>
<path d="M31.925 17.0951C31.225 17.5451 30.475 17.7851 29.695 17.8251C28.915 17.8651 28.175 17.6951 27.475 17.3251C26.775 16.9551 26.205 16.4151 25.755 15.7051C25.415 15.1751 25.195 14.6151 25.085 14.0251C24.975 13.4351 24.985 12.8651 25.105 12.3151C25.225 11.7651 25.455 11.2451 25.795 10.7551C26.135 10.2651 26.575 9.84512 27.095 9.51512C27.795 9.06512 28.545 8.82512 29.335 8.79512C30.125 8.76512 30.865 8.93512 31.555 9.30512C32.255 9.67512 32.825 10.2151 33.265 10.9151C33.605 11.4451 33.825 12.0051 33.935 12.5951C34.045 13.1851 34.035 13.7551 33.915 14.3051C33.795 14.8551 33.565 15.3751 33.225 15.8651C32.885 16.3551 32.445 16.7751 31.925 17.1151V17.0951ZM31.295 16.0751C32.045 15.5951 32.515 14.9251 32.685 14.0751C32.855 13.2251 32.685 12.3951 32.175 11.5951C31.845 11.0751 31.425 10.6751 30.925 10.3951C30.425 10.1151 29.895 9.98512 29.335 10.0051C28.775 10.0251 28.245 10.1851 27.755 10.5051C26.995 10.9851 26.535 11.6551 26.365 12.5151C26.195 13.3651 26.365 14.1951 26.875 14.9851C27.385 15.7851 28.065 16.2851 28.905 16.4851C29.745 16.6851 30.555 16.5451 31.305 16.0651L31.295 16.0751Z" fill="#FEE3DC"/>
<path d="M32.995 6.26505L34.945 5.45505L40.895 11.085L40.975 11.055L38.125 4.14505L39.275 3.67505L42.585 11.695L40.605 12.515L34.705 6.86505L34.625 6.89505L37.475 13.805L36.305 14.285L32.995 6.26505Z" fill="#FEE3DC"/>
<path d="M49.705 4.05509L49.595 4.03509L48.845 5.30509L48.265 4.86509L49.265 3.77509L49.205 3.68509L47.775 4.03509L47.665 3.32509L49.135 3.24509L49.165 3.14509L47.895 2.39509L48.325 1.80509L49.425 2.80509L49.505 2.75509L49.145 1.31509L49.845 1.21509L49.925 2.69509L50.025 2.71509L50.785 1.43509L51.365 1.87509L50.375 2.95509L50.425 3.03509L51.855 2.68509L51.965 3.39509L50.495 3.47509L50.475 3.58509L51.735 4.33509L51.305 4.92509L50.215 3.92509L50.115 3.97509L50.465 5.41509L49.765 5.51509L49.685 4.03509L49.705 4.05509Z" fill="#FEE3DC"/>
</g>
<defs>
<clipPath id="clip0_2394_11736">
<rect width="114.77" height="114.51" fill="white" transform="translate(0.61499 0.745117)"/>
</clipPath>
</defs>
</svg>
