<svg width="82" height="82" viewBox="0 0 32 32" fill="none" xmlns="http://www.w3.org/2000/svg">
<path d="M14 16C11.7944 16 10 14.2056 10 12C10 9.79437 11.7944 8 14 8C16.2057 8 18 9.79437 18 12C18 14.2055 16.2056 16 14 16ZM14 9.69922C12.7313 9.69922 11.699 10.7313 11.699 12C11.699 13.2687 12.7313 14.3008 14 14.3008C15.2688 14.3008 16.301 13.2687 16.301 12C16.301 10.7313 15.2687 9.69922 14 9.69922Z" fill="#FEE3DC"/>
<path d="M31.3458 28.1824L27.7693 24.6079C27.0683 23.9072 26.0133 23.7708 25.1745 24.1988L23.7978 22.8227C26.0775 20.3079 27.3251 17.0819 27.3251 13.6641C27.3251 10.0163 25.9039 6.58682 23.3233 4.00738C20.7428 1.42807 17.3119 0.00756836 13.6626 0.00756836C10.0133 0.00756836 6.58225 1.42807 4.00175 4.00738C1.42119 6.58676 0 10.0163 0 13.6641C0 17.312 1.42119 20.7415 4.00175 23.3209C6.58225 25.9003 10.0132 27.3207 13.6625 27.3207C17.0818 27.3207 20.3094 26.0736 22.8253 23.7948L24.2017 25.1705C24.0425 25.4813 23.9582 25.8275 23.9582 26.1867C23.9582 26.7832 24.1906 27.3439 24.6124 27.7656L28.1889 31.3402C28.6241 31.7751 29.1957 31.9926 29.7674 31.9926C30.339 31.9926 30.9106 31.7751 31.3458 31.3402C31.7677 30.9185 32.0001 30.3578 32.0001 29.7613C32.0001 29.1648 31.7676 28.6041 31.3458 28.1824ZM13.6626 25.9399C10.5163 25.9396 7.36906 24.7425 4.97381 22.3484C2.65306 20.0287 1.375 16.9446 1.375 13.6641C1.375 10.3837 2.65306 7.29957 4.97381 4.97988C7.36931 2.58544 10.5159 1.38826 13.6626 1.38826C16.8092 1.38826 19.9557 2.58544 22.3513 4.97988C24.6721 7.29951 25.9501 10.3836 25.9501 13.6641C25.9501 16.9445 24.6721 20.0287 22.3513 22.3483C19.9555 24.743 16.8095 25.9402 13.6626 25.9399ZM29.1609 30.3676L25.5844 26.7931C25.4224 26.6311 25.3331 26.4158 25.3331 26.1867C25.3331 25.9577 25.4224 25.7423 25.5844 25.5803C25.9188 25.2461 26.4629 25.2461 26.7973 25.5804L30.3737 29.1549C30.5357 29.3168 30.625 29.5322 30.625 29.7613C30.625 29.9903 30.5357 30.2057 30.3737 30.3676C30.0394 30.702 29.4953 30.7019 29.1609 30.3676Z" fill="#FEE3DC"/>
<path d="M22.0694 14.0333C21.563 13.4024 21.4736 12.5398 21.8361 11.782C22.1477 11.1307 22.2976 10.4316 22.2814 9.70397C22.2552 8.5276 21.7789 7.41678 20.94 6.57628C20.1011 5.73578 18.9911 5.25722 17.8146 5.22872C17.5946 5.22353 17.3729 5.23378 17.1556 5.25966C16.4721 5.3406 15.7786 5.06872 15.3003 4.53153C14.3695 3.48597 13.0316 2.92835 11.6314 3.0021C10.5564 3.05853 9.51105 3.53772 8.68805 4.35153C7.86487 5.16541 7.37412 6.20528 7.30624 7.27935C7.29324 7.48341 7.29374 7.68972 7.30755 7.89278C7.36193 8.68659 7.00037 9.43272 6.36399 9.83978C5.00024 10.712 4.21005 12.1987 4.25024 13.8167C4.30612 16.0621 6.03018 17.9661 8.26068 18.2455C8.26355 18.2458 8.26643 18.2462 8.26905 18.2465C8.27262 18.2469 8.27605 18.2473 8.27962 18.2477C8.3813 18.2582 8.47287 18.3115 8.53087 18.394C8.56212 18.4384 8.61012 18.5308 8.58043 18.651C8.47243 19.088 8.42968 19.5403 8.45324 19.9951C8.57668 22.3755 10.5419 24.2803 12.9274 24.3315C12.9604 24.3323 12.9933 24.3327 13.0262 24.3327C14.4952 24.3327 15.8782 23.628 16.7416 22.4343C17.1706 21.8413 17.8397 21.484 18.5303 21.4787C18.5653 21.4785 18.6004 21.4778 18.6347 21.4768C21.0537 21.4047 23.0037 19.4535 23.0741 17.0347C23.1059 15.9458 22.7491 14.88 22.0694 14.0333ZM21.6997 16.9947C21.6505 18.6868 20.2862 20.0519 18.5929 20.1023C18.5691 20.1032 18.5454 20.1036 18.5207 20.1037C17.3935 20.1124 16.3119 20.6823 15.6275 21.6284C15.0095 22.4829 14.0129 22.9802 12.9569 22.9569C11.2877 22.9211 9.91268 21.5888 9.82637 19.924C9.80974 19.604 9.83968 19.2867 9.91524 18.9808C10.0324 18.5065 9.93774 18.0044 9.65568 17.6031C9.37005 17.1969 8.9228 16.9339 8.42793 16.8807C6.86874 16.6835 5.66387 15.3523 5.6248 13.7825C5.59668 12.6498 6.14993 11.609 7.10493 10.9982C8.1648 10.3201 8.76805 9.09422 8.67937 7.79891C8.66962 7.65597 8.6693 7.51047 8.67843 7.36628C8.77412 5.85247 10.1877 4.45478 11.7035 4.37522C12.6846 4.32366 13.6216 4.71385 14.2732 5.44585C15.0502 6.3186 16.1885 6.75966 17.3177 6.62503C17.4704 6.60697 17.6261 6.59947 17.7814 6.60335C19.4672 6.64403 20.8692 8.04872 20.9066 9.73447C20.9179 10.2444 20.8133 10.7337 20.5956 11.1887C20.003 12.4275 20.1568 13.8473 20.9971 14.8941C21.4724 15.4862 21.7219 16.2321 21.6997 16.9947Z" fill="#FEE3DC"/>
</svg>
