<svg width="200" height="117" viewBox="0 0 200 117" fill="none" xmlns="http://www.w3.org/2000/svg">
<g clip-path="url(#clip0_1350_25080)">
<path d="M158.052 48.007C156.798 48.0525 156.857 45.947 158.052 46.0076C159.262 45.947 159.262 48.0676 158.052 48.007ZM158.052 46.1818C157.119 46.1364 157.061 47.8631 158.052 47.8328C159 47.8783 159 46.1364 158.052 46.1818ZM157.87 47.5753H157.695V46.4696H158.096C158.555 46.4015 158.614 47.0679 158.205 47.0906L158.504 47.5753H158.307L158.038 47.0982H157.87V47.5753ZM158.059 46.9467C158.548 46.9013 158.264 46.5226 157.863 46.6211V46.9467H158.059Z" fill="#E1251B"/>
<path d="M119.128 59.3215C119.128 58.5112 118.493 57.8599 117.713 57.8674L111.392 57.8901C109.518 57.8523 110.058 60.5409 109.992 61.745C109.992 62.5554 110.627 63.2067 111.399 63.2067C112.158 63.0704 112.252 63.7444 112.194 64.3503C112.201 64.8805 111.64 64.9486 111.246 64.9032C105.45 65.4333 105.924 54.9062 110.831 54.7169C115.803 54.7547 114.199 59.4579 118.18 52.2858C119.273 49.2488 113.463 48.1961 110.765 48.2718C106.121 48.3021 102.388 50.8544 100.668 54.7775C100.216 56.2391 102.519 56.7996 101.995 58.5869L101.149 64.5472C101.987 71.5905 112.624 72.1434 117.13 69.629C120.44 68.44 118.778 61.9041 119.128 59.3215Z" fill="#E1251B"/>
<path d="M99.5084 56.7466L93.2604 55.7696C91.4158 55.444 91.5544 58.1856 91.3138 59.3594C91.1096 61.4194 93.2166 60.5712 93.1948 61.6996C93.1583 62.4721 92.9104 62.9493 92.0939 62.6842C86.2905 62.2904 88.2882 51.9677 93.1656 52.5509C98.0868 53.384 95.8048 57.7539 100.784 51.3013C102.235 48.3779 96.7817 46.5754 94.0405 46.1665C87.7268 45.2046 82.3973 49.2262 81.3767 55.7242C78.701 68.9702 98.2326 72.6357 99.7272 65.2289L100.697 58.4052C100.813 57.6024 100.281 56.8602 99.5084 56.7466Z" fill="#E1251B"/>
<path d="M126.418 70.4016C125.171 70.0911 120.724 71.3634 120.812 68.9399V49.7412C120.731 47.3707 125.164 48.537 126.418 48.2795C127.198 48.2795 127.825 48.9384 127.825 49.7412V68.9399C127.825 69.7503 127.191 70.4016 126.418 70.4016Z" fill="#E1251B"/>
<path d="M53.3879 68.94V62.0178C53.3879 61.6467 53.0963 61.3438 52.7391 61.3438C52.1631 61.5028 49.4656 60.8364 49.5312 62.0102C49.0719 70.4319 51.7986 70.6288 43.4071 70.3941C42.627 70.3941 42 69.7352 42 68.9324V47.4919C42 46.6816 42.6343 46.0302 43.4071 46.0302H48.1241C48.9042 46.0302 49.5312 46.6891 49.5312 47.4919V54.0127C49.4656 55.1941 52.1631 54.5125 52.7391 54.6867C53.0963 54.6867 53.3879 54.3838 53.3879 54.0127V47.4919C53.3661 46.2574 54.5982 45.8863 55.5897 46.0302H59.4902C60.6859 46.0227 61.0285 47.295 60.8973 48.325V68.94C60.8973 69.7503 60.2703 70.4016 59.4902 70.4016H54.795C54.0149 70.4016 53.3879 69.7428 53.3879 68.94Z" fill="#E1251B"/>
<path d="M130.887 70.3943H141.291C142.071 70.3943 142.705 69.743 142.705 68.9402C142.589 67.6981 143.274 64.7293 141.298 64.7596H136.836C135.889 64.7824 136.261 63.2525 136.188 62.6769C136.122 61.5106 138.645 62.1619 139.213 62.0029C141.138 62.0483 140.533 59.1856 140.62 57.9662C140.62 57.1559 139.993 56.5046 139.213 56.5046H136.829C135.918 56.5273 136.231 55.1262 136.18 54.5658C136.18 54.1947 136.472 53.8917 136.829 53.8917L141.043 53.9069C143.012 53.9599 142.355 50.9608 142.458 49.7415C142.458 48.9311 141.823 48.2798 141.05 48.2798H130.88C130.1 48.2798 129.473 48.9387 129.473 49.749V68.925C129.473 69.7354 130.1 70.3867 130.88 70.3867" fill="#E1251B"/>
<path d="M74.3485 48.3326C73.5684 48.3326 72.9414 48.9915 72.9414 49.7942C72.9414 53.2553 72.9414 61.6846 72.9414 62.4116C72.9997 63.949 71.5489 64.8351 70.3459 64.0929C68.5379 62.6085 69.9085 54.5655 69.5002 49.8018C69.5002 48.9915 68.8732 48.3401 68.0931 48.3401C66.8683 48.6355 62.4575 47.3935 62.5523 49.8018V62.8812C63.1501 74.8094 80.2758 71.886 79.8967 62.9342V49.8018C79.9769 47.4465 75.6025 48.5901 74.3558 48.3401" fill="#E1251B"/>
<path d="M144.732 68.599C149.267 72.5524 158.512 70.7272 158.942 64.0247C159.255 61.3891 158.227 59.1474 156.04 57.7008C154.801 56.898 153.291 56.3452 152.001 55.7166C149.923 54.7396 151.381 52.5433 153.146 53.0507C153.918 53.1643 155.063 53.5051 156.127 54.4594C156.929 55.1334 158.125 54.5427 158.125 53.4673C157.965 52.4751 158.628 49.6881 157.352 49.211C152.482 46.2119 144.2 48.4764 144.207 54.9668C143.697 59.4806 148.159 61.2301 151.418 62.7902C153.116 63.7217 152.329 65.4636 150.521 65.138C149.056 65.3046 146.555 61.9344 145.199 64.2595C144.521 65.4712 143.099 67.4933 144.732 68.599Z" fill="#E1251B"/>
</g>
<defs>
<clipPath id="clip0_1350_25080">
<rect width="117" height="25" fill="white" transform="translate(42 46)"/>
</clipPath>
</defs>
</svg>
