<svg width="200" height="117" viewBox="0 0 200 117" fill="none" xmlns="http://www.w3.org/2000/svg">
<path d="M100.893 71.2172C101.141 71.0643 101.167 70.786 101.265 70.5549C103.595 65.0736 106.153 59.7088 109.467 54.7398C111.192 52.154 113.585 50.9851 116.709 51.4666C116.85 51.4882 116.99 51.5121 117.128 51.5462C117.474 51.6321 117.84 51.7007 117.968 52.1067C118.097 52.5166 117.841 52.7775 117.582 53.0303C115.6 54.9612 113.99 57.1848 112.507 59.5059C109.728 63.8548 107.566 68.515 105.562 73.2567C104.502 75.7663 103.385 78.2522 102.306 80.7539C102.033 81.3871 101.668 81.8608 100.903 81.8523C100.121 81.8436 99.7406 81.3703 99.4461 80.7095C97.0933 75.4301 95.0266 70.021 92.3589 64.8846C90.3892 61.0922 88.1985 57.4359 85.3415 54.2239C84.9639 53.7994 84.5616 53.3968 84.1682 52.9865C83.5284 52.3191 83.6728 51.8188 84.5792 51.5693C87.3995 50.793 90.4159 51.9507 92.1557 54.5034C94.7938 58.3739 96.9048 62.5348 98.8604 66.7783C99.4651 68.0905 100.016 69.4274 100.6 70.7496C100.672 70.9135 100.68 71.1276 100.893 71.2172Z" fill="#E2211C"/>
<path d="M88.0816 71.8834C88.0816 74.7492 88.0837 77.615 88.0805 80.4808C88.0793 81.5606 87.7895 81.7863 86.7396 81.5707C85.9861 81.4161 85.2553 81.1696 84.6715 80.6783C84.1174 80.212 83.6954 80.2823 83.1086 80.6373C78.995 83.1255 73.7161 82.5188 70.3176 79.2076C66.2569 75.2512 65.9066 69.1739 69.4819 64.7083C72.759 60.6152 78.8763 59.6679 83.4059 62.5804C83.8843 62.888 84.257 62.95 84.7594 62.6783C85.3225 62.3738 85.9584 62.2406 86.5896 62.1287C87.8427 61.9066 88.0802 62.1022 88.081 63.3571C88.0829 66.1992 88.0816 69.0413 88.0816 71.8834ZM77.7029 65.5651C74.3516 65.5693 71.8696 68.0276 71.8806 71.3318C71.8919 74.7412 74.3436 77.298 77.6135 77.3105C80.7398 77.3225 83.3107 74.7161 83.3196 71.5258C83.329 68.1159 80.9217 65.5612 77.7029 65.5651Z" fill="#E2211C"/>
<path d="M132.325 82.0005C128.411 81.8113 125.186 79.9906 123.232 76.2905C121.371 72.7643 121.439 69.1552 123.573 65.7346C125.732 62.2732 130.332 60.3266 134.296 61.0583C138.323 61.8017 141.71 65.111 142.607 69.1767C142.805 70.0752 142.679 70.3113 141.821 70.6145C137.667 72.0825 133.513 73.5471 129.361 75.0197C129.126 75.103 128.765 75.0961 128.715 75.3787C128.658 75.6999 129.022 75.8173 129.229 75.9938C131.262 77.727 134.192 77.4086 136.639 76.0818C137.099 75.8322 137.552 75.584 138.061 75.4493C139.119 75.1694 140.033 75.4581 140.815 76.1802C141.408 76.7277 141.442 77.1455 140.957 77.7914C138.864 80.5801 136.049 81.9304 132.325 82.0005ZM132.831 65.2938C131.412 65.3118 130.116 65.7374 128.984 66.5775C127.682 67.5448 126.926 68.8353 126.856 70.4969C126.831 71.106 127.014 71.2503 127.598 71.0418C130.566 69.9831 133.54 68.9407 136.519 67.9134C137.108 67.7102 137.071 67.4804 136.706 67.0744C135.667 65.9173 134.404 65.2781 132.831 65.2938Z" fill="#E2211C"/>
<path d="M64.4777 67.3938C64.4784 69.9038 64.4798 72.4138 64.4779 74.9238C64.4764 76.9715 65.0466 78.843 66.1879 80.5434C66.3923 80.8479 66.7207 81.146 66.4424 81.5606C66.1765 81.9564 65.7696 81.9268 65.3541 81.8721C61.5048 81.366 59.0018 78.5332 59.0008 74.6686C58.9994 68.4172 59.0001 62.1659 59.0008 55.9146C59.0009 54.6484 59.2411 54.4561 60.4821 54.7188C62.8357 55.2169 64.4581 57.1741 64.4733 59.5796C64.4899 62.1842 64.4771 64.789 64.4777 67.3938Z" fill="#E2211C"/>
<path d="M113.272 47.8662C112.589 48.0238 112.04 47.8023 111.482 47.7753C110.633 47.7342 109.788 47.5907 108.938 47.5427C108.23 47.5028 107.67 47.2252 107.197 46.7114C105.335 44.6918 103.471 42.6744 101.598 40.6653C100.928 39.946 100.905 39.949 100.257 40.6482C98.39 42.6627 96.5237 44.6781 94.6748 46.7093C94.2338 47.1937 93.7265 47.4657 93.0797 47.5275C91.8314 47.6466 90.5853 47.788 89.3374 47.9118C89.1366 47.9317 88.8776 48.0364 88.7545 47.8084C88.6447 47.605 88.8731 47.4751 88.9875 47.3362C92.4962 43.0785 96.0061 38.8218 99.5183 34.567C100.302 33.6173 101.502 33.5917 102.328 34.5679C103.92 36.447 105.47 38.3606 107.039 40.2592C108.954 42.5777 110.871 44.8949 112.785 47.2144C112.933 47.3941 113.065 47.5875 113.272 47.8662Z" fill="white"/>
<path d="M119.318 72.8021C119.318 75.3378 119.321 77.8735 119.316 80.4092C119.314 81.5895 119.129 81.7674 117.953 81.7718C115.329 81.7818 113.912 80.3676 113.908 77.7315C113.905 74.7218 113.881 71.7119 113.907 68.7024C113.929 66.1342 115.581 64.2505 118.056 63.8872C118.993 63.7496 119.332 64.0259 119.335 64.9815C119.344 67.5883 119.338 70.1952 119.338 72.8021C119.331 72.8021 119.325 72.8021 119.318 72.8021Z" fill="#E2211C"/>
<path d="M77.6404 50.1725C78.2604 49.4118 78.8769 48.6484 79.5009 47.8911C82.1359 44.6927 84.7718 41.495 87.4103 38.2995C88.1692 37.3805 89.489 37.3822 90.2408 38.3029C90.9747 39.2018 91.6861 40.1193 92.4337 41.0065C92.7099 41.3343 92.7608 41.588 92.4638 41.9288C91.8105 42.6783 91.1812 43.4487 90.5474 44.2149C90.2907 44.5252 90.0531 44.5348 89.798 44.2143C89.5326 43.8808 89.2368 43.57 88.9899 43.2239C88.7528 42.8914 88.5684 42.9446 88.3193 43.2074C86.902 44.7026 85.4436 46.1604 84.0646 47.6899C83.2904 48.5486 82.447 49.1692 81.2881 49.3988C80.0899 49.6361 78.9142 49.9876 77.7287 50.2892C77.6993 50.2503 77.6698 50.2114 77.6404 50.1725Z" fill="white"/>
<path d="M124.108 50.3039C122.54 49.8843 120.969 49.4761 119.406 49.0372C119.013 48.9267 118.736 48.6022 118.456 48.3118C116.877 46.678 115.281 45.061 113.732 43.3998C113.278 42.9129 113.039 42.9656 112.656 43.4571C111.712 44.6701 111.691 44.6566 110.712 43.5033C110.283 42.9983 109.89 42.4599 109.433 41.983C109.086 41.621 109.152 41.3451 109.436 41.0054C110.178 40.115 110.893 39.202 111.64 38.3152C112.436 37.37 113.665 37.3631 114.453 38.3138C117.232 41.6652 119.996 45.0277 122.766 48.386C123.244 48.9655 123.723 49.5448 124.201 50.1242C124.17 50.1841 124.139 50.244 124.108 50.3039Z" fill="white"/>
<path d="M113.914 62.6485C113.89 61.4712 114.011 60.325 114.746 59.3413C115.392 58.4759 116.259 58.0654 117.338 58.1898C118.514 58.3252 119.23 59.06 119.311 60.1617C119.391 61.2615 118.795 62.1295 117.683 62.4394C116.579 62.7472 115.517 63.0968 114.678 63.9467C114.311 64.319 113.984 64.1715 113.921 63.6413C113.882 63.3147 113.914 62.9797 113.914 62.6485Z" fill="#E2211C"/>
</svg>
