<svg width="200" height="117" viewBox="0 0 200 117" fill="none" xmlns="http://www.w3.org/2000/svg">
<path fill-rule="evenodd" clip-rule="evenodd" d="M95.143 82.9998C97.7043 75.932 115.816 72.9033 124.016 70.6255C135.861 67.3256 143.569 60.9107 143.569 54.2991C143.569 43.0823 122.01 33.5767 95.143 33.5767C68.2893 33.5767 46.7296 43.0823 46.7296 54.2991C46.7296 60.9107 54.4373 67.3262 66.2821 70.6255C74.482 72.9033 92.6189 75.883 95.143 82.9998ZM148.534 54.4761C149.151 54.4761 149.753 54.634 150.342 54.9503C150.923 55.2607 151.401 55.7337 151.717 56.3113C152.044 56.8999 152.209 57.5155 152.209 58.1555C152.209 58.7892 152.047 59.3981 151.724 59.9822C151.41 60.5573 150.938 61.0302 150.364 61.3443C149.78 61.6685 149.171 61.8297 148.535 61.8297C147.893 61.8289 147.262 61.6617 146.705 61.3443C146.13 61.03 145.657 60.5572 145.342 59.9822C145.017 59.3981 144.855 58.7892 144.855 58.1555C144.855 57.515 145.02 56.8999 145.349 56.3113C145.666 55.7334 146.145 55.2604 146.727 54.9503C147.313 54.634 147.917 54.4761 148.534 54.4761ZM148.534 55.0844C148.017 55.0844 147.514 55.2175 147.025 55.4819C146.541 55.7421 146.143 56.1361 145.877 56.6169C145.602 57.109 145.463 57.6215 145.463 58.1555C145.463 58.6843 145.6 59.1917 145.871 59.6777C146.135 60.1566 146.53 60.5505 147.01 60.8138C147.496 61.0844 148.004 61.2214 148.535 61.2214C149.064 61.2214 149.572 61.085 150.06 60.8138C150.547 60.5426 150.925 60.1637 151.194 59.6777C151.458 59.2137 151.597 58.6893 151.598 58.1555C151.598 57.6215 151.462 57.1096 151.187 56.6169C150.923 56.1352 150.525 55.7408 150.04 55.4819C149.548 55.2181 149.046 55.0844 148.534 55.0844ZM146.921 60.1862V56.2306H148.28C148.746 56.2306 149.082 56.2656 149.29 56.3383C149.497 56.4116 149.662 56.5396 149.786 56.7212C149.91 56.9044 149.971 57.0972 149.971 57.3019C149.971 57.5911 149.867 57.8425 149.662 58.0568C149.456 58.2716 149.18 58.3911 148.84 58.4182C148.98 58.4768 149.092 58.5462 149.176 58.6273C149.336 58.7835 149.531 59.0451 149.762 59.4127L150.244 60.1862H149.463L149.112 59.5627C148.837 59.0739 148.615 58.766 148.446 58.6431C148.329 58.5512 148.157 58.5067 147.934 58.5067H147.559V60.1862H146.921ZM147.56 57.9609H148.335C148.704 57.9609 148.958 57.904 149.092 57.7946C149.225 57.6883 149.3 57.5255 149.294 57.3554C149.295 57.2429 149.261 57.1329 149.196 57.0408C149.129 56.9466 149.035 56.8747 148.926 56.8345C148.81 56.7877 148.597 56.7662 148.284 56.7662H147.559L147.56 57.9609Z" fill="#CE0120"/>
<path fill-rule="evenodd" clip-rule="evenodd" d="M58.7505 47.2568H62.8786L68.3316 57.6234L73.6077 47.2388L77.8074 47.2568V61.5491H74.3767L74.3885 52.2684L69.6684 61.5491H67.0067L62.1806 52.2684V61.5491H58.7505V47.2568ZM107.336 50.1096V49.2639H110.659V58.9494C110.595 61.9657 107.838 63.4812 103.106 63.5613C98.7136 63.5613 94.7907 61.3112 95.0991 59.6993H98.7136C98.7948 61.4707 102.312 61.5344 102.96 61.5344C106.105 61.5502 107.239 60.4339 107.353 59.4123V57.6408C106.834 58.5029 105.423 58.9173 102.878 58.9973C97.9513 59.1411 95.2772 58.0879 95.1476 54.5456C95.0343 51.2744 96.5091 49.2002 102.944 49.2639C105.343 49.2797 106.429 49.4229 107.336 50.1096Z" fill="#FBFA24"/>
<path fill-rule="evenodd" clip-rule="evenodd" d="M103.034 51.4442C104.461 51.5322 107.369 51.4442 107.387 54.1696C107.404 56.8956 104.936 57.0935 102.821 57.049C100.707 57.005 98.3975 56.5658 98.486 54.1696C98.5739 51.7741 101.605 51.3563 103.034 51.4442Z" fill="#CE0120"/>
<path fill-rule="evenodd" clip-rule="evenodd" d="M123.885 50.1098V49.2641H127.208V58.9496C127.144 61.9659 124.387 63.4814 119.655 63.5615C115.262 63.5615 111.34 61.3114 111.648 59.6995H115.262C115.344 61.4709 118.861 61.5346 119.509 61.5346C122.653 61.5504 123.789 60.4341 123.902 59.4125V57.641C123.383 58.5031 121.973 58.9175 119.428 58.9975C114.5 59.1413 111.827 58.0881 111.696 54.5458C111.583 51.2746 113.057 49.2004 119.492 49.2641C121.89 49.2799 122.977 49.4231 123.885 50.1098Z" fill="#FBFA24"/>
<path fill-rule="evenodd" clip-rule="evenodd" d="M119.586 51.4442C121.014 51.5322 123.922 51.4442 123.94 54.1696C123.958 56.8956 121.49 57.0935 119.375 57.049C117.26 57.005 114.951 56.5658 115.039 54.1696C115.127 51.7741 118.158 51.3563 119.586 51.4442Z" fill="#CE0120"/>
<path fill-rule="evenodd" clip-rule="evenodd" d="M128.182 49.2785H131.519V61.5536H128.182V49.2785ZM128.182 47.25H131.519V48.2513H128.182V47.25ZM78.6208 52.7701C79.1215 50.3819 81.7167 49.2425 86.4988 49.2425C91.5589 49.2425 94.1355 50.5268 94.1355 53.6204V61.5265H90.8361V60.4051C89.7609 61.0202 88.3154 61.5265 86.4988 61.5265C82.6063 61.5265 78.9546 60.9655 78.7139 58.3241C78.64 57.51 78.6208 56.5149 78.8436 55.8817C79.4367 54.2896 82.0318 53.5476 83.1436 53.4935C83.1436 53.4935 85.3678 53.4213 86.5168 53.4394C89.2045 53.5115 89.6493 53.5837 90.8355 54.2715C90.8355 54.2715 90.8541 53.7827 90.8355 53.2398C90.8355 52.3355 89.7051 51.1594 86.4424 51.1053C84.3851 51.0692 82.7541 51.6662 82.0679 52.7696L78.6208 52.7701Z" fill="#FBFA24"/>
<path fill-rule="evenodd" clip-rule="evenodd" d="M86.3616 55.2177C87.7891 55.2898 90.6972 55.2177 90.7152 57.461C90.7332 59.7044 88.2655 59.8673 86.1501 59.8312C84.0353 59.7951 81.973 59.361 82.0615 57.3889C82.1494 55.4167 84.9346 55.1455 86.3616 55.2177Z" fill="#CE0120"/>
</svg>
