<svg width="200" height="117" viewBox="0 0 200 117" fill="none" xmlns="http://www.w3.org/2000/svg">
<path d="M128.932 26.9809C130.096 26.916 131.26 26.7844 132.427 26.8526C131.306 27.4984 130.23 28.2197 129.145 28.9232C125.709 31.192 122.4 33.6583 119.243 36.3089C115.584 39.3258 112.158 42.6361 109.061 46.2404C105.209 50.5952 101.748 55.3189 98.9159 60.4146C98.6394 60.9767 98.3099 61.5104 98.0478 62.0799C97.662 62.746 97.3968 63.473 97.0479 64.1578C96.8727 64.5835 96.6822 65.0043 96.5496 65.4462C96.544 64.5347 96.7015 63.6363 96.7562 62.7297C96.9193 61.6152 96.9884 60.4853 97.2416 59.3854C97.4048 58.3074 97.6114 57.2368 97.8372 56.171C98.0502 55.4708 98.1652 54.7438 98.3693 54.0411C98.6024 53.3336 98.7728 52.6074 98.9987 51.8982C99.5742 50.1541 100.22 48.432 100.998 46.7692C101.283 46.2395 101.491 45.6685 101.802 45.1518C104.39 40.1357 108.204 35.7435 112.901 32.6469C114.544 31.5316 116.314 30.6218 118.116 29.8005C119.169 29.3806 120.212 28.9362 121.303 28.6227C122.103 28.3026 122.954 28.1491 123.773 27.8859C124.794 27.6446 125.825 27.4391 126.864 27.2831C127.54 27.0987 128.245 27.102 128.932 26.9809ZM75.0125 31.6811C76.6152 31.6997 78.2348 31.7485 79.8021 32.1156C81.1372 32.3334 82.4265 32.7623 83.6924 33.2358C84.3258 33.5397 84.9953 33.772 85.599 34.1383C86.8746 34.8288 88.0883 35.6452 89.1806 36.6086C92.3812 39.3543 94.6663 43.0495 96.2048 46.9666C96.5359 47.7911 96.8341 48.6294 97.0745 49.4864C97.3397 50.2126 97.5061 50.9697 97.6853 51.7203C97.8863 52.6675 98.1668 53.6065 98.1981 54.5813C98.0832 54.3409 97.9385 54.1207 97.7786 53.9103C96.6139 52.0932 95.2547 50.4141 93.8658 48.7683C92.9832 47.7683 92.0967 46.7692 91.1563 45.8244C90.6459 45.2315 90.0776 44.6937 89.5624 44.1048C86.8786 41.3193 83.997 38.7312 80.9692 36.3332C79.0144 34.7419 77.0171 33.2066 75.0125 31.6811Z" fill="#96C61C"/>
<path d="M80.9692 38.6787C83.997 41.0767 86.8785 43.6647 89.5624 46.4502C90.0776 47.0391 90.6458 47.5769 91.1562 48.1699C91.153 54.7262 91.1562 58.9367 91.1546 65.4938C87.7579 65.4971 84.3619 65.5011 80.9652 65.4914C80.9708 55.7719 80.962 48.3981 80.9692 38.6787ZM109.061 48.5858C112.158 44.9815 115.584 41.6713 119.243 38.6543C119.251 48.3819 119.243 55.7646 119.246 65.493C115.853 65.4995 112.459 65.4979 109.066 65.4938C109.062 59.0757 109.072 55.004 109.061 48.5858ZM66.8983 77.9581C68.1964 76.9533 70.1255 76.8948 71.4927 77.7941C71.7403 77.9435 71.9026 78.1913 72.0947 78.4017C72.5609 78.9102 72.7257 79.6023 72.9339 80.2424C73.3719 79.2904 74.0342 78.4366 74.875 77.8192C75.7808 77.2246 76.9158 77.0248 77.9695 77.2587C78.4373 77.327 78.8657 77.5625 79.2507 77.8306C80.0449 78.5219 80.4741 79.5601 80.589 80.5974C80.6316 81.0596 80.6999 81.5218 80.6999 81.9873C80.6983 84.581 80.7007 87.1748 80.6991 89.7685C80.3358 89.7694 79.9733 89.7685 79.6108 89.7702C79.6116 87.4461 79.6116 85.1212 79.6116 82.7972C79.6221 82.036 79.5875 81.2708 79.475 80.5178C79.2982 79.9638 79.1736 79.3505 78.7427 78.9305C78.3666 78.4431 77.734 78.2782 77.1521 78.2287C76.3266 78.1913 75.4609 78.4244 74.8276 78.9784C73.8301 79.8167 73.1477 81.0637 73.0794 82.3837C73.0086 83.0604 73.0424 83.7411 73.0351 84.421C73.0359 86.2041 73.0335 87.9871 73.0359 89.7702C72.6726 89.7694 72.3093 89.7694 71.946 89.7702C71.9476 87.6086 71.9468 85.4478 71.9468 83.2862C71.9404 82.5267 71.9838 81.7623 71.856 81.0101C71.7997 80.2489 71.553 79.4788 71.0482 78.9004C70.6463 78.4382 70.025 78.2628 69.4375 78.227C68.7912 78.1986 68.1369 78.3351 67.5494 78.6088C66.3526 79.2749 65.6227 80.5811 65.4041 81.9158C65.2876 83.0157 65.3237 84.1237 65.3189 85.2285C65.3189 86.7418 65.3173 88.256 65.3197 89.7694C64.9564 89.7694 64.5931 89.7685 64.2298 89.7702C64.2314 85.6923 64.2298 81.6152 64.2306 77.5374H65.3189C65.3189 78.3814 65.3165 79.2262 65.3205 80.0702C65.5311 79.6527 65.7827 79.2571 66.0487 78.8736C66.2802 78.5227 66.6122 78.2603 66.8983 77.9581ZM87.3375 77.6584C88.4604 77.1206 89.7577 77.067 90.9673 77.2839C91.4175 77.3327 91.8354 77.5227 92.2437 77.7096C92.6513 77.8915 92.9229 78.2571 93.2235 78.5731C93.5635 79.0199 93.7275 79.5706 93.865 80.1092C93.9791 80.4528 93.9855 80.8183 93.9863 81.1774V87.3446C93.9968 87.8165 93.9944 88.3088 94.1841 88.7499C94.4324 89.1089 94.9171 89.0797 95.3021 89.0984C95.3021 89.416 95.3029 89.7336 95.3021 90.0512C94.8391 90.2121 94.3336 90.1901 93.8754 90.022C93.6745 89.9099 93.5057 89.7482 93.3112 89.6256C92.9599 89.1837 92.8458 88.6094 92.8152 88.0562C92.4792 88.3705 92.1979 88.7491 91.7864 88.97C91.235 89.4745 90.5285 89.7312 89.8517 90.0114C88.9933 90.2178 88.089 90.2056 87.2314 90.0057C86.7234 89.7742 86.172 89.5955 85.7685 89.1902C85.5909 88.966 85.3779 88.7726 85.2139 88.5379C84.7309 87.6402 84.5106 86.5655 84.7485 85.5591C84.8402 85.135 84.964 84.7102 85.1954 84.3414C85.3948 84.0571 85.6335 83.8053 85.8513 83.5364C85.9494 83.408 86.1077 83.3601 86.2444 83.2886C86.5739 83.1432 86.844 82.8711 87.2057 82.802C87.9548 82.6258 88.675 82.3398 89.4321 82.2001C90.0334 82.0133 90.6683 81.9467 91.2527 81.7022C91.7872 81.4942 92.3651 81.3472 92.8329 81.0036C92.9141 80.3147 92.7172 79.5909 92.2429 79.0808C91.7309 78.4862 90.9127 78.3302 90.1756 78.2408C89.1749 78.1677 88.1003 78.3343 87.278 78.9508C86.6221 79.3854 86.1383 80.0401 85.7605 80.7241C85.5194 80.508 85.275 80.2936 84.9953 80.1311C85.361 79.5479 85.6898 78.9199 86.213 78.4618C86.5562 78.1531 86.897 77.8192 87.3375 77.6584ZM92.0573 82.5705C91.5798 82.7761 91.0509 82.8037 90.5727 83.0059C89.7247 83.3658 88.7626 83.2456 87.9122 83.5981C87.4524 83.7939 86.942 83.9084 86.5586 84.2504C86.1535 84.603 85.8505 85.0904 85.775 85.6314C85.6946 86.2788 85.6825 86.9644 85.9204 87.5818C86.1704 88.0269 86.4461 88.5127 86.9211 88.7434C87.9813 89.2332 89.2135 89.1561 90.3083 88.8303C90.9674 88.6849 91.4536 88.1772 91.9383 87.7394C92.3097 87.4323 92.4575 86.9555 92.6625 86.5363C92.767 86.1407 92.82 85.7289 92.8136 85.3194C92.8096 84.278 92.8136 83.2374 92.8112 82.1969C92.554 82.3106 92.3169 82.4649 92.0573 82.5705ZM101.887 78.054C102.414 77.4569 103.218 77.1328 104.006 77.1702C104.335 77.1759 104.652 77.2709 104.972 77.34C104.972 77.7746 104.972 78.2092 104.972 78.6446C104.136 78.3521 103.141 78.3627 102.395 78.8858C101.756 79.3042 101.322 79.9573 100.955 80.6153C100.578 81.4593 100.312 82.3553 100.198 83.2748C100.156 83.8995 100.074 84.5225 100.085 85.1497C100.088 86.689 100.085 88.2292 100.087 89.7694H99.018C99.0163 85.6923 99.0163 81.6152 99.018 77.5382C99.3732 77.5374 99.7293 77.5374 100.086 77.5374C100.089 78.5828 100.083 79.6283 100.089 80.6737L100.278 80.651C100.692 79.7209 101.144 78.7672 101.887 78.054ZM117.738 77.2214C118.514 77.102 119.31 77.1783 120.069 77.3717C120.545 77.5707 121.057 77.7331 121.447 78.0914C121.786 78.3919 122.145 78.6819 122.403 79.0621C122.734 79.5487 123.048 80.0523 123.26 80.6055C122.921 80.7623 122.593 80.9378 122.261 81.1075C121.829 80.0783 121.14 79.1043 120.145 78.5731C118.823 77.9833 117.13 78.1206 116.027 79.1092C115.245 79.8468 114.76 80.8598 114.559 81.9142C114.301 83.417 114.327 85.0043 114.846 86.4494C115.036 86.8036 115.175 87.1902 115.412 87.5176C115.704 87.8417 115.98 88.1845 116.328 88.4526C116.61 88.7336 117.006 88.8246 117.371 88.9448C118.238 89.1666 119.171 89.139 120.013 88.823C120.422 88.719 120.713 88.3982 121.018 88.1268C121.301 87.81 121.631 87.5241 121.816 87.1317C121.953 86.8417 122.139 86.5777 122.262 86.282C122.587 86.4388 122.903 86.62 123.257 86.7069C123.133 87.0156 123.038 87.3438 122.84 87.6159C122.514 88.0448 122.305 88.5777 121.851 88.8945C121.459 89.3153 120.958 89.6207 120.414 89.797C119.845 90.1105 119.182 90.1357 118.55 90.1666C117.89 90.1422 117.203 90.1138 116.605 89.7986C115.896 89.6053 115.345 89.0927 114.831 88.5915C114.642 88.3429 114.481 88.0748 114.304 87.8181C113.821 87.2097 113.66 86.4242 113.43 85.698C113.248 84.6379 113.152 83.5461 113.32 82.4771C113.361 82.1928 113.359 81.9012 113.44 81.625C113.631 81.0604 113.752 80.4658 114.053 79.9451C114.428 79.3164 114.836 78.6876 115.419 78.2327C116.044 77.6348 116.897 77.3335 117.738 77.2214ZM131.056 77.1816C132.309 77.0914 133.669 77.3652 134.609 78.253C135.22 78.7664 135.673 79.4439 136.055 80.1409C136.317 80.6713 136.445 81.2521 136.615 81.8159C136.819 83.0262 136.823 84.2724 136.619 85.4835C136.392 86.3162 136.189 87.1951 135.646 87.8848C135.206 88.6134 134.583 89.2357 133.833 89.6329C133.522 89.7466 133.219 89.8774 132.915 90.0041C132.028 90.2169 131.098 90.2039 130.206 90.0285C129.919 89.9586 129.665 89.797 129.382 89.7141C129.107 89.6394 128.886 89.4501 128.635 89.3258C128.414 89.1772 128.254 88.9546 128.034 88.8051C127.743 88.6077 127.595 88.2755 127.378 88.0099C126.426 86.6752 126.15 84.9783 126.212 83.3642C126.206 81.4909 126.87 79.5259 128.325 78.3018C129.056 77.5975 130.068 77.2709 131.056 77.1816ZM130.736 78.3042C129.577 78.4675 128.631 79.3277 128.096 80.3448C127.605 81.1546 127.48 82.1124 127.353 83.036C127.27 83.997 127.398 84.9636 127.632 85.8954C127.764 86.451 128.062 86.9417 128.346 87.4282C128.715 87.8929 129.135 88.3283 129.626 88.663C130.79 89.2235 132.207 89.2365 133.375 88.6735C133.638 88.5159 133.858 88.295 134.083 88.087C134.341 87.7775 134.661 87.5103 134.83 87.135C135.115 86.5404 135.382 85.9262 135.482 85.2683C135.627 84.4519 135.602 83.6136 135.566 82.7882C135.528 81.9255 135.25 81.0994 134.889 80.3253C134.498 79.6185 133.951 78.9744 133.227 78.6048C132.459 78.2368 131.568 78.1304 130.736 78.3042ZM108.036 77.5374C108.41 77.5374 108.785 77.5374 109.159 77.5382V89.7694C108.785 89.7694 108.41 89.7685 108.035 89.7694C108.037 85.6923 108.035 81.6152 108.036 77.5374Z" fill="#014FA1"/>
</svg>
