<svg width="200" height="117" viewBox="0 0 200 117" fill="none" xmlns="http://www.w3.org/2000/svg">
<path fill-rule="evenodd" clip-rule="evenodd" d="M106.373 33.5119C106.783 33.5119 107.141 33.2044 107.141 32.7945C107.141 32.3846 106.783 32.0771 106.373 32.0771C105.963 32.0771 105.655 32.3846 105.655 32.7945C105.655 33.2044 105.963 33.5119 106.373 33.5119Z" fill="white"/>
<path fill-rule="evenodd" clip-rule="evenodd" d="M96.4842 32.2305C96.8428 32.2305 97.0991 31.9232 97.0991 31.6158C97.0991 31.2571 96.8428 31.001 96.4842 31.001C96.1256 31.001 95.8694 31.2573 95.8694 31.6158C95.8693 31.9232 96.1254 32.2305 96.4842 32.2305Z" fill="white"/>
<path fill-rule="evenodd" clip-rule="evenodd" d="M89.055 47.3955L88.7476 47.0881C89.6186 46.2682 90.4896 45.0386 90.6434 44.3213C90.7458 43.6039 91.7706 43.7577 91.5655 44.4749C91.3092 45.4485 90.1821 46.5756 89.055 47.3955Z" fill="white"/>
<path fill-rule="evenodd" clip-rule="evenodd" d="M82.7529 32.4864C81.2158 33.1525 81.0109 34.7407 82.0868 35.7141C83.3677 36.8414 85.5709 35.8679 85.366 34.0748C87.108 34.1773 88.2353 32.3327 87.979 31.103C88.7475 30.4369 88.7989 29.0025 87.8765 28.4389C86.8518 27.824 85.9297 28.0289 85.3147 29.2074C83.7265 29.1049 82.1892 30.3345 82.7529 32.4864L82.0356 32.179C81.0621 30.0784 82.7529 27.9777 84.8535 28.49C85.3147 27.4654 86.8518 26.3893 88.5938 27.4141C89.9259 28.2338 90.2334 30.3857 88.7988 31.4103C89.4647 33.3573 88.0814 34.9969 86.032 34.7919C85.7758 37.3536 83.4189 37.6612 81.8307 36.4828C80.9597 35.7654 80.601 34.8431 80.4472 34.1259C80.2423 33.3574 80.2423 32.6913 79.5251 31.9228C78.9614 31.3591 77.9367 31.3591 77.9367 31.3591C77.9367 29.5147 76.2458 27.8239 74.094 28.6435C73.3255 27.9776 72.352 27.9263 71.6859 28.7461C71.3272 29.2072 71.071 30.4369 72.3006 31.0005C72.2494 32.6914 73.5303 33.7673 75.4261 33.6137C75.4772 34.4847 76.4507 35.3557 77.373 35.4581L77.3217 35.9193C76.3995 35.8168 75.8871 36.1242 75.2723 36.8927C73.0692 36.7903 71.5321 37.815 71.5833 39.4033C70.0462 39.6595 69.7388 41.299 70.6098 42.17C71.4808 43.041 72.7618 42.6823 73.2228 41.6577C74.8112 41.965 76.1946 40.8379 76.2458 39.557C77.6804 39.557 78.3465 38.9421 78.6027 37.6101L79.1151 37.6613C79.2687 39.0959 78.6027 40.4792 76.8607 40.3256C76.8094 42.0676 75.1698 42.9898 73.5815 42.4262C72.8642 43.8096 71.1734 44.322 69.7901 42.9899C68.4066 41.7089 68.919 39.5057 70.7122 38.9421C70.7122 37.2514 71.9931 35.6631 74.4011 36.2778C74.4011 36.2778 74.7086 35.5094 75.4771 35.458C74.9647 35.2532 74.6061 34.9969 74.5035 34.4333C72.659 34.8431 71.122 33.1524 71.5318 31.4617C69.8922 30.5907 69.8409 28.9511 70.6608 27.9777C71.5318 26.9529 72.9664 26.748 74.196 27.8239C76.3991 26.6455 78.8073 28.1313 78.6536 30.5907C80.1907 30.4881 81.1129 31.7691 80.908 33.1525C81.1642 32.5376 81.4716 32.2815 82.0352 32.179L82.7529 32.4864Z" fill="white"/>
<path fill-rule="evenodd" clip-rule="evenodd" d="M86.4928 29.5156L86.8513 29.7718C86.134 31.3089 84.9044 32.8459 83.8284 33.7683L83.4184 33.4096C84.1872 32.1798 85.7754 30.1303 86.4928 29.5156Z" fill="white"/>
<path fill-rule="evenodd" clip-rule="evenodd" d="M75.938 37.7129L76.1429 38.1227C75.2719 38.9937 73.6324 40.2234 72.7101 40.6845L72.4027 40.2747C73.2226 39.3524 74.8621 38.1741 75.938 37.7129Z" fill="white"/>
<path fill-rule="evenodd" clip-rule="evenodd" d="M78.0394 33.3056L77.6295 33.8178C76.451 33.0493 74.1454 30.9999 73.633 30.2312L73.9917 29.8726C75.1188 30.4363 77.2707 32.3833 78.0394 33.3056Z" fill="white"/>
<path fill-rule="evenodd" clip-rule="evenodd" d="M75.8873 52.8781C76.041 53.5444 75.8873 54.3127 76.5022 55.0301C76.7071 55.2864 77.8855 56.8232 78.7565 57.5919C77.5781 58.0529 75.2725 59.0265 73.633 59.2312C73.2744 59.2825 72.9156 59.4875 72.6082 59.6924C72.4034 60.0511 72.1984 60.666 72.0959 61.3833C72.0446 61.8956 72.0446 62.4591 72.0446 63.0227C72.0446 63.5352 72.3008 65.1748 72.8645 66.2506C73.4281 67.3266 73.9917 67.8389 74.6576 68.1464C74.8114 68.0951 75.1188 68.0439 75.5799 68.0439C76.8096 67.9926 77.783 68.71 78.2442 69.2735C78.3977 69.5298 78.7565 69.581 79.1663 69.581C80.191 69.581 81.3182 69.2223 82.343 68.8125C82.5992 68.6588 83.214 68.1978 83.8288 67.7366C84.4949 67.2241 87.979 64.2525 89.5159 63.5352C90.3358 63.9451 91.6679 64.5087 93.0511 64.5087C93.1024 64.5087 93.3585 64.5599 93.666 64.4574C94.0759 64.355 94.6396 64.2013 95.357 64.0476C96.5864 63.7914 98.021 63.5864 98.4823 63.5864C99.6095 63.6377 102.94 63.6891 103.76 63.6891C104.579 63.6891 105.758 63.6378 106.219 63.5864C106.936 63.3302 108.525 62.9204 110.011 62.2545C111.496 61.5882 114.622 59.3851 115.134 58.8728C115.39 58.6679 115.646 58.4117 115.8 58.2068C115.851 58.1042 115.903 58.0531 115.903 58.0018C115.903 57.9507 115.851 55.7987 115.851 55.7987C115.851 55.7987 116.62 54.979 116.927 54.6715C116.927 54.6715 116.927 54.6203 116.927 54.569C116.774 54.159 116.671 52.827 116.722 51.4949L116.005 51.1362C115.954 52.7757 115.339 54.2103 114.775 55.1326C113.648 55.2864 111.445 55.9524 110.676 56.8746L111.138 56.9771C111.855 56.5672 112.623 56.3112 113.546 56.3112C114.314 56.3112 114.673 56.5161 114.673 56.7211C114.673 56.8747 114.519 57.2334 114.468 57.3871C114.417 57.4896 114.366 57.6945 114.212 57.797C113.136 58.9754 111.957 59.9491 110.471 60.7687C109.498 61.3323 108.525 61.691 107.09 62.1521C106.629 62.2547 106.014 62.4084 105.655 62.5621C105.092 62.5621 102.222 62.4595 100.532 62.4595C98.841 62.4595 95.3568 62.7157 94.2808 62.9719C93.7685 63.1257 93.6147 63.3305 93.0511 63.3305C91.9753 63.3305 90.5407 62.7669 89.6697 62.357C89.5159 62.357 89.2086 62.5107 88.9012 62.6644C88.2864 62.9718 86.9029 64.9187 86.0832 64.304C85.6732 65.175 83.8801 65.9434 83.3165 66.8144C83.3675 66.4046 84.0848 63.4329 84.1362 62.818C84.1362 62.7154 84.1875 62.6131 84.085 62.5106C83.4703 61.4347 81.6256 60.7686 80.6009 60.5637C80.3448 60.5124 80.191 60.4612 79.9862 60.4099L78.3467 59.949L76.8608 60.4099L78.6029 60.7173L76.3997 62.2032C76.8096 62.0495 79.1665 61.3834 79.3201 61.3322C79.5251 61.2809 79.7813 61.2297 80.0375 61.3322C80.3961 61.4347 81.2672 61.6396 81.8307 61.8445C82.1382 61.9472 82.6505 62.5106 82.8041 62.8182C82.8554 62.9718 82.8554 63.2281 82.9067 63.8428C82.9067 64.2015 82.8555 64.765 82.753 65.175C82.4967 66.2508 81.9845 67.0707 81.8309 67.378C81.6258 67.7881 81.3697 67.9417 81.0623 68.0441C80.6012 68.3003 79.9863 68.4027 79.3715 68.454C78.9104 68.454 78.603 68.4028 78.3978 68.1466C77.8343 67.3269 76.3485 66.5583 74.8627 66.8657C73.9405 66.3021 73.0183 64.5088 73.0183 63.0742C73.0183 62.2032 73.4281 60.8199 73.6842 60.1538C75.1701 59.9488 78.1931 58.8217 79.6277 58.1556C79.9351 58.1556 80.8061 57.8481 81.6258 57.8481C83.5729 57.8481 85.5198 59.5389 86.6983 60.7173C86.9032 60.4099 87.2618 59.8976 88.2866 59.8976C89.67 59.8976 90.4897 61.1785 90.8484 62.4594L91.5656 61.9472C91.4631 61.2298 91.0533 60.4099 90.4897 59.7952C90.0286 59.3341 89.1065 58.9242 88.389 58.9242C87.9279 58.9242 87.518 59.0267 87.2106 59.0267C86.2371 59.0267 85.8271 58.5655 85.0587 58.0532C84.2901 57.5408 82.8043 56.7211 81.7284 56.7211C81.0623 56.7211 80.7547 56.9773 80.1911 56.9773C79.3714 56.9773 79.0639 56.6698 78.7053 56.1575C78.5005 55.9525 77.6806 55.2352 77.4757 54.9278C77.3219 54.7229 77.117 54.0568 77.0145 53.6983L75.8873 52.8781Z" fill="white"/>
<path fill-rule="evenodd" clip-rule="evenodd" d="M77.0142 53.6982C77.2703 53.9544 77.4753 54.2104 77.7826 54.4666C78.0901 54.6716 78.4487 54.8765 78.7562 55.0814C79.2685 55.3376 79.8321 55.645 80.3445 55.85C80.8569 55.9524 81.4717 56.0037 82.0353 56.0037C82.8552 56.0037 83.8286 55.85 84.6483 56.2599C85.212 56.4649 85.212 57.0797 85.6731 57.2334C86.3392 57.4895 88.1836 57.5408 89.2084 57.5408C91.2579 57.5408 93.461 57.2846 94.793 56.9772L94.1783 56.2599C93.256 56.4136 90.5916 56.721 89.3621 56.721C87.6713 56.721 86.0317 56.4136 86.0317 55.7475C86.0317 55.2352 86.544 54.5178 87.5688 54.5178C88.6447 54.5178 90.2845 55.1839 90.5918 55.2865C90.8992 55.3376 91.0017 55.3376 91.2066 55.2352L91.8214 54.9278C91.0016 54.5178 88.0811 53.5444 87.0565 53.5444C86.5953 53.5444 86.2878 53.5954 85.9805 54.0054C85.6219 54.5177 84.5458 54.979 82.9063 54.979C81.9842 54.979 80.652 54.774 80.3959 54.6716C79.8835 54.4666 78.9101 53.903 78.2952 53.4419C77.4755 52.8783 76.7581 52.2123 76.297 51.4437C76.1433 51.2388 76.0408 50.9825 76.0408 50.7264C76.0408 50.5213 76.1433 50.3677 76.1433 50.214C76.297 50.4189 76.4507 50.5727 76.6556 50.7264C77.5266 51.5974 78.8077 52.2122 80.1396 52.4684C80.5497 52.5709 80.8571 52.6222 81.2671 52.6222C81.8306 52.6222 82.343 52.3147 82.7017 52.0073L82.1381 51.3925C81.9843 51.4437 81.6256 51.4437 81.4207 51.4437C79.4738 51.4437 77.0144 50.2142 76.4508 48.7282C76.3996 48.5744 76.2972 48.5233 76.3996 48.3695C76.4508 48.2159 76.5022 47.9597 76.5533 47.7035C76.6557 47.806 76.912 48.0109 77.1682 48.2159C77.8854 48.6769 79.2688 49.2918 79.5762 49.4968C80.2423 49.2919 80.7546 49.0357 81.1645 48.8307C81.5746 48.6258 82.1382 48.4208 82.7529 48.4208C84.1876 48.4208 85.827 49.2405 87.3643 50.0091L88.3889 49.5992C87.0056 48.6257 84.0851 47.2936 82.4456 47.2936C81.472 47.2936 80.5498 48.0108 79.8837 48.0108C79.1154 48.0108 76.8609 46.8836 76.8609 45.9614C76.8609 45.2441 78.2955 44.8342 80.7035 44.578C80.2935 45.1418 79.8836 45.8077 79.5252 46.4226L80.1398 46.7813C83.8288 41.4014 87.7228 37.9174 90.9507 35.7654C92.1291 34.9969 92.3853 34.5359 92.7951 33.716C93.8199 31.6153 94.7934 30.0783 96.4329 30.0783C97.2014 30.0783 97.8163 30.4881 98.2774 31.0004L99.4559 31.359L98.2263 32.1789L99.4559 32.6912C97.8675 33.1523 95.6644 34.7406 94.7423 37.0462C93.0513 37.0975 92.2316 38.5321 91.668 39.6593C91.2582 40.4792 90.6945 40.7866 89.7724 41.3502L82.753 46.2688L83.7266 46.4226L90.2336 42.0675C91.5145 41.1965 92.1294 40.5303 92.4367 39.9667C93.0004 38.7371 93.6662 37.8147 94.9472 37.8147C95.562 37.8147 96.2283 38.1222 96.7918 38.6345L97.919 38.9932L96.6893 39.7618L97.7141 40.3764C94.7425 41.2987 92.898 43.4506 91.8221 47.5495L92.5906 47.7031C93.0005 46.3711 93.4103 45.1414 94.0763 44.0142C95.8183 44.0142 97.5603 43.9631 99.3024 43.9631C103.862 43.9631 107.654 44.168 109.703 44.7316L108.986 43.502C106.783 43.0921 103.606 42.9384 99.3022 42.9384C97.8165 42.9384 96.3819 42.9895 94.8961 42.9895C95.8696 42.016 97.2017 41.145 99.3022 40.5302L97.8165 39.7104L99.456 38.7881L97.2017 37.9684C96.843 37.6097 96.3306 37.251 95.7158 37.0974C96.4332 34.8942 98.8925 33.6133 101.249 32.7422L99.6098 32.0762L101.249 31.1541L98.6875 30.3342C98.0213 29.5657 97.4066 29.207 96.3819 29.207C94.025 29.207 93.0514 31.2565 92.078 33.0496C91.6168 34.0232 91.3094 34.4331 90.4385 34.9967C88.6452 36.1751 86.2882 38.0196 84.0851 40.3254C82.9579 39.5055 80.5499 37.0461 79.935 35.7139C79.6788 36.0213 79.4225 36.7387 79.4225 36.7387C79.6788 36.995 82.4456 39.7618 83.4703 40.9912C83.419 41.0425 83.3166 41.145 83.2654 41.2475C82.1382 41.4524 79.2689 41.76 78.2955 41.6062L77.783 42.5797C78.5004 42.5286 81.3182 42.1698 82.548 42.1187C82.1893 42.5286 81.8308 42.9897 81.4721 43.4507C77.7831 43.8607 75.375 44.6292 75.375 45.9613C75.375 46.1663 75.4263 46.4225 75.4263 46.6786C75.4263 47.2422 75.2212 47.4471 74.8114 47.7033C74.5551 47.857 74.5551 48.0107 74.6577 48.1645C74.7603 48.3181 75.3238 49.138 75.3238 49.2916C75.3238 49.5991 75.0675 49.8552 74.8626 50.1114C74.6577 50.3164 74.6577 50.3677 74.8114 50.6237L75.8874 52.8782L77.0142 53.6982Z" fill="white"/>
<path fill-rule="evenodd" clip-rule="evenodd" d="M122.358 41.1445C122.153 41.3494 121.948 41.6568 121.743 41.913L121.18 41.0931C123.127 38.4801 128.353 37.2505 131.427 36.9943V35.611C131.017 35.7134 130.607 35.8672 130.197 35.9695C129.685 36.0721 129.172 36.2258 128.763 36.1746C128.301 36.1746 127.943 36.0208 127.789 35.7646C127.379 35.201 127.789 34.33 129.121 33.5103L128.045 32.588C127.225 33.6639 126.457 34.8424 125.637 35.5085C124.869 36.1746 124.1 36.482 123.485 36.0208C123.127 35.7646 123.024 35.6622 122.973 34.9961C123.024 34.0226 123.588 32.5368 124.1 31.5634L122.87 31.4096C122.665 32.8954 122.05 34.1251 121.384 35.1498C120.616 36.4307 119.591 37.353 118.515 38.0702L117.798 37.4043C118.669 36.8918 119.745 36.0721 120.462 34.9449C121.333 33.6128 122.05 31.9732 122.05 30.5386L125.637 30.846C125.125 31.512 124.305 32.998 123.998 34.0226C123.844 34.5862 123.844 35.0474 124.049 35.201C124.407 35.4572 125.073 34.9961 125.74 34.33C126.662 33.3054 127.584 31.8195 127.943 31.3071L130.607 33.459C129.428 34.0739 128.301 34.7911 128.506 35.201C128.711 35.5597 129.48 35.4572 130.299 35.201C130.965 34.9961 131.683 34.6887 132.246 34.33V37.8653C130.965 37.8653 128.814 38.1215 126.764 38.7363C127.277 39.4024 128.66 39.6585 129.531 39.8123L129.121 42.6816C126.867 41.7081 125.125 41.1957 122.358 41.1445L123.28 40.3247C125.279 40.3757 127.328 40.9907 128.455 41.5543L128.609 40.4784C127.584 40.3247 126.303 39.7611 125.74 39.0949C124.869 39.4023 123.998 39.8121 123.28 40.3246L122.358 41.1445Z" fill="white"/>
<path fill-rule="evenodd" clip-rule="evenodd" d="M111.598 50.2654L112.418 48.4209C111.547 47.3962 110.574 46.1153 109.703 44.7319L108.985 43.5024C107.295 40.3258 107.909 38.7886 107.038 37.354C106.27 36.2269 102.683 36.9441 102.12 37.0466L103.144 35.3559L101.095 35.5095L102.837 33.4601C103.042 33.1526 103.093 32.9476 103.298 32.2304C103.605 31.1032 104.528 29.2588 107.295 29.2588C110.317 29.2588 111.291 31.7182 112.572 32.7941C114.109 34.0237 116.056 35.7144 117.798 37.4054L118.515 38.0714C119.437 38.9937 120.308 39.9672 121.179 41.0944L121.743 41.9143C125.432 47.2428 129.941 57.4388 131.99 62.1013C132.144 62.5625 132.298 63.0234 132.451 63.3822C131.068 62.6137 129.582 61.6914 127.994 60.6154L127.123 60.0007C126.559 59.5907 125.995 59.1808 125.432 58.7711L124.51 58.0025C123.946 57.5927 123.382 57.1315 122.87 56.6704L124.714 67.2763C124.817 67.9424 125.381 67.8399 125.791 67.2763C126.2 66.7127 126.405 66.559 126.2 65.8417L124.51 58.0025L125.432 58.7711L127.071 65.3804C127.225 65.9952 127.481 66.2001 128.199 66.2001C128.916 66.2514 129.019 65.9952 128.916 65.5342L127.123 60.0007L127.994 60.6154L129.684 65.5853C130.146 66.8662 129.685 67.02 128.916 67.02C128.199 67.02 127.481 66.815 127.071 67.0712C126.662 67.3785 126.149 68.0958 125.483 68.7107C124.971 69.2743 124.151 69.1717 123.997 68.0958L121.948 55.8505C120.667 54.6721 119.386 53.4423 118.259 52.1615C117.798 51.9566 117.234 51.7004 116.722 51.4955L116.005 51.1368C115.697 50.983 115.492 50.9319 115.441 50.8806C114.877 51.5466 114.314 52.3152 113.699 52.8276C113.391 53.1349 113.135 53.2885 112.674 53.2885C112.52 53.2885 112.316 53.2885 112.162 53.1861C111.957 53.0836 111.803 52.8787 111.598 52.5713C111.445 52.3664 111.24 52.059 111.035 51.7515C110.625 51.0856 110.215 50.2144 109.805 49.5483C109.395 48.7798 108.985 48.2162 108.934 48.1137C108.883 47.9601 108.678 47.8063 108.678 47.8063C108.422 48.1137 108.268 48.7798 108.268 49.1896L107.551 48.9333C107.602 48.421 107.807 47.755 107.961 47.4476C107.961 47.1913 107.653 46.8328 107.397 46.8328C107.038 46.8328 106.68 47.1914 106.526 47.9087L105.757 48.2674C105.809 47.0889 106.218 45.808 107.397 45.808C108.319 45.808 108.934 46.5252 109.344 47.1913C109.805 47.8573 111.291 49.8555 111.598 50.2654L112.162 50.9827C112.265 51.4439 112.469 51.7 112.572 51.8537C112.777 52.1611 112.982 52.1611 113.289 51.8537C113.443 51.7513 113.853 51.3926 114.314 50.9315C114.673 50.5728 115.031 50.0605 115.185 49.8556C115.595 50.0094 116.415 50.4192 117.03 50.6754C114.314 47.294 111.65 43.195 110.523 40.4281C110.061 39.2497 110.984 38.891 111.394 40.0183C112.623 43.0924 116.159 48.5747 118.772 51.444C121.743 54.7231 127.225 59.5392 130.812 61.435C130.3 60.4103 129.634 58.9757 128.814 57.2849C124.459 54.8255 120.104 50.3168 118.054 46.4228L118.925 46.5252C120.821 49.9069 125.381 54.4157 128.097 55.6965C125.637 50.4705 122.409 43.8611 119.95 41.043C116.825 37.5077 113.443 34.741 111.803 33.3576C110.215 31.923 109.549 30.1809 107.295 30.1809C105.399 30.1809 104.374 31.5643 104.016 32.8965C103.913 33.2039 103.862 33.3576 103.708 33.6138L102.786 34.6898L104.733 34.4848L103.606 36.0218C103.606 36.0218 106.629 35.3559 107.704 36.7905C108.832 38.3274 108.114 40.0696 110.01 43.5024C110.83 44.9882 112.828 47.6525 113.494 48.2674L112.162 50.9828L111.598 50.2654Z" fill="white"/>
<path fill-rule="evenodd" clip-rule="evenodd" d="M81.7792 50.7266L81.318 50.4191C81.5744 50.2142 82.0866 49.8556 82.599 49.6506C82.8552 49.5481 83.1626 49.497 83.3674 49.497C83.8799 49.497 84.3411 49.7019 84.7509 49.9581C85.4168 50.3168 86.1855 50.7266 86.8003 50.7266C87.0052 50.7266 87.2101 50.6753 87.4663 50.6753C88.0811 50.6753 88.6447 50.9316 88.9521 50.9316C89.1572 50.9316 89.2596 50.7779 89.4133 50.5729C89.7206 50.1117 90.1817 49.753 90.7453 49.5481C91.3089 49.292 92.0775 49.1895 92.846 49.1895C93.5121 49.1895 94.0757 49.292 94.3831 49.3432C94.3831 49.3432 93.9219 49.9068 93.8195 50.0605C93.1534 50.0605 91.975 50.0093 91.2065 50.3168C90.6942 50.5215 90.5404 50.829 90.5404 51.1878C90.5404 51.7514 91.2065 52.0075 91.8725 52.2124C92.3335 52.3149 92.7946 52.3662 93.1534 52.3662C93.6658 52.3662 94.588 52.1612 95.5103 51.9563C96.6375 51.7514 97.6622 51.4439 97.9697 51.3414L98.3795 52.0588C97.1498 52.4686 95.869 52.8785 94.6905 53.0834C94.0244 53.2372 93.4096 53.3396 92.846 53.3396C91.8725 53.3396 90.8478 52.9298 90.0279 52.5198C89.3106 52.2124 88.6959 51.8536 88.081 51.8536C87.4662 51.8536 86.8513 52.0586 86.2877 52.4172C85.9804 52.571 85.1094 53.1858 84.3409 53.4932C83.7261 53.6982 83.265 53.8519 82.65 53.8519C82.1377 53.8519 81.779 53.7494 81.5229 53.5446L82.4451 52.9809C82.5988 53.0834 82.8037 53.1346 82.9061 53.1346C83.0599 53.1346 83.2135 53.0834 83.5723 52.9298C83.7771 52.8785 84.0846 52.6735 84.2895 52.5711C84.6481 52.3149 84.7507 52.1612 84.9044 52.0588C85.2118 51.8537 85.3143 51.5463 84.9555 51.2389C84.7507 51.0852 84.597 50.9315 84.3919 50.7778C84.0334 50.5728 83.8284 50.4191 83.2135 50.4191C82.5478 50.4191 82.0353 50.5729 81.7792 50.7266Z" fill="white"/>
<path fill-rule="evenodd" clip-rule="evenodd" d="M94.7936 51.0848C94.7936 51.0848 94.2299 50.931 94.0762 50.931C94.4349 50.4186 94.9472 50.0089 95.3059 49.7526C96.0744 49.2403 96.843 48.9327 98.0726 48.8816C98.38 48.8303 99.0461 48.7791 99.4048 48.7791C99.7635 48.8303 100.327 48.8303 100.839 48.9327C101.198 48.984 101.557 49.0865 101.864 49.1378C102.018 49.1889 102.633 49.1889 102.838 49.1378C103.709 48.984 104.733 48.6766 105.246 48.3691L105.451 49.189C104.323 49.8037 103.042 50.3674 101.813 50.3674C101.249 50.3674 100.583 50.3163 99.9684 50.2649C98.9436 50.1624 98.0213 50.0088 97.7139 50.0088C96.843 50.0089 95.6135 50.4187 94.7936 51.0848Z" fill="white"/>
<path fill-rule="evenodd" clip-rule="evenodd" d="M93.974 55.6455L92.8982 55.1331C94.3839 54.4159 96.6384 53.6473 97.6118 53.4936C98.5341 53.3399 99.61 53.2375 100.225 53.0324C100.532 53.7498 101.096 54.467 101.864 54.467C102.172 54.467 102.633 54.2621 103.145 54.0572C103.709 53.8011 104.221 53.5449 104.529 53.4424C104.836 53.2886 105.81 52.8788 106.681 52.4689C106.988 52.3152 107.859 51.9053 107.91 51.9053L108.474 52.2127C108.32 52.9301 108.013 53.8522 107.705 54.5183C107.603 54.7745 107.449 54.9795 107.347 55.1331C107.091 55.3893 106.681 55.7993 106.168 56.1579C105.605 56.5677 104.887 56.9777 104.17 57.3874C103.606 57.6948 103.043 58.0535 102.428 58.3096L102.172 57.7461C103.043 57.2337 103.965 56.6188 104.785 56.004C105.144 55.7477 105.502 55.4404 105.758 55.1842C105.963 55.0305 106.066 54.8767 106.168 54.7231C106.425 54.4158 106.834 53.6984 106.937 53.391C106.578 53.5448 105.348 54.1594 104.785 54.4158C104.119 54.7743 103.094 55.2868 102.479 55.5942C102.069 55.7991 101.659 55.9015 101.352 55.9015C100.686 55.9015 100.378 55.4404 100.225 55.133C99.8149 54.4158 99.4051 54.3645 98.2266 54.3645C96.8946 54.3134 95.0502 54.877 93.974 55.6455Z" fill="white"/>
<path fill-rule="evenodd" clip-rule="evenodd" d="M100.276 52.2645C100.276 52.2645 100.122 51.6497 100.02 51.3934C100.02 51.3934 100.225 51.3423 100.481 51.3423C100.839 51.3423 101.864 51.4448 102.274 51.4448C103.811 51.4448 104.375 50.9836 104.836 50.5738C105.246 50.2151 105.656 49.9077 106.68 49.9077C107.603 49.9077 108.679 50.2664 108.986 50.42L108.935 51.2911C108.474 51.0349 107.859 50.8812 107.295 50.8812C106.937 50.8812 106.578 50.8812 106.322 51.0349C106.066 51.1887 105.861 51.3934 105.605 51.5985C105.348 51.8035 104.99 52.0084 104.477 52.2133C104.016 52.4182 103.401 52.5207 102.479 52.5207C101.301 52.5206 100.635 52.3157 100.276 52.2645Z" fill="white"/>
<path fill-rule="evenodd" clip-rule="evenodd" d="M90.4382 58.6678L91.1556 58.3604C91.7703 58.6167 92.7438 58.9241 93.4099 58.9241C93.8199 58.9241 94.1273 58.7704 94.3835 58.6678C94.5884 58.5653 96.9965 57.3868 98.1749 56.977C98.5336 56.8233 98.9434 56.7721 99.0972 56.7721C99.4046 56.7721 99.4046 56.8746 99.507 57.0284C99.712 57.387 101.505 59.8976 101.659 60.0513C103.145 59.5902 104.682 58.9241 105.553 58.1043C106.475 57.2333 107.244 56.2085 108.012 55.3888C108.269 55.0814 108.627 54.8252 108.781 54.7227C109.549 54.3127 111.957 54.2616 112.931 54.3127L112.367 55.1326C110.574 55.1326 109.6 55.3375 109.14 55.6449C108.986 55.7987 108.678 56.1061 108.422 56.4648C107.807 57.2332 107.141 58.3092 106.885 58.5141C107.397 58.8728 107.961 59.1803 108.883 59.1803C110.369 59.1803 111.445 58.258 112.009 57.7456L112.521 58.0018C112.162 58.5143 111.701 58.9753 111.189 59.334C110.574 59.7438 109.805 60.0513 109.396 60.1538C108.525 60.0001 106.629 59.5902 106.168 59.5389C104.528 60.2052 101.813 61.2809 100.942 61.5372C100.788 61.5884 100.583 61.6398 100.327 61.6398C99.6095 61.691 98.636 61.691 97.7139 61.6398C97.0991 61.6398 96.4843 61.6398 96.1768 61.5885L95.357 60.7687C96.0742 60.9224 96.3304 60.9224 96.9964 60.9224C98.5335 60.9224 99.5581 60.6662 99.8657 60.615C100.173 60.5126 100.224 60.3588 100.122 60.1026C99.9682 59.7441 99.7632 59.3343 99.4046 58.9243C99.1996 58.7194 98.7898 58.3606 98.636 58.2581C98.4311 58.1045 98.2262 58.0532 97.6113 58.2581C97.099 58.4119 95.4081 59.3341 94.6909 59.744C94.3322 59.8977 94.0248 60.0002 93.4099 59.8465C92.6926 59.6926 91.053 59.0777 90.4382 58.6678Z" fill="white"/>
<path fill-rule="evenodd" clip-rule="evenodd" d="M95.1008 40.0188C95.4082 40.0188 95.7156 39.7113 95.7156 39.4039C95.7156 39.0452 95.4082 38.7891 95.1008 38.7891C94.7422 38.7891 94.486 39.0454 94.486 39.4039C94.486 39.7113 94.7423 40.0188 95.1008 40.0188Z" fill="white"/>
<path fill-rule="evenodd" clip-rule="evenodd" d="M118.311 75.4228C118.311 74.9617 117.901 74.5518 117.389 74.5518H116.108C115.596 74.5518 115.186 74.9617 115.186 75.4228L115.237 89.154C115.237 89.6152 115.596 90.025 116.108 90.025H117.389C117.901 90.025 118.311 89.6152 118.311 89.154V75.4228Z" fill="white"/>
<path fill-rule="evenodd" clip-rule="evenodd" d="M119.95 75.8325V76.4472C119.95 76.7546 120.155 76.9595 120.463 76.9595H129.48C129.89 76.9595 130.249 76.6009 130.249 76.191V75.1151C130.249 74.7052 129.89 74.2954 129.48 74.3466C129.48 74.3466 120.77 75.2176 120.463 75.2688C120.155 75.2688 119.95 75.5251 119.95 75.8325Z" fill="white"/>
<path fill-rule="evenodd" clip-rule="evenodd" d="M112.623 90.0249C110.369 90.0249 108.986 88.3342 108.986 86.4384V80.9561H108.319C108.012 80.9561 107.705 80.6487 107.705 80.3413V79.419C107.705 79.0605 108.012 78.8043 108.319 78.8043H108.986V75.4228C108.986 74.9617 109.344 74.5518 109.857 74.5518H111.138C111.599 74.5518 111.957 74.9617 111.957 75.4228V78.8043H113.956C114.314 78.8043 114.57 79.0606 114.57 79.419V80.3413C114.57 80.6487 114.314 80.9561 113.956 80.9561H111.957V86.0285C111.957 87.0019 112.572 87.7193 113.648 87.7193H113.853C114.212 87.7193 114.519 87.9756 114.519 88.3854V89.3588C114.519 89.7175 114.212 90.0248 113.853 90.0248H112.623V90.0249Z" fill="white"/>
<path fill-rule="evenodd" clip-rule="evenodd" d="M97.2532 84.2348C97.2532 81.3144 95.5112 78.394 91.5659 78.394C87.9282 78.394 85.93 81.2632 85.93 84.2348C85.93 87.4114 88.0819 90.2294 91.617 90.2294C94.0252 90.2294 96.3822 88.9997 96.8432 86.8991C96.8944 86.6429 96.6895 86.233 96.3308 86.233H94.5888C94.2813 86.233 94.0252 86.3867 93.8715 86.6429C93.3589 87.3602 92.6417 87.7187 91.617 87.7187C90.0801 87.7187 89.0553 86.5403 88.9529 85.2083H96.2795C96.9457 85.2083 97.2532 84.8497 97.2532 84.2348ZM89.004 83.0051C89.1067 81.7242 90.2337 80.7508 91.5658 80.7508C92.9493 80.7508 94.0763 81.7243 94.23 83.0051H89.004Z" fill="white"/>
<path fill-rule="evenodd" clip-rule="evenodd" d="M130.556 84.2348C130.556 81.3144 128.814 78.394 124.869 78.394C121.231 78.394 119.233 81.2632 119.233 84.2348C119.233 87.4114 121.385 90.2294 124.92 90.2294C127.329 90.2294 129.685 88.9997 130.147 86.8991C130.198 86.6429 129.993 86.233 129.634 86.233H127.892C127.585 86.233 127.329 86.3867 127.175 86.6429C126.663 87.3602 125.945 87.7187 124.869 87.7187C123.383 87.7187 122.359 86.5403 122.256 85.2083H129.583C130.249 85.2083 130.556 84.8497 130.556 84.2348ZM122.307 83.0051C122.41 81.7242 123.537 80.7508 124.869 80.7508C126.253 80.7508 127.38 81.7243 127.482 83.0051H122.307Z" fill="white"/>
<path fill-rule="evenodd" clip-rule="evenodd" d="M106.527 74.7049H82.8557C82.2921 74.7049 81.8821 75.1661 81.8821 75.6784L81.9333 85.0034C81.9333 85.0034 76.861 75.7811 76.6047 75.3197C76.3485 74.8587 75.7848 74.4487 75.0676 74.4487H73.1208C72.5572 74.4487 72.1474 74.9099 72.1474 75.4223V89.051C72.1474 89.6147 72.5572 90.0245 73.1208 90.0245H74.3504C74.9139 90.0245 75.324 89.6147 75.324 89.051L75.2727 79.5211C75.2727 79.5211 80.3964 88.7948 80.6526 89.1535C80.9087 89.6658 81.4211 90.0245 82.1384 90.0245H83.9316C84.4952 90.0245 84.9051 89.6147 84.9051 89.051V77.0106H106.527C106.885 77.0106 107.193 76.7032 107.193 76.3445V75.3709C107.193 75.0123 106.885 74.7049 106.527 74.7049Z" fill="white"/>
<path fill-rule="evenodd" clip-rule="evenodd" d="M102.684 80.6484C103.709 80.6484 104.477 81.0071 104.785 81.6732C104.887 81.9806 105.143 82.0316 105.502 82.0316H106.937C107.141 82.0316 107.449 81.8268 107.449 81.5194C107.449 79.8799 105.451 78.394 102.684 78.394C99.8147 78.394 97.919 79.7774 97.919 81.9292C97.919 83.6201 99.2511 84.5935 100.839 85.0547C101.608 85.2085 102.889 85.5158 103.504 85.7208C104.118 85.8745 104.733 86.0795 104.733 86.6431C104.733 87.5652 103.811 87.8215 102.735 87.8215C101.762 87.8215 100.788 87.4114 100.532 86.6942C100.378 86.2843 100.071 86.2331 99.661 86.2331H98.2264C97.9702 86.2331 97.6628 86.4893 97.6628 86.7967V87.0016C97.6628 88.59 99.8147 90.2295 102.786 90.2295C104.836 90.2295 107.756 89.3585 107.756 86.5918C107.756 84.9522 106.68 83.825 104.887 83.3639C104.221 83.2102 102.581 82.7492 102.223 82.6978C101.557 82.4929 100.942 82.2879 100.942 81.7756C100.942 80.9046 101.71 80.6484 102.684 80.6484Z" fill="white"/>
</svg>
