<svg width="200" height="117" viewBox="0 0 200 117" fill="none" xmlns="http://www.w3.org/2000/svg">
<path d="M105.54 77.8147C105.328 77.6356 105.084 77.4845 104.908 77.2733C101.842 73.5776 98.7833 69.8738 95.7225 66.1713C95.586 66.0056 95.4432 65.8452 95.1728 65.5271V78.1114C94.1665 78.1742 93.3962 77.4792 93.173 76.3551C93.0825 75.9006 93.034 75.4288 93.0328 74.9636C93.0225 70.9324 93.0264 66.8998 93.0264 62.8685C93.0264 62.8458 93.0213 62.8218 93.0264 62.8017C93.1105 62.5451 93.1973 62.2898 93.2827 62.0345C93.5301 62.1601 93.8477 62.2203 94.0148 62.4194C95.6829 64.4097 97.3282 66.4226 98.9785 68.4289C100.379 70.1318 101.782 71.8346 103.176 73.5428C103.297 73.6912 103.367 73.8837 103.46 74.0561C103.539 74.0053 103.618 73.9558 103.697 73.905V61.5493C104.793 61.445 105.578 62.1093 105.717 63.1973C105.768 63.593 105.786 63.9966 105.786 64.3963C105.791 68.5171 105.79 72.6379 105.786 76.7587C105.786 77.0662 105.754 77.3722 105.738 77.6797C105.672 77.7238 105.605 77.7692 105.538 77.8133L105.54 77.8147Z" fill="#198BCC"/>
<path d="M127.992 77.7288C127.121 77.7288 126.38 77.8812 125.735 77.686C125.08 77.4869 124.413 77.0538 123.937 76.5352C122.083 74.5142 120.302 72.4184 118.491 70.3546C118.383 70.2317 118.248 70.1341 117.999 69.9122V77.7154H115.904V61.3926C117.192 61.4541 117.943 62.2199 117.966 63.5245C117.99 64.9493 117.977 66.3755 117.985 67.8004C117.985 68.0356 118.006 68.2708 118.025 68.6718C118.285 68.4393 118.44 68.3109 118.585 68.1706C120.583 66.2405 122.601 64.3291 124.567 62.3643C125.173 61.7588 125.827 62.0435 126.524 62.0636C124.288 64.1808 122.052 66.2966 119.749 68.4767C122.49 71.5536 125.19 74.5851 127.992 77.7301V77.7288Z" fill="#198BCC"/>
<path d="M63.623 62.6775C63.0452 63.5196 62.4216 63.3765 61.7954 63.2215C60.9115 63.0023 60.0341 62.743 59.1426 62.5746C58.2027 62.3968 57.2793 62.5518 56.4274 63.0197C55.1469 63.7227 54.8982 65.3574 55.981 66.3479C56.4746 66.7983 57.1225 67.1084 57.7474 67.345C59.1771 67.8863 60.6794 68.2378 62.0747 68.858C63.9278 69.6814 65.0182 71.1784 64.9047 73.3879C64.8065 75.2979 63.7786 76.6064 62.2188 77.4686C60.1425 78.6181 57.9974 78.4363 55.8726 77.6477C54.9467 77.3042 54.0705 76.8136 53.0872 76.3511C53.8486 75.5946 54.5603 75.6521 55.3127 75.9515C56.259 76.3284 57.1862 76.7922 58.1619 77.0408C59.2319 77.3135 60.3185 77.1398 61.3044 76.5663C63.3998 75.3473 63.4725 72.4228 61.3847 71.2118C60.4524 70.6718 59.3824 70.3938 58.3774 69.9902C57.2742 69.5464 56.1302 69.1842 55.0832 68.6241C53.8461 67.9625 53.1178 66.8491 53.2428 65.3213C53.364 63.8444 54.1521 62.7938 55.402 62.1709C57.2309 61.2607 59.149 61.3328 61.062 61.818C61.8974 62.0306 62.7047 62.3647 63.6255 62.6775H63.623Z" fill="#198BCC"/>
<path d="M73.6218 77.7024C73.6218 77.3936 73.6218 77.1503 73.6218 76.9071C73.6218 72.2075 73.6345 67.5079 73.6077 62.8084C73.6039 62.1534 73.7404 61.9275 74.4074 61.9342C77.6583 61.9703 80.9104 61.9503 84.1613 61.9503C84.3692 61.9503 84.5771 61.9503 84.8245 61.9503C84.7569 62.5384 84.4496 62.803 84.0108 62.9046C83.7443 62.9661 83.4624 62.9674 83.1882 62.9674C80.9564 62.9728 78.7258 62.9835 76.4939 62.9608C75.9659 62.9554 75.7389 63.0784 75.7554 63.6986C75.7975 65.2785 75.7835 66.861 75.7605 68.4422C75.7529 68.9368 75.911 69.1012 76.3842 69.0959C78.5306 69.0758 80.6771 69.0878 82.8235 69.0878C83.0747 69.0878 83.326 69.0878 83.6193 69.0878V70.121C83.3783 70.121 83.15 70.121 82.923 70.121C80.7344 70.121 78.5447 70.1304 76.3561 70.113C75.92 70.109 75.7567 70.2413 75.7618 70.7172C75.7822 72.5216 75.7822 74.3261 75.7618 76.1292C75.7567 76.6063 75.9251 76.7333 76.3587 76.7306C78.824 76.7159 81.2892 76.7306 83.7545 76.724C84.4151 76.7226 84.8934 76.9766 85.1714 77.7024H73.623H73.6218Z" fill="#198BCC"/>
<path d="M140.503 61.3031C142.733 66.7432 144.965 72.1819 147.199 77.6286C145.921 77.9975 144.89 77.5297 144.295 76.2359C143.816 75.2 143.395 74.1293 143.034 73.0427C142.824 72.4091 142.521 72.2126 141.888 72.2367C140.447 72.2928 139.001 72.2754 137.558 72.242C137.094 72.2313 136.885 72.4051 136.725 72.8422C136.237 74.1895 135.711 75.5208 135.196 76.8574C134.816 77.8398 134.812 77.8371 133.675 77.6914C135.878 72.2153 138.072 66.7605 140.267 61.3071C140.345 61.3058 140.424 61.3044 140.502 61.3018L140.503 61.3031ZM142.309 71.2075C141.48 69.0769 140.693 67.0492 139.905 65.0229C139.852 65.0256 139.799 65.0269 139.747 65.0296C138.966 67.0653 138.186 69.101 137.378 71.2075H142.309Z" fill="#198BCC"/>
<path d="M107.468 52.2234C107.189 52.5762 107.02 52.8476 106.799 53.0601C104.39 55.3751 101.534 56.1985 98.3318 55.7587C94.3488 55.212 91.5533 52.9425 90.2014 49.0195C88.6187 44.4308 89.593 40.2659 92.7036 36.6624C93.3426 35.9219 94.0746 35.267 94.785 34.5986C96.0514 33.409 97.1202 32.0764 97.7056 30.3736C97.8676 29.9004 98.1367 29.7253 98.5805 30.01C102.247 32.3611 105.51 35.1587 107.712 39.1204C108.63 40.7738 109.265 42.5435 109.351 44.4629C109.427 46.1952 109.036 47.8245 107.883 49.1531C106.469 50.7838 104.206 50.9616 102.682 49.5835C101.24 48.279 101.092 45.8022 102.373 44.1515C102.627 43.8254 102.924 43.534 103.218 43.2453C105.641 40.8554 105.346 37.57 102.539 35.704C99.3763 33.6015 95.424 34.3834 92.9498 37.6649C90.649 40.715 90.0483 44.1301 91.4487 47.751C92.8363 51.3412 95.5668 53.2338 99.1659 53.7992C101.851 54.2203 104.399 53.7444 106.799 52.4091C106.911 52.3463 107.022 52.2808 107.138 52.2247C107.173 52.2087 107.22 52.222 107.47 52.222L107.468 52.2234Z" fill="#198BCC"/>
</svg>
