<svg width="200" height="117" viewBox="0 0 200 117" fill="none" xmlns="http://www.w3.org/2000/svg">
<g clip-path="url(#clip0_1362_26119)">
<path d="M166.506 70H145.033C144.377 69.94 143.847 69.4038 143.786 68.7637L143.787 59.2077C143.889 58.5509 144.407 58.07 145.08 58H166.459C167.163 58.043 167.741 58.6106 167.785 59.2997L167.781 68.8215C167.671 69.45 167.167 69.9538 166.506 69.9997L166.506 70ZM148.101 60.9462H146.791V67.055H150.721V65.896H148.133V61.0244C148.133 61.0141 148.09 60.977 148.101 60.9462ZM152.926 60.9462H151.616V67.055H152.926V60.9462ZM155.003 60.9462H153.517L155.88 67.0572L157.512 67.0249L159.86 60.9462H158.358L156.696 65.5826L155.003 60.9462ZM164.781 62.0741V60.9933L164.733 60.9462H160.451L160.403 60.9933V67.0554H164.78V65.9274H161.745V64.5178H164.716V63.3899H161.745V62.1212L161.793 62.0741H164.78H164.781Z" fill="#FC2B55"/>
<path d="M164.781 62.0742H161.793L161.745 62.121V63.3899H164.717V64.5175H161.745V65.9275H164.781V67.0551H160.403V60.9934L160.451 60.9463H164.733L164.781 60.9934V62.0742Z" fill="#FEFBFB"/>
<path d="M155.003 60.9463L156.696 65.5826L158.358 60.9463H159.86L157.512 67.025L155.88 67.0573L153.517 60.9463H155.003Z" fill="#FEFBFB"/>
<path d="M148.101 60.9463C148.09 60.9771 148.133 61.0141 148.133 61.0245V65.8961H150.721V67.0551H146.791V60.9463H148.101Z" fill="#FEFAFB"/>
<path d="M152.926 60.9463H151.616V67.0551H152.926V60.9463Z" fill="#FEFCFD"/>
</g>
<g clip-path="url(#clip1_1362_26119)">
<path d="M48.8398 46C48.8727 46.0326 48.8185 46.7411 48.8398 46.911C48.8572 47.0521 48.9793 47.5024 49.0336 47.6781C49.4124 48.9097 50.4123 50.2652 51.5022 50.9852C51.9886 51.3068 52.5864 51.493 53.1484 51.6562C53.4691 51.7494 53.8789 51.903 54.2131 51.9442C54.4108 51.9682 54.6394 51.927 54.8429 51.9442V56.2584C54.5116 56.2373 54.1531 56.2882 53.8266 56.2584C53.1697 56.1989 52.413 55.9608 51.7929 55.7794C50.8754 55.5096 49.9811 55.1343 49.1789 54.6293C49.0665 54.5592 49.0287 54.3874 48.8398 54.4373V63.3057C48.6751 63.7204 48.7439 64.282 48.646 64.7438C48.1248 67.2167 46.063 69.6522 43.5633 70.544C39.9998 71.816 35.7252 70.3702 33.833 66.9489C33.5666 66.4977 33.3021 65.9841 33.1548 65.5108C32.0454 61.9406 33.4735 58.0853 36.882 56.1634C37.6901 55.6325 38.531 55.453 39.3991 55.3004C40.2266 55.1544 40.5599 55.068 41.4328 55.2044C41.5665 55.2255 41.7283 55.1909 41.8688 55.2044V59.6145C41.7138 59.6673 41.6644 59.5253 41.6266 59.5185C40.1161 59.2632 38.4913 59.7969 37.7056 61.1966C37.4478 61.5028 37.3994 61.8148 37.318 62.1556C37.3093 62.1931 37.2299 62.2142 37.2211 62.2516C37.1959 62.3611 37.2424 62.5175 37.2211 62.6347C37.2143 62.6711 37.1291 62.6951 37.1242 62.7307C37.1029 62.9025 37.1029 63.2299 37.1242 63.4017C37.1291 63.4372 37.2143 63.4612 37.2211 63.4977C37.2424 63.6148 37.1959 63.7723 37.2211 63.8807C37.2299 63.9182 37.3093 63.9393 37.318 63.9767C37.3568 64.1409 37.351 64.186 37.4149 64.3598C37.8402 65.5233 38.7074 66.2289 39.8836 66.5169C39.9223 66.5265 39.9437 66.6061 39.9805 66.6129C40.1539 66.6436 40.3816 66.5869 40.5618 66.6129C40.5976 66.6177 40.6199 66.7002 40.6587 66.7089C40.899 66.7645 41.0075 66.6186 41.0462 66.6129C41.2264 66.5869 41.4531 66.6436 41.6275 66.6129C41.6634 66.6061 41.6857 66.5265 41.7244 66.5169C42.019 66.4449 42.3338 66.3767 42.5954 66.2289C43.0101 65.9946 43.9015 65.0884 44.0962 64.6468C44.1195 64.594 44.0739 64.5114 44.0962 64.4548C44.1185 64.3982 44.2774 64.211 44.29 64.1668C44.3123 64.0871 44.2706 63.9662 44.29 63.8788C44.2987 63.8404 44.3869 63.8145 44.3869 63.7828V46H48.8408H48.8398Z" fill="#FCFCFC"/>
<path d="M84.0825 51.9443V60.2857L88.391 56.1635H93.5706L88.1488 61.4847L94.2488 70.1611H89.4558C89.3841 70.0766 89.2795 70.0065 89.2136 69.9211C89.199 69.9019 89.23 69.8481 89.2136 69.8251C87.9385 68.0232 86.7827 66.3557 85.6317 64.5519C85.5609 64.4405 85.3875 64.4031 85.4379 64.2159C85.2887 64.1794 85.28 64.2485 85.1957 64.3119C84.937 64.5067 84.6599 64.7899 84.4216 64.9829C84.3595 65.0338 84.0825 65.2949 84.0825 65.3189V70.1601H79.6286V51.9443H84.0825Z" fill="#FCFCFC"/>
<path d="M128.619 51.9443V60.2857L128.91 60.1417L132.928 56.1625H138.108C138.147 56.3267 138.045 56.3526 137.962 56.4505C137.727 56.7308 137.365 57.0563 137.091 57.3135C136.004 58.3331 134.794 59.463 133.702 60.4777C133.568 60.6015 132.8 61.3263 132.783 61.3887C132.723 61.5951 133.045 61.8821 133.17 62.0597C134.901 64.5259 136.674 67.0699 138.398 69.538C138.522 69.7147 138.768 69.9124 138.786 70.1611H133.944C133.931 70.1611 133.967 70.0564 133.944 70.0171C133.871 69.8855 133.647 69.6743 133.557 69.538C132.461 67.8792 131.349 66.2299 130.168 64.5528C130.151 64.5298 130.182 64.476 130.168 64.4568C130.103 64.3714 129.997 64.3023 129.925 64.2168C129.808 64.1813 129.751 64.3023 129.683 64.3608C129.312 64.6786 128.986 65.0875 128.618 65.4158V70.1611H124.261V51.9443H128.618H128.619Z" fill="#FCFCFC"/>
<path d="M114.145 55.2992C114.577 55.2608 115.364 55.256 115.792 55.2992C115.826 55.303 115.852 55.3894 115.888 55.3952C116.039 55.4173 116.225 55.3702 116.373 55.3952C119.23 55.8704 121.562 58.2713 122.231 61.0034C122.808 63.366 122.273 65.5518 120.778 67.5227C114.377 74.4548 103.864 66.7298 108.579 58.7023C109.599 57.2902 110.907 56.2352 112.5 55.6822C113.066 55.4864 113.478 55.4662 114.05 55.3942C114.085 55.3894 114.112 55.3011 114.146 55.2982L114.145 55.2992ZM114.435 59.1343C114.399 59.1391 114.375 59.2236 114.338 59.2303C114.126 59.2678 113.872 59.2495 113.66 59.3263C112.889 59.6076 111.982 60.4409 111.675 61.1954C111.389 61.7916 111.2 62.5077 111.287 63.2085C111.292 63.244 111.377 63.268 111.384 63.3045C111.422 63.5138 111.404 63.7663 111.481 63.9755C111.711 64.5928 112.189 65.1861 112.691 65.5576C113.061 65.8322 113.442 66.1125 113.853 66.2286C113.931 66.2507 114.053 66.2114 114.144 66.2286C114.181 66.2363 114.205 66.3189 114.24 66.3246C114.525 66.3659 115.408 66.3659 115.693 66.3246C115.729 66.3198 115.752 66.2373 115.79 66.2286C115.878 66.2094 115.999 66.2507 116.08 66.2286C116.208 66.1941 116.605 65.9339 116.758 65.8456C117.524 65.4002 118.034 64.8587 118.356 63.9765C118.371 63.9371 118.442 63.917 118.453 63.8805C118.475 63.8008 118.434 63.6799 118.453 63.5925C118.462 63.5551 118.545 63.532 118.55 63.4965C118.59 63.2258 118.596 62.2207 118.55 61.9625C118.543 61.9269 118.463 61.9049 118.453 61.8665C118.235 60.9929 117.86 60.3977 117.146 59.9014C116.566 59.4972 116.262 59.3618 115.597 59.2303C115.559 59.2227 115.536 59.1401 115.5 59.1343C115.264 59.0998 114.676 59.1046 114.435 59.1343Z" fill="#FCFCFC"/>
<path d="M109.062 51.9443C109.049 52.0518 109.082 52.1814 109.062 52.2803C109.041 52.3792 108.92 52.6797 108.868 52.8553C108.599 53.7597 108.15 54.7273 107.9 55.6355C107.883 55.6998 107.912 55.8755 107.9 55.8755H104.028V70.1601H99.5737V55.8745H95.1198V51.9434H109.062V51.9443Z" fill="#FCFCFC"/>
<path d="M72.6576 51.9443L72.5607 52.4714C72.1741 53.512 71.8815 54.5056 71.4959 55.5395C71.4765 55.5904 71.492 55.8755 71.3506 55.8755H67.913V70.1601H63.7013C63.681 70.1601 63.6064 70.3089 63.4591 70.2561V55.8745H59.0052V51.9434H72.6566L72.6576 51.9443Z" fill="#FCFCFC"/>
<path d="M77.8865 57.7925H73.5295V70.16H77.8865V57.7925Z" fill="#FCFCFC"/>
<path d="M75.32 51.944C75.4944 51.9191 75.9207 51.9191 76.0941 51.944C76.13 51.9488 76.1532 52.0314 76.191 52.04C76.2792 52.0592 76.4003 52.0179 76.4817 52.04C76.5185 52.0496 76.5388 52.1216 76.5786 52.136C76.6454 52.16 76.8295 52.2061 76.8692 52.232C76.9787 52.304 77.5222 52.8426 77.5949 52.951C77.6094 52.9722 77.5794 53.023 77.5949 53.047C77.655 53.143 77.872 53.4637 77.8856 53.5261C77.9175 53.672 77.9175 54.6272 77.8856 54.7721C77.8778 54.8067 77.8051 54.8269 77.7887 54.8681C77.7334 55.0064 77.6647 55.2301 77.5949 55.3472C77.5542 55.4163 77.2936 55.7552 77.2558 55.7782C77.2316 55.7936 77.1793 55.7638 77.1589 55.7782C77.0562 55.8502 76.97 55.999 76.8682 56.0662C76.8479 56.0796 76.7975 56.0508 76.7714 56.0662C76.2404 56.3772 75.8655 56.3907 75.2221 56.3542C75.1446 56.2083 75.0129 56.288 74.9315 56.2582C74.8937 56.2448 74.8753 56.1804 74.8346 56.1622C74.2349 55.8953 73.9587 55.6169 73.6245 55.0601C73.5489 54.8432 73.5693 54.6166 73.5276 54.3891C73.5208 54.3526 73.4394 54.3315 73.4307 54.2931C73.3745 54.055 73.5189 53.9581 73.5276 53.9101C73.5489 53.7929 73.5034 53.6374 73.5276 53.527C73.5353 53.4925 73.608 53.4723 73.6245 53.431C73.794 53.0077 74.1525 52.4902 74.5439 52.233C74.5643 52.2195 74.6156 52.2483 74.6408 52.233C74.7067 52.1946 74.8898 52.0525 74.9315 52.041C75.0119 52.0189 75.134 52.0602 75.2221 52.041C75.2599 52.0323 75.2832 51.9507 75.319 51.945L75.32 51.944Z" fill="#FCFCFC"/>
</g>
<defs>
<clipPath id="clip0_1362_26119">
<rect width="24" height="12" fill="white" transform="translate(143.786 58)"/>
</clipPath>
<clipPath id="clip1_1362_26119">
<rect width="106" height="25" fill="white" transform="translate(32.7857 46)"/>
</clipPath>
</defs>
</svg>
