<svg width="200" height="117" viewBox="0 0 200 117" fill="none" xmlns="http://www.w3.org/2000/svg">
<path d="M48.7666 66.4624L48.8885 66.8067C48.8692 66.7673 48.8246 66.6468 48.7666 66.4624ZM43.1025 64.0134C43.3167 62.1638 44.0441 61.1278 45.4147 60.0658C47.3758 58.6275 49.8256 59.4411 49.8256 59.4411V54.6137C50.4212 54.5985 51.0169 54.6355 51.606 54.7245V60.9352C51.606 60.9352 49.157 60.1216 47.1959 61.5599C45.826 62.6219 45.0971 63.6586 44.8837 65.5082C44.877 66.5137 45.0577 67.8271 45.8899 68.9627C45.6842 68.8526 45.4745 68.7272 45.2608 68.5864C43.4275 67.302 43.0936 65.3758 43.1025 64.0134ZM61.7211 45.6893C60.372 44.1469 59.8618 42.5896 59.6774 41.4956H61.3745C61.3745 41.4956 61.0361 44.3641 63.5022 47.1849L63.5365 47.2228C62.8718 46.7866 62.2623 46.2717 61.7211 45.6893Z" fill="#EE1D52"/>
<path d="M69.8972 50.0654V56.1511C69.8972 56.1511 67.7315 56.0634 66.1289 55.6372C63.8911 55.0423 62.4527 54.1305 62.4527 54.1305C62.4527 54.1305 61.4592 53.479 61.3788 53.4344V66.0066C61.3788 66.7057 61.1951 68.4534 60.6351 69.9118C59.9041 71.8187 58.7759 73.0703 58.5684 73.3254C58.5684 73.3254 57.1963 75.0181 54.7755 76.1574C52.5935 77.1852 50.6777 77.1592 50.1051 77.1852C50.1051 77.1852 46.7934 77.322 43.8134 75.3007C43.1687 74.8559 42.5672 74.3517 42.0166 73.7947L42.0315 73.8051C45.0122 75.8265 48.3232 75.6896 48.3232 75.6896C48.8966 75.6636 50.8123 75.6896 52.9936 74.6618C55.4129 73.5225 56.7865 71.8298 56.7865 71.8298C56.9917 71.5747 58.1251 70.3231 58.8532 68.4155C59.4118 66.9578 59.5969 65.2101 59.5969 64.5103V51.9388C59.6773 51.9842 60.6708 52.6357 60.6708 52.6357C60.6708 52.6357 62.1092 53.5489 64.3469 54.1424C65.9504 54.5678 68.1153 54.6563 68.1153 54.6563V49.8877C68.856 50.061 69.4874 50.1086 69.8972 50.0654Z" fill="#EE1D52"/>
<path d="M68.1166 49.885V54.6529C68.1166 54.6529 65.9517 54.5644 64.3482 54.139C62.1104 53.544 60.6721 52.6323 60.6721 52.6323C60.6721 52.6323 59.6785 51.9808 59.5982 51.9354V64.5047C59.5982 65.2045 59.4145 66.9522 58.8545 68.4099C58.1235 70.3174 56.9953 71.5691 56.7878 71.8242C56.7878 71.8242 55.4157 73.5168 52.9949 74.6562C50.8136 75.684 48.8979 75.658 48.3245 75.684C48.3245 75.684 45.0135 75.8208 42.0328 73.7994L42.0179 73.789C41.7034 73.4709 41.4071 73.1352 41.1307 72.7836C40.1795 71.5728 39.5964 70.1427 39.4499 69.7344C39.4495 69.7327 39.4495 69.7309 39.4499 69.7292C39.2134 69.0189 38.7181 67.3159 38.7858 65.6656C38.9055 62.7533 39.8872 60.9669 40.1467 60.5185C40.8345 59.2978 41.7288 58.2057 42.7899 57.2908C43.7257 56.5005 44.7869 55.8721 45.9298 55.4315C46.6424 55.1354 47.3849 54.9172 48.1445 54.7808C48.7001 54.6815 49.2625 54.6255 49.8267 54.6135V59.4379C49.8267 59.4379 47.377 58.6242 45.4159 60.0626C44.0452 61.1246 43.3179 62.1605 43.1037 64.0101C43.0948 65.3726 43.4287 67.2988 45.2604 68.5846C45.4736 68.7259 45.6833 68.8514 45.8896 68.9609C46.2098 69.3934 46.599 69.7703 47.0416 70.0765C48.8309 71.2582 50.3302 71.3408 52.2475 70.5733C53.5274 70.0668 54.486 68.9104 54.9404 67.6282C55.2208 66.828 55.2171 66.0218 55.2171 65.1896V41.4961H59.6793C59.8637 42.5901 60.3739 44.1474 61.723 45.6898C62.2642 46.2722 62.8737 46.7871 63.5383 47.2233C63.7347 47.4353 64.7387 48.4824 66.0275 49.1265C66.6924 49.4588 67.3934 49.7133 68.1166 49.885Z" fill="white"/>
<path d="M37.6738 68.2524V68.2569L37.7836 68.5693C37.7717 68.533 37.7302 68.4224 37.6738 68.2524Z" fill="#69C9D0"/>
<path d="M45.9294 55.4314C44.7866 55.872 43.7253 56.5004 42.7895 57.2906C41.7284 58.2076 40.8345 59.302 40.1479 60.525C39.8884 60.9712 38.9067 62.7598 38.7869 65.6721C38.7193 67.3224 39.2146 69.0255 39.4511 69.7357C39.4506 69.7374 39.4506 69.7392 39.4511 69.7409C39.5998 70.1455 40.1806 71.5756 41.1318 72.7901C41.4083 73.1417 41.7045 73.4774 42.0191 73.7955C41.0107 73.0982 40.1115 72.2551 39.3507 71.2937C38.4076 70.0942 37.8261 68.6781 37.6744 68.2602L37.6706 68.2513V68.2453C37.4341 67.5373 36.9373 65.8328 37.0065 64.1803C37.1262 61.2679 38.1079 59.4816 38.3675 59.0331C39.0539 57.81 39.9478 56.7156 41.0091 55.7987C41.9447 55.0082 43.006 54.3798 44.149 53.9395C44.8616 53.6434 45.6042 53.4252 46.3637 53.2888C47.5082 53.0886 48.6772 53.0713 49.8272 53.2374V54.6133C49.2631 54.6236 48.7006 54.6778 48.1449 54.7754C47.3849 54.9135 46.6421 55.1334 45.9294 55.4314Z" fill="#69C9D0"/>
<path d="M59.678 41.4971H55.2158V65.1921C55.2158 66.0243 55.2195 66.8282 54.9392 67.6307C54.4885 68.9113 53.5299 70.0678 52.2522 70.5809C50.3342 71.3514 48.8349 71.2659 47.0463 70.0842C46.6037 69.778 46.2145 69.4011 45.8943 68.9686C47.4181 69.7815 48.7821 69.7673 50.4718 69.0891C51.742 68.5722 52.7088 67.4158 53.155 66.1344C53.4361 65.3341 53.4324 64.528 53.4324 63.6965V40H59.594C59.594 40 59.5241 40.5898 59.678 41.4971ZM68.116 48.5682V49.886C67.3926 49.7143 66.6914 49.4598 66.0262 49.1274C64.7374 48.4834 63.7334 47.4363 63.5371 47.2243C63.7648 47.3739 64.0012 47.5098 64.2451 47.6311C65.8121 48.4135 67.3515 48.6477 68.116 48.5682Z" fill="#69C9D0"/>
<path d="M134.049 60.9241C134.049 61.2631 134.099 61.6001 134.198 61.9244C134.203 61.9473 134.21 61.9699 134.218 61.9921C134.456 62.7591 134.934 63.4297 135.58 63.906C136.227 64.3823 137.009 64.6391 137.812 64.6389V68.4466C135.959 68.4466 134.632 68.5113 132.613 67.317C130.307 65.9545 129.012 63.4631 129.012 60.8758C129.012 58.2089 130.46 55.5353 132.917 54.2479C134.697 53.3138 136.052 53.3071 137.812 53.3071V57.1126C136.814 57.1128 135.857 57.5094 135.151 58.2151C134.446 58.9207 134.049 59.8778 134.049 60.8758V60.9241Z" fill="#69C9D0"/>
<path d="M141.604 60.9241C141.604 61.2631 141.554 61.6002 141.455 61.9244C141.45 61.9474 141.443 61.9701 141.434 61.9921C141.197 62.7592 140.719 63.43 140.073 63.9063C139.426 64.3826 138.644 64.6393 137.841 64.6389V68.4466C139.694 68.4466 141.021 68.5113 143.04 67.317C145.345 65.9545 146.642 63.4631 146.642 60.8758C146.642 58.2089 145.192 55.5353 142.737 54.2479C140.956 53.3138 139.6 53.3071 137.841 53.3071V57.1126C138.839 57.1126 139.796 57.5091 140.502 58.2148C141.208 58.9205 141.604 59.8777 141.605 60.8758L141.604 60.9241Z" fill="#EE1D52"/>
<path d="M79.5614 49.854H93.4991L92.211 53.6893H88.5669V68.3654H84.0771V53.6893H79.5614V49.854ZM116.501 49.854V53.6893H121.017V68.3654H125.503V53.6893H129.148L130.439 49.854H116.501ZM96.5311 54.2247C96.9605 54.2247 97.3802 54.0974 97.7372 53.8589C98.0942 53.6203 98.3724 53.2813 98.5368 52.8846C98.7011 52.4879 98.7441 52.0515 98.6603 51.6304C98.5765 51.2092 98.3698 50.8224 98.0662 50.5188C97.7626 50.2152 97.3758 50.0085 96.9547 49.9247C96.5335 49.841 96.0971 49.8839 95.7004 50.0483C95.3037 50.2126 94.9647 50.4908 94.7261 50.8478C94.4876 51.2048 94.3603 51.6245 94.3603 52.0539C94.3603 52.6296 94.589 53.1818 94.9961 53.5889C95.4032 53.996 95.9554 54.2247 96.5311 54.2247ZM94.3566 68.3654H98.757V55.759H94.3566V68.3654ZM114.585 54.1161H109.44L105.006 58.5553V49.8681H100.635L100.62 68.3654H105.035V63.5455L106.41 62.3013L110.693 68.3654H115.412L109.207 59.4968L114.585 54.1161ZM156.793 59.4968L162.174 54.1161H157.029L152.594 58.5553V49.8681H148.223L148.209 68.3654H152.623V63.5455L154.001 62.3013L158.286 68.3654H163L156.793 59.4968ZM145.481 60.8756C145.481 65.056 142.047 68.445 137.81 68.445C133.573 68.445 130.14 65.056 130.14 60.8756C130.14 56.6953 133.574 53.3063 137.81 53.3063C142.046 53.3063 145.483 56.696 145.483 60.8756H145.481ZM141.573 60.8756C141.573 60.1314 141.353 59.4038 140.939 58.785C140.526 58.1661 139.938 57.6838 139.25 57.399C138.563 57.1141 137.806 57.0396 137.076 57.1848C136.346 57.33 135.676 57.6884 135.149 58.2147C134.623 58.741 134.265 59.4115 134.119 60.1415C133.974 60.8715 134.049 61.6281 134.334 62.3157C134.618 63.0033 135.101 63.5911 135.72 64.0046C136.338 64.4181 137.066 64.6388 137.81 64.6388C138.305 64.6391 138.794 64.5419 139.251 64.3529C139.708 64.1639 140.123 63.8868 140.472 63.5373C140.822 63.1878 141.099 62.7729 141.288 62.3162C141.478 61.8595 141.575 61.37 141.575 60.8756H141.573Z" fill="white"/>
</svg>
