<svg width="200" height="117" viewBox="0 0 200 117" fill="none" xmlns="http://www.w3.org/2000/svg">
<path d="M44.1093 76.8804H47.0519C47.1229 76.8804 47.1697 76.8334 47.1697 76.7621V75.3372C47.1697 75.2658 47.1229 75.2189 47.0519 75.2189H45.7048C45.6338 75.2189 45.5871 75.1718 45.5871 75.1005V73.4974C45.5871 73.4261 45.6338 73.379 45.7048 73.379H46.9454C47.0164 73.379 47.0632 73.3321 47.0632 73.2607V71.8488C47.0632 71.7774 47.0164 71.7305 46.9454 71.7305H45.7048C45.6338 71.7305 45.5871 71.6834 45.5871 71.6121V70.4596C45.5871 70.3056 45.6694 70.2229 45.9178 70.2229C46.213 70.2229 46.6389 70.2828 46.9696 70.4839C47.1003 70.5552 47.1713 70.5309 47.1713 70.4011V68.691C47.1713 68.6197 47.1245 68.5728 47.0535 68.5728H43.8737C43.7672 68.5728 43.7075 68.644 43.7317 68.751C43.8382 69.2503 43.8737 69.5339 43.8737 70.5552V76.6454C43.8737 76.7994 43.956 76.882 44.1093 76.882V76.8804Z" fill="#FFFFF1"/>
<path d="M49.0517 76.9982C50.3747 76.9982 51.1426 75.9543 51.1426 74.5407C51.1426 73.4952 50.7054 72.8662 50.1972 72.273L50.0552 72.106C49.6293 71.6198 49.3583 71.2744 49.3583 70.8238C49.3583 70.5385 49.5003 70.2418 49.831 70.2418C50.1262 70.2418 50.3037 70.3958 50.5393 70.7412C50.7054 70.9908 50.7409 71.0378 50.8344 71.0378C50.9409 71.0378 50.9765 70.9535 50.9765 70.8238V69.4119C50.9765 69.1979 50.9409 69.0082 50.7877 68.8299C50.5747 68.6046 50.1843 68.4507 49.6777 68.4507C48.3548 68.4507 47.6095 69.5076 47.6095 70.9324C47.6095 71.9893 48.1064 72.6782 48.5904 73.2359L48.6613 73.3185C49.0517 73.7691 49.3825 74.1371 49.3825 74.5894C49.3825 74.8617 49.2518 75.207 48.8856 75.207C48.5194 75.207 48.2952 74.9347 48.0467 74.531C47.9047 74.2815 47.8805 74.21 47.774 74.21C47.6563 74.21 47.6208 74.3284 47.6208 74.4468V76.037C47.6208 76.2509 47.6563 76.4406 47.8095 76.6059C48.0225 76.8426 48.4323 76.9982 49.0501 76.9982H49.0517Z" fill="#FFFFF1"/>
<path d="M52.8025 76.8802H54.0431C54.1964 76.8802 54.2803 76.7975 54.2803 76.6434V70.3864C54.2803 70.3037 54.2916 70.2323 54.4336 70.2323C54.669 70.2323 54.8594 70.3621 55.2257 70.5404C55.3564 70.6003 55.4257 70.5404 55.4257 70.4107V68.6891C55.4257 68.6178 55.3789 68.5708 55.3079 68.5708H51.5393C51.4683 68.5708 51.4215 68.6178 51.4215 68.6891V70.4107C51.4215 70.542 51.4925 70.6003 51.6232 70.5404C51.9894 70.3621 52.1781 70.2323 52.4153 70.2323C52.5573 70.2323 52.5685 70.3037 52.5685 70.3864V76.6434C52.5685 76.7975 52.6508 76.8802 52.8041 76.8802H52.8025Z" fill="#FFFFF1"/>
<path d="M142.553 76.8802H143.652C143.805 76.8802 143.887 76.7975 143.887 76.6434V68.8076C143.887 68.6535 143.805 68.5708 143.652 68.5708H142.648C142.506 68.5708 142.459 68.6308 142.364 68.8317C142.104 69.3894 141.832 69.8531 141.443 70.3037C141.301 70.4707 141.277 70.5647 141.277 70.803V72.4775C141.277 72.6088 141.324 72.6785 141.395 72.6785C141.512 72.6785 141.595 72.5245 141.925 72.0252L142.174 71.6572C142.221 71.5859 142.245 71.5746 142.269 71.5746C142.316 71.5746 142.316 71.6346 142.316 71.7172V76.6434C142.316 76.7975 142.398 76.8802 142.551 76.8802H142.553Z" fill="#FFFFF1"/>
<path d="M146.416 68.4507C145.01 68.4507 144.371 69.5431 144.371 71.336C144.371 72.9619 144.903 73.9945 145.918 73.9945C146.296 73.9945 146.591 73.8275 146.782 73.6021C146.853 73.5195 146.924 73.5066 146.924 73.6978C146.924 74.7661 146.582 75.3837 146.014 75.3837C145.647 75.3837 145.469 75.1471 145.21 74.7434C145.115 74.6008 145.044 74.518 144.95 74.518C144.844 74.518 144.797 74.6251 144.797 74.779V76.0969C144.797 76.3693 144.857 76.5606 145.057 76.7145C145.257 76.8686 145.636 76.9998 146.132 76.9998C147.798 76.9998 148.588 75.4923 148.588 72.3589C148.588 69.6989 147.915 68.4539 146.414 68.4539L146.416 68.4507ZM146.049 71.2517C146.049 70.0295 146.216 69.7555 146.44 69.7555C146.675 69.7555 146.841 70.0408 146.841 71.2517C146.841 72.4627 146.675 72.7479 146.44 72.7479C146.204 72.7479 146.049 72.4756 146.049 71.2517Z" fill="#FFFFF1"/>
<path d="M149.411 76.8804H150.616C150.829 76.8804 150.887 76.8205 150.887 76.6081C150.875 74.4229 151.43 72.4048 152.434 70.3396C152.541 70.1256 152.576 69.9716 152.576 69.7463V68.8093C152.576 68.6554 152.494 68.5728 152.341 68.5728H149.008C148.855 68.5728 148.773 68.6554 148.773 68.8093V70.0673C148.773 70.2213 148.855 70.304 149.008 70.304H150.58C150.829 70.304 150.793 70.4223 150.698 70.6006C149.671 72.5475 149.173 74.4716 149.115 76.5838C149.104 76.8205 149.187 76.8804 149.411 76.8804Z" fill="#FFFFF1"/>
<path d="M154.783 76.9982C156.191 76.9982 156.828 75.9057 156.828 74.1127C156.828 72.487 156.296 71.4544 155.28 71.4544C154.903 71.4544 154.608 71.6213 154.417 71.8466C154.346 71.9293 154.275 71.9423 154.275 71.7511C154.275 70.6828 154.617 70.0651 155.185 70.0651C155.551 70.0651 155.729 70.3018 155.989 70.7071C156.084 70.8497 156.155 70.9324 156.249 70.9324C156.355 70.9324 156.402 70.8254 156.402 70.6714V69.3535C156.402 69.0812 156.342 68.8899 156.142 68.7359C155.942 68.5819 155.562 68.4507 155.067 68.4507C153.401 68.4507 152.61 69.9582 152.61 73.0916C152.61 75.7516 153.285 76.9966 154.785 76.9966L154.783 76.9982ZM154.358 74.1971C154.358 72.9862 154.524 72.7009 154.759 72.7009C154.995 72.7009 155.15 72.9733 155.15 74.1971C155.15 75.421 154.983 75.6934 154.759 75.6934C154.524 75.6934 154.358 75.408 154.358 74.1971Z" fill="#FFFFF1"/>
<path d="M66.8079 46.6586C66.1787 46.9261 65.4543 47.072 64.6606 47.072C63.8668 47.072 63.1409 46.9277 62.5117 46.6619C61.9793 46.4365 61.5549 46.7039 61.5549 47.2827V64.6859C61.5549 65.0668 61.8615 65.3749 62.2407 65.3749H67.0789C67.4581 65.3749 67.7645 65.0668 67.7645 64.6859V47.2794C67.7645 46.6991 67.3386 46.4317 66.8062 46.6586H66.8079Z" fill="#FFFFF1"/>
<path d="M64.6345 40C62.6002 40 61.2547 41.1039 61.3095 42.926C61.3644 44.6653 62.6292 45.8519 64.6619 45.8519C66.6947 45.8519 67.9869 44.6653 67.9869 42.926C67.9869 41.1866 66.6688 40 64.6345 40Z" fill="#FFFFF1"/>
<path d="M130.904 46.6586C130.274 46.9261 129.55 47.072 128.756 47.072C127.963 47.072 127.237 46.9277 126.607 46.6619C126.075 46.4365 125.651 46.7039 125.651 47.2827V64.6859C125.651 65.0668 125.957 65.3749 126.336 65.3749H131.175C131.554 65.3749 131.86 65.0668 131.86 64.6859V47.2794C131.86 46.6991 131.434 46.4317 130.902 46.6586H130.904Z" fill="#FFFFF1"/>
<path d="M128.727 40C126.695 40 125.348 41.1039 125.402 42.926C125.457 44.6653 126.722 45.8519 128.755 45.8519C130.788 45.8519 132.08 44.6653 132.08 42.926C132.08 41.1866 130.76 40 128.727 40Z" fill="#FFFFF1"/>
<path d="M138.976 40.3701H133.6C133.128 40.3701 132.828 40.7835 132.933 41.2147C133.287 42.6784 133.452 44.4453 133.452 46.8315V64.6838C133.452 65.0648 133.759 65.3727 134.138 65.3727H138.976C139.355 65.3727 139.662 65.0648 139.662 64.6838V41.0607C139.662 40.6797 139.355 40.3718 138.976 40.3718V40.3701Z" fill="#FFFFF1"/>
<path d="M60.2393 40.3701H53.5618C53.1247 40.3701 52.8342 40.7478 52.973 41.1774C53.4263 42.5714 53.386 43.818 53.2957 44.9819L52.2518 58.6924C52.2211 59.0896 51.734 59.0896 51.7049 58.6924L50.6724 44.9819C50.5821 43.818 50.5417 42.573 50.995 41.1774C51.1354 40.7478 50.8451 40.3701 50.4062 40.3701H43.5481C43.0367 40.3701 42.7157 40.8451 42.9189 41.3314C43.5272 42.7903 43.8224 44.2233 43.995 45.4228L46.836 64.4925C46.9118 64.9983 47.3442 65.3727 47.854 65.3727H55.9221C56.4319 65.3727 56.8642 64.9983 56.94 64.4925L59.7923 45.4228C59.9665 44.2233 60.2619 42.7903 60.8684 41.3314C61.0717 40.8434 60.749 40.3701 60.2393 40.3701Z" fill="#FFFFF1"/>
<path d="M156.783 64.5315L151.429 54.4423C151.302 54.204 151.237 53.9771 151.237 53.7793C151.237 53.1991 151.641 52.6932 152.711 52.6932C153.269 52.6932 153.689 52.7499 154.246 52.87C154.601 52.9461 154.936 52.7354 154.936 52.3091V46.9954C154.936 46.3599 154.319 46.2416 153.607 46.2416C149.738 46.2416 148.592 49.0265 148.346 51.9427C148.272 52.8245 148.052 53.2006 147.666 53.2006C147.541 53.2006 147.46 53.1212 147.46 52.9412V41.0625C147.46 40.6815 147.154 40.3735 146.775 40.3735H141.399C140.926 40.3735 140.626 40.7869 140.731 41.218C141.086 42.6818 141.251 44.4488 141.251 46.8349V64.6871C141.251 65.0681 141.557 65.3761 141.936 65.3761H146.775C147.154 65.3761 147.46 65.0681 147.46 64.6871V58.7364C147.46 58.5289 147.676 58.4624 147.747 58.6602L150.007 64.7553C150.133 65.128 150.482 65.3778 150.874 65.3778H156.28C156.741 65.3778 156.989 64.9157 156.785 64.5332L156.783 64.5315Z" fill="#FFFFF1"/>
<path d="M79.7343 46.2393C78.0775 46.2393 76.6787 46.6623 75.5381 47.8278C75.4301 47.938 75.2445 47.8603 75.2445 47.7062V47.2864C75.2445 46.9055 74.938 46.5974 74.5589 46.5974H69.5029C69.0285 46.5974 68.7301 47.014 68.8365 47.4469C69.1915 48.909 69.3544 50.6744 69.3544 53.0588V64.6848C69.3544 65.0657 69.6609 65.3738 70.04 65.3738H74.8783C75.2575 65.3738 75.5639 65.0657 75.5639 64.6848V52.3408C75.5639 51.4638 76.0318 50.9596 76.774 50.9596C77.4612 50.9596 77.9001 51.4622 77.9001 52.3408V64.6848C77.9001 65.0657 78.2066 65.3738 78.5857 65.3738H83.4239C83.8031 65.3738 84.1096 65.0657 84.1096 64.6848V50.9337C84.1096 47.9153 82.3689 46.2393 79.7311 46.2393H79.7343Z" fill="#FFFFF1"/>
<path d="M119.843 46.2393C118.116 46.2393 116.623 46.9233 115.655 47.9284C115.541 48.0467 115.388 48.0385 115.297 47.8927C114.626 46.8179 113.447 46.2393 111.801 46.2393C110.156 46.2393 108.796 46.9022 107.808 47.857C107.7 47.9624 107.518 47.8846 107.518 47.7322V47.288C107.518 46.9071 107.211 46.5991 106.832 46.5991H101.776C101.302 46.5991 101.003 47.0157 101.11 47.4485C101.465 48.9106 101.628 50.676 101.628 53.0604V64.6865C101.628 65.0674 101.934 65.3753 102.313 65.3753H107.152C107.531 65.3753 107.837 65.0674 107.837 64.6865V52.3392C107.837 51.5254 108.123 50.9628 108.863 50.9628C109.551 50.9628 109.762 51.527 109.762 52.344V64.688C109.762 65.069 110.068 65.377 110.448 65.377H115.286C115.665 65.377 115.971 65.069 115.971 64.688V52.3083C115.98 51.5157 116.267 50.9646 116.998 50.9646C117.685 50.9646 117.896 51.5286 117.896 52.3456V64.6897C117.896 65.0706 118.203 65.3786 118.582 65.3786H123.42C123.799 65.3786 124.106 65.0706 124.106 64.6897V50.9385C124.106 48.0321 122.621 46.2441 119.842 46.2441L119.843 46.2393Z" fill="#FFFFF1"/>
<path d="M93.452 46.2393C91.2644 46.2393 88.717 46.7109 86.6843 48.3968C86.473 48.5735 86.3487 48.8345 86.3487 49.1101V53.3279C86.3487 53.8321 86.9198 54.1109 87.3135 53.7705C89.3447 52.0133 91.3402 50.9871 92.7794 50.9871C93.5488 50.9871 94.0167 51.1963 94.0167 51.8009C94.0167 52.7573 92.6696 53.1416 90.1819 54.2714C87.8023 55.3509 85.1952 56.9412 85.1952 60.5691C85.1952 63.8548 87.2312 65.6866 89.8948 65.6866C92.0162 65.6866 93.1472 64.9394 93.9779 63.9813C94.0812 63.8613 94.278 63.9359 94.278 64.0947V64.6848C94.278 65.0657 94.5845 65.3738 94.9637 65.3738H99.4035C99.7826 65.3738 100.089 65.0657 100.089 64.6848V52.5676C100.089 48.225 97.9644 46.2393 93.452 46.2393ZM94.1603 59.0616C94.1603 60.3875 93.5005 61.1105 92.6003 61.1105C91.9404 61.1105 91.3402 60.6582 91.3402 59.7553C91.3402 58.3028 92.7858 57.4842 93.9345 56.4906C94.0232 56.4144 94.1603 56.4776 94.1603 56.5959V59.0616Z" fill="#FFFFF1"/>
<path d="M153.321 43.7429C152.323 43.7429 151.57 43.0298 151.57 41.9955C151.57 40.9613 152.302 40.248 153.321 40.248C154.338 40.248 155.07 40.9986 155.07 41.9955C155.07 42.9924 154.338 43.7429 153.321 43.7429ZM153.321 40.5691C152.484 40.5691 151.936 41.1623 151.936 41.9955C151.936 42.8287 152.484 43.422 153.321 43.422C154.156 43.422 154.704 42.8287 154.704 41.9955C154.704 41.1623 154.156 40.5691 153.321 40.5691Z" fill="#FFFFF1"/>
<path d="M153.816 42.2946C153.811 42.2865 153.816 42.2752 153.824 42.2703C154.053 42.1601 154.177 41.9413 154.177 41.6657C154.177 41.5036 154.122 40.9751 153.422 40.9751H152.655C152.615 40.9751 152.602 41.0011 152.615 41.0318C152.652 41.1259 152.67 41.1842 152.67 41.395V42.8733C152.67 42.8992 152.691 42.9204 152.716 42.9204H153.091C153.116 42.9204 153.137 42.8992 153.137 42.8733V42.3692C153.137 42.3594 153.145 42.3514 153.155 42.3514H153.317C153.325 42.3514 153.333 42.3562 153.338 42.3643L153.59 42.8895C153.6 42.9074 153.617 42.9204 153.638 42.9204H154.106C154.145 42.9204 154.161 42.8879 154.143 42.8555L153.816 42.2914V42.2946ZM153.375 42.0028H153.155C153.145 42.0028 153.137 41.9947 153.137 41.985V41.3819C153.137 41.3723 153.145 41.3641 153.155 41.3641H153.375C153.659 41.3641 153.703 41.5619 153.703 41.6786C153.703 41.7759 153.67 42.0044 153.375 42.0044V42.0028Z" fill="#FFFFF1"/>
</svg>
