<svg width="200" height="117" viewBox="0 0 200 117" fill="none" xmlns="http://www.w3.org/2000/svg">
<g clip-path="url(#clip0_1362_26219)">
<path d="M77.0028 46L76.8637 46.7946L72.4364 49.6305C73.968 50.6291 75.1813 52.0702 75.6823 53.8543C77.5295 60.4294 71.0218 65.9837 65.6996 68.4178C58.7988 71.5733 49.3088 72.466 43.0593 67.4656L37 67.5756L40.8453 65.0197C40.7581 64.6629 40.6535 64.304 40.6079 63.9368C39.7891 57.3645 46.4242 52.3247 51.7644 49.9991C56.6568 47.8685 62.3222 46.9453 67.6188 47.8602L77.0028 46ZM64.9598 49.5275C60.8204 49.1195 56.6145 49.8698 52.7817 51.4305L52.1568 51.739L55.6366 51.0571L57.7274 54.2278L64.9598 49.5275ZM70.6702 50.7252L59.9117 57.592L65.2788 65.9788C69.1476 64.1235 74.1992 59.9425 73.7417 55.1703C73.5673 53.3551 72.2053 51.6228 70.6702 50.7245V50.7252ZM49.5261 53.1227C49.4306 53.0529 48.1025 53.9691 47.9136 54.104C45.5702 55.7712 42.9845 58.4613 42.4869 61.4058C42.345 62.2446 42.4869 62.9679 42.7457 63.7729L51.6426 58.1017L49.5268 53.1234L49.5261 53.1227ZM55.6961 67.0134L53.2994 61.7681L45.3764 66.8495C48.9199 69.1557 53.7188 69.2421 57.7766 68.5216C59.6729 68.1848 61.4931 67.5929 63.3001 66.9518L55.6968 67.0127L55.6961 67.0134Z" fill="url(#paint0_linear_1362_26219)"/>
<path d="M106.752 67.1494L100.465 67.2296C100.415 67.1819 100.621 66.7248 100.66 66.6301C102.03 63.3059 103.911 59.9188 105.135 56.5795C105.32 56.0733 105.573 55.4972 105.171 55.0242C104.907 54.713 104.291 54.6674 103.893 54.6418C102.273 54.5381 100.637 54.7365 99.0217 54.7255L93.4767 67.1992L87.1759 67.2995L91.8461 56.6493C92.325 55.325 92.1444 54.8126 90.6737 54.7117C89.43 54.6259 87.3309 54.6079 86.1004 54.7117C85.9834 54.7213 85.7903 54.7193 85.7176 54.8306L80.2211 67.2317L73.8864 67.3334L80.7464 51.9207L80.9118 51.8093L109.359 51.6689C110.914 51.8225 112.837 52.5845 112.32 54.4945L106.75 67.1508L106.752 67.1494Z" fill="url(#paint1_linear_1362_26219)"/>
<path d="M152.025 67.4373H145.727C145.757 67.1884 145.893 66.9318 145.992 66.6988C147.356 63.4867 149.039 60.2711 150.308 57.0423C150.627 56.2284 151.052 55.0805 149.769 54.9284C148.136 54.7354 146.18 55.0597 144.512 54.9166L144.307 54.9885L138.737 67.5058H132.439L139.324 52.015C139.374 51.9375 139.452 51.952 139.528 51.9424C141.281 51.7238 143.419 52.1699 145.204 51.8739C148.251 52.0461 151.53 51.6547 154.549 51.878C156.199 51.9997 158.338 52.8925 157.525 54.9187L152.025 67.4367L152.025 67.4373Z" fill="url(#paint2_linear_1362_26219)"/>
<path d="M130.363 58.1018L129.209 60.8015L119.704 60.8326L118.044 64.3939L129.288 64.3275L129.469 64.4237L131.954 67.3682C128.597 67.3827 125.239 67.3516 121.881 67.3654C119.553 67.3751 117.158 67.568 114.822 67.4415C113.226 67.355 110.78 66.9277 111.643 64.7418L116.087 54.817L113.614 51.9486L135.622 51.8096L134.367 54.7734L122.45 54.8633L120.881 58.1024H130.363V58.1018Z" fill="url(#paint3_linear_1362_26219)"/>
<path d="M160.424 56.1411C159.464 55.2048 159.688 53.3757 160.927 52.7858C162.788 51.9 164.645 53.7118 163.782 55.5692C163.19 56.843 161.412 57.1044 160.424 56.1411ZM161.558 53.07C159.906 53.3508 159.909 56.0298 161.688 56.2268C164.15 56.4993 164.066 52.644 161.558 53.07Z" fill="url(#paint4_linear_1362_26219)"/>
<path d="M162.592 54.6227C162.546 54.6836 162.385 54.7195 162.338 54.8171C162.537 55.0128 162.751 55.2755 162.876 55.5238C162.919 55.6082 163.003 55.6372 162.893 55.7181C162.058 56.0563 162.239 54.8945 161.507 54.9208V55.8205H161.022L160.892 53.6145C160.968 53.5253 162.049 53.5149 162.234 53.5363C162.767 53.5993 162.894 54.2258 162.592 54.6227ZM161.438 54.5059C162.415 54.5183 162.493 53.8365 161.438 53.952V54.5059Z" fill="url(#paint5_linear_1362_26219)"/>
</g>
<defs>
<linearGradient id="paint0_linear_1362_26219" x1="37" y1="58.5001" x2="77.0028" y2="58.5001" gradientUnits="userSpaceOnUse">
<stop stop-color="white"/>
<stop offset="1" stop-color="#999999"/>
</linearGradient>
<linearGradient id="paint1_linear_1362_26219" x1="73.8864" y1="59.5012" x2="112.406" y2="59.5012" gradientUnits="userSpaceOnUse">
<stop stop-color="white"/>
<stop offset="1" stop-color="#999999"/>
</linearGradient>
<linearGradient id="paint2_linear_1362_26219" x1="132.439" y1="59.6565" x2="157.704" y2="59.6565" gradientUnits="userSpaceOnUse">
<stop stop-color="white"/>
<stop offset="1" stop-color="#999999"/>
</linearGradient>
<linearGradient id="paint3_linear_1362_26219" x1="111.464" y1="59.647" x2="135.622" y2="59.647" gradientUnits="userSpaceOnUse">
<stop stop-color="white"/>
<stop offset="1" stop-color="#999999"/>
</linearGradient>
<linearGradient id="paint4_linear_1362_26219" x1="159.828" y1="54.6386" x2="164" y2="54.6386" gradientUnits="userSpaceOnUse">
<stop stop-color="white"/>
<stop offset="1" stop-color="#999999"/>
</linearGradient>
<linearGradient id="paint5_linear_1362_26219" x1="160.892" y1="54.6737" x2="162.947" y2="54.6737" gradientUnits="userSpaceOnUse">
<stop stop-color="white"/>
<stop offset="1" stop-color="#999999"/>
</linearGradient>
<clipPath id="clip0_1362_26219">
<rect width="127" height="25" fill="white" transform="translate(37 46)"/>
</clipPath>
</defs>
</svg>
