<svg width="199" height="117" viewBox="0 0 199 117" fill="none" xmlns="http://www.w3.org/2000/svg">
<g clip-path="url(#clip0_1350_24849)">
<path d="M157.052 48.007C155.798 48.0525 155.857 45.947 157.052 46.0076C158.262 45.947 158.262 48.0676 157.052 48.007ZM157.052 46.1818C156.119 46.1364 156.061 47.8631 157.052 47.8328C158 47.8783 158 46.1364 157.052 46.1818ZM156.87 47.5753H156.695V46.4696H157.096C157.555 46.4015 157.614 47.0679 157.205 47.0906L157.504 47.5753H157.307L157.038 47.0982H156.87V47.5753ZM157.06 46.9467C157.548 46.9013 157.264 46.5226 156.863 46.6211V46.9467H157.06Z" fill="#959A9F"/>
<path d="M118.128 59.3215C118.128 58.5112 117.493 57.8599 116.713 57.8674L110.392 57.8901C108.518 57.8523 109.058 60.5409 108.992 61.745C108.992 62.5554 109.627 63.2067 110.399 63.2067C111.158 63.0704 111.252 63.7444 111.194 64.3503C111.201 64.8805 110.64 64.9486 110.246 64.9032C104.45 65.4333 104.924 54.9062 109.831 54.7169C114.803 54.7547 113.199 59.4579 117.18 52.2858C118.273 49.2488 112.463 48.1961 109.765 48.2718C105.121 48.3021 101.388 50.8544 99.6677 54.7775C99.2157 56.2391 101.519 56.7996 100.995 58.5869L100.149 64.5472C100.987 71.5905 111.624 72.1434 116.13 69.629C119.44 68.44 117.778 61.9041 118.128 59.3215Z" fill="#959A9F"/>
<path d="M98.5085 56.7466L92.2604 55.7696C90.4159 55.444 90.5544 58.1856 90.3138 59.3594C90.1097 61.4194 92.2167 60.5712 92.1948 61.6996C92.1584 62.4721 91.9105 62.9493 91.0939 62.6842C85.2906 62.2904 87.2882 51.9677 92.1656 52.5509C97.0868 53.384 94.8048 57.7539 99.7843 51.3013C101.235 48.3779 95.7818 46.5754 93.0405 46.1665C86.7268 45.2046 81.3974 49.2262 80.3767 55.7242C77.701 68.9702 97.2326 72.6357 98.7272 65.2289L99.6969 58.4052C99.8135 57.6024 99.2813 56.8602 98.5085 56.7466Z" fill="#959A9F"/>
<path d="M125.418 70.4016C124.171 70.0911 119.724 71.3634 119.812 68.9399V49.7412C119.732 47.3707 124.164 48.537 125.418 48.2795C126.198 48.2795 126.825 48.9384 126.825 49.7412V68.9399C126.825 69.7503 126.191 70.4016 125.418 70.4016Z" fill="#959A9F"/>
<path d="M52.388 68.94V62.0178C52.388 61.6467 52.0963 61.3438 51.7391 61.3438C51.1631 61.5028 48.4656 60.8364 48.5312 62.0102C48.0719 70.4319 50.7986 70.6288 42.4071 70.3941C41.627 70.3941 41 69.7352 41 68.9324V47.4919C41 46.6816 41.6343 46.0302 42.4071 46.0302H47.1241C47.9042 46.0302 48.5312 46.6891 48.5312 47.4919V54.0127C48.4656 55.1941 51.1631 54.5125 51.7391 54.6867C52.0963 54.6867 52.388 54.3838 52.388 54.0127V47.4919C52.3661 46.2574 53.5982 45.8863 54.5897 46.0302H58.4902C59.6859 46.0227 60.0285 47.295 59.8973 48.325V68.94C59.8973 69.7503 59.2703 70.4016 58.4902 70.4016H53.7951C53.015 70.4016 52.388 69.7428 52.388 68.94Z" fill="#959A9F"/>
<path d="M129.887 70.3943H140.291C141.071 70.3943 141.705 69.743 141.705 68.9402C141.589 67.6981 142.274 64.7293 140.298 64.7596H135.836C134.889 64.7824 135.261 63.2525 135.188 62.6769C135.122 61.5106 137.645 62.1619 138.213 62.0029C140.138 62.0483 139.533 59.1856 139.62 57.9662C139.62 57.1559 138.993 56.5046 138.213 56.5046H135.829C134.918 56.5273 135.231 55.1262 135.18 54.5658C135.18 54.1947 135.472 53.8917 135.829 53.8917L140.043 53.9069C142.012 53.9599 141.355 50.9608 141.458 49.7415C141.458 48.9311 140.823 48.2798 140.05 48.2798H129.88C129.1 48.2798 128.473 48.9387 128.473 49.749V68.925C128.473 69.7354 129.1 70.3867 129.88 70.3867" fill="#959A9F"/>
<path d="M73.3485 48.3326C72.5684 48.3326 71.9414 48.9915 71.9414 49.7942C71.9414 53.2553 71.9414 61.6846 71.9414 62.4116C71.9998 63.949 70.5489 64.8351 69.346 64.0929C67.5379 62.6085 68.9085 54.5655 68.5003 49.8018C68.5003 48.9915 67.8733 48.3401 67.0932 48.3401C65.8683 48.6355 61.4575 47.3935 61.5523 49.8018V62.8812C62.1501 74.8094 79.2758 71.886 78.8967 62.9342V49.8018C78.9769 47.4465 74.6025 48.5901 73.3558 48.3401" fill="#959A9F"/>
<path d="M143.732 68.599C148.267 72.5524 157.512 70.7272 157.942 64.0247C158.255 61.3891 157.227 59.1474 155.04 57.7008C153.801 56.898 152.291 56.3452 151.001 55.7166C148.923 54.7396 150.381 52.5433 152.146 53.0507C152.918 53.1643 154.063 53.5051 155.128 54.4594C155.929 55.1334 157.125 54.5427 157.125 53.4673C156.965 52.4751 157.628 49.6881 156.352 49.211C151.482 46.2119 143.2 48.4764 143.207 54.9668C142.697 59.4806 147.159 61.2301 150.418 62.7902C152.116 63.7217 151.329 65.4636 149.521 65.138C148.056 65.3046 145.555 61.9344 144.199 64.2595C143.521 65.4712 142.099 67.4933 143.732 68.599Z" fill="#959A9F"/>
</g>
<defs>
<clipPath id="clip0_1350_24849">
<rect width="117" height="25" fill="white" transform="translate(41 46)"/>
</clipPath>
</defs>
</svg>
