<svg width="200" height="117" viewBox="0 0 200 117" fill="none" xmlns="http://www.w3.org/2000/svg">
<path d="M59.5012 58.611C59.5012 65.6049 65.2292 71.293 72.2914 71.293C78.4255 71.293 83.5735 67.027 84.7771 61.3389H90.1281L90.0846 65.2277C90.0411 68.478 91.1577 71.351 95.4212 71.351L95.4647 61.3534H97.3208C100.598 61.3534 103.498 60.3812 103.498 56.1587H95.4647L95.5082 52.0813C95.5517 48.831 94.3771 45.958 90.1136 45.958V56.1442H84.8206C83.733 50.3111 78.5125 45.8999 72.2769 45.8999C65.2292 45.8854 59.5012 51.5735 59.5012 58.611ZM79.9337 58.611C79.9337 62.7464 76.5983 66.0838 72.3929 66.0838C68.231 66.0838 64.7942 62.7319 64.7942 58.611C64.7942 54.432 68.231 51.0801 72.3929 51.0801C76.5983 51.0801 79.9337 54.432 79.9337 58.611Z" fill="#959A9F"/>
<path d="M131.312 45.9722C130.239 45.9722 129.05 46.1173 127.832 46.451C131.022 46.8428 137.142 55.4329 139.389 58.6397C137.142 61.8465 131.022 70.4801 127.832 70.8719C129.05 71.2056 130.239 71.3507 131.312 71.3507C134.749 71.3507 137.388 69.7981 139.694 66.7364L142.493 62.9057L145.292 66.7364C147.496 69.7401 150.15 71.3507 153.673 71.3507C154.804 71.3507 155.979 71.2056 157.197 70.8719C154.007 70.4801 147.844 61.8465 145.538 58.6397C147.844 55.4329 154.007 46.8428 157.197 46.451C155.979 46.1173 154.79 45.9722 153.673 45.9722C150.237 45.9722 147.554 47.4812 145.35 50.5284L142.507 54.3591L139.709 50.5284C137.432 47.5683 134.836 45.9722 131.312 45.9722Z" fill="#959A9F"/>
<path d="M105.007 58.64C105.007 65.6339 110.445 71.3075 117.84 71.3075C122.495 71.3075 126.469 69.0294 128.963 63.9217H123.278C122.394 65.6194 120.291 66.3449 118.029 66.3449C113.925 66.3449 110.923 64.3135 110.314 60.1781H129.543C129.587 59.7428 129.645 59.0608 129.645 58.6255C129.645 51.588 124.395 45.8999 117.84 45.8999C110.43 45.9144 105.007 51.6025 105.007 58.64ZM124.395 55.6799H110.561C111.489 52.6037 114.07 50.5432 117.536 50.5432C121.321 50.5287 123.438 52.6182 124.395 55.6799Z" fill="#959A9F"/>
<path d="M39.8954 45V70.6397H45.1885V60.9759L49.5969 66.6639C51.8446 69.5224 54.8464 71.3217 58.4572 71.3217C59.5883 71.3217 60.705 71.1766 61.9376 70.8429C59.6754 70.6107 56.1225 66.7655 49.5534 58.6107C55.7455 50.8622 59.6174 46.6542 61.9376 46.3785C60.763 46.0883 59.5883 45.8996 58.5007 45.8996C55.4119 45.8996 52.4682 47.162 49.9739 50.2672L45.174 56.2745V51.1524C45.1885 47.8585 44.1589 45 39.8954 45Z" fill="#959A9F"/>
<path d="M157.56 46.9735C157.56 46.3495 158.053 45.8271 158.705 45.8271C159.358 45.8271 159.851 46.3495 159.851 46.9735C159.851 47.5684 159.343 48.1198 158.705 48.1198C158.038 48.1198 157.56 47.5974 157.56 46.9735ZM159.59 46.9735C159.59 46.4511 159.198 46.0448 158.705 46.0448C158.212 46.0448 157.821 46.4511 157.821 46.9735C157.821 47.4958 158.212 47.8876 158.705 47.8876C159.184 47.8876 159.59 47.4668 159.59 46.9735ZM158.807 47.4233L158.589 47.0895H158.517V47.6119H158.256V46.3495H158.749C159.024 46.3495 159.155 46.5236 159.155 46.7268C159.155 46.9009 159.053 47.046 158.85 47.0895L159.053 47.3798C159.097 47.4523 159.169 47.5684 159.227 47.6119C159.184 47.6264 159.111 47.6264 159.039 47.6264C158.981 47.6119 158.908 47.5539 158.807 47.4233ZM158.734 46.8864C158.879 46.8864 158.923 46.8139 158.923 46.7123C158.923 46.6107 158.865 46.5382 158.734 46.5382H158.517V46.8864H158.734Z" fill="#959A9F"/>
</svg>
