<svg width="199" height="117" viewBox="0 0 199 117" fill="none" xmlns="http://www.w3.org/2000/svg">
<path d="M99.893 71.2172C100.141 71.0643 100.167 70.786 100.265 70.5549C102.595 65.0736 105.153 59.7088 108.467 54.7398C110.192 52.154 112.585 50.9851 115.71 51.4666C115.85 51.4882 115.99 51.5121 116.128 51.5462C116.474 51.6321 116.84 51.7007 116.968 52.1067C117.097 52.5166 116.842 52.7775 116.582 53.0303C114.6 54.9612 112.99 57.1848 111.507 59.5059C108.728 63.8548 106.566 68.515 104.562 73.2567C103.502 75.7663 102.385 78.2522 101.306 80.7539C101.033 81.3871 100.668 81.8608 99.9026 81.8523C99.1209 81.8436 98.7406 81.3703 98.4461 80.7095C96.0933 75.4301 94.0267 70.021 91.359 64.8846C89.3893 61.0922 87.1986 57.4359 84.3415 54.2239C83.9639 53.7994 83.5616 53.3968 83.1682 52.9865C82.5285 52.3191 82.6728 51.8188 83.5792 51.5693C86.3996 50.793 89.416 51.9507 91.1558 54.5034C93.7938 58.3739 95.9049 62.5348 97.8604 66.7783C98.4651 68.0905 99.0162 69.4274 99.5995 70.7496C99.6719 70.9135 99.6805 71.1276 99.893 71.2172Z" fill="#959A9F"/>
<path d="M87.0815 71.8834C87.0814 74.7492 87.0836 77.615 87.0804 80.4808C87.0792 81.5606 86.7894 81.7863 85.7395 81.5707C84.986 81.4161 84.2552 81.1696 83.6714 80.6783C83.1173 80.212 82.6953 80.2823 82.1085 80.6373C77.9949 83.1255 72.716 82.5188 69.3175 79.2076C65.2568 75.2512 64.9065 69.1739 68.4818 64.7083C71.7589 60.6152 77.8762 59.6679 82.4058 62.5804C82.8842 62.888 83.2569 62.95 83.7593 62.6783C84.3224 62.3738 84.9583 62.2406 85.5895 62.1287C86.8426 61.9066 87.0801 62.1022 87.0809 63.3571C87.0828 66.1992 87.0815 69.0413 87.0815 71.8834ZM76.7028 65.5651C73.3515 65.5693 70.8695 68.0276 70.8805 71.3318C70.8918 74.7412 73.3435 77.298 76.6134 77.3105C79.7397 77.3225 82.3106 74.7161 82.3194 71.5258C82.3289 68.1159 79.9216 65.5612 76.7028 65.5651Z" fill="#959A9F"/>
<path d="M131.325 82.0005C127.411 81.8113 124.186 79.9906 122.232 76.2905C120.371 72.7643 120.439 69.1552 122.573 65.7346C124.732 62.2732 129.332 60.3266 133.296 61.0583C137.323 61.8017 140.71 65.111 141.607 69.1767C141.805 70.0752 141.679 70.3113 140.821 70.6145C136.667 72.0825 132.513 73.5471 128.361 75.0197C128.126 75.103 127.765 75.0961 127.715 75.3787C127.658 75.6999 128.022 75.8173 128.229 75.9938C130.262 77.727 133.192 77.4086 135.639 76.0818C136.099 75.8322 136.552 75.584 137.061 75.4493C138.119 75.1694 139.033 75.4581 139.815 76.1802C140.408 76.7277 140.442 77.1455 139.957 77.7914C137.864 80.5801 135.049 81.9304 131.325 82.0005ZM131.831 65.2938C130.412 65.3118 129.116 65.7374 127.984 66.5775C126.682 67.5448 125.926 68.8353 125.856 70.4969C125.831 71.106 126.014 71.2503 126.598 71.0418C129.566 69.9831 132.54 68.9407 135.519 67.9134C136.108 67.7102 136.071 67.4804 135.706 67.0744C134.667 65.9173 133.404 65.2781 131.831 65.2938Z" fill="#959A9F"/>
<path d="M63.4778 67.3938C63.4784 69.9038 63.4798 72.4138 63.478 74.9238C63.4764 76.9715 64.0466 78.843 65.1879 80.5434C65.3923 80.8479 65.7208 81.146 65.4424 81.5606C65.1766 81.9564 64.7696 81.9268 64.3541 81.8721C60.5048 81.366 58.0018 78.5332 58.0009 74.6686C57.9994 68.4172 58.0001 62.1659 58.0008 55.9146C58.001 54.6484 58.2412 54.4561 59.4822 54.7188C61.8357 55.2169 63.4581 57.1741 63.4734 59.5796C63.4899 62.1842 63.4771 64.789 63.4778 67.3938Z" fill="#959A9F"/>
<path d="M112.272 47.8662C111.589 48.0238 111.04 47.8023 110.482 47.7753C109.633 47.7342 108.788 47.5907 107.938 47.5427C107.23 47.5028 106.67 47.2252 106.197 46.7114C104.335 44.6918 102.471 42.6744 100.598 40.6653C99.9276 39.946 99.9053 39.949 99.2572 40.6482C97.39 42.6627 95.5237 44.6781 93.6748 46.7093C93.2339 47.1937 92.7266 47.4657 92.0797 47.5275C90.8314 47.6466 89.5853 47.788 88.3374 47.9118C88.1366 47.9317 87.8776 48.0364 87.7545 47.8084C87.6448 47.605 87.8731 47.4751 87.9876 47.3362C91.4963 43.0785 95.0062 38.8218 98.5184 34.567C99.3023 33.6173 100.502 33.5917 101.328 34.5679C102.92 36.447 104.47 38.3606 106.039 40.2592C107.954 42.5777 109.871 44.8949 111.785 47.2144C111.933 47.3941 112.065 47.5875 112.272 47.8662Z" fill="#959A9F"/>
<path d="M118.318 72.8021C118.318 75.3378 118.321 77.8735 118.316 80.4092C118.314 81.5895 118.129 81.7674 116.953 81.7718C114.329 81.7818 112.912 80.3676 112.908 77.7315C112.904 74.7218 112.881 71.7119 112.907 68.7024C112.929 66.1342 114.581 64.2505 117.056 63.8872C117.993 63.7496 118.332 64.0259 118.335 64.9815C118.344 67.5883 118.338 70.1952 118.338 72.8021C118.331 72.8021 118.325 72.8021 118.318 72.8021Z" fill="#959A9F"/>
<path d="M76.6403 50.1725C77.2603 49.4118 77.8768 48.6484 78.5008 47.8911C81.1358 44.6927 83.7717 41.495 86.4102 38.2995C87.1691 37.3805 88.4889 37.3822 89.2407 38.3029C89.9746 39.2018 90.686 40.1193 91.4336 41.0065C91.7098 41.3343 91.7607 41.588 91.4637 41.9288C90.8104 42.6783 90.1811 43.4487 89.5473 44.2149C89.2906 44.5252 89.053 44.5348 88.7979 44.2143C88.5325 43.8808 88.2367 43.57 87.9898 43.2239C87.7527 42.8914 87.5683 42.9446 87.3192 43.2074C85.9019 44.7026 84.4435 46.1604 83.0645 47.6899C82.2903 48.5486 81.4469 49.1692 80.288 49.3988C79.0898 49.6361 77.9141 49.9876 76.7286 50.2892C76.6992 50.2503 76.6697 50.2114 76.6403 50.1725Z" fill="#959A9F"/>
<path d="M123.108 50.3039C121.54 49.8843 119.969 49.4761 118.406 49.0372C118.013 48.9267 117.736 48.6022 117.456 48.3118C115.877 46.678 114.281 45.061 112.732 43.3998C112.278 42.9129 112.039 42.9656 111.657 43.4571C110.713 44.6701 110.691 44.6566 109.712 43.5033C109.283 42.9983 108.89 42.4599 108.433 41.983C108.086 41.621 108.153 41.3451 108.436 41.0054C109.178 40.115 109.894 39.202 110.64 38.3152C111.436 37.37 112.665 37.3631 113.453 38.3138C116.232 41.6652 118.997 45.0277 121.767 48.386C122.245 48.9655 122.723 49.5448 123.201 50.1242C123.17 50.1841 123.139 50.244 123.108 50.3039Z" fill="#959A9F"/>
<path d="M112.914 62.6485C112.89 61.4712 113.011 60.325 113.746 59.3413C114.392 58.4759 115.259 58.0654 116.339 58.1898C117.514 58.3252 118.23 59.06 118.311 60.1617C118.391 61.2615 117.795 62.1295 116.683 62.4394C115.579 62.7472 114.517 63.0968 113.678 63.9467C113.311 64.319 112.984 64.1715 112.921 63.6413C112.882 63.3147 112.914 62.9797 112.914 62.6485Z" fill="#959A9F"/>
</svg>
