<svg width="200" height="117" viewBox="0 0 200 117" fill="none" xmlns="http://www.w3.org/2000/svg">
<path fill-rule="evenodd" clip-rule="evenodd" d="M119.089 71.9056C110.105 74.0848 97.3997 77.1668 95.2859 82.9998C93.2076 77.1399 80.5446 74.0849 71.5591 71.9171L71.559 71.917C69.6315 71.452 67.8733 71.0278 66.425 70.6255C54.5802 67.3262 46.8725 60.9107 46.8725 54.2991C46.8725 43.0823 68.4321 33.5767 95.2859 33.5767C122.153 33.5767 143.712 43.0823 143.712 54.2991C143.712 60.9107 136.004 67.3256 124.159 70.6255C122.726 71.0235 120.991 71.4443 119.089 71.9056ZM150.485 54.9503C149.896 54.634 149.294 54.4761 148.677 54.4761C148.06 54.4761 147.456 54.634 146.869 54.9503C146.288 55.2604 145.809 55.7334 145.492 56.3113C145.163 56.8999 144.998 57.515 144.998 58.1555C144.998 58.7892 145.159 59.3981 145.485 59.9822C145.8 60.5572 146.272 61.03 146.847 61.3443C147.405 61.6617 148.036 61.8289 148.678 61.8297C149.314 61.8297 149.923 61.6685 150.507 61.3443C151.081 61.0302 151.553 60.5573 151.866 59.9822C152.19 59.3981 152.352 58.7892 152.352 58.1555C152.352 57.5155 152.187 56.8999 151.86 56.3113C151.543 55.7337 151.066 55.2607 150.485 54.9503ZM147.168 55.4819C147.657 55.2175 148.159 55.0844 148.677 55.0844C149.189 55.0844 149.691 55.2181 150.183 55.4819C150.667 55.7408 151.066 56.1352 151.33 56.6169C151.605 57.1096 151.741 57.6215 151.741 58.1555C151.74 58.6893 151.601 59.2137 151.337 59.6777C151.068 60.1637 150.69 60.5426 150.203 60.8138C149.715 61.085 149.206 61.2214 148.678 61.2214C148.147 61.2214 147.639 61.0844 147.152 60.8138C146.673 60.5505 146.278 60.1566 146.014 59.6777C145.742 59.1917 145.606 58.6843 145.606 58.1555C145.606 57.6215 145.745 57.109 146.02 56.6169C146.286 56.1361 146.684 55.7421 147.168 55.4819ZM147.064 56.2306V60.1862H147.702V58.5067H148.077C148.3 58.5067 148.472 58.5512 148.588 58.6431C148.758 58.766 148.98 59.0739 149.255 59.5627L149.606 60.1862H150.387L149.905 59.4127C149.674 59.0451 149.479 58.7835 149.319 58.6273C149.235 58.5462 149.123 58.4768 148.983 58.4182C149.323 58.3911 149.599 58.2716 149.805 58.0568C150.01 57.8425 150.114 57.5911 150.114 57.3019C150.114 57.0972 150.053 56.9044 149.929 56.7212C149.805 56.5396 149.639 56.4116 149.432 56.3383C149.224 56.2656 148.888 56.2306 148.423 56.2306H147.064ZM148.478 57.9609H147.703L147.702 56.7662H148.427C148.74 56.7662 148.953 56.7877 149.069 56.8345C149.177 56.8747 149.272 56.9466 149.339 57.0408C149.404 57.1329 149.438 57.2429 149.437 57.3554C149.442 57.5255 149.367 57.6883 149.235 57.7946C149.1 57.904 148.847 57.9609 148.478 57.9609ZM58.8932 47.2568H63.0214L68.4744 57.6234L73.7505 47.2388L77.9502 47.2568V61.5491H74.5195L74.5313 52.2684L69.8112 61.5491H67.1495L62.3234 52.2684V61.5491H58.8932V47.2568ZM107.479 50.1096V49.2639H110.802V58.9494C110.737 61.9657 107.981 63.4812 103.248 63.5613C98.8564 63.5613 94.9335 61.3112 95.2419 59.6993H98.8564C98.9376 61.4707 102.455 61.5344 103.103 61.5344C106.248 61.5502 107.382 60.4339 107.495 59.4123V57.6408C106.977 58.5029 105.566 58.9173 103.021 58.9973C98.0941 59.1411 95.42 58.0879 95.2904 54.5456C95.177 51.2744 96.6519 49.2002 103.087 49.2639C105.486 49.2797 106.571 49.4229 107.479 50.1096ZM103.532 51.4629L103.532 51.4629C105.036 51.5354 107.513 51.6549 107.53 54.1696C107.547 56.8956 105.079 57.0935 102.964 57.049C100.85 57.005 98.5404 56.5658 98.6289 54.1696C98.7168 51.7741 101.748 51.3563 103.176 51.4442C103.287 51.451 103.406 51.4568 103.532 51.4629ZM124.028 49.2641V50.1098C123.12 49.4231 122.033 49.2799 119.635 49.2641C113.2 49.2004 111.726 51.2746 111.839 54.5458C111.969 58.0881 114.643 59.1413 119.57 58.9975C122.115 58.9175 123.526 58.5031 124.045 57.641V59.4125C123.931 60.4341 122.796 61.5504 119.652 61.5346C119.004 61.5346 115.487 61.4709 115.405 59.6995H111.791C111.483 61.3114 115.405 63.5615 119.798 63.5615C124.53 63.4814 127.287 61.9659 127.35 58.9496V49.2641H124.028ZM120.084 51.4629L120.084 51.4628C119.958 51.4568 119.839 51.451 119.729 51.4442C118.301 51.3563 115.27 51.7741 115.182 54.1696C115.094 56.5658 117.403 57.005 119.517 57.049C121.633 57.0935 124.101 56.8956 124.083 54.1696C124.066 51.6548 121.589 51.5354 120.084 51.4629ZM128.325 49.2785H131.662V61.5536H128.325V49.2785ZM128.325 47.25H131.662V48.2513H128.325V47.25ZM78.7639 52.7701C79.2645 50.3819 81.8597 49.2425 86.6418 49.2425C91.7019 49.2425 94.2785 50.5268 94.2785 53.6204V61.5265H90.9791V60.4051C89.9039 61.0202 88.4584 61.5265 86.6418 61.5265C82.7493 61.5265 79.0976 60.9655 78.8569 58.3241C78.783 57.51 78.7639 56.5149 78.9866 55.8817C79.5797 54.2896 82.1748 53.5476 83.2866 53.4935C83.2866 53.4935 85.5108 53.4213 86.6599 53.4394C89.3475 53.5115 89.7923 53.5837 90.9785 54.2715C90.9785 54.2715 90.9972 53.7827 90.9785 53.2398C90.9785 52.3355 89.8481 51.1594 86.5854 51.1053C84.5281 51.0692 82.8971 51.6662 82.2109 52.7696L78.7639 52.7701ZM86.8584 55.2329L86.8589 55.2329C88.3631 55.2925 90.8414 55.3906 90.8581 57.461C90.8761 59.7044 88.4084 59.8673 86.293 59.8312C84.1782 59.7951 82.1158 59.361 82.2043 57.3889C82.2923 55.4167 85.0775 55.1455 86.5044 55.2177C86.6143 55.2232 86.7329 55.2279 86.8584 55.2329Z" fill="#959A9F"/>
</svg>
