<svg width="200" height="117" viewBox="0 0 200 117" fill="none" xmlns="http://www.w3.org/2000/svg">
<path d="M128.932 26.9809C130.096 26.916 131.26 26.7844 132.427 26.8526C131.306 27.4984 130.23 28.2197 129.145 28.9232C125.709 31.192 122.4 33.6583 119.242 36.3089C115.584 39.3258 112.158 42.6361 109.061 46.2404C105.209 50.5952 101.748 55.3189 98.9157 60.4146C98.6392 60.9767 98.3097 61.5104 98.0476 62.0799C97.6618 62.746 97.3966 63.473 97.0477 64.1578C96.8725 64.5835 96.682 65.0043 96.5494 65.4462C96.5438 64.5347 96.7013 63.6363 96.756 62.7297C96.9191 61.6152 96.9882 60.4853 97.2414 59.3854C97.4046 58.3074 97.6112 57.2368 97.837 56.171C98.05 55.4708 98.165 54.7438 98.3691 54.0411C98.6022 53.3336 98.7726 52.6074 98.9985 51.8982C99.574 50.1541 100.219 48.432 100.997 46.7692C101.283 46.2395 101.491 45.6685 101.802 45.1518C104.389 40.1357 108.203 35.7435 112.901 32.6469C114.544 31.5316 116.313 30.6218 118.116 29.8005C119.168 29.3806 120.212 28.9362 121.302 28.6227C122.103 28.3026 122.954 28.1491 123.772 27.8859C124.794 27.6446 125.825 27.4391 126.864 27.2831C127.54 27.0987 128.245 27.102 128.932 26.9809ZM75.0123 31.6811C76.615 31.6997 78.2346 31.7485 79.8019 32.1156C81.137 32.3334 82.4263 32.7623 83.6922 33.2358C84.3256 33.5397 84.9951 33.772 85.5988 34.1383C86.8744 34.8288 88.0881 35.6452 89.1804 36.6086C92.381 39.3543 94.6661 43.0495 96.2046 46.9666C96.5357 47.7911 96.8339 48.6294 97.0743 49.4864C97.3395 50.2126 97.5059 50.9697 97.6851 51.7203C97.8861 52.6675 98.1666 53.6065 98.1979 54.5813C98.083 54.3409 97.9383 54.1207 97.7784 53.9103C96.6137 52.0932 95.2545 50.4141 93.8656 48.7683C92.983 47.7683 92.0965 46.7692 91.1561 45.8244C90.6457 45.2315 90.0774 44.6937 89.5622 44.1048C86.8784 41.3193 83.9968 38.7312 80.969 36.3332C79.0142 34.7419 77.0169 33.2066 75.0123 31.6811Z" fill="#959A9F"/>
<path d="M80.969 38.6787C83.9968 41.0767 86.8784 43.6647 89.5622 46.4502C90.0774 47.0391 90.6457 47.5769 91.1561 48.1699C91.1529 54.7262 91.1561 58.9367 91.1545 65.4938C87.7577 65.4971 84.3618 65.5011 80.965 65.4914C80.9706 55.7719 80.9618 48.3981 80.969 38.6787ZM109.061 48.5858C112.158 44.9815 115.584 41.6713 119.242 38.6543C119.25 48.3819 119.243 55.7646 119.246 65.493C115.853 65.4995 112.459 65.4979 109.066 65.4938C109.062 59.0757 109.072 55.004 109.061 48.5858ZM66.8982 77.9581C68.1963 76.9533 70.1253 76.8948 71.4925 77.7941C71.7401 77.9435 71.9025 78.1913 72.0946 78.4017C72.5608 78.9102 72.7255 79.6023 72.9337 80.2424C73.3718 79.2904 74.0341 78.4366 74.8748 77.8192C75.7807 77.2246 76.9156 77.0248 77.9693 77.2587C78.4371 77.327 78.8656 77.5625 79.2506 77.8306C80.0447 78.5219 80.4739 79.5601 80.5888 80.5974C80.6314 81.0596 80.6998 81.5218 80.6998 81.9873C80.6982 84.581 80.7006 87.1748 80.699 89.7685C80.3357 89.7694 79.9732 89.7685 79.6107 89.7702C79.6115 87.4461 79.6115 85.1212 79.6115 82.7972C79.6219 82.036 79.5873 81.2708 79.4748 80.5178C79.298 79.9638 79.1734 79.3505 78.7426 78.9305C78.3664 78.4431 77.7338 78.2782 77.1519 78.2287C76.3264 78.1913 75.4608 78.4244 74.8274 78.9784C73.8299 79.8167 73.1475 81.0637 73.0792 82.3837C73.0085 83.0604 73.0422 83.7411 73.035 84.421C73.0358 86.2041 73.0334 87.9871 73.0358 89.7702C72.6725 89.7694 72.3092 89.7694 71.9459 89.7702C71.9475 87.6086 71.9467 85.4478 71.9467 83.2862C71.9402 82.5267 71.9836 81.7623 71.8558 81.0101C71.7996 80.2489 71.5528 79.4788 71.048 78.9004C70.6462 78.4382 70.0248 78.2628 69.4373 78.227C68.791 78.1986 68.1368 78.3351 67.5492 78.6088C66.3524 79.2749 65.6226 80.5811 65.4039 81.9158C65.2874 83.0157 65.3236 84.1237 65.3187 85.2285C65.3187 86.7418 65.3171 88.256 65.3195 89.7694C64.9562 89.7694 64.5929 89.7685 64.2296 89.7702C64.2312 85.6923 64.2296 81.6152 64.2304 77.5374H65.3187C65.3187 78.3814 65.3163 79.2262 65.3204 80.0702C65.5309 79.6527 65.7825 79.2571 66.0486 78.8736C66.2801 78.5227 66.612 78.2603 66.8982 77.9581ZM87.3373 77.6584C88.4602 77.1206 89.7575 77.067 90.9672 77.2839C91.4173 77.3327 91.8353 77.5227 92.2436 77.7096C92.6511 77.8915 92.9228 78.2571 93.2234 78.5731C93.5634 79.0199 93.7273 79.5706 93.8648 80.1092C93.9789 80.4528 93.9854 80.8183 93.9862 81.1774V87.3446C93.9966 87.8165 93.9942 88.3088 94.1839 88.7499C94.4323 89.1089 94.9169 89.0797 95.3019 89.0984C95.3019 89.416 95.3027 89.7336 95.3019 90.0512C94.839 90.2121 94.3334 90.1901 93.8752 90.022C93.6743 89.9099 93.5055 89.7482 93.311 89.6256C92.9597 89.1837 92.8456 88.6094 92.8151 88.0562C92.4791 88.3705 92.1978 88.7491 91.7862 88.97C91.2348 89.4745 90.5283 89.7312 89.8515 90.0114C88.9931 90.2178 88.0889 90.2056 87.2312 90.0057C86.7233 89.7742 86.1719 89.5955 85.7684 89.1902C85.5907 88.966 85.3777 88.7726 85.2138 88.5379C84.7307 87.6402 84.5105 86.5655 84.7484 85.5591C84.84 85.135 84.9638 84.7102 85.1953 84.3414C85.3946 84.0571 85.6333 83.8053 85.8512 83.5364C85.9492 83.408 86.1076 83.3601 86.2442 83.2886C86.5738 83.1432 86.8438 82.8711 87.2055 82.802C87.9546 82.6258 88.6748 82.3398 89.432 82.2001C90.0332 82.0133 90.6682 81.9467 91.2525 81.7022C91.787 81.4942 92.3649 81.3472 92.8327 81.0036C92.9139 80.3147 92.717 79.5909 92.2428 79.0808C91.7308 78.4862 90.9125 78.3302 90.1755 78.2408C89.1748 78.1677 88.1001 78.3343 87.2779 78.9508C86.622 79.3854 86.1381 80.0401 85.7603 80.7241C85.5192 80.508 85.2749 80.2936 84.9951 80.1311C85.3609 79.5479 85.6896 78.9199 86.2129 78.4618C86.5561 78.1531 86.8969 77.8192 87.3373 77.6584ZM92.0571 82.5705C91.5797 82.7761 91.0508 82.8037 90.5725 83.0059C89.7245 83.3658 88.7624 83.2456 87.912 83.5981C87.4523 83.7939 86.9419 83.9084 86.5585 84.2504C86.1534 84.603 85.8504 85.0904 85.7748 85.6314C85.6944 86.2788 85.6824 86.9644 85.9203 87.5818C86.1703 88.0269 86.4459 88.5127 86.921 88.7434C87.9812 89.2332 89.2133 89.1561 90.3081 88.8303C90.9672 88.6849 91.4535 88.1772 91.9381 87.7394C92.3095 87.4323 92.4574 86.9555 92.6623 86.5363C92.7668 86.1407 92.8199 85.7289 92.8134 85.3194C92.8094 84.278 92.8134 83.2374 92.811 82.1969C92.5538 82.3106 92.3167 82.4649 92.0571 82.5705ZM101.887 78.054C102.414 77.4569 103.218 77.1328 104.006 77.1702C104.335 77.1759 104.651 77.2709 104.971 77.34C104.971 77.7746 104.971 78.2092 104.972 78.6446C104.136 78.3521 103.141 78.3627 102.395 78.8858C101.756 79.3042 101.322 79.9573 100.955 80.6153C100.578 81.4593 100.312 82.3553 100.198 83.2748C100.156 83.8995 100.074 84.5225 100.085 85.1497C100.088 86.689 100.085 88.2292 100.087 89.7694H99.0178C99.0162 85.6923 99.0162 81.6152 99.0178 77.5382C99.3731 77.5374 99.7291 77.5374 100.086 77.5374C100.088 78.5828 100.083 79.6283 100.089 80.6737L100.278 80.651C100.692 79.7209 101.144 78.7672 101.887 78.054ZM117.738 77.2214C118.513 77.102 119.31 77.1783 120.069 77.3717C120.545 77.5707 121.057 77.7331 121.447 78.0914C121.786 78.3919 122.145 78.6819 122.403 79.0621C122.734 79.5487 123.048 80.0523 123.26 80.6055C122.921 80.7623 122.592 80.9378 122.261 81.1075C121.829 80.0783 121.14 79.1043 120.145 78.5731C118.823 77.9833 117.13 78.1206 116.027 79.1092C115.245 79.8468 114.76 80.8598 114.559 81.9142C114.301 83.417 114.326 85.0043 114.846 86.4494C115.036 86.8036 115.174 87.1902 115.412 87.5176C115.704 87.8417 115.98 88.1845 116.328 88.4526C116.61 88.7336 117.005 88.8246 117.37 88.9448C118.238 89.1666 119.171 89.139 120.013 88.823C120.421 88.719 120.713 88.3982 121.018 88.1268C121.301 87.81 121.631 87.5241 121.816 87.1317C121.953 86.8417 122.138 86.5777 122.262 86.282C122.587 86.4388 122.903 86.62 123.256 86.7069C123.133 87.0156 123.038 87.3438 122.84 87.6159C122.514 88.0448 122.305 88.5777 121.851 88.8945C121.458 89.3153 120.958 89.6207 120.414 89.797C119.844 90.1105 119.182 90.1357 118.549 90.1666C117.89 90.1422 117.202 90.1138 116.605 89.7986C115.896 89.6053 115.345 89.0927 114.83 88.5915C114.642 88.3429 114.481 88.0748 114.304 87.8181C113.821 87.2097 113.66 86.4242 113.429 85.698C113.248 84.6379 113.151 83.5461 113.319 82.4771C113.361 82.1928 113.359 81.9012 113.44 81.625C113.63 81.0604 113.752 80.4658 114.052 79.9451C114.428 79.3164 114.836 78.6876 115.419 78.2327C116.044 77.6348 116.897 77.3335 117.738 77.2214ZM131.056 77.1816C132.309 77.0914 133.668 77.3652 134.609 78.253C135.22 78.7664 135.673 79.4439 136.055 80.1409C136.317 80.6713 136.445 81.2521 136.615 81.8159C136.819 83.0262 136.823 84.2724 136.619 85.4835C136.392 86.3162 136.189 87.1951 135.646 87.8848C135.206 88.6134 134.582 89.2357 133.832 89.6329C133.522 89.7466 133.219 89.8774 132.915 90.0041C132.028 90.2169 131.098 90.2039 130.206 90.0285C129.919 89.9586 129.665 89.797 129.382 89.7141C129.107 89.6394 128.886 89.4501 128.634 89.3258C128.414 89.1772 128.254 88.9546 128.034 88.8051C127.743 88.6077 127.595 88.2755 127.377 88.0099C126.426 86.6752 126.15 84.9783 126.212 83.3642C126.206 81.4909 126.869 79.5259 128.325 78.3018C129.056 77.5975 130.068 77.2709 131.056 77.1816ZM130.736 78.3042C129.577 78.4675 128.63 79.3277 128.096 80.3448C127.605 81.1546 127.479 82.1124 127.353 83.036C127.27 83.997 127.398 84.9636 127.632 85.8954C127.764 86.451 128.061 86.9417 128.346 87.4282C128.715 87.8929 129.135 88.3283 129.626 88.663C130.79 89.2235 132.207 89.2365 133.375 88.6735C133.638 88.5159 133.858 88.295 134.082 88.087C134.341 87.7775 134.661 87.5103 134.83 87.135C135.114 86.5404 135.382 85.9262 135.482 85.2683C135.626 84.4519 135.602 83.6136 135.565 82.7882C135.528 81.9255 135.25 81.0994 134.889 80.3253C134.498 79.6185 133.951 78.9744 133.227 78.6048C132.459 78.2368 131.568 78.1304 130.736 78.3042ZM108.036 77.5374C108.41 77.5374 108.784 77.5374 109.159 77.5382V89.7694C108.784 89.7694 108.41 89.7685 108.035 89.7694C108.037 85.6923 108.035 81.6152 108.036 77.5374Z" fill="#959A9F"/>
</svg>
