<svg width="199" height="117" viewBox="0 0 199 117" fill="none" xmlns="http://www.w3.org/2000/svg">
<path fill-rule="evenodd" clip-rule="evenodd" d="M105.373 33.5119C105.783 33.5119 106.141 33.2044 106.141 32.7945C106.141 32.3846 105.783 32.0771 105.373 32.0771C104.963 32.0771 104.655 32.3846 104.655 32.7945C104.655 33.2044 104.963 33.5119 105.373 33.5119Z" fill="#959A9F"/>
<path fill-rule="evenodd" clip-rule="evenodd" d="M95.4843 32.2305C95.8428 32.2305 96.0991 31.9232 96.0991 31.6158C96.0991 31.2571 95.8428 31.001 95.4843 31.001C95.1256 31.001 94.8694 31.2573 94.8694 31.6158C94.8693 31.9232 95.1255 32.2305 95.4843 32.2305Z" fill="#959A9F"/>
<path fill-rule="evenodd" clip-rule="evenodd" d="M88.0551 47.3955L87.7477 47.0881C88.6187 46.2682 89.4897 45.0386 89.6434 44.3213C89.7458 43.6039 90.7706 43.7577 90.5656 44.4749C90.3093 45.4485 89.1821 46.5756 88.0551 47.3955Z" fill="#959A9F"/>
<path fill-rule="evenodd" clip-rule="evenodd" d="M81.753 32.4864C80.2159 33.1525 80.011 34.7407 81.0869 35.7141C82.3677 36.8414 84.5709 35.8679 84.366 34.0748C86.108 34.1773 87.2353 32.3327 86.979 31.103C87.7475 30.4369 87.7989 29.0025 86.8765 28.4389C85.8519 27.824 84.9297 28.0289 84.3148 29.2074C82.7265 29.1049 81.1893 30.3345 81.753 32.4864L81.0356 32.179C80.0621 30.0784 81.753 27.9777 83.8536 28.49C84.3148 27.4654 85.8519 26.3893 87.5939 27.4141C88.926 28.2338 89.2334 30.3857 87.7988 31.4103C88.4648 33.3573 87.0814 34.9969 85.032 34.7919C84.7758 37.3536 82.419 37.6612 80.8307 36.4828C79.9597 35.7654 79.601 34.8431 79.4473 34.1259C79.2423 33.3574 79.2423 32.6913 78.5251 31.9228C77.9614 31.3591 76.9367 31.3591 76.9367 31.3591C76.9367 29.5147 75.2459 27.8239 73.094 28.6435C72.3255 27.9776 71.352 27.9263 70.6859 28.7461C70.3272 29.2072 70.0711 30.4369 71.3006 31.0005C71.2495 32.6914 72.5303 33.7673 74.4261 33.6137C74.4772 34.4847 75.4508 35.3557 76.373 35.4581L76.3218 35.9193C75.3995 35.8168 74.8872 36.1242 74.2723 36.8927C72.0692 36.7903 70.5321 37.815 70.5834 39.4033C69.0463 39.6595 68.7388 41.299 69.6099 42.17C70.4809 43.041 71.7618 42.6823 72.2229 41.6577C73.8113 41.965 75.1946 40.8379 75.2459 39.557C76.6805 39.557 77.3466 38.9421 77.6027 37.6101L78.1152 37.6613C78.2687 39.0959 77.6027 40.4792 75.8607 40.3256C75.8094 42.0676 74.1698 42.9898 72.5816 42.4262C71.8642 43.8096 70.1734 44.322 68.7901 42.9899C67.4066 41.7089 67.9191 39.5057 69.7122 38.9421C69.7122 37.2514 70.9932 35.6631 73.4012 36.2778C73.4012 36.2778 73.7086 35.5094 74.4771 35.458C73.9648 35.2532 73.6061 34.9969 73.5036 34.4333C71.659 34.8431 70.1221 33.1524 70.5319 31.4617C68.8922 30.5907 68.841 28.9511 69.6609 27.9777C70.5319 26.9529 71.9665 26.748 73.196 27.8239C75.3991 26.6455 77.8074 28.1313 77.6536 30.5907C79.1907 30.4881 80.113 31.7691 79.9081 33.1525C80.1642 32.5376 80.4717 32.2815 81.0353 32.179L81.753 32.4864Z" fill="#959A9F"/>
<path fill-rule="evenodd" clip-rule="evenodd" d="M85.4928 29.5156L85.8514 29.7718C85.134 31.3089 83.9044 32.8459 82.8284 33.7683L82.4185 33.4096C83.1872 32.1798 84.7754 30.1303 85.4928 29.5156Z" fill="#959A9F"/>
<path fill-rule="evenodd" clip-rule="evenodd" d="M74.9381 37.7129L75.143 38.1227C74.272 38.9937 72.6325 40.2234 71.7102 40.6845L71.4028 40.2747C72.2226 39.3524 73.8622 38.1741 74.9381 37.7129Z" fill="#959A9F"/>
<path fill-rule="evenodd" clip-rule="evenodd" d="M77.0395 33.3056L76.6295 33.8178C75.4511 33.0493 73.1455 30.9999 72.633 30.2312L72.9917 29.8726C74.1189 30.4363 76.2707 32.3833 77.0395 33.3056Z" fill="#959A9F"/>
<path fill-rule="evenodd" clip-rule="evenodd" d="M74.8874 52.8781C75.041 53.5444 74.8874 54.3127 75.5022 55.0301C75.7071 55.2864 76.8856 56.8232 77.7566 57.5919C76.5781 58.0529 74.2725 59.0265 72.633 59.2312C72.2745 59.2825 71.9157 59.4875 71.6082 59.6924C71.4035 60.0511 71.1984 60.666 71.0959 61.3833C71.0446 61.8956 71.0446 62.4591 71.0446 63.0227C71.0446 63.5352 71.3008 65.1748 71.8645 66.2506C72.4281 67.3266 72.9917 67.8389 73.6577 68.1464C73.8115 68.0951 74.1189 68.0439 74.5799 68.0439C75.8096 67.9926 76.783 68.71 77.2442 69.2735C77.3978 69.5298 77.7566 69.581 78.1664 69.581C79.191 69.581 80.3182 69.2223 81.343 68.8125C81.5993 68.6588 82.214 68.1978 82.8289 67.7366C83.495 67.2241 86.979 64.2525 88.516 63.5352C89.3359 63.9451 90.6679 64.5087 92.0512 64.5087C92.1024 64.5087 92.3586 64.5599 92.666 64.4574C93.0759 64.355 93.6397 64.2013 94.357 64.0476C95.5865 63.7914 97.0211 63.5864 97.4824 63.5864C98.6096 63.6377 101.94 63.6891 102.76 63.6891C103.579 63.6891 104.758 63.6378 105.219 63.5864C105.936 63.3302 107.525 62.9204 109.011 62.2545C110.496 61.5882 113.622 59.3851 114.134 58.8728C114.39 58.6679 114.646 58.4117 114.8 58.2068C114.851 58.1042 114.903 58.0531 114.903 58.0018C114.903 57.9507 114.851 55.7987 114.851 55.7987C114.851 55.7987 115.62 54.979 115.927 54.6715C115.927 54.6715 115.927 54.6203 115.927 54.569C115.774 54.159 115.671 52.827 115.722 51.4949L115.005 51.1362C114.954 52.7757 114.339 54.2103 113.775 55.1326C112.648 55.2864 110.445 55.9524 109.676 56.8746L110.138 56.9771C110.855 56.5672 111.623 56.3112 112.546 56.3112C113.314 56.3112 113.673 56.5161 113.673 56.7211C113.673 56.8747 113.519 57.2334 113.468 57.3871C113.417 57.4896 113.366 57.6945 113.212 57.797C112.136 58.9754 110.957 59.9491 109.471 60.7687C108.498 61.3323 107.525 61.691 106.09 62.1521C105.629 62.2547 105.014 62.4084 104.655 62.5621C104.092 62.5621 101.222 62.4595 99.5317 62.4595C97.8411 62.4595 94.3569 62.7157 93.2808 62.9719C92.7685 63.1257 92.6147 63.3305 92.0512 63.3305C90.9754 63.3305 89.5408 62.7669 88.6698 62.357C88.516 62.357 88.2087 62.5107 87.9013 62.6644C87.2864 62.9718 85.903 64.9187 85.0832 64.304C84.6733 65.175 82.8801 65.9434 82.3165 66.8144C82.3675 66.4046 83.0849 63.4329 83.1363 62.818C83.1363 62.7154 83.1875 62.6131 83.085 62.5106C82.4703 61.4347 80.6256 60.7686 79.601 60.5637C79.3448 60.5124 79.191 60.4612 78.9863 60.4099L77.3468 59.949L75.8609 60.4099L77.6029 60.7173L75.3997 62.2032C75.8096 62.0495 78.1665 61.3834 78.3202 61.3322C78.5252 61.2809 78.7813 61.2297 79.0375 61.3322C79.3962 61.4347 80.2672 61.6396 80.8308 61.8445C81.1382 61.9472 81.6505 62.5106 81.8042 62.8182C81.8555 62.9718 81.8555 63.2281 81.9067 63.8428C81.9067 64.2015 81.8556 64.765 81.7531 65.175C81.4968 66.2508 80.9846 67.0707 80.8309 67.378C80.6259 67.7881 80.3697 67.9417 80.0623 68.0441C79.6012 68.3003 78.9864 68.4027 78.3715 68.454C77.9105 68.454 77.603 68.4028 77.3979 68.1466C76.8343 67.3269 75.3486 66.5583 73.8627 66.8657C72.9406 66.3021 72.0183 64.5088 72.0183 63.0742C72.0183 62.2032 72.4281 60.8199 72.6843 60.1538C74.1701 59.9488 77.1931 58.8217 78.6277 58.1556C78.9351 58.1556 79.8061 57.8481 80.6259 57.8481C82.5729 57.8481 84.5199 59.5389 85.6983 60.7173C85.9032 60.4099 86.2619 59.8976 87.2867 59.8976C88.67 59.8976 89.4898 61.1785 89.8484 62.4594L90.5657 61.9472C90.4632 61.2298 90.0534 60.4099 89.4898 59.7952C89.0287 59.3341 88.1065 58.9242 87.3891 58.9242C86.928 58.9242 86.5181 59.0267 86.2106 59.0267C85.2371 59.0267 84.8272 58.5655 84.0588 58.0532C83.2902 57.5408 81.8043 56.7211 80.7284 56.7211C80.0623 56.7211 79.7548 56.9773 79.1912 56.9773C78.3714 56.9773 78.064 56.6698 77.7053 56.1575C77.5005 55.9525 76.6806 55.2352 76.4757 54.9278C76.322 54.7229 76.1171 54.0568 76.0145 53.6983L74.8874 52.8781Z" fill="#959A9F"/>
<path fill-rule="evenodd" clip-rule="evenodd" d="M76.0142 53.6982C76.2704 53.9544 76.4754 54.2104 76.7827 54.4666C77.0901 54.6716 77.4488 54.8765 77.7562 55.0814C78.2685 55.3376 78.8321 55.645 79.3446 55.85C79.8569 55.9524 80.4718 56.0037 81.0354 56.0037C81.8552 56.0037 82.8286 55.85 83.6484 56.2599C84.2121 56.4649 84.2121 57.0797 84.6732 57.2334C85.3393 57.4895 87.1837 57.5408 88.2085 57.5408C90.2579 57.5408 92.461 57.2846 93.7931 56.9772L93.1784 56.2599C92.2561 56.4136 89.5917 56.721 88.3621 56.721C86.6714 56.721 85.0317 56.4136 85.0317 55.7475C85.0317 55.2352 85.5441 54.5178 86.5688 54.5178C87.6448 54.5178 89.2845 55.1839 89.5918 55.2865C89.8992 55.3376 90.0017 55.3376 90.2066 55.2352L90.8215 54.9278C90.0016 54.5178 87.0812 53.5444 86.0565 53.5444C85.5953 53.5444 85.2879 53.5954 84.9806 54.0054C84.6219 54.5177 83.5459 54.979 81.9064 54.979C80.9842 54.979 79.652 54.774 79.396 54.6716C78.8835 54.4666 77.9101 53.903 77.2953 53.4419C76.4755 52.8783 75.7582 52.2123 75.2971 51.4437C75.1433 51.2388 75.0408 50.9825 75.0408 50.7264C75.0408 50.5213 75.1433 50.3677 75.1433 50.214C75.2971 50.4189 75.4507 50.5727 75.6556 50.7264C76.5267 51.5974 77.8077 52.2122 79.1397 52.4684C79.5497 52.5709 79.8572 52.6222 80.2671 52.6222C80.8307 52.6222 81.343 52.3147 81.7017 52.0073L81.1381 51.3925C80.9843 51.4437 80.6257 51.4437 80.4208 51.4437C78.4738 51.4437 76.0144 50.2142 75.4509 48.7282C75.3996 48.5744 75.2972 48.5233 75.3996 48.3695C75.4509 48.2159 75.5022 47.9597 75.5534 47.7035C75.6558 47.806 75.9121 48.0109 76.1682 48.2159C76.8855 48.6769 78.2688 49.2918 78.5762 49.4968C79.2423 49.2919 79.7547 49.0357 80.1646 48.8307C80.5747 48.6258 81.1382 48.4208 81.753 48.4208C83.1877 48.4208 84.8271 49.2405 86.3643 50.0091L87.389 49.5992C86.0056 48.6257 83.0852 47.2936 81.4457 47.2936C80.472 47.2936 79.5499 48.0108 78.8838 48.0108C78.1154 48.0108 75.8609 46.8836 75.8609 45.9614C75.8609 45.2441 77.2955 44.8342 79.7035 44.578C79.2936 45.1418 78.8836 45.8077 78.5252 46.4226L79.1398 46.7813C82.8289 41.4014 86.7229 37.9174 89.9507 35.7654C91.1292 34.9969 91.3853 34.5359 91.7951 33.716C92.8199 31.6153 93.7935 30.0783 95.433 30.0783C96.2015 30.0783 96.8163 30.4881 97.2775 31.0004L98.4559 31.359L97.2264 32.1789L98.4559 32.6912C96.8676 33.1523 94.6645 34.7406 93.7423 37.0462C92.0513 37.0975 91.2317 38.5321 90.6681 39.6593C90.2583 40.4792 89.6946 40.7866 88.7724 41.3502L81.7531 46.2688L82.7266 46.4226L89.2336 42.0675C90.5146 41.1965 91.1294 40.5303 91.4367 39.9667C92.0004 38.7371 92.6663 37.8147 93.9472 37.8147C94.5621 37.8147 95.2283 38.1222 95.7919 38.6345L96.9191 38.9932L95.6894 39.7618L96.7142 40.3764C93.7426 41.2987 91.898 43.4506 90.8221 47.5495L91.5906 47.7031C92.0006 46.3711 92.4104 45.1414 93.0763 44.0142C94.8184 44.0142 96.5604 43.9631 98.3024 43.9631C102.862 43.9631 106.654 44.168 108.703 44.7316L107.986 43.502C105.783 43.0921 102.606 42.9384 98.3023 42.9384C96.8165 42.9384 95.382 42.9895 93.8961 42.9895C94.8696 42.016 96.2017 41.145 98.3023 40.5302L96.8165 39.7104L98.4561 38.7881L96.2017 37.9684C95.843 37.6097 95.3307 37.251 94.7158 37.0974C95.4332 34.8942 97.8926 33.6133 100.249 32.7422L98.6098 32.0762L100.249 31.1541L97.6876 30.3342C97.0213 29.5657 96.4066 29.207 95.382 29.207C93.0251 29.207 92.0514 31.2565 91.078 33.0496C90.6168 34.0232 90.3094 34.4331 89.4385 34.9967C87.6453 36.1751 85.2883 38.0196 83.0852 40.3254C81.958 39.5055 79.55 37.0461 78.935 35.7139C78.6789 36.0213 78.4226 36.7387 78.4226 36.7387C78.6789 36.995 81.4457 39.7618 82.4703 40.9912C82.4191 41.0425 82.3167 41.145 82.2654 41.2475C81.1382 41.4524 78.2689 41.76 77.2955 41.6062L76.7831 42.5797C77.5004 42.5286 80.3182 42.1698 81.5481 42.1187C81.1894 42.5286 80.8308 42.9897 80.4721 43.4507C76.7832 43.8607 74.3751 44.6292 74.3751 45.9613C74.3751 46.1663 74.4263 46.4225 74.4263 46.6786C74.4263 47.2422 74.2213 47.4471 73.8115 47.7033C73.5552 47.857 73.5552 48.0107 73.6577 48.1645C73.7603 48.3181 74.3238 49.138 74.3238 49.2916C74.3238 49.5991 74.0675 49.8552 73.8626 50.1114C73.6577 50.3164 73.6577 50.3677 73.8115 50.6237L74.8874 52.8782L76.0142 53.6982Z" fill="#959A9F"/>
<path fill-rule="evenodd" clip-rule="evenodd" d="M121.358 41.1445C121.153 41.3494 120.948 41.6568 120.743 41.913L120.18 41.0931C122.127 38.4801 127.353 37.2505 130.427 36.9943V35.611C130.017 35.7134 129.607 35.8672 129.197 35.9695C128.685 36.0721 128.172 36.2258 127.763 36.1746C127.301 36.1746 126.943 36.0208 126.789 35.7646C126.379 35.201 126.789 34.33 128.121 33.5103L127.045 32.588C126.225 33.6639 125.457 34.8424 124.637 35.5085C123.869 36.1746 123.1 36.482 122.485 36.0208C122.127 35.7646 122.024 35.6622 121.973 34.9961C122.024 34.0226 122.588 32.5368 123.1 31.5634L121.87 31.4096C121.665 32.8954 121.051 34.1251 120.385 35.1498C119.616 36.4307 118.591 37.353 117.515 38.0702L116.798 37.4043C117.669 36.8918 118.745 36.0721 119.462 34.9449C120.333 33.6128 121.051 31.9732 121.051 30.5386L124.637 30.846C124.125 31.512 123.305 32.998 122.998 34.0226C122.844 34.5862 122.844 35.0474 123.049 35.201C123.407 35.4572 124.073 34.9961 124.74 34.33C125.662 33.3054 126.584 31.8195 126.943 31.3071L129.607 33.459C128.429 34.0739 127.301 34.7911 127.506 35.201C127.711 35.5597 128.48 35.4572 129.299 35.201C129.966 34.9961 130.683 34.6887 131.246 34.33V37.8653C129.966 37.8653 127.814 38.1215 125.764 38.7363C126.277 39.4024 127.66 39.6585 128.531 39.8123L128.121 42.6816C125.867 41.7081 124.125 41.1957 121.358 41.1445L122.28 40.3247C124.279 40.3757 126.328 40.9907 127.455 41.5543L127.609 40.4784C126.584 40.3247 125.303 39.7611 124.74 39.0949C123.869 39.4023 122.998 39.8121 122.28 40.3246L121.358 41.1445Z" fill="#959A9F"/>
<path fill-rule="evenodd" clip-rule="evenodd" d="M110.599 50.2654L111.418 48.4209C110.547 47.3962 109.574 46.1153 108.703 44.7319L107.985 43.5024C106.295 40.3258 106.91 38.7886 106.038 37.354C105.27 36.2269 101.683 36.9441 101.12 37.0466L102.144 35.3559L100.095 35.5095L101.837 33.4601C102.042 33.1526 102.093 32.9476 102.298 32.2304C102.606 31.1032 103.528 29.2588 106.295 29.2588C109.318 29.2588 110.291 31.7182 111.572 32.7941C113.109 34.0237 115.056 35.7144 116.798 37.4054L117.515 38.0714C118.437 38.9937 119.308 39.9672 120.179 41.0944L120.743 41.9143C124.432 47.2428 128.941 57.4388 130.99 62.1013C131.144 62.5625 131.298 63.0234 131.451 63.3822C130.068 62.6137 128.582 61.6914 126.994 60.6154L126.123 60.0007C125.559 59.5907 124.995 59.1808 124.432 58.7711L123.51 58.0025C122.946 57.5927 122.382 57.1315 121.87 56.6704L123.715 67.2763C123.817 67.9424 124.381 67.8399 124.791 67.2763C125.2 66.7127 125.405 66.559 125.2 65.8417L123.51 58.0025L124.432 58.7711L126.071 65.3804C126.225 65.9952 126.481 66.2001 127.199 66.2001C127.916 66.2514 128.019 65.9952 127.916 65.5342L126.123 60.0007L126.994 60.6154L128.685 65.5853C129.146 66.8662 128.685 67.02 127.916 67.02C127.199 67.02 126.481 66.815 126.072 67.0712C125.662 67.3785 125.149 68.0958 124.483 68.7107C123.971 69.2743 123.151 69.1717 122.997 68.0958L120.948 55.8505C119.667 54.6721 118.386 53.4423 117.259 52.1615C116.798 51.9566 116.234 51.7004 115.722 51.4955L115.005 51.1368C114.697 50.983 114.492 50.9319 114.441 50.8806C113.877 51.5466 113.314 52.3152 112.699 52.8276C112.392 53.1349 112.135 53.2885 111.674 53.2885C111.521 53.2885 111.316 53.2885 111.162 53.1861C110.957 53.0836 110.803 52.8787 110.598 52.5713C110.445 52.3664 110.24 52.059 110.035 51.7515C109.625 51.0856 109.215 50.2144 108.805 49.5483C108.395 48.7798 107.985 48.2162 107.934 48.1137C107.883 47.9601 107.678 47.8063 107.678 47.8063C107.422 48.1137 107.268 48.7798 107.268 49.1896L106.551 48.9333C106.602 48.421 106.807 47.755 106.961 47.4476C106.961 47.1913 106.653 46.8328 106.397 46.8328C106.038 46.8328 105.68 47.1914 105.526 47.9087L104.757 48.2674C104.809 47.0889 105.219 45.808 106.397 45.808C107.319 45.808 107.934 46.5252 108.344 47.1913C108.805 47.8573 110.291 49.8555 110.599 50.2654L111.162 50.9827C111.265 51.4439 111.47 51.7 111.572 51.8537C111.777 52.1611 111.982 52.1611 112.289 51.8537C112.443 51.7513 112.853 51.3926 113.314 50.9315C113.673 50.5728 114.031 50.0605 114.185 49.8556C114.595 50.0094 115.415 50.4192 116.03 50.6754C113.314 47.294 110.65 43.195 109.523 40.4281C109.061 39.2497 109.984 38.891 110.394 40.0183C111.623 43.0924 115.159 48.5747 117.772 51.444C120.743 54.7231 126.226 59.5392 129.812 61.435C129.3 60.4103 128.634 58.9757 127.814 57.2849C123.459 54.8255 119.104 50.3168 117.054 46.4228L117.925 46.5252C119.821 49.9069 124.381 54.4157 127.097 55.6965C124.637 50.4705 121.409 43.8611 118.95 41.043C115.825 37.5077 112.443 34.741 110.803 33.3576C109.215 31.923 108.549 30.1809 106.295 30.1809C104.399 30.1809 103.374 31.5643 103.016 32.8965C102.913 33.2039 102.862 33.3576 102.708 33.6138L101.786 34.6898L103.733 34.4848L102.606 36.0218C102.606 36.0218 105.629 35.3559 106.705 36.7905C107.832 38.3274 107.114 40.0696 109.01 43.5024C109.83 44.9882 111.828 47.6525 112.494 48.2674L111.162 50.9828L110.599 50.2654Z" fill="#959A9F"/>
<path fill-rule="evenodd" clip-rule="evenodd" d="M80.7792 50.7266L80.318 50.4191C80.5744 50.2142 81.0866 49.8556 81.5991 49.6506C81.8552 49.5481 82.1627 49.497 82.3674 49.497C82.8799 49.497 83.3411 49.7019 83.7509 49.9581C84.4169 50.3168 85.1855 50.7266 85.8003 50.7266C86.0052 50.7266 86.2102 50.6753 86.4663 50.6753C87.0812 50.6753 87.6448 50.9316 87.9522 50.9316C88.1572 50.9316 88.2596 50.7779 88.4134 50.5729C88.7207 50.1117 89.1817 49.753 89.7453 49.5481C90.3089 49.292 91.0775 49.1895 91.846 49.1895C92.5121 49.1895 93.0757 49.292 93.3831 49.3432C93.3831 49.3432 92.9219 49.9068 92.8196 50.0605C92.1535 50.0605 90.975 50.0093 90.2065 50.3168C89.6942 50.5215 89.5404 50.829 89.5404 51.1878C89.5404 51.7514 90.2065 52.0075 90.8725 52.2124C91.3336 52.3149 91.7946 52.3662 92.1535 52.3662C92.6658 52.3662 93.588 52.1612 94.5103 51.9563C95.6375 51.7514 96.6623 51.4439 96.9697 51.3414L97.3795 52.0588C96.1498 52.4686 94.869 52.8785 93.6906 53.0834C93.0245 53.2372 92.4096 53.3396 91.846 53.3396C90.8725 53.3396 89.8478 52.9298 89.028 52.5198C88.3106 52.2124 87.6959 51.8536 87.081 51.8536C86.4662 51.8536 85.8514 52.0586 85.2878 52.4172C84.9805 52.571 84.1095 53.1858 83.341 53.4932C82.7261 53.6982 82.265 53.8519 81.6501 53.8519C81.1377 53.8519 80.7791 53.7494 80.5229 53.5446L81.4452 52.9809C81.5988 53.0834 81.8037 53.1346 81.9061 53.1346C82.0599 53.1346 82.2135 53.0834 82.5723 52.9298C82.7771 52.8785 83.0847 52.6735 83.2896 52.5711C83.6481 52.3149 83.7508 52.1612 83.9044 52.0588C84.2118 51.8537 84.3144 51.5463 83.9556 51.2389C83.7508 51.0852 83.597 50.9315 83.392 50.7778C83.0334 50.5728 82.8284 50.4191 82.2135 50.4191C81.5478 50.4191 81.0354 50.5729 80.7792 50.7266Z" fill="#959A9F"/>
<path fill-rule="evenodd" clip-rule="evenodd" d="M93.7936 51.0848C93.7936 51.0848 93.2299 50.931 93.0763 50.931C93.4349 50.4186 93.9473 50.0089 94.306 49.7526C95.0744 49.2403 95.8431 48.9327 97.0726 48.8816C97.3801 48.8303 98.0462 48.7791 98.4048 48.7791C98.7635 48.8303 99.327 48.8303 99.8394 48.9327C100.198 48.984 100.557 49.0865 100.864 49.1378C101.018 49.1889 101.633 49.1889 101.838 49.1378C102.709 48.984 103.733 48.6766 104.246 48.3691L104.451 49.189C103.323 49.8037 102.043 50.3674 100.813 50.3674C100.249 50.3674 99.5834 50.3163 98.9684 50.2649C97.9436 50.1624 97.0214 50.0088 96.714 50.0088C95.8431 50.0089 94.6135 50.4187 93.7936 51.0848Z" fill="#959A9F"/>
<path fill-rule="evenodd" clip-rule="evenodd" d="M92.974 55.6455L91.8982 55.1331C93.384 54.4159 95.6384 53.6473 96.6118 53.4936C97.5341 53.3399 98.61 53.2375 99.2249 53.0324C99.5323 53.7498 100.096 54.467 100.864 54.467C101.172 54.467 101.633 54.2621 102.145 54.0572C102.709 53.8011 103.221 53.5449 103.529 53.4424C103.836 53.2886 104.81 52.8788 105.681 52.4689C105.988 52.3152 106.859 51.9053 106.91 51.9053L107.474 52.2127C107.32 52.9301 107.013 53.8522 106.706 54.5183C106.603 54.7745 106.449 54.9795 106.347 55.1331C106.091 55.3893 105.681 55.7993 105.168 56.1579C104.605 56.5677 103.887 56.9777 103.17 57.3874C102.607 57.6948 102.043 58.0535 101.428 58.3096L101.172 57.7461C102.043 57.2337 102.965 56.6188 103.785 56.004C104.144 55.7477 104.502 55.4404 104.758 55.1842C104.963 55.0305 105.066 54.8767 105.168 54.7231C105.425 54.4158 105.835 53.6984 105.937 53.391C105.578 53.5448 104.349 54.1594 103.785 54.4158C103.119 54.7743 102.094 55.2868 101.479 55.5942C101.069 55.7991 100.659 55.9015 100.352 55.9015C99.6861 55.9015 99.3785 55.4404 99.2249 55.133C98.8149 54.4158 98.4051 54.3645 97.2267 54.3645C95.8946 54.3134 94.0502 54.877 92.974 55.6455Z" fill="#959A9F"/>
<path fill-rule="evenodd" clip-rule="evenodd" d="M99.276 52.2645C99.276 52.2645 99.1223 51.6497 99.0197 51.3934C99.0197 51.3934 99.2248 51.3423 99.4808 51.3423C99.8395 51.3423 100.864 51.4448 101.274 51.4448C102.811 51.4448 103.375 50.9836 103.836 50.5738C104.246 50.2151 104.656 49.9077 105.681 49.9077C106.603 49.9077 107.679 50.2664 107.986 50.42L107.935 51.2911C107.474 51.0349 106.859 50.8812 106.295 50.8812C105.937 50.8812 105.578 50.8812 105.322 51.0349C105.066 51.1887 104.861 51.3934 104.605 51.5985C104.348 51.8035 103.99 52.0084 103.477 52.2133C103.016 52.4182 102.401 52.5207 101.479 52.5207C100.301 52.5206 99.6346 52.3157 99.276 52.2645Z" fill="#959A9F"/>
<path fill-rule="evenodd" clip-rule="evenodd" d="M89.4383 58.6678L90.1556 58.3604C90.7703 58.6167 91.7439 58.9241 92.41 58.9241C92.8199 58.9241 93.1273 58.7704 93.3835 58.6678C93.5884 58.5653 95.9965 57.3868 97.175 56.977C97.5336 56.8233 97.9435 56.7721 98.0972 56.7721C98.4047 56.7721 98.4047 56.8746 98.507 57.0284C98.7121 57.387 100.505 59.8976 100.659 60.0513C102.145 59.5902 103.682 58.9241 104.553 58.1043C105.475 57.2333 106.244 56.2085 107.012 55.3888C107.269 55.0814 107.627 54.8252 107.781 54.7227C108.549 54.3127 110.957 54.2616 111.931 54.3127L111.367 55.1326C109.574 55.1326 108.6 55.3375 108.14 55.6449C107.986 55.7987 107.678 56.1061 107.422 56.4648C106.807 57.2332 106.141 58.3092 105.885 58.5141C106.397 58.8728 106.961 59.1803 107.883 59.1803C109.369 59.1803 110.445 58.258 111.009 57.7456L111.521 58.0018C111.162 58.5143 110.701 58.9753 110.189 59.334C109.574 59.7438 108.805 60.0513 108.396 60.1538C107.525 60.0001 105.629 59.5902 105.168 59.5389C103.528 60.2052 100.813 61.2809 99.9418 61.5372C99.788 61.5884 99.5832 61.6398 99.3269 61.6398C98.6096 61.691 97.636 61.691 96.7139 61.6398C96.0992 61.6398 95.4843 61.6398 95.1768 61.5885L94.357 60.7687C95.0743 60.9224 95.3304 60.9224 95.9964 60.9224C97.5335 60.9224 98.5582 60.6662 98.8657 60.615C99.173 60.5126 99.2244 60.3588 99.1219 60.1026C98.9682 59.7441 98.7632 59.3343 98.4047 58.9243C98.1996 58.7194 97.7898 58.3606 97.636 58.2581C97.4311 58.1045 97.2262 58.0532 96.6114 58.2581C96.099 58.4119 94.4082 59.3341 93.6909 59.744C93.3322 59.8977 93.0248 60.0002 92.41 59.8465C91.6926 59.6926 90.053 59.0777 89.4383 58.6678Z" fill="#959A9F"/>
<path fill-rule="evenodd" clip-rule="evenodd" d="M94.1008 40.0188C94.4082 40.0188 94.7157 39.7113 94.7157 39.4039C94.7157 39.0452 94.4082 38.7891 94.1008 38.7891C93.7423 38.7891 93.4861 39.0454 93.4861 39.4039C93.4861 39.7113 93.7424 40.0188 94.1008 40.0188Z" fill="#959A9F"/>
<path fill-rule="evenodd" clip-rule="evenodd" d="M117.311 75.4228C117.311 74.9617 116.901 74.5518 116.389 74.5518H115.108C114.596 74.5518 114.186 74.9617 114.186 75.4228L114.237 89.154C114.237 89.6152 114.596 90.025 115.108 90.025H116.389C116.901 90.025 117.311 89.6152 117.311 89.154V75.4228Z" fill="#959A9F"/>
<path fill-rule="evenodd" clip-rule="evenodd" d="M118.95 75.8325V76.4472C118.95 76.7546 119.155 76.9595 119.463 76.9595H128.48C128.89 76.9595 129.249 76.6009 129.249 76.191V75.1151C129.249 74.7052 128.89 74.2954 128.48 74.3466C128.48 74.3466 119.77 75.2176 119.463 75.2688C119.155 75.2688 118.95 75.5251 118.95 75.8325Z" fill="#959A9F"/>
<path fill-rule="evenodd" clip-rule="evenodd" d="M111.623 90.0249C109.369 90.0249 107.986 88.3342 107.986 86.4384V80.9561H107.319C107.012 80.9561 106.705 80.6487 106.705 80.3413V79.419C106.705 79.0605 107.012 78.8043 107.319 78.8043H107.986V75.4228C107.986 74.9617 108.344 74.5518 108.857 74.5518H110.138C110.599 74.5518 110.957 74.9617 110.957 75.4228V78.8043H112.956C113.314 78.8043 113.57 79.0606 113.57 79.419V80.3413C113.57 80.6487 113.314 80.9561 112.956 80.9561H110.957V86.0285C110.957 87.0019 111.572 87.7193 112.648 87.7193H112.853C113.212 87.7193 113.519 87.9756 113.519 88.3854V89.3588C113.519 89.7175 113.212 90.0248 112.853 90.0248H111.623V90.0249Z" fill="#959A9F"/>
<path fill-rule="evenodd" clip-rule="evenodd" d="M96.2532 84.2348C96.2532 81.3144 94.5112 78.394 90.566 78.394C86.9283 78.394 84.9301 81.2632 84.9301 84.2348C84.9301 87.4114 87.0819 90.2294 90.6171 90.2294C93.0252 90.2294 95.3822 88.9997 95.8433 86.8991C95.8944 86.6429 95.6895 86.233 95.3308 86.233H93.5888C93.2814 86.233 93.0252 86.3867 92.8716 86.6429C92.359 87.3602 91.6418 87.7187 90.6171 87.7187C89.0801 87.7187 88.0553 86.5403 87.9529 85.2083H95.2796C95.9458 85.2083 96.2532 84.8497 96.2532 84.2348ZM88.0041 83.0051C88.1067 81.7242 89.2338 80.7508 90.5658 80.7508C91.9493 80.7508 93.0763 81.7243 93.23 83.0051H88.0041Z" fill="#959A9F"/>
<path fill-rule="evenodd" clip-rule="evenodd" d="M129.557 84.2348C129.557 81.3144 127.814 78.394 123.869 78.394C120.231 78.394 118.233 81.2632 118.233 84.2348C118.233 87.4114 120.385 90.2294 123.921 90.2294C126.329 90.2294 128.685 88.9997 129.147 86.8991C129.198 86.6429 128.993 86.233 128.634 86.233H126.892C126.585 86.233 126.329 86.3867 126.175 86.6429C125.663 87.3602 124.945 87.7187 123.869 87.7187C122.383 87.7187 121.359 86.5403 121.256 85.2083H128.583C129.249 85.2083 129.557 84.8497 129.557 84.2348ZM121.308 83.0051C121.41 81.7242 122.537 80.7508 123.869 80.7508C125.253 80.7508 126.38 81.7243 126.482 83.0051H121.308Z" fill="#959A9F"/>
<path fill-rule="evenodd" clip-rule="evenodd" d="M105.527 74.7049H81.8557C81.2921 74.7049 80.8822 75.1661 80.8822 75.6784L80.9333 85.0034C80.9333 85.0034 75.861 75.7811 75.6047 75.3197C75.3486 74.8587 74.7849 74.4487 74.0676 74.4487H72.1208C71.5572 74.4487 71.1474 74.9099 71.1474 75.4223V89.051C71.1474 89.6147 71.5572 90.0245 72.1208 90.0245H73.3504C73.914 90.0245 74.324 89.6147 74.324 89.051L74.2728 79.5211C74.2728 79.5211 79.3965 88.7948 79.6526 89.1535C79.9088 89.6658 80.4211 90.0245 81.1385 90.0245H82.9316C83.4952 90.0245 83.9052 89.6147 83.9052 89.051V77.0106H105.527C105.885 77.0106 106.193 76.7032 106.193 76.3445V75.3709C106.193 75.0123 105.885 74.7049 105.527 74.7049Z" fill="#959A9F"/>
<path fill-rule="evenodd" clip-rule="evenodd" d="M101.684 80.6484C102.709 80.6484 103.477 81.0071 103.785 81.6732C103.887 81.9806 104.143 82.0316 104.502 82.0316H105.937C106.141 82.0316 106.449 81.8268 106.449 81.5194C106.449 79.8799 104.451 78.394 101.684 78.394C98.8147 78.394 96.919 79.7774 96.919 81.9292C96.919 83.6201 98.2511 84.5935 99.8395 85.0547C100.608 85.2085 101.889 85.5158 102.504 85.7208C103.118 85.8745 103.733 86.0795 103.733 86.6431C103.733 87.5652 102.811 87.8215 101.735 87.8215C100.762 87.8215 99.7882 87.4114 99.5321 86.6942C99.3783 86.2843 99.0709 86.2331 98.6611 86.2331H97.2265C96.9703 86.2331 96.6629 86.4893 96.6629 86.7967V87.0016C96.6629 88.59 98.8147 90.2295 101.786 90.2295C103.836 90.2295 106.756 89.3585 106.756 86.5918C106.756 84.9522 105.68 83.825 103.887 83.3639C103.221 83.2102 101.581 82.7492 101.223 82.6978C100.557 82.4929 99.9419 82.2879 99.9419 81.7756C99.9419 80.9046 100.71 80.6484 101.684 80.6484Z" fill="#959A9F"/>
</svg>
