<svg width="199" height="117" viewBox="0 0 199 117" fill="none" xmlns="http://www.w3.org/2000/svg">
<g clip-path="url(#clip0_1362_26111)">
<path d="M165.649 70H144.176C143.52 69.94 142.99 69.4038 142.929 68.7637L142.93 59.2077C143.032 58.5509 143.55 58.07 144.223 58H165.602C166.306 58.043 166.884 58.6106 166.928 59.2997L166.923 68.8215C166.813 69.45 166.31 69.9538 165.649 69.9997L165.649 70ZM147.243 60.9462H145.933V67.055H149.864V65.896H147.275V61.0244C147.275 61.0141 147.233 60.977 147.243 60.9462ZM152.068 60.9462H150.758V67.055H152.068V60.9462ZM154.145 60.9462H152.66L155.022 67.0572L156.655 67.0249L159.002 60.9462H157.501L155.839 65.5826L154.145 60.9462ZM163.923 62.0741V60.9933L163.875 60.9462H159.594L159.546 60.9933V67.0554H163.923V65.9274H160.888V64.5178H163.859V63.3899H160.888V62.1212L160.936 62.0741H163.923H163.923Z" fill="#959A9F"/>
</g>
<g clip-path="url(#clip1_1362_26111)">
<path d="M47.9827 46C48.0156 46.0326 47.9613 46.7411 47.9827 46.911C48.0001 47.0521 48.1222 47.5024 48.1764 47.6781C48.5553 48.9097 49.5551 50.2652 50.6451 50.9852C51.1315 51.3068 51.7293 51.493 52.2912 51.6562C52.6119 51.7494 53.0217 51.903 53.356 51.9442C53.5536 51.9682 53.7823 51.927 53.9858 51.9442V56.2584C53.6544 56.2373 53.2959 56.2882 52.9694 56.2584C52.3125 56.1989 51.5558 55.9608 50.9358 55.7794C50.0182 55.5096 49.124 55.1343 48.3218 54.6293C48.2094 54.5592 48.1716 54.3874 47.9827 54.4373V63.3057C47.8179 63.7204 47.8867 64.282 47.7889 64.7438C47.2676 67.2167 45.2059 69.6522 42.7062 70.544C39.1427 71.816 34.8681 70.3702 32.9759 66.9489C32.7094 66.4977 32.4449 65.9841 32.2976 65.5108C31.1883 61.9406 32.6164 58.0853 36.0249 56.1634C36.8329 55.6325 37.6739 55.453 38.542 55.3004C39.3694 55.1544 39.7027 55.068 40.5757 55.2044C40.7094 55.2255 40.8712 55.1909 41.0116 55.2044V59.6145C40.8566 59.6673 40.8072 59.5253 40.7694 59.5185C39.259 59.2632 37.6342 59.7969 36.8484 61.1966C36.5907 61.5028 36.5423 61.8148 36.4609 62.1556C36.4522 62.1931 36.3727 62.2142 36.364 62.2516C36.3388 62.3611 36.3853 62.5175 36.364 62.6347C36.3572 62.6711 36.2719 62.6951 36.2671 62.7307C36.2458 62.9025 36.2458 63.2299 36.2671 63.4017C36.2719 63.4372 36.3572 63.4612 36.364 63.4977C36.3853 63.6148 36.3388 63.7723 36.364 63.8807C36.3727 63.9182 36.4522 63.9393 36.4609 63.9767C36.4996 64.1409 36.4938 64.186 36.5578 64.3598C36.9831 65.5233 37.8502 66.2289 39.0264 66.5169C39.0652 66.5265 39.0865 66.6061 39.1233 66.6129C39.2967 66.6436 39.5244 66.5869 39.7046 66.6129C39.7405 66.6177 39.7628 66.7002 39.8015 66.7089C40.0418 66.7645 40.1503 66.6186 40.1891 66.6129C40.3693 66.5869 40.596 66.6436 40.7704 66.6129C40.8062 66.6061 40.8285 66.5265 40.8673 66.5169C41.1618 66.4449 41.4767 66.3767 41.7383 66.2289C42.153 65.9946 43.0443 65.0884 43.2391 64.6468C43.2623 64.594 43.2168 64.5114 43.2391 64.4548C43.2614 64.3982 43.4203 64.211 43.4328 64.1668C43.4551 64.0871 43.4135 63.9662 43.4328 63.8788C43.4416 63.8404 43.5297 63.8145 43.5297 63.7828V46H47.9836H47.9827Z" fill="#959A9F"/>
<path d="M83.2253 51.9443V60.2857L87.5339 56.1635H92.7134L87.2916 61.4847L93.3916 70.1611H88.5986C88.527 70.0766 88.4223 70.0065 88.3564 69.9211C88.3419 69.9019 88.3729 69.8481 88.3564 69.8251C87.0814 68.0232 85.9255 66.3557 84.7745 64.5519C84.7038 64.4405 84.5304 64.4031 84.5808 64.2159C84.4316 64.1794 84.4228 64.2485 84.3385 64.3119C84.0799 64.5067 83.8028 64.7899 83.5644 64.9829C83.5024 65.0338 83.2253 65.2949 83.2253 65.3189V70.1601H78.7714V51.9443H83.2253Z" fill="#959A9F"/>
<path d="M127.762 51.9443V60.2857L128.053 60.1417L132.071 56.1625H137.25C137.29 56.3267 137.187 56.3526 137.105 56.4505C136.87 56.7308 136.508 57.0563 136.234 57.3135C135.147 58.3331 133.937 59.463 132.845 60.4777C132.711 60.6015 131.943 61.3263 131.925 61.3887C131.865 61.5951 132.188 61.8821 132.313 62.0597C134.043 64.5259 135.816 67.0699 137.541 69.538C137.665 69.7147 137.911 69.9124 137.929 70.1611H133.087C133.074 70.1611 133.109 70.0564 133.087 70.0171C133.014 69.8855 132.79 69.6743 132.7 69.538C131.604 67.8792 130.492 66.2299 129.311 64.5528C129.294 64.5298 129.325 64.476 129.311 64.4568C129.246 64.3714 129.14 64.3023 129.068 64.2168C128.951 64.1813 128.894 64.3023 128.826 64.3608C128.455 64.6786 128.128 65.0875 127.761 65.4158V70.1611H123.404V51.9443H127.761H127.762Z" fill="#959A9F"/>
<path d="M113.288 55.2992C113.719 55.2608 114.507 55.256 114.934 55.2992C114.969 55.303 114.994 55.3894 115.031 55.3952C115.181 55.4173 115.368 55.3702 115.516 55.3952C118.373 55.8704 120.705 58.2713 121.374 61.0034C121.951 63.366 121.416 65.5518 119.921 67.5227C113.52 74.4548 103.007 66.7298 107.722 58.7023C108.741 57.2902 110.049 56.2352 111.643 55.6822C112.209 55.4864 112.621 55.4662 113.192 55.3942C113.228 55.3894 113.254 55.3011 113.289 55.2982L113.288 55.2992ZM113.578 59.1343C113.542 59.1391 113.518 59.2236 113.481 59.2303C113.269 59.2678 113.015 59.2495 112.803 59.3263C112.032 59.6076 111.125 60.4409 110.818 61.1954C110.532 61.7916 110.343 62.5077 110.43 63.2085C110.435 63.244 110.52 63.268 110.527 63.3045C110.565 63.5138 110.546 63.7663 110.624 63.9755C110.854 64.5928 111.332 65.1861 111.834 65.5576C112.204 65.8322 112.585 66.1125 112.996 66.2286C113.074 66.2507 113.196 66.2114 113.286 66.2286C113.324 66.2363 113.347 66.3189 113.383 66.3246C113.668 66.3659 114.551 66.3659 114.836 66.3246C114.871 66.3198 114.895 66.2373 114.932 66.2286C115.021 66.2094 115.142 66.2507 115.223 66.2286C115.351 66.1941 115.748 65.9339 115.901 65.8456C116.667 65.4002 117.176 64.8587 117.499 63.9765C117.514 63.9371 117.585 63.917 117.596 63.8805C117.618 63.8008 117.577 63.6799 117.596 63.5925C117.605 63.5551 117.688 63.532 117.693 63.4965C117.733 63.2258 117.739 62.2207 117.693 61.9625C117.686 61.9269 117.606 61.9049 117.596 61.8665C117.378 60.9929 117.003 60.3977 116.289 59.9014C115.709 59.4972 115.405 59.3618 114.74 59.2303C114.702 59.2227 114.679 59.1401 114.643 59.1343C114.407 59.0998 113.819 59.1046 113.578 59.1343Z" fill="#959A9F"/>
<path d="M108.205 51.9443C108.192 52.0518 108.225 52.1814 108.205 52.2803C108.184 52.3792 108.063 52.6797 108.011 52.8553C107.742 53.7597 107.293 54.7273 107.043 55.6355C107.026 55.6998 107.055 55.8755 107.043 55.8755H103.17V70.1601H98.7166V55.8745H94.2627V51.9434H108.205V51.9443Z" fill="#959A9F"/>
<path d="M71.8004 51.9443L71.7035 52.4714C71.317 53.512 71.0244 54.5056 70.6388 55.5395C70.6194 55.5904 70.6349 55.8755 70.4934 55.8755H67.0559V70.1601H62.8442C62.8239 70.1601 62.7493 70.3089 62.602 70.2561V55.8745H58.1481V51.9434H71.7995L71.8004 51.9443Z" fill="#959A9F"/>
<path d="M77.0294 57.7925H72.6724V70.16H77.0294V57.7925Z" fill="#959A9F"/>
<path d="M74.4629 51.944C74.6373 51.9191 75.0636 51.9191 75.237 51.944C75.2729 51.9488 75.2961 52.0314 75.3339 52.04C75.4221 52.0592 75.5432 52.0179 75.6246 52.04C75.6614 52.0496 75.6817 52.1216 75.7214 52.136C75.7883 52.16 75.9724 52.2061 76.0121 52.232C76.1216 52.304 76.6651 52.8426 76.7378 52.951C76.7523 52.9722 76.7223 53.023 76.7378 53.047C76.7979 53.143 77.0149 53.4637 77.0284 53.5261C77.0604 53.672 77.0604 54.6272 77.0284 54.7721C77.0207 54.8067 76.948 54.8269 76.9316 54.8681C76.8763 55.0064 76.8075 55.2301 76.7378 55.3472C76.6971 55.4163 76.4365 55.7552 76.3987 55.7782C76.3745 55.7936 76.3221 55.7638 76.3018 55.7782C76.1991 55.8502 76.1129 55.999 76.0111 56.0662C75.9908 56.0796 75.9404 56.0508 75.9142 56.0662C75.3833 56.3772 75.0084 56.3907 74.365 56.3542C74.2875 56.2083 74.1557 56.288 74.0744 56.2582C74.0366 56.2448 74.0182 56.1804 73.9775 56.1622C73.3777 55.8953 73.1016 55.6169 72.7674 55.0601C72.6918 54.8432 72.7121 54.6166 72.6705 54.3891C72.6637 54.3526 72.5823 54.3315 72.5736 54.2931C72.5174 54.055 72.6618 53.9581 72.6705 53.9101C72.6918 53.7929 72.6463 53.6374 72.6705 53.527C72.6782 53.4925 72.7509 53.4723 72.7674 53.431C72.9369 53.0077 73.2954 52.4902 73.6868 52.233C73.7072 52.2195 73.7585 52.2483 73.7837 52.233C73.8496 52.1946 74.0327 52.0525 74.0744 52.041C74.1548 52.0189 74.2769 52.0602 74.365 52.041C74.4028 52.0323 74.4261 51.9507 74.4619 51.945L74.4629 51.944Z" fill="#959A9F"/>
</g>
<defs>
<clipPath id="clip0_1362_26111">
<rect width="24" height="12" fill="white" transform="translate(142.929 58)"/>
</clipPath>
<clipPath id="clip1_1362_26111">
<rect width="106" height="25" fill="white" transform="translate(31.9286 46)"/>
</clipPath>
</defs>
</svg>
