<svg width="199" height="117" viewBox="0 0 199 117" fill="none" xmlns="http://www.w3.org/2000/svg">
<path d="M47.7665 66.4624L47.8885 66.8067C47.8692 66.7673 47.8245 66.6468 47.7665 66.4624ZM42.1025 64.0134C42.3167 62.1638 43.044 61.1278 44.4147 60.0658C46.3758 58.6275 48.8255 59.4411 48.8255 59.4411V54.6137C49.4211 54.5985 50.0169 54.6355 50.606 54.7245V60.9352C50.606 60.9352 48.157 60.1216 46.1958 61.5599C44.8259 62.6219 44.0971 63.6586 43.8837 65.5082C43.877 66.5137 44.0577 67.827 44.8899 68.9627C44.6841 68.8526 44.4744 68.7272 44.2607 68.5864C42.4275 67.302 42.0936 65.3758 42.1025 64.0134ZM60.721 45.6893C59.372 44.1469 58.8618 42.5896 58.6773 41.4956H60.3745C60.3745 41.4956 60.0361 44.3641 62.5022 47.1849L62.5364 47.2228C61.8717 46.7866 61.2622 46.2717 60.721 45.6893Z" fill="#666D74"/>
<path d="M68.8971 50.0654V56.1511C68.8971 56.1511 66.7315 56.0634 65.1288 55.6372C62.891 55.0423 61.4527 54.1305 61.4527 54.1305C61.4527 54.1305 60.4591 53.479 60.3788 53.4344V66.0066C60.3788 66.7057 60.1951 68.4534 59.6351 69.9118C58.904 71.8187 57.7759 73.0703 57.5684 73.3254C57.5684 73.3254 56.1962 75.0181 53.7755 76.1574C51.5935 77.1852 49.6777 77.1592 49.1051 77.1852C49.1051 77.1852 45.7934 77.322 42.8134 75.3007C42.1687 74.8559 41.5671 74.3517 41.0166 73.7947L41.0314 73.8051C44.0122 75.8265 47.3231 75.6896 47.3231 75.6896C47.8965 75.6636 49.8123 75.6896 51.9936 74.6618C54.4128 73.5225 55.7865 71.8298 55.7865 71.8298C55.9917 71.5747 57.1251 70.3231 57.8532 68.4155C58.4117 66.9578 58.5969 65.2101 58.5969 64.5103V51.9388C58.6772 51.9842 59.6708 52.6357 59.6708 52.6357C59.6708 52.6357 61.1091 53.5489 63.3469 54.1424C64.9503 54.5678 67.1152 54.6563 67.1152 54.6563V49.8877C67.856 50.061 68.4874 50.1086 68.8971 50.0654Z" fill="#666D74"/>
<path d="M67.1165 49.885V54.6529C67.1165 54.6529 64.9516 54.5644 63.3482 54.139C61.1104 53.544 59.6721 52.6323 59.6721 52.6323C59.6721 52.6323 58.6785 51.9808 58.5982 51.9354V64.5047C58.5982 65.2045 58.4145 66.9522 57.8545 68.4099C57.1234 70.3174 55.9952 71.5691 55.7877 71.8242C55.7877 71.8242 54.4156 73.5168 51.9948 74.6562C49.8136 75.684 47.8978 75.6579 47.3244 75.684C47.3244 75.684 44.0135 75.8208 41.0327 73.7994L41.0178 73.789C40.7033 73.4709 40.4071 73.1352 40.1306 72.7835C39.1794 71.5728 38.5963 70.1427 38.4498 69.7344C38.4494 69.7327 38.4494 69.7309 38.4498 69.7292C38.2133 69.0189 37.718 67.3159 37.7857 65.6656C37.9054 62.7533 38.8871 60.9669 39.1467 60.5184C39.8344 59.2978 40.7287 58.2057 41.7898 57.2908C42.7256 56.5005 43.7868 55.8721 44.9297 55.4315C45.6423 55.1354 46.3849 54.9172 47.1444 54.7808C47.7 54.6815 48.2624 54.6255 48.8267 54.6135V59.4379C48.8267 59.4379 46.3769 58.6242 44.4158 60.0626C43.0452 61.1246 42.3178 62.1605 42.1036 64.0101C42.0947 65.3726 42.4286 67.2988 44.2604 68.5846C44.4736 68.7259 44.6833 68.8514 44.8895 68.9609C45.2098 69.3934 45.599 69.7703 46.0415 70.0765C47.8309 71.2582 49.3302 71.3408 51.2474 70.5733C52.5273 70.0668 53.486 68.9104 53.9404 67.6282C54.2207 66.828 54.217 66.0218 54.217 65.1896V41.4961H58.6792C58.8637 42.5901 59.3738 44.1474 60.7229 45.6898C61.2641 46.2722 61.8736 46.7871 62.5383 47.2233C62.7346 47.4353 63.7386 48.4824 65.0274 49.1265C65.6923 49.4588 66.3933 49.7133 67.1165 49.885Z" fill="#959A9F"/>
<path d="M36.6737 68.2524V68.2569L36.7835 68.5693C36.7717 68.533 36.7301 68.4224 36.6737 68.2524Z" fill="#80868B"/>
<path d="M44.9294 55.4314C43.7865 55.872 42.7253 56.5004 41.7895 57.2906C40.7283 58.2076 39.8345 59.302 39.1478 60.525C38.8883 60.9712 37.9066 62.7598 37.7869 65.6721C37.7192 67.3224 38.2145 69.0255 38.451 69.7357C38.4506 69.7374 38.4506 69.7392 38.451 69.7409C38.5997 70.1455 39.1806 71.5756 40.1318 72.7901C40.4082 73.1417 40.7045 73.4774 41.019 73.7955C40.0107 73.0982 39.1114 72.2551 38.3506 71.2937C37.4076 70.0942 36.826 68.6781 36.6743 68.2602L36.6706 68.2513V68.2453C36.4341 67.5373 35.9373 65.8328 36.0065 64.1803C36.1262 61.2679 37.1079 59.4816 37.3674 59.0331C38.0538 57.81 38.9477 56.7156 40.009 55.7987C40.9447 55.0082 42.0059 54.3798 43.1489 53.9395C43.8616 53.6434 44.6041 53.4252 45.3637 53.2888C46.5082 53.0886 47.6772 53.0713 48.8271 53.2374V54.6133C48.263 54.6236 47.7005 54.6778 47.1448 54.7754C46.3848 54.9135 45.642 55.1334 44.9294 55.4314Z" fill="#80868B"/>
<path d="M58.678 41.4971H54.2158V65.1921C54.2158 66.0243 54.2195 66.8282 53.9391 67.6307C53.4884 68.9113 52.5298 70.0678 51.2521 70.5809C49.3341 71.3514 47.8348 71.2659 46.0462 70.0842C45.6037 69.778 45.2145 69.4011 44.8942 68.9686C46.4181 69.7815 47.782 69.7673 49.4717 69.0891C50.7419 68.5722 51.7087 67.4158 52.155 66.1344C52.4361 65.3341 52.4324 64.528 52.4324 63.6965V40H58.5939C58.5939 40 58.524 40.5898 58.678 41.4971ZM67.116 48.5682V49.886C66.3925 49.7143 65.6913 49.4598 65.0262 49.1274C63.7374 48.4834 62.7334 47.4363 62.537 47.2243C62.7647 47.3739 63.0011 47.5098 63.245 47.6311C64.812 48.4135 66.3515 48.6477 67.116 48.5682Z" fill="#80868B"/>
<path d="M133.049 60.9241C133.049 61.2631 133.099 61.6001 133.197 61.9244C133.203 61.9473 133.21 61.9699 133.218 61.9921C133.456 62.7591 133.933 63.4297 134.58 63.906C135.227 64.3823 136.009 64.6391 136.812 64.6389V68.4466C134.959 68.4466 133.632 68.5113 131.613 67.317C129.307 65.9545 128.012 63.4631 128.012 60.8758C128.012 58.2089 129.46 55.5353 131.917 54.2479C133.697 53.3138 135.052 53.3071 136.812 53.3071V57.1126C135.814 57.1128 134.857 57.5094 134.151 58.2151C133.445 58.9207 133.049 59.8778 133.049 60.8758V60.9241Z" fill="#80868B"/>
<path d="M140.604 60.9241C140.604 61.2631 140.554 61.6002 140.455 61.9244C140.45 61.9474 140.443 61.9701 140.434 61.9921C140.197 62.7592 139.719 63.43 139.073 63.9063C138.426 64.3826 137.644 64.6393 136.841 64.6389V68.4466C138.694 68.4466 140.021 68.5113 142.04 67.317C144.345 65.9545 145.642 63.4631 145.642 60.8758C145.642 58.2089 144.192 55.5353 141.737 54.2479C139.956 53.3138 138.6 53.3071 136.841 53.3071V57.1126C137.839 57.1126 138.796 57.5091 139.502 58.2148C140.208 58.9205 140.604 59.8777 140.605 60.8758L140.604 60.9241Z" fill="#666D74"/>
<path d="M78.5613 49.854H92.499L91.2109 53.6893H87.5668V68.3654H83.0771V53.6893H78.5613V49.854ZM115.501 49.854V53.6893H120.017V68.3654H124.503V53.6893H128.148L129.439 49.854H115.501ZM95.5311 54.2247C95.9604 54.2247 96.3801 54.0974 96.7371 53.8589C97.0941 53.6203 97.3724 53.2813 97.5367 52.8846C97.701 52.4879 97.744 52.0515 97.6602 51.6304C97.5764 51.2092 97.3697 50.8224 97.0661 50.5188C96.7625 50.2152 96.3757 50.0085 95.9546 49.9247C95.5335 49.841 95.097 49.8839 94.7003 50.0483C94.3036 50.2126 93.9646 50.4908 93.7261 50.8478C93.4875 51.2048 93.3602 51.6245 93.3602 52.0539C93.3602 52.6296 93.5889 53.1818 93.996 53.5889C94.4031 53.996 94.9553 54.2247 95.5311 54.2247ZM93.3565 68.3654H97.757V55.759H93.3565V68.3654ZM113.585 54.1161H108.44L104.006 58.5553V49.8681H99.6348L99.6199 68.3654H104.035V63.5455L105.41 62.3013L109.693 68.3654H114.412L108.207 59.4968L113.585 54.1161ZM155.793 59.4968L161.174 54.1161H156.029L151.594 58.5553V49.8681H147.223L147.209 68.3654H151.623V63.5455L153.001 62.3013L157.286 68.3654H162L155.793 59.4968ZM144.481 60.8756C144.481 65.056 141.047 68.445 136.81 68.445C132.573 68.445 129.14 65.056 129.14 60.8756C129.14 56.6953 132.574 53.3063 136.81 53.3063C141.046 53.3063 144.483 56.696 144.483 60.8756H144.481ZM140.573 60.8756C140.573 60.1314 140.353 59.4038 139.939 58.785C139.526 58.1661 138.938 57.6838 138.25 57.399C137.563 57.1141 136.806 57.0396 136.076 57.1848C135.346 57.33 134.675 57.6884 134.149 58.2147C133.623 58.741 133.265 59.4115 133.119 60.1415C132.974 60.8715 133.049 61.6281 133.333 62.3157C133.618 63.0033 134.101 63.5911 134.719 64.0046C135.338 64.4181 136.066 64.6388 136.81 64.6388C137.304 64.6391 137.794 64.5419 138.251 64.3529C138.708 64.1639 139.123 63.8868 139.472 63.5373C139.822 63.1878 140.099 62.7729 140.288 62.3162C140.478 61.8595 140.575 61.37 140.575 60.8756H140.573Z" fill="#959A9F"/>
</svg>
