<svg width="199" height="117" viewBox="0 0 199 117" fill="none" xmlns="http://www.w3.org/2000/svg">
<path d="M43.2521 76.8804H46.1948C46.2658 76.8804 46.3125 76.8334 46.3125 76.7621V75.3372C46.3125 75.2658 46.2658 75.2189 46.1948 75.2189H44.8477C44.7767 75.2189 44.7299 75.1718 44.7299 75.1005V73.4974C44.7299 73.4261 44.7767 73.379 44.8477 73.379H46.0883C46.1593 73.379 46.2061 73.3321 46.2061 73.2607V71.8488C46.2061 71.7774 46.1593 71.7305 46.0883 71.7305H44.8477C44.7767 71.7305 44.7299 71.6834 44.7299 71.6121V70.4596C44.7299 70.3056 44.8122 70.2229 45.0607 70.2229C45.3559 70.2229 45.7818 70.2828 46.1125 70.4839C46.2432 70.5552 46.3142 70.5309 46.3142 70.4011V68.691C46.3142 68.6197 46.2673 68.5728 46.1964 68.5728H43.0166C42.9101 68.5728 42.8504 68.644 42.8746 68.751C42.9811 69.2503 43.0166 69.5339 43.0166 70.5552V76.6454C43.0166 76.7994 43.0989 76.882 43.2521 76.882V76.8804Z" fill="#959A9F"/>
<path d="M48.1946 76.9982C49.5175 76.9982 50.2855 75.9543 50.2855 74.5407C50.2855 73.4952 49.8483 72.8662 49.34 72.273L49.1981 72.106C48.7721 71.6198 48.5012 71.2744 48.5012 70.8238C48.5012 70.5385 48.6431 70.2418 48.9738 70.2418C49.269 70.2418 49.4465 70.3958 49.6821 70.7412C49.8483 70.9908 49.8837 71.0378 49.9773 71.0378C50.0837 71.0378 50.1193 70.9535 50.1193 70.8238V69.4119C50.1193 69.1979 50.0837 69.0082 49.9305 68.8299C49.7176 68.6046 49.3272 68.4507 48.8206 68.4507C47.4977 68.4507 46.7523 69.5076 46.7523 70.9324C46.7523 71.9893 47.2492 72.6782 47.7332 73.2359L47.8042 73.3185C48.1946 73.7691 48.5253 74.1371 48.5253 74.5894C48.5253 74.8617 48.3947 75.207 48.0284 75.207C47.6622 75.207 47.438 74.9347 47.1896 74.531C47.0476 74.2815 47.0234 74.21 46.9169 74.21C46.7991 74.21 46.7636 74.3284 46.7636 74.4468V76.037C46.7636 76.2509 46.7991 76.4406 46.9524 76.6059C47.1653 76.8426 47.5751 76.9982 48.193 76.9982H48.1946Z" fill="#959A9F"/>
<path d="M51.9453 76.8802H53.186C53.3393 76.8802 53.4232 76.7975 53.4232 76.6434V70.3864C53.4232 70.3037 53.4345 70.2323 53.5764 70.2323C53.8119 70.2323 54.0023 70.3621 54.3685 70.5404C54.4992 70.6003 54.5685 70.5404 54.5685 70.4107V68.6891C54.5685 68.6178 54.5217 68.5708 54.4508 68.5708H50.6821C50.6111 68.5708 50.5643 68.6178 50.5643 68.6891V70.4107C50.5643 70.542 50.6354 70.6003 50.766 70.5404C51.1322 70.3621 51.321 70.2323 51.5582 70.2323C51.7002 70.2323 51.7114 70.3037 51.7114 70.3864V76.6434C51.7114 76.7975 51.7937 76.8802 51.947 76.8802H51.9453Z" fill="#959A9F"/>
<path d="M141.696 76.8802H142.795C142.948 76.8802 143.03 76.7975 143.03 76.6434V68.8076C143.03 68.6535 142.948 68.5708 142.795 68.5708H141.791C141.649 68.5708 141.602 68.6308 141.507 68.8317C141.247 69.3894 140.975 69.8531 140.586 70.3037C140.444 70.4707 140.42 70.5647 140.42 70.803V72.4775C140.42 72.6088 140.467 72.6785 140.537 72.6785C140.655 72.6785 140.738 72.5245 141.068 72.0252L141.317 71.6572C141.364 71.5859 141.388 71.5746 141.412 71.5746C141.459 71.5746 141.459 71.6346 141.459 71.7172V76.6434C141.459 76.7975 141.541 76.8802 141.694 76.8802H141.696Z" fill="#959A9F"/>
<path d="M145.559 68.4507C144.153 68.4507 143.514 69.5431 143.514 71.336C143.514 72.9619 144.046 73.9945 145.061 73.9945C145.438 73.9945 145.734 73.8275 145.925 73.6021C145.996 73.5195 146.067 73.5066 146.067 73.6978C146.067 74.7661 145.725 75.3837 145.156 75.3837C144.79 75.3837 144.612 75.1471 144.353 74.7434C144.258 74.6008 144.187 74.518 144.093 74.518C143.987 74.518 143.94 74.6251 143.94 74.779V76.0969C143.94 76.3693 144 76.5606 144.2 76.7145C144.4 76.8686 144.779 76.9998 145.274 76.9998C146.941 76.9998 147.731 75.4923 147.731 72.3589C147.731 69.6989 147.058 68.4539 145.557 68.4539L145.559 68.4507ZM145.191 71.2517C145.191 70.0295 145.358 69.7555 145.583 69.7555C145.818 69.7555 145.984 70.0408 145.984 71.2517C145.984 72.4627 145.818 72.7479 145.583 72.7479C145.346 72.7479 145.191 72.4756 145.191 71.2517Z" fill="#959A9F"/>
<path d="M148.553 76.8804H149.759C149.972 76.8804 150.03 76.8205 150.03 76.6081C150.018 74.4229 150.573 72.4048 151.576 70.3396C151.683 70.1256 151.718 69.9716 151.718 69.7463V68.8093C151.718 68.6554 151.636 68.5728 151.483 68.5728H148.151C147.998 68.5728 147.916 68.6554 147.916 68.8093V70.0673C147.916 70.2213 147.998 70.304 148.151 70.304H149.723C149.972 70.304 149.936 70.4223 149.841 70.6006C148.813 72.5475 148.316 74.4716 148.258 76.5838C148.247 76.8205 148.329 76.8804 148.553 76.8804Z" fill="#959A9F"/>
<path d="M153.926 76.9982C155.333 76.9982 155.971 75.9057 155.971 74.1127C155.971 72.487 155.439 71.4544 154.423 71.4544C154.046 71.4544 153.751 71.6213 153.56 71.8466C153.489 71.9293 153.418 71.9423 153.418 71.7511C153.418 70.6828 153.76 70.0651 154.328 70.0651C154.694 70.0651 154.872 70.3018 155.131 70.7071C155.226 70.8497 155.297 70.9324 155.392 70.9324C155.498 70.9324 155.545 70.8254 155.545 70.6714V69.3535C155.545 69.0812 155.485 68.8899 155.285 68.7359C155.084 68.5819 154.705 68.4507 154.21 68.4507C152.544 68.4507 151.753 69.9582 151.753 73.0916C151.753 75.7516 152.428 76.9966 153.928 76.9966L153.926 76.9982ZM153.501 74.1971C153.501 72.9862 153.667 72.7009 153.902 72.7009C154.138 72.7009 154.293 72.9733 154.293 74.1971C154.293 75.421 154.126 75.6934 153.902 75.6934C153.667 75.6934 153.501 75.408 153.501 74.1971Z" fill="#959A9F"/>
<path d="M65.9507 46.6586C65.3215 46.9261 64.5971 47.072 63.8034 47.072C63.0097 47.072 62.2837 46.9277 61.6545 46.6619C61.1221 46.4365 60.6978 46.7039 60.6978 47.2827V64.6859C60.6978 65.0668 61.0044 65.3749 61.3835 65.3749H66.2217C66.6009 65.3749 66.9074 65.0668 66.9074 64.6859V47.2794C66.9074 46.6991 66.4814 46.4317 65.9491 46.6586H65.9507Z" fill="#959A9F"/>
<path d="M63.7774 40C61.743 40 60.3976 41.1039 60.4524 42.926C60.5073 44.6653 61.772 45.8519 63.8048 45.8519C65.8375 45.8519 67.1297 44.6653 67.1297 42.926C67.1297 41.1866 65.8117 40 63.7774 40Z" fill="#959A9F"/>
<path d="M130.046 46.6586C129.417 46.9261 128.693 47.072 127.899 47.072C127.106 47.072 126.379 46.9277 125.75 46.6619C125.218 46.4365 124.794 46.7039 124.794 47.2827V64.6859C124.794 65.0668 125.1 65.3749 125.479 65.3749H130.318C130.697 65.3749 131.003 65.0668 131.003 64.6859V47.2794C131.003 46.6991 130.577 46.4317 130.045 46.6586H130.046Z" fill="#959A9F"/>
<path d="M127.87 40C125.837 40 124.49 41.1039 124.545 42.926C124.6 44.6653 125.865 45.8519 127.898 45.8519C129.93 45.8519 131.223 44.6653 131.223 42.926C131.223 41.1866 129.903 40 127.87 40Z" fill="#959A9F"/>
<path d="M138.119 40.3701H132.743C132.271 40.3701 131.971 40.7835 132.075 41.2147C132.43 42.6784 132.595 44.4453 132.595 46.8315V64.6838C132.595 65.0648 132.901 65.3727 133.281 65.3727H138.119C138.498 65.3727 138.804 65.0648 138.804 64.6838V41.0607C138.804 40.6797 138.498 40.3718 138.119 40.3718V40.3701Z" fill="#959A9F"/>
<path d="M59.3821 40.3701H52.7047C52.2675 40.3701 51.9771 40.7478 52.1158 41.1774C52.5691 42.5714 52.5289 43.818 52.4385 44.9819L51.3947 58.6924C51.364 59.0896 50.8768 59.0896 50.8478 58.6924L49.8153 44.9819C49.7249 43.818 49.6846 42.573 50.1379 41.1774C50.2783 40.7478 49.9879 40.3701 49.5491 40.3701H42.691C42.1796 40.3701 41.8585 40.8451 42.0618 41.3314C42.67 42.7903 42.9652 44.2233 43.1378 45.4228L45.9788 64.4925C46.0547 64.9983 46.4871 65.3727 46.9969 65.3727H55.0649C55.5747 65.3727 56.0071 64.9983 56.0828 64.4925L58.9351 45.4228C59.1094 44.2233 59.4047 42.7903 60.0112 41.3314C60.2145 40.8434 59.8919 40.3701 59.3821 40.3701Z" fill="#959A9F"/>
<path d="M155.926 64.5315L150.571 54.4423C150.444 54.204 150.379 53.9771 150.379 53.7793C150.379 53.1991 150.784 52.6932 151.854 52.6932C152.412 52.6932 152.832 52.7499 153.388 52.87C153.744 52.9461 154.079 52.7354 154.079 52.3091V46.9954C154.079 46.3599 153.461 46.2416 152.75 46.2416C148.881 46.2416 147.734 49.0265 147.488 51.9427C147.414 52.8245 147.195 53.2006 146.809 53.2006C146.684 53.2006 146.603 53.1212 146.603 52.9412V41.0625C146.603 40.6815 146.297 40.3735 145.918 40.3735H140.542C140.069 40.3735 139.769 40.7869 139.874 41.218C140.229 42.6818 140.394 44.4488 140.394 46.8349V64.6871C140.394 65.0681 140.7 65.3761 141.079 65.3761H145.918C146.297 65.3761 146.603 65.0681 146.603 64.6871V58.7364C146.603 58.5289 146.819 58.4624 146.89 58.6602L149.15 64.7553C149.276 65.128 149.625 65.3778 150.017 65.3778H155.423C155.884 65.3778 156.131 64.9157 155.928 64.5332L155.926 64.5315Z" fill="#959A9F"/>
<path d="M78.8772 46.2393C77.2203 46.2393 75.8216 46.6623 74.681 47.8278C74.573 47.938 74.3874 47.8603 74.3874 47.7062V47.2864C74.3874 46.9055 74.0809 46.5974 73.7017 46.5974H68.6457C68.1714 46.5974 67.873 47.014 67.9794 47.4469C68.3343 48.909 68.4972 50.6744 68.4972 53.0588V64.6848C68.4972 65.0657 68.8037 65.3738 69.1829 65.3738H74.0212C74.4003 65.3738 74.7068 65.0657 74.7068 64.6848V52.3408C74.7068 51.4638 75.1747 50.9596 75.9168 50.9596C76.604 50.9596 77.0429 51.4622 77.0429 52.3408V64.6848C77.0429 65.0657 77.3494 65.3738 77.7285 65.3738H82.5668C82.9459 65.3738 83.2524 65.0657 83.2524 64.6848V50.9337C83.2524 47.9153 81.5117 46.2393 78.874 46.2393H78.8772Z" fill="#959A9F"/>
<path d="M118.986 46.2393C117.258 46.2393 115.766 46.9233 114.798 47.9284C114.684 48.0467 114.53 48.0385 114.44 47.8927C113.769 46.8179 112.59 46.2393 110.944 46.2393C109.298 46.2393 107.938 46.9022 106.951 47.857C106.843 47.9624 106.661 47.8846 106.661 47.7322V47.288C106.661 46.9071 106.354 46.5991 105.975 46.5991H100.919C100.445 46.5991 100.146 47.0157 100.253 47.4485C100.608 48.9106 100.771 50.676 100.771 53.0604V64.6865C100.771 65.0674 101.077 65.3753 101.456 65.3753H106.294C106.674 65.3753 106.98 65.0674 106.98 64.6865V52.3392C106.98 51.5254 107.266 50.9628 108.006 50.9628C108.693 50.9628 108.905 51.527 108.905 52.344V64.688C108.905 65.069 109.211 65.377 109.59 65.377H114.429C114.808 65.377 115.114 65.069 115.114 64.688V52.3083C115.122 51.5157 115.41 50.9646 116.14 50.9646C116.828 50.9646 117.039 51.5286 117.039 52.3456V64.6897C117.039 65.0706 117.346 65.3786 117.725 65.3786H122.563C122.942 65.3786 123.249 65.0706 123.249 64.6897V50.9385C123.249 48.0321 121.764 46.2441 118.985 46.2441L118.986 46.2393Z" fill="#959A9F"/>
<path d="M92.5949 46.2393C90.4072 46.2393 87.8599 46.7109 85.8272 48.3968C85.6158 48.5735 85.4916 48.8345 85.4916 49.1101V53.3279C85.4916 53.8321 86.0627 54.1109 86.4563 53.7705C88.4875 52.0133 90.4831 50.9871 91.9222 50.9871C92.6917 50.9871 93.1595 51.1963 93.1595 51.8009C93.1595 52.7573 91.8125 53.1416 89.3248 54.2714C86.9452 55.3509 84.3381 56.9412 84.3381 60.5691C84.3381 63.8548 86.3741 65.6866 89.0376 65.6866C91.1591 65.6866 92.29 64.9394 93.1208 63.9813C93.2241 63.8613 93.4209 63.9359 93.4209 64.0947V64.6848C93.4209 65.0657 93.7274 65.3738 94.1066 65.3738H98.5463C98.9255 65.3738 99.232 65.0657 99.232 64.6848V52.5676C99.232 48.225 97.1073 46.2393 92.5949 46.2393ZM93.3032 59.0616C93.3032 60.3875 92.6433 61.1105 91.7431 61.1105C91.0832 61.1105 90.4831 60.6582 90.4831 59.7553C90.4831 58.3028 91.9286 57.4842 93.0773 56.4906C93.1661 56.4144 93.3032 56.4776 93.3032 56.5959V59.0616Z" fill="#959A9F"/>
<path d="M152.464 43.7429C151.466 43.7429 150.713 43.0298 150.713 41.9955C150.713 40.9613 151.445 40.248 152.464 40.248C153.481 40.248 154.213 40.9986 154.213 41.9955C154.213 42.9924 153.481 43.7429 152.464 43.7429ZM152.464 40.5691C151.627 40.5691 151.079 41.1623 151.079 41.9955C151.079 42.8287 151.627 43.422 152.464 43.422C153.299 43.422 153.847 42.8287 153.847 41.9955C153.847 41.1623 153.299 40.5691 152.464 40.5691Z" fill="#959A9F"/>
<path d="M152.959 42.2946C152.954 42.2865 152.959 42.2752 152.967 42.2703C153.196 42.1601 153.32 41.9413 153.32 41.6657C153.32 41.5036 153.265 40.9751 152.564 40.9751H151.798C151.758 40.9751 151.745 41.0011 151.758 41.0318C151.795 41.1259 151.813 41.1842 151.813 41.395V42.8733C151.813 42.8992 151.834 42.9204 151.859 42.9204H152.234C152.259 42.9204 152.28 42.8992 152.28 42.8733V42.3692C152.28 42.3594 152.288 42.3514 152.298 42.3514H152.459C152.467 42.3514 152.475 42.3562 152.48 42.3643L152.733 42.8895C152.742 42.9074 152.759 42.9204 152.781 42.9204H153.249C153.288 42.9204 153.304 42.8879 153.286 42.8555L152.959 42.2914V42.2946ZM152.517 42.0028H152.298C152.288 42.0028 152.28 41.9947 152.28 41.985V41.3819C152.28 41.3723 152.288 41.3641 152.298 41.3641H152.517C152.802 41.3641 152.846 41.5619 152.846 41.6786C152.846 41.7759 152.813 42.0044 152.517 42.0044V42.0028Z" fill="#959A9F"/>
</svg>
