<?xml version="1.0" encoding="UTF-8"?>
<svg id="Layer_2" xmlns="http://www.w3.org/2000/svg" viewBox="0 0 1080 450.75">
  <defs>
    <style>
      .cls-1 {
        fill: #fa4616;
      }
    </style>
  </defs>
  <g id="Layer_1-2" data-name="Layer_1">
    <g>
      <path class="cls-1" d="M584.8,0c-.01,25.03-.05,50.06-.01,75.1,0,1.96-.48,3.46-1.78,4.97-2.05,2.37-3.79,5.02-5.63,7.51,1.38,2.13,2.19,1.02,3.02-.12,5.26-7.24,11.27-13.81,19.04-18.34,19.58-11.41,39.8-13.22,59.73-1.46,14.95,8.82,22.87,22.97,23.54,40.12.84,21.31.34,42.67.37,64.01.01,7.73.12,15.46-.2,23.18-.32,7.89-4.69,13.28-11.77,16.38-9.2,4.04-19,4.65-29.37,4.72,0-1.27,0-2.36,0-3.45,0-30.57-.03-61.13.02-91.7.01-8.16-2.32-15.27-8.92-20.44-6.18-4.84-13.45-5.18-20.85-4.35-16.03,1.79-27.33,15.59-27.25,32.23.09,20.64.02,41.28.02,61.92,0,12.67-4.43,18.96-16.51,22.75-7.93,2.49-16.15,3.16-24.77,2.97-.05-1.14-.13-2.16-.13-3.17,0-60.69,0-121.39,0-182.08,0-13.03,7.38-23.44,19.8-27.49,3.97-1.3,8.18-1.87,12.28-2.79.5-.11.98-.31,1.48-.47,2.64,0,5.27,0,7.91,0Z"/>
      <path class="cls-1" d="M1080,400.53c-.77,3.23-1.31,6.53-2.36,9.67-4.62,13.77-14.03,23.5-26.51,30.41-12.13,6.72-25.21,9.84-39.1,10.04-11.52.17-22.79-.85-33.67-4.82-14.64-5.33-26.8-13.76-34.6-27.64-4.27-7.61-6-15.85-6.01-24.5-.01-12.73-.09-25.46.02-38.19.2-23.24,10.95-40.57,31.28-51.07,26.07-13.48,52.96-13.44,79.23-.36,17.53,8.73,28.4,23.06,31.29,42.85.05.32.29.61.44.91,0,17.57,0,35.13,0,52.7ZM1038.64,374c0-5.62.04-11.24,0-16.86-.11-13.09-6.6-21.77-19.18-25.33-6.09-1.73-12.36-1.67-18.56-.55-13.52,2.43-21.65,12.28-21.65,26.03,0,11.59-.14,23.18.05,34.77.15,9.38,4.56,16.31,13.31,19.99,9.78,4.11,19.94,4.11,29.92,1.08,10.78-3.27,15.94-10.72,16.1-22.01.08-5.71.01-11.42.02-17.12Z"/>
      <path class="cls-1" d="M735.1,0c2.8.94,5.71,1.63,8.37,2.88,9.42,4.41,13.96,12.83,13.27,24.14-.54,8.83-7.01,17.03-15.97,19.98-10.6,3.49-20.66,2.62-29.53-4.61-12.87-10.49-10.37-31.77,4.56-39.15,2.77-1.37,5.83-2.17,8.76-3.24,3.52,0,7.03,0,10.55,0Z"/>
      <path class="cls-1" d="M181.87.83c1.4,0,2.43,0,3.47,0,38.67,0,77.34,0,116.02,0,20.43,0,37.74,14.28,42.04,34.25,6.06,28.2,12.36,56.35,18.53,84.52,7.21,32.89,14.4,65.77,21.59,98.66,7.22,32.98,14.42,65.95,21.64,98.93,6.32,28.86,12.64,57.72,18.97,86.58,3.04,13.87,6.1,27.74,9.15,41.61.2.92.34,1.85.56,3.09-1.33,0-2.37,0-3.41,0-38.23,0-76.47-.3-114.7.12-20.48.23-39.34-13.8-43.75-34.94-5.17-24.8-10.77-49.52-16.19-74.27-7.22-32.97-14.45-65.95-21.66-98.92-6.35-29.04-12.67-58.08-19.03-87.11-7.62-34.77-15.27-69.53-22.89-104.3-3.36-15.33-6.69-30.67-10.03-46-.13-.59-.18-1.2-.34-2.22Z"/>
      <path class="cls-1" d="M188.27,153.34c-1.29,0-2.24,0-3.19,0-38.48,0-76.97,0-115.45,0-21.44,0-38.46-13.37-43.21-34.17-6.42-28.11-12.66-56.26-18.98-84.4C5.02,23.99,2.6,13.22.19,2.44c-.09-.41-.1-.83-.19-1.61,1.09,0,2.03,0,2.97,0,39.1,0,78.2-.02,117.29,0,19.08.01,36.77,13.82,40.98,32.25,8.07,35.37,15.94,70.79,23.89,106.19,1.02,4.53,2.02,9.06,3.14,14.06Z"/>
      <path class="cls-1" d="M973.18,219.17c.83,6.1,2.68,11.43,6.79,15.72,4.38,4.57,9.93,6.76,16.06,7.78,8.36,1.39,16.66,1.35,24.68-1.63,9.26-3.45,12.95-11.18,14.39-20.16.74-4.65.41-9.46.8-14.18.1-1.2.86-2.49,1.67-3.45,1.18-1.39,2.73-2.47,4.02-3.78.32-.33.25-1.04.36-1.57-.52.06-1.18-.07-1.53.21-14.31,11.4-30.92,15.79-48.8,14.64-21.2-1.36-37.96-10.71-48.1-30.09-3.6-6.87-5.37-14.31-5.43-22.04-.13-15.9-.38-31.8.05-47.69.5-18.18,9.33-32.18,24.04-42.29,18.3-12.58,38.05-13.98,58.38-5.43,9.01,3.79,15.88,10.56,21.92,18.12.49.61.98,1.23,2.24,1.8-.03-.68.17-1.49-.14-2.01-.81-1.35-1.82-2.58-2.78-3.84-2.4-3.14-2.44-5.68-.24-9.07,2.33-3.59,5.86-5.53,9.72-6.85,8.51-2.91,17.35-3.32,26.63-3.28,0,1.08,0,2,0,2.93,0,48.04.28,96.09-.11,144.13-.22,27.1-12.18,47.9-36.47,60.82-11.63,6.19-24.27,8.41-37.42,8.21-14.6-.23-28.7-2.57-41.61-9.75-8.51-4.74-15.54-11.04-17.93-20.98-.74-3.09-.93-6.45-.66-9.63.59-6.85,4.43-11.44,10.89-13.86,5.93-2.22,12.07-2.87,18.6-2.8ZM1036.76,136.63c0-6.14-.14-12.29.03-18.43.26-8.97-4.1-15.04-11.76-18.93-9.47-4.81-19.45-4.82-29.51-2.25-10.05,2.57-15.96,10.06-16.06,20.46-.12,12.81-.1,25.63,0,38.45.07,9.02,4.82,16.16,12.8,19.05,9.9,3.59,19.98,3.92,29.87.07,8.54-3.32,15.3-10,14.69-21.04-.32-5.78-.06-11.58-.06-17.38Z"/>
      <path class="cls-1" d="M882.32,310.75c0-1.03.19-1.75-.05-2.28-.27-.6-.84-1.19-1.43-1.5-4.19-2.21-4.57-5.83-4.47-10.12.26-11.06.32-22.14.03-33.19-.37-13.79,7.17-21.76,18.43-25.73,7.52-2.65,15.37-3.36,23.72-3.18,0,1.27,0,2.37,0,3.47,0,61.39-.02,122.78.01,184.17,0,12.02-5.88,20.13-16.57,24.85-6.76,2.99-14,3.78-21.66,3.19,0-5.24-.33-10.43.17-15.54.18-1.9,2.4-3.55,3.49-5.43.63-1.07.87-2.37,1.28-3.57-.92.77-1.98,1.43-2.74,2.34-6.35,7.64-13.33,14.61-22.74,18.3-4.6,1.8-9.56,3.12-14.47,3.66-16.96,1.85-33-.64-46.7-11.8-11.98-9.75-19.13-22.34-19.63-37.83-.57-17.89-.58-35.82-.13-53.71.45-18.1,9.21-31.89,24.21-41.73,21.77-14.28,52.94-13.57,74.08,1.54,1.63,1.17,3.16,2.49,5.16,4.08ZM877.07,372.82c0-6.67.03-13.34-.02-20.01-.01-1.74-.07-3.52-.45-5.21-1.58-7.06-6.47-11.31-12.74-14.07-9.07-3.99-18.54-3.87-27.87-1.38-10.48,2.79-15.78,9.64-15.88,19.92-.14,13.78-.11,27.56,0,41.34.06,7.39,2.71,13.74,9.48,17.35,3.41,1.82,7.32,3.05,11.15,3.67,8.34,1.34,16.67,1.06,24.44-2.82,7.59-3.79,12.11-9.6,11.92-18.51-.14-6.76-.03-13.52-.03-20.28Z"/>
      <path class="cls-1" d="M618.56,374.33c0-6.06,0-12.12,0-18.18,0-26.02,12.92-43.86,36.04-54.14,23.1-10.27,46.87-10.11,70.07-.09,19.07,8.23,31.56,22.44,35.38,43.36.52,2.83.75,5.75.77,8.63.08,13-.08,25.99.06,38.99.21,19.99-8.92,34.82-25.29,45.43-12.75,8.27-26.96,11.97-42.16,12.29-11.78.25-23.33-.74-34.47-4.83-15.17-5.58-27.64-14.43-35.29-29.1-3.43-6.59-4.99-13.65-5.1-21.03-.1-7.11-.02-14.23-.02-21.34ZM719.32,373.99c0-6.23.14-12.47-.04-18.7-.24-8.34-3.7-15.08-10.75-19.73-8.3-5.47-17.54-5.86-26.91-4.26-13.57,2.32-21.5,12.03-21.51,25.73,0,11.77-.06,23.53.02,35.3.07,9.29,4.51,15.96,12.96,19.62,9.92,4.29,20.28,4.24,30.41,1.1,10.7-3.32,15.81-11,15.82-22.2,0-5.62,0-11.24,0-16.86Z"/>
      <path class="cls-1" d="M817.85,59.95c0,5.96.06,11.32-.06,16.67-.02.93-.64,1.94-1.22,2.74-1.99,2.77-4.08,5.47-6.26,8.36.78.57,1.3.96,1.91,1.41.35-.47.6-.81.85-1.15,15.74-21.96,37.25-30.91,63.73-26.98,20.62,3.06,36.91,20.16,40.14,40.8.69,4.4,1.05,8.89,1.07,13.34.1,25.02-.12,50.05.11,75.07.13,14.62-7.05,20.16-17.49,23.12-7.7,2.19-15.64,2.94-24.03,2.64,0-1.3,0-2.41,0-3.53,0-30.29.08-60.59-.1-90.88-.03-4.2-.68-8.67-2.24-12.54-3.17-7.91-9.64-12.13-18.06-13-15.17-1.56-27.99,4.56-33.87,18.9-1.84,4.5-2.56,9.72-2.63,14.62-.28,20.37-.12,40.74-.12,61.11,0,12.16-3.87,18.01-15.25,22.02-8.28,2.91-16.96,3.44-26,3.35-.08-1.06-.2-1.98-.2-2.9,0-40.13,0-80.26,0-120.38,0-9.19,2.02-17.62,9.29-23.97,5.78-5.04,12.78-7.2,20.21-8.13,3.28-.41,6.6-.47,10.21-.71Z"/>
      <path class="cls-1" d="M517.38,328.24c-10.7,0-21.04,0-31.77,0,.09-10.3.89-20.04,9.53-27.07,3.34-2.72,7.32-3.69,11.55-3.73,3.6-.03,7.19,0,11.2,0,0-1.08,0-2.01,0-2.94,0-6.67-.05-13.35.01-20.02.11-11.21,4.41-17.53,14.93-21.33,8.09-2.93,16.56-3.52,25.4-3.39,0,15.92,0,31.59,0,47.66,13.49,0,26.69,0,40.12,0-.14,7.81-.68,15.12-4.67,21.65-3.45,5.65-9.06,7.91-15.26,8.64-4.34.51-8.76.4-13.15.53-2.01.06-4.01,0-6.38,0,0,1.12,0,2.05,0,2.98,0,22.13,0,44.26,0,66.39,0,1.23,0,2.47.19,3.67,1.64,10.98,6.57,13.7,17.55,13.77,6.77.05,13.2-1.81,19.18-5.01,1.58-.85,2.51-.75,3.76.7,8.9,10.28,7.09,24.34-4.3,32.35-5.34,3.76-11.27,6.23-17.73,6.93-9.28,1-18.55,1.14-27.73-1.27-13.78-3.62-22.59-12.58-27.9-25.39-3.2-7.72-4.54-15.84-4.55-24.16-.05-22.48-.02-44.96-.02-67.45,0-1.04,0-2.09,0-3.52Z"/>
      <path class="cls-1" d="M432.27,93.29c-10.78,0-21.21,0-32.04,0,.35-9.87,1.05-19.32,9-26.35,3.29-2.92,7.25-4.19,11.63-4.19,3.86,0,7.72,0,12.03,0,0-1.07,0-1.99,0-2.91,0-6.94.06-13.88-.01-20.81-.1-9.79,4.2-16.6,13.41-20.19,8.5-3.32,17.38-3.8,26.65-3.91,0,15.99,0,31.74,0,47.77,13.42,0,26.55,0,40.06,0,.1,8.26-.49,16.08-5.37,22.79-4.25,5.84-10.71,7.39-17.45,7.72-5.41.26-10.85.05-16.57.05,0,1.23,0,2.17,0,3.11,0,21.08-.04,42.15.04,63.23.01,3.49.33,7.03,1,10.45,1.08,5.46,4.66,8.71,10.15,9.69,8.71,1.56,16.92-.17,24.81-3.94,3.53-1.68,3.53-1.67,5.86,1.56,7.96,11.04,5.13,24.41-6.63,31.83-9.32,5.88-19.62,7.27-30.33,6.82-9.62-.41-18.88-2.27-26.89-7.95-10.49-7.44-15.72-18.2-18.07-30.46-.9-4.71-1.19-9.59-1.22-14.39-.12-22.13-.05-44.26-.05-66.39,0-1.04,0-2.08,0-3.52Z"/>
      <path class="cls-1" d="M750.5,60.11v3.8c0,42.15,0,84.3,0,126.45,0,12.64-4.3,18.62-16.28,22.65-6.03,2.03-18.46,3.49-25.03,2.86-.06-.86-.19-1.78-.19-2.7,0-42.59-.02-85.18,0-127.76,0-12.48,5.58-19.44,17.71-22.72,7.7-2.08,15.51-2.62,23.78-2.58Z"/>
    </g>
  </g>
</svg>